<?xml version="1.0" encoding="UTF-8"?>
<!DOCTYPE svg PUBLIC "-//W3C//DTD SVG 1.1//EN" "http://www.w3.org/Graphics/SVG/1.1/DTD/svg11.dtd">
<!-- Creator: CorelDRAW -->
<svg xmlns="http://www.w3.org/2000/svg" xml:space="preserve" width="6.0704mm" height="5.5912mm" version="1.1" style="shape-rendering:geometricPrecision; text-rendering:geometricPrecision; image-rendering:optimizeQuality; fill-rule:evenodd; clip-rule:evenodd"
viewBox="0 0 607.04 559.12"
 xmlns:xlink="http://www.w3.org/1999/xlink"
 xmlns:xodm="http://www.corel.com/coreldraw/odm/2003">
 <defs>
  <style type="text/css">
   <![CDATA[
    .fil0 {fill:#031020}
   ]]>
  </style>
 </defs>
 <g id="Capa_x0020_1">
  <metadata id="CorelCorpID_0Corel-Layer"/>
  <g id="_1900718262688">
   <path class="fil0" d="M413.29 534.08c1.07,-1.32 33.47,-22.56 43.54,-30.96 21.06,-17.57 27.73,-28.45 36.9,-36.37 0.24,-0.21 0.68,-0.52 0.88,-0.69 0.21,-0.17 0.59,-0.48 0.92,-0.67l16.87 -24.64c33.44,-49.82 48.43,-110.2 44.94,-170.99 -0.96,-16.8 -7.2,-58.9 -14.53,-71.53 -9.99,4.77 -37.02,31.62 -47.16,40.06 4.45,31.24 8.44,55.77 2.09,88.46 -5.19,26.69 -13.57,50.25 -25.7,70.98 -23.27,39.75 -56.26,72.74 -101.81,92.97 -115.46,51.28 -226.04,-4.85 -273.66,-74.14 -66.47,-96.68 -46.55,-213.67 22.97,-285.19 64.07,-65.9 166.43,-85.88 254.17,-44.99 11.44,5.32 22.31,13.72 31.74,17.69 3.82,-4.08 36.69,-24.11 41.86,-24.61 3.47,-4.51 5.5,-3 9.44,-7.42l-7.4 -5.7c-2.41,-2.64 -0.17,-0.11 -1.9,-2.56l-28.22 -17.59c-10.12,-5.91 -20.12,-11.06 -31.65,-16.02 -74.43,-32 -165.23,-28.21 -233.68,7.06 -24.12,12.43 -37.91,22.85 -56.65,37.41 -8.5,6.6 -25.32,23.68 -32.92,33.27 -0.17,0.22 -0.4,0.53 -0.58,0.74 -0.17,0.21 -0.42,0.51 -0.6,0.72 -0.17,0.21 -0.44,0.5 -0.61,0.7 -31.3,36.17 -57.1,92.42 -62.52,150.91 -11.31,121.92 54.9,213.44 119.55,257.12 65.35,44.14 142.19,60.38 224.32,41.66 12.42,-2.84 25.24,-7.11 36.31,-11.32 8.13,-3.08 27.53,-13.85 33.09,-14.36z"/>
   <path class="fil0" d="M369.54 183.15c-2.94,5.23 -5.84,5.28 -12.81,13.18 -3.81,4.33 -7.78,7.57 -11.94,11.92 -18.94,19.79 -26.37,27.2 -44.4,50.98 -3.44,4.54 -6.66,8.96 -10.13,13.7 -3.63,4.94 -5.35,8.68 -9.8,13.55 -4.42,-3.57 -15.67,-22.5 -20,-28.51 -7.62,-10.57 -13,-17.41 -21.06,-26.61 -31.25,-35.65 -75.86,-62.16 -111.13,-13.12 -12.55,17.45 13.11,40.07 26.34,54.18 8.19,8.72 16.85,22.04 24.62,32.32 15.26,20.17 30.37,45.34 43.76,68.88 12.32,21.65 28.85,56.56 64.6,47.69 26.02,-6.46 35.65,-32.71 53.09,-59.52 15.42,-23.7 30.78,-45.16 47.75,-66.19 8.28,-10.25 16.85,-20.17 25.36,-30.3 2.18,-2.59 4.39,-4.3 6.55,-6.66 26.81,-29.23 46.81,-48.22 76.07,-73.82 3.84,-3.35 2.32,-0.59 2.68,-3.73 9.34,-5.29 25.72,-23.16 33.51,-24.87 1.38,-4.9 -1.07,0.72 1.39,-2.6l30.57 -23.25 0.98 -0.39c2.45,-3.72 2.65,-3.34 6.33,-6.09 2.7,-2.01 4.1,-3.05 6.04,-4.52 4.47,-3.42 7.88,-6.78 13.27,-8.73 2.53,-3.77 7.58,-6.71 11.32,-11.75 4.15,-5.62 4.68,-12.74 -0.48,-16.84 -8.26,-6.57 -30.91,-3.39 -41.86,-1.53 -27.33,4.63 -51.25,14.08 -73.16,24.81 -51.46,25.18 -70.47,41.21 -110.24,72.62 -3.92,3.1 -4.28,4.37 -7.22,5.2z"/>
  </g>
 </g>
</svg>
