<?xml version="1.0" encoding="UTF-8"?>
<!DOCTYPE svg PUBLIC "-//W3C//DTD SVG 1.1//EN" "http://www.w3.org/Graphics/SVG/1.1/DTD/svg11.dtd">
<!-- Creator: CorelDRAW -->
<svg xmlns="http://www.w3.org/2000/svg" xml:space="preserve" width="8.4666mm" height="3.113mm" version="1.1" style="shape-rendering:geometricPrecision; text-rendering:geometricPrecision; image-rendering:optimizeQuality; fill-rule:evenodd; clip-rule:evenodd"
viewBox="0 0 846.66 311.3"
 xmlns:xlink="http://www.w3.org/1999/xlink"
 xmlns:xodm="http://www.corel.com/coreldraw/odm/2003">
 <defs>
  <style type="text/css">
   <![CDATA[
    .fil37 {fill:#FEFEFE;fill-rule:nonzero}
    .fil33 {fill:#F9B6AE;fill-rule:nonzero}
    .fil34 {fill:#F7A394;fill-rule:nonzero}
    .fil44 {fill:#F59DA9;fill-rule:nonzero}
    .fil51 {fill:#F7DBDF;fill-rule:nonzero}
    .fil67 {fill:#F8D5C2;fill-rule:nonzero}
    .fil52 {fill:#F2BFC6;fill-rule:nonzero}
    .fil65 {fill:#F2BBC1;fill-rule:nonzero}
    .fil40 {fill:#E85963;fill-rule:nonzero}
    .fil38 {fill:#F1F9FD;fill-rule:nonzero}
    .fil41 {fill:#E8EBED;fill-rule:nonzero}
    .fil39 {fill:#DA4A5A;fill-rule:nonzero}
    .fil55 {fill:#D6E1E7;fill-rule:nonzero}
    .fil54 {fill:#D2EDF6;fill-rule:nonzero}
    .fil62 {fill:#C8EAF5;fill-rule:nonzero}
    .fil30 {fill:#C3E8F2;fill-rule:nonzero}
    .fil59 {fill:#BEE6F4;fill-rule:nonzero}
    .fil49 {fill:#C1D4DD;fill-rule:nonzero}
    .fil56 {fill:#C1CED6;fill-rule:nonzero}
    .fil43 {fill:#B1D9EE;fill-rule:nonzero}
    .fil45 {fill:#B18862;fill-rule:nonzero}
    .fil31 {fill:#ABE0F3;fill-rule:nonzero}
    .fil64 {fill:#A5DEF5;fill-rule:nonzero}
    .fil47 {fill:#A1D9F1;fill-rule:nonzero}
    .fil61 {fill:#9CDBF8;fill-rule:nonzero}
    .fil32 {fill:#6EC3EE;fill-rule:nonzero}
    .fil50 {fill:#5CAFDD;fill-rule:nonzero}
    .fil46 {fill:#52A4D1;fill-rule:nonzero}
    .fil42 {fill:#50A0D7;fill-rule:nonzero}
    .fil63 {fill:#4D95D0;fill-rule:nonzero}
    .fil53 {fill:#418DCB;fill-rule:nonzero}
    .fil58 {fill:#2A80B9;fill-rule:nonzero}
    .fil60 {fill:#2778B7;fill-rule:nonzero}
    .fil35 {fill:#3D67AF;fill-rule:nonzero}
    .fil29 {fill:#30415A;fill-rule:nonzero}
    .fil36 {fill:#2C5795;fill-rule:nonzero}
    .fil27 {fill:#031020;fill-rule:nonzero}
    .fil28 {fill:#031020;fill-rule:nonzero}
    .fil26 {fill:#082D59;fill-rule:nonzero}
    .fil25 {fill:url(#id0)}
    .fil9 {fill:url(#id1)}
    .fil6 {fill:url(#id2)}
    .fil20 {fill:url(#id3)}
    .fil8 {fill:url(#id4)}
    .fil7 {fill:url(#id5)}
    .fil16 {fill:url(#id6)}
    .fil3 {fill:url(#id7)}
    .fil13 {fill:url(#id8)}
    .fil14 {fill:url(#id9)}
    .fil12 {fill:url(#id10)}
    .fil48 {fill:url(#id11)}
    .fil24 {fill:url(#id12)}
    .fil5 {fill:url(#id13)}
    .fil21 {fill:url(#id14)}
    .fil0 {fill:url(#id15)}
    .fil57 {fill:url(#id16)}
    .fil2 {fill:url(#id17)}
    .fil66 {fill:url(#id18)}
    .fil10 {fill:url(#id19)}
    .fil11 {fill:url(#id20)}
    .fil18 {fill:url(#id21)}
    .fil4 {fill:url(#id22)}
    .fil15 {fill:url(#id23)}
    .fil22 {fill:url(#id24)}
    .fil17 {fill:url(#id25)}
    .fil19 {fill:url(#id26)}
    .fil1 {fill:url(#id27)}
    .fil23 {fill:url(#id28)}
   ]]>
  </style>
  <linearGradient id="id0" gradientUnits="userSpaceOnUse" x1="423.33" y1="323.39" x2="423.33" y2="-279.66">
   <stop offset="0" style="stop-opacity:1; stop-color:#DAEDFA"/>
   <stop offset="1" style="stop-opacity:1; stop-color:#BAE5FA"/>
  </linearGradient>
  <linearGradient id="id1" gradientUnits="userSpaceOnUse" x1="423.29" y1="323.51" x2="423.29" y2="-280.64">
   <stop offset="0" style="stop-opacity:1; stop-color:#DFEFFA"/>
   <stop offset="1" style="stop-opacity:1; stop-color:#BDE6FA"/>
  </linearGradient>
  <linearGradient id="id2" gradientUnits="userSpaceOnUse" x1="423.29" y1="323.51" x2="423.29" y2="-280.66">
   <stop offset="0" style="stop-opacity:1; stop-color:#E4F1FA"/>
   <stop offset="1" style="stop-opacity:1; stop-color:#BDE6FA"/>
  </linearGradient>
  <linearGradient id="id3" gradientUnits="userSpaceOnUse" x1="423.34" y1="323.52" x2="423.34" y2="-280.67">
   <stop offset="0" style="stop-opacity:1; stop-color:#E4F4FD"/>
   <stop offset="1" style="stop-opacity:1; stop-color:#BDE6FA"/>
  </linearGradient>
  <linearGradient id="id4" gradientUnits="userSpaceOnUse" x1="423.32" y1="323.51" x2="423.32" y2="-280.65">
   <stop offset="0" style="stop-opacity:1; stop-color:#E9F6FD"/>
   <stop offset="1" style="stop-opacity:1; stop-color:#BDE6FA"/>
  </linearGradient>
  <linearGradient id="id5" gradientUnits="userSpaceOnUse" xlink:href="#id2" x1="423.33" y1="323.52" x2="423.33" y2="-280.67">
  </linearGradient>
  <linearGradient id="id6" gradientUnits="userSpaceOnUse" xlink:href="#id1" x1="423.33" y1="323.52" x2="423.33" y2="-280.66">
  </linearGradient>
  <linearGradient id="id7" gradientUnits="userSpaceOnUse" x1="423.32" y1="323.52" x2="423.32" y2="-280.66">
   <stop offset="0" style="stop-opacity:1; stop-color:#E7F5FD"/>
   <stop offset="1" style="stop-opacity:1; stop-color:#BDE6FA"/>
  </linearGradient>
  <linearGradient id="id8" gradientUnits="userSpaceOnUse" xlink:href="#id4" x1="423.33" y1="323.51" x2="423.33" y2="-280.65">
  </linearGradient>
  <linearGradient id="id9" gradientUnits="userSpaceOnUse" x1="423.34" y1="323.52" x2="423.34" y2="-280.66">
   <stop offset="0" style="stop-opacity:1; stop-color:#EEF8FD"/>
   <stop offset="1" style="stop-opacity:1; stop-color:#BDE6FA"/>
  </linearGradient>
  <linearGradient id="id10" gradientUnits="userSpaceOnUse" xlink:href="#id2" x1="423.33" y1="323.52" x2="423.33" y2="-280.69">
  </linearGradient>
  <linearGradient id="id11" gradientUnits="userSpaceOnUse" x1="423.34" y1="323.51" x2="423.34" y2="-280.62">
   <stop offset="0" style="stop-opacity:1; stop-color:#D3E4EA"/>
   <stop offset="1" style="stop-opacity:1; stop-color:#9FD3E9"/>
  </linearGradient>
  <linearGradient id="id12" gradientUnits="userSpaceOnUse" xlink:href="#id0" x1="423.35" y1="323.51" x2="423.35" y2="-280.67">
  </linearGradient>
  <linearGradient id="id13" gradientUnits="userSpaceOnUse" x1="423.33" y1="323.51" x2="423.33" y2="-280.65">
   <stop offset="0" style="stop-opacity:1; stop-color:#F1F9FD"/>
   <stop offset="1" style="stop-opacity:1; stop-color:#BDE6FA"/>
  </linearGradient>
  <linearGradient id="id14" gradientUnits="userSpaceOnUse" x1="423.33" y1="323.52" x2="423.33" y2="-280.66">
   <stop offset="0" style="stop-opacity:1; stop-color:#DFF2FC"/>
   <stop offset="1" style="stop-opacity:1; stop-color:#BDE6FA"/>
  </linearGradient>
  <linearGradient id="id15" gradientUnits="userSpaceOnUse" xlink:href="#id4" x1="423.33" y1="323.52" x2="423.33" y2="-280.66">
  </linearGradient>
  <linearGradient id="id16" gradientUnits="userSpaceOnUse" x1="422.53" y1="322.69" x2="422.53" y2="-272.89">
   <stop offset="0" style="stop-opacity:1; stop-color:#F7DBDF"/>
   <stop offset="1" style="stop-opacity:1; stop-color:#B8CBDF"/>
  </linearGradient>
  <linearGradient id="id17" gradientUnits="userSpaceOnUse" x1="423.33" y1="323.51" x2="423.33" y2="-280.65">
   <stop offset="0" style="stop-opacity:1; stop-color:#F3FAFE"/>
   <stop offset="1" style="stop-opacity:1; stop-color:#BDE6FA"/>
  </linearGradient>
  <linearGradient id="id18" gradientUnits="userSpaceOnUse" x1="422.05" y1="323.58" x2="422.05" y2="-280.74">
   <stop offset="0" style="stop-opacity:1; stop-color:#F9FCFE"/>
   <stop offset="1" style="stop-opacity:1; stop-color:#D2EEFB"/>
  </linearGradient>
  <linearGradient id="id19" gradientUnits="userSpaceOnUse" xlink:href="#id1" x1="423.32" y1="323.52" x2="423.32" y2="-280.66">
  </linearGradient>
  <linearGradient id="id20" gradientUnits="userSpaceOnUse" xlink:href="#id4" x1="423.33" y1="323.52" x2="423.33" y2="-280.69">
  </linearGradient>
  <linearGradient id="id21" gradientUnits="userSpaceOnUse" xlink:href="#id4" x1="423.33" y1="323.51" x2="423.33" y2="-280.65">
  </linearGradient>
  <linearGradient id="id22" gradientUnits="userSpaceOnUse" xlink:href="#id3" x1="423.3" y1="323.51" x2="423.3" y2="-280.64">
  </linearGradient>
  <linearGradient id="id23" gradientUnits="userSpaceOnUse" xlink:href="#id4" x1="423.33" y1="323.51" x2="423.33" y2="-280.65">
  </linearGradient>
  <linearGradient id="id24" gradientUnits="userSpaceOnUse" x1="423.33" y1="323.51" x2="423.33" y2="-280.64">
   <stop offset="0" style="stop-opacity:1; stop-color:#DCEEFA"/>
   <stop offset="1" style="stop-opacity:1; stop-color:#BAE5FA"/>
  </linearGradient>
  <linearGradient id="id25" gradientUnits="userSpaceOnUse" xlink:href="#id3" x1="423.23" y1="323.51" x2="423.23" y2="-280.64">
  </linearGradient>
  <linearGradient id="id26" gradientUnits="userSpaceOnUse" xlink:href="#id14" x1="423.31" y1="323.51" x2="423.31" y2="-280.66">
  </linearGradient>
  <linearGradient id="id27" gradientUnits="userSpaceOnUse" xlink:href="#id4" x1="423.33" y1="323.51" x2="423.33" y2="-280.65">
  </linearGradient>
  <linearGradient id="id28" gradientUnits="userSpaceOnUse" x1="423.35" y1="323.52" x2="423.35" y2="-280.66">
   <stop offset="0" style="stop-opacity:1; stop-color:#DCEEFA"/>
   <stop offset="1" style="stop-opacity:1; stop-color:#BDE6FA"/>
  </linearGradient>
 </defs>
 <g id="Capa_x0020_1">
  <metadata id="CorelCorpID_0Corel-Layer"/>
  <g id="_2180852452512">
   <path class="fil0" d="M75.73 254.58l-16.17 0 0 -82.38 16.17 0 0 82.38zm110.78 -44.65l-10.44 0 0 -106.5 -11.1 0 20.56 -22.47 0 35.21 0.98 0 0 93.76zm-4.01 -120.52l-2.31 2.53 0 111.74 2.31 0 0 -114.27zm-77.86 107.29l-9.15 0 0 -24.5 9.15 0 0 24.5zm34.09 -11.45l-4.38 0 0 -46.76 4.38 0 0 46.76zm55.66 -17.67l-5.6 0 0 -1.77 5.6 0 0 1.77zm0 -4.1l-5.6 0 0 -1.77 5.6 0 0 1.77zm0 -4.1l-5.6 0 0 -1.77 5.6 0 0 1.77zm0 -4.09l-5.6 0 0 -1.77 5.6 0 0 1.77zm0 -4.1l-5.6 0 0 -1.77 15.26 0 0 1.05 -9.66 0 0 0.72zm21.03 -0.72l-9.14 0 0 -34.3 16.56 0 0 12.17 -3.3 -1.74 0 9.95 -4.12 0 0 13.92zm-11.37 -3.38l-15.26 0 0 -1.77 15.26 0 0 1.77zm0 -4.1l-15.26 0 0 -1.77 15.26 0 0 1.77zm-31.39 -0.19l-4.53 0 0 -4.54 4.53 0 0 4.54zm-8.62 0l-2.39 0 0 -4.54 2.39 0 0 4.54zm-17.77 0l-4.04 0 0 -4.31 0.13 0 0 -0.23 3.91 0 0 4.54zm57.78 -3.9l-15.26 0 0 -1.78 15.26 0 0 1.78zm-65.32 -2.69l-11.78 0 -4.29 -2.27 16.07 0 0 2.27zm33.93 -0.98l-4.53 0 0 -4.55 4.53 0 0 4.55zm-8.62 0l-2.39 0 0 -4.55 2.39 0 0 4.55zm-17.77 0l-4.04 0 0 -1.29 0.13 0 0 -2.27 -0.13 0 0 -0.99 4.04 0 0 4.55zm57.78 -0.44l-15.26 0 0 -1.77 15.26 0 0 1.77zm-83.97 -2.21l-3.91 -2.07 0 -42.25 3.85 0 11.19 -10.41 11.15 10.41 3.91 0 0 15.17 -7.54 0 0 1 -18.65 0 0 2.27 18.65 0 0 2.27 -18.65 0 0 2.27 18.65 0 0 2.27 -18.65 0 0 2.27 18.65 0 0 2.27 -18.65 0 0 2.27 18.65 0 0 2.27 -18.65 0 0 2.27 18.65 0 0 2.27 -18.65 0 0 2.27 18.65 0 0 2.27 -18.65 0 0 0.91zm0 -32.69l0 2.27 22.28 0 0 -2.27 -22.28 0zm0 -4.54l0 2.27 22.28 0 0 -2.27 -22.28 0zm0 -4.54l0 2.27 22.28 0 0 -2.27 -22.28 0zm83.97 39.89l-15.26 0 0 -1.77 15.26 0 0 1.77zm-31.39 -3.04l-4.53 0 0 -4.54 4.53 0 0 4.54zm-8.62 0l-2.39 0 0 -4.54 2.39 0 0 4.54zm-17.77 0l-3.91 0 0 -0.53 -0.13 0 0 -2.27 0.13 0 0 -1.74 3.91 0 0 4.54zm57.78 -1.06l-15.26 0 0 -1.77 15.26 0 0 1.77zm0 -4.1l-15.26 0 0 -1.77 15.26 0 0 1.77zm-31.39 -2.41l-4.53 0 0 -4.55 4.53 0 0 4.55zm-8.62 0l-2.39 0 0 -4.55 2.39 0 0 4.55zm-17.77 0l-3.91 0 0 -2.04 -0.13 0 0 -2.27 0.13 0 0 -0.24 3.91 0 0 4.55zm57.78 -1.69l-15.26 0 0 -1.77 15.26 0 0 1.77zm-40.01 -5.89l-2.39 0 0 -4.54 2.39 0 0 4.54zm-17.77 0l-4.04 0 0 -1.27 0.13 0 0 -2.27 -0.13 0 0 -1 4.04 0 0 4.54z"/>
   <path class="fil1" d="M305.17 209.93l-4.33 0 0 -1.88 4.33 0 0 1.88zm-8.37 0l-4.72 0 0 -1.88 4.72 0 0 1.88zm8.37 -6.62l-4.33 0 0 -4.72 4.33 0 0 4.72zm-8.37 0l-4.72 0 0 -4.72 4.72 0 0 4.72zm72.31 -7.53l-17.97 0 0 -106.37 -2.31 2.53 0 103.84 -5.75 0 0 -45.31 -37.91 0 0 24.85 -11.95 0 0 -36.83 17.77 0 0 -2.28 -17.77 0 0 -2.27 17.77 0 0 -2.27 -17.77 0 0 -2.27 17.77 0 0 -2.27 -17.77 0 0 -2.27 17.77 0 0 -2.27 -17.77 0 0 -2.27 17.77 0 0 -2.27 -17.77 0 0 -2.27 17.77 0 0 -2.27 -17.77 0 0 -2.27 17.77 0 0 -2.27 -17.77 0 0 -2.27 17.77 0 0 -2.27 -17.77 0 0 -2.27 17.77 0 0 -2.27 -17.77 0 0 -2.27 17.77 0 0 -2.27 -21.35 0 0 -2.27 21.35 0 0 -2.27 -21.35 0 0 -3.13 -0.37 0 10.58 -9.83 11.14 10.41 3.91 0 0 62.2 15.39 0 0 -43.4 23.88 -26.1 0 35.21 14.94 0 0 79.61zm-63.94 -1.92l-4.33 0 0 -4.72 4.33 0 0 4.72zm-8.37 0l-4.72 0 0 -4.72 4.72 0 0 4.72zm-47.29 -8.61l-4.39 0 0 -13.05 4.39 0 0 13.05zm55.66 -0.84l-4.33 0 0 -4.72 4.33 0 0 4.72zm-8.37 0l-4.72 0 0 -4.72 4.72 0 0 4.72z"/>
   <path class="fil2" d="M186.51 254.67l-110.78 0 0 -0.09 110.78 0 0 0.09zm-70.34 -82.47l-11.53 0 0 -35.65 4.12 0 0 -9.95 7.41 3.91 0 41.69zm-20.68 0l-19.76 0 0 -56.96 9.25 0 0 -28.58 1.27 0 0 28.58 9.24 0 0 56.96zm-17.48 -6.39l0 1.77 15.26 0 0 -1.77 -15.26 0zm0 -4.1l0 1.77 15.26 0 0 -1.77 -15.26 0zm0 -4.1l0 1.77 15.26 0 0 -1.77 -15.26 0zm0 -4.09l0 1.77 15.26 0 0 -1.77 -15.26 0zm0 -4.1l0 1.77 15.26 0 0 -1.77 -15.26 0zm0 -4.1l0 1.77 15.26 0 0 -1.77 -15.26 0zm0 -4.1l0 1.77 15.26 0 0 -1.77 -15.26 0zm0 -4.1l0 1.78 15.26 0 0 -1.78 -15.26 0zm0 -4.1l0 1.77 15.26 0 0 -1.77 -15.26 0zm0 -4.09l0 1.77 15.26 0 0 -1.77 -15.26 0zm0 -4.1l0 1.77 15.26 0 0 -1.77 -15.26 0zm0 -4.1l0 1.77 15.26 0 0 -1.77 -15.26 0zm0 -4.1l0 1.77 15.26 0 0 -1.77 -15.26 0zm83.64 33.83l-15.38 0 0 -7.66 0.5 0 0 -4.54 -0.5 0 0 -3.03 0.5 0 0 -4.55 -0.5 0 0 -3.02 0.5 0 0 -4.54 -0.5 0 0 -3.03 0.5 0 0 -4.55 -0.5 0 0 -3.03 0.5 0 0 -4.54 -0.5 0 0 -4.54 18.7 0 -3.32 3.63 0 0.91 -2.16 0 0 4.54 2.16 0 0 3.03 -2.16 0 0 4.55 2.16 0 0 3.03 -2.16 0 0 4.54 2.16 0 0 3.02 -2.16 0 0 4.55 2.16 0 0 3.03 -2.16 0 0 4.54 2.16 0 0 7.66zm-10.79 -12.2l0 4.54 4.54 0 0 -4.54 -4.54 0zm0 -7.58l0 4.55 4.54 0 0 -4.55 -4.54 0zm0 -7.56l0 4.54 4.54 0 0 -4.54 -4.54 0zm0 -7.58l0 4.55 4.54 0 0 -4.55 -4.54 0zm0 -7.57l0 4.54 4.54 0 0 -4.54 -4.54 0zm132.58 34.83l-4.54 0 0 -4.54 4.54 0 0 4.54zm-8.63 0l-4.54 0 0 -4.54 4.54 0 0 4.54zm-8.63 0l-4.54 0 0 -4.54 4.54 0 0 4.54zm27.04 -4.31l-4.51 0 0 -2.28 4.51 0 0 2.28zm-150.99 0l-3.5 0 0 -2.28 3.63 0 0 2.05 -0.13 0 0 0.23zm-7.88 0l-14.27 0 0 -2.28 6.87 0 0.64 0.34 6.76 0 0 1.94zm149.09 -3.26l-4.54 0 0 -4.55 4.54 0 0 4.55zm-8.63 0l-4.54 0 0 -4.55 4.54 0 0 4.55zm-8.63 0l-4.54 0 0 -4.55 4.54 0 0 4.55zm27.04 -1.29l-4.51 0 0 -2.27 4.51 0 0 2.27zm-150.99 0l-3.5 0 0 -2.27 3.5 0 0 2.27zm-19.57 0l-2.58 0 0 -1.36 2.58 1.36zm170.56 -4.54l-4.51 0 0 -2.27 4.51 0 0 2.27zm-150.86 0l-3.63 0 0 -2.27 3.5 0 0 0.53 0.13 0 0 1.74zm141.08 -1.74l-4.54 0 0 -4.54 4.54 0 0 4.54zm-8.63 0l-4.54 0 0 -4.54 4.54 0 0 4.54zm-8.63 0l-4.54 0 0 -4.54 4.54 0 0 4.54zm27.04 -2.8l-4.51 0 0 -2.27 4.51 0 0 2.27zm-150.99 0l-3.5 0 0 -2.27 3.63 0 0 0.53 -0.13 0 0 1.74zm150.99 -4.54l-4.51 0 0 -2.27 4.51 0 0 2.27zm-150.86 0l-3.63 0 0 -2.27 3.5 0 0 2.04 0.13 0 0 0.23zm141.08 -0.23l-4.54 0 0 -4.55 4.54 0 0 4.55zm-8.63 0l-4.54 0 0 -4.55 4.54 0 0 4.55zm-8.63 0l-4.54 0 0 -4.55 4.54 0 0 4.55zm27.04 -4.31l-4.51 0 0 -2.27 4.51 0 0 2.27zm-150.99 0l-3.5 0 0 -2.27 3.63 0 0 2.03 -0.13 0 0 0.24zm132.58 -3.27l-4.54 0 0 -4.54 4.54 0 0 4.54zm-8.63 0l-4.54 0 0 -4.54 4.54 0 0 4.54zm27.04 -1.27l-4.51 0 0 -2.27 4.51 0 0 2.27zm-150.99 0l-3.5 0 0 -2.27 3.5 0 0 2.27zm150.99 -4.54l-4.51 0 0 -2.27 4.51 0 0 2.27zm-150.86 0l-3.63 0 0 -2.27 3.63 0 0 2.27zm142.44 -3.27l-26.47 0 0 -7.69 3.57 0 0 -8.06 27.37 0 -0.62 0.58 -3.85 0 0 15.17zm8.42 -1.27l-4.51 0 0 -2.27 4.51 0 0 2.27zm0 -4.54l-4.51 0 0 -2.27 0.93 0 0 0.39 3.58 0 0 1.88zm-3.58 -4.54l-0.93 0 0 -2.27 0.93 0 0 2.27z"/>
   <path class="fil3" d="M186.51 254.58l-110.78 0 0 -82.38 19.76 0 0 24.5 9.15 0 0 -24.5 11.53 0 0 -41.69 3.91 2.07 0 1.36 2.58 0 4.29 2.27 -6.87 0 0 2.28 14.27 0 0 46.76 4.38 0 0 -46.76 3.5 0 0 4.31 4.04 0 0 7.66 15.38 0 0 -7.66 2.39 0 0 -4.54 -2.39 0 0 -3.03 2.39 0 0 -4.55 -2.39 0 0 -3.02 2.39 0 0 -4.54 -2.39 0 0 -3.03 2.39 0 0 -4.55 -2.39 0 0 -3.03 2.39 0 0 -4.54 -2.39 0 0 -0.91 3.32 -3.63 11.1 0 0 106.5 10.44 0 0 44.65zm-18.38 -116.32l0 4.54 4.53 0 0 -4.54 -4.53 0zm0 -7.58l0 4.55 4.53 0 0 -4.55 -4.53 0zm0 -7.56l0 4.54 4.53 0 0 -4.54 -4.53 0zm0 -7.58l0 4.55 4.53 0 0 -4.55 -4.53 0zm47.29 81.16l-9.14 0 0 -46.23 9.14 0 0 46.23zm-11.37 -29.12l-9.66 0 0 -1.77 9.66 0 0 1.77zm0 -4.1l-9.66 0 0 -1.77 9.66 0 0 1.77zm0 -4.1l-9.66 0 0 -1.77 9.66 0 0 1.77zm0 -4.09l-9.66 0 0 -1.77 9.66 0 0 1.77zm0 -4.1l-9.66 0 0 -0.72 9.66 0 0 0.72zm-57.78 -12.93l-3.91 0 0 -2.05 -3.63 0 0 -2.27 3.5 0 0 1.29 4.04 0 0 3.03zm-4.04 -6.59l-3.5 0 0 -2.27 3.63 0 0 -1.74 3.91 0 0 3.02 -4.04 0 0 0.99zm0 -4.54l-3.5 0 0 -2.27 3.5 0 0 2.27zm4.04 -4.01l-3.91 0 0 -0.53 -3.63 0 0 -2.27 3.63 0 0 -0.23 3.91 0 0 3.03zm-4.04 -5.07l-3.5 0 0 -2.27 3.5 0 0 2.27zm4.04 -2.51l-3.91 0 0 -2.03 -3.63 0 0 -2.27 3.5 0 0 1.27 4.04 0 0 3.03zm-4.04 -6.57l-3.5 0 0 -2.27 3.63 0 0 -2.27 -3.63 0 0 -1 7.54 0 0 4.54 -4.04 0 0 1z"/>
   <path class="fil4" d="M300.84 209.93l-4.04 0 0 -1.88 -4.72 0 0 1.88 -5.23 0 0 -106.5 -2.05 0 0 -15.17 3.85 0 0.62 -0.58 0.37 0 0 3.13 -0.93 0 0 2.27 0.93 0 0 2.27 -0.93 0 0 2.27 4.51 0 0 2.27 -4.51 0 0 2.27 4.51 0 0 2.27 -4.51 0 0 2.27 4.51 0 0 2.27 -4.51 0 0 2.27 4.51 0 0 2.27 -4.51 0 0 2.27 4.51 0 0 2.27 -4.51 0 0 2.27 4.51 0 0 2.27 -4.51 0 0 2.27 4.51 0 0 2.27 -4.51 0 0 2.27 4.51 0 0 2.27 -4.51 0 0 2.27 4.51 0 0 2.27 -4.51 0 0 2.28 4.51 0 0 36.83 11.95 0 0 4.37 -4.33 0 0 4.72 4.33 0 0 4.73 -4.33 0 0 4.72 4.33 0 0 4.73 -4.33 0 0 4.72 4.33 0 0 4.74 -4.33 0 0 1.88zm-8.76 -11.34l0 4.72 4.72 0 0 -4.72 -4.72 0zm0 -9.45l0 4.72 4.72 0 0 -4.72 -4.72 0zm0 -9.45l0 4.72 4.72 0 0 -4.72 -4.72 0z"/>
   <path class="fil5" d="M427.37 254.67l-110.78 0 0 -0.09 74.88 0 0 -138.41 -22.36 0 0 -20.43 3.57 0 0 -8.06 27.74 0 0 8.06 3.58 0 0 71.12 23.37 0 0 5.34 -2.27 0 0 -0.52 -4.08 0 0 4.07 0.54 0 0 4.09 -0.54 0 0 4.07 0.54 0 0 4.09 -0.54 0 0 4.08 0.54 0 0 4.08 -0.54 0 0 4.08 0.54 0 0 54.34 5.81 0 0 0.09zm-13.91 -58.51l0 4.08 4.08 0 0 -4.08 -4.08 0zm-7.56 0l0 4.08 4.07 0 0 -4.08 -4.07 0zm7.56 -8.16l0 4.08 4.08 0 0 -4.08 -4.08 0zm-7.56 0l0 4.08 4.07 0 0 -4.08 -4.07 0zm7.56 -8.16l0 4.07 4.08 0 0 -4.07 -4.08 0zm-7.56 0l0 4.07 4.07 0 0 -4.07 -4.07 0zm7.56 -8.16l0 4.07 4.08 0 0 -4.07 -4.08 0zm-7.56 0l0 4.07 4.07 0 0 -4.07 -4.07 0zm-54.76 32l-2.31 0 0 -7.9 2.31 0 0 7.9zm-92.81 -31.48l-8.82 0 0 -68.77 8.82 0 0 68.77zm-5.32 -33.94l0 4.54 4.54 0 0 -4.54 -4.54 0zm0 -7.58l0 4.55 4.54 0 0 -4.55 -4.54 0zm0 -7.56l0 4.54 4.54 0 0 -4.54 -4.54 0zm0 -7.58l0 4.55 4.54 0 0 -4.55 -4.54 0zm0 -7.57l0 4.54 4.54 0 0 -4.54 -4.54 0zm-7.89 64.23l-12.82 0 0 -21.73 -9.46 0 0 -22.13 15.53 8.21 6.75 0 0 35.65zm-38.84 -56.03l-19.77 0 0 -0.93 9.25 0 0 -28.58 1.27 0 0 28.58 9.25 0 0 0.93z"/>
   <path class="fil6" d="M194.39 209.93l-7.88 0 0 -93.76 19.77 0 0 34.3 -2.23 0 0 -1.05 -15.26 0 0 1.77 5.6 0 0 2.33 -5.6 0 0 1.77 5.6 0 0 2.32 -5.6 0 0 1.77 5.6 0 0 2.33 -5.6 0 0 1.77 5.6 0 0 2.33 -5.6 0 0 1.77 5.6 0 0 42.35zm-5.6 -64.61l0 1.77 15.26 0 0 -1.77 -15.26 0zm0 -4.1l0 1.77 15.26 0 0 -1.77 -15.26 0zm0 -4.1l0 1.78 15.26 0 0 -1.78 -15.26 0zm0 -4.1l0 1.77 15.26 0 0 -1.77 -15.26 0zm0 -4.09l0 1.77 15.26 0 0 -1.77 -15.26 0zm0 -4.1l0 1.77 15.26 0 0 -1.77 -15.26 0zm0 -4.1l0 1.77 15.26 0 0 -1.77 -15.26 0zm0 -4.1l0 1.77 15.26 0 0 -1.77 -15.26 0zm34.05 33.84l-7.42 0 0 -13.92 4.12 0 0 -9.95 3.3 1.74 0 22.13z"/>
   <path class="fil7" d="M391.47 254.58l-74.88 0 0 -79.26 -11.42 0 0 -24.85 37.91 0 0 45.31 5.75 0 0 7.9 2.31 0 0 -7.9 17.97 0 0 -79.61 22.36 0 0 138.41zm-77.15 -41.81l-4.73 0 0 -4.72 4.73 0 0 4.72zm-8.76 0l-4.72 0 0 -2.84 4.33 0 0 -1.88 0.39 0 0 4.72zm-8.76 0l-4.72 0 0 -2.84 4.72 0 0 2.84zm17.52 -9.46l-4.73 0 0 -4.72 4.73 0 0 4.72zm-8.76 0l-0.39 0 0 -4.72 0.39 0 0 4.72zm-47.23 -7.53l-26.03 0 0 -23.58 12.82 0 0 13.05 4.39 0 0 -13.05 8.82 0 0 23.58zm55.99 -1.92l-4.73 0 0 -4.72 4.73 0 0 4.72zm-8.76 0l-0.39 0 0 -4.72 0.39 0 0 4.72zm8.76 -9.45l-4.73 0 0 -4.72 4.73 0 0 4.72zm-8.76 0l-0.39 0 0 -4.72 0.39 0 0 4.72z"/>
   <path class="fil8" d="M316.59 254.67l-130.08 0 0 -0.09 36.33 0 0 -104.11 9.46 0 0 21.73 -4.11 0 0 82.38 88.4 0 0 0.09zm-31.79 -82.47l-26.47 0 0 -68.77 26.47 0 0 68.77zm-5.9 -33.94l0 4.54 4.54 0 0 -4.54 -4.54 0zm-8.63 0l0 4.54 4.54 0 0 -4.54 -4.54 0zm-8.63 0l0 4.54 4.54 0 0 -4.54 -4.54 0zm17.26 -7.58l0 4.55 4.54 0 0 -4.55 -4.54 0zm-8.63 0l0 4.55 4.54 0 0 -4.55 -4.54 0zm-8.63 0l0 4.55 4.54 0 0 -4.55 -4.54 0zm17.26 -7.56l0 4.54 4.54 0 0 -4.54 -4.54 0zm-8.63 0l0 4.54 4.54 0 0 -4.54 -4.54 0zm-8.63 0l0 4.54 4.54 0 0 -4.54 -4.54 0zm17.26 -7.58l0 4.55 4.54 0 0 -4.55 -4.54 0zm-8.63 0l0 4.55 4.54 0 0 -4.55 -4.54 0zm-8.63 0l0 4.55 4.54 0 0 -4.55 -4.54 0zm8.63 -7.57l0 4.54 4.54 0 0 -4.54 -4.54 0zm-8.63 0l0 4.54 4.54 0 0 -4.54 -4.54 0z"/>
   <polygon class="fil9" points="222.84,254.58 186.51,254.58 186.51,209.93 194.39,209.93 194.39,167.58 204.05,167.58 204.05,165.81 194.39,165.81 194.39,163.48 204.05,163.48 204.05,161.71 194.39,161.71 194.39,159.38 204.05,159.38 204.05,157.61 194.39,157.61 194.39,155.29 204.05,155.29 204.05,153.52 194.39,153.52 194.39,151.19 204.05,151.19 204.05,150.47 206.28,150.47 206.28,196.7 215.42,196.7 215.42,150.47 222.84,150.47 "/>
   <path class="fil10" d="M316.59 254.58l-88.4 0 0 -82.38 4.11 0 0 23.58 26.03 0 0 -23.58 26.47 0 0 -68.77 2.05 0 0 106.5 5.23 0 0 2.84 4.72 0 0 -2.84 4.04 0 0 2.84 4.72 0 0 -4.72 -0.39 0 0 -4.74 0.39 0 0 -4.72 -0.39 0 0 -4.73 0.39 0 0 -4.72 -0.39 0 0 -4.73 0.39 0 0 -4.72 -0.39 0 0 -4.37 11.42 0 0 79.26zm-7 -46.53l0 4.72 4.73 0 0 -4.72 -4.73 0zm0 -9.46l0 4.72 4.73 0 0 -4.72 -4.73 0zm0 -9.45l0 4.72 4.73 0 0 -4.72 -4.73 0zm0 -9.45l0 4.72 4.73 0 0 -4.72 -4.73 0z"/>
   <path class="fil11" d="M437.73 254.58l-10.36 0 0 -82.38 10.36 0 0 82.38zm-12.63 -54.34l-3.54 0 0 -4.08 3.54 0 0 4.08zm0 -8.16l-3.54 0 0 -4.08 3.54 0 0 4.08zm0 -8.17l-3.54 0 0 -4.07 3.54 0 0 4.07zm0 -8.16l-3.54 0 0 -3.55 3.54 0 0 3.55z"/>
   <polygon class="fil12" points="427.37,254.58 421.56,254.58 421.56,200.24 425.1,200.24 425.1,196.16 421.56,196.16 421.56,192.08 425.1,192.08 425.1,188 421.56,188 421.56,183.91 425.1,183.91 425.1,179.84 421.56,179.84 421.56,175.75 425.1,175.75 425.1,172.2 427.37,172.2 "/>
   <path class="fil13" d="M548.51 209.93l-10.44 0 0 -106.5 -11.1 0 20.56 -22.47 0 35.21 0.98 0 0 93.76zm-4.01 -120.52l-2.31 2.53 0 111.74 2.31 0 0 -114.27zm-77.86 107.29l-9.15 0 0 -24.5 9.15 0 0 24.5zm34.09 -11.45l-4.39 0 0 -46.76 4.39 0 0 46.76zm55.65 -17.67l-5.6 0 0 -1.77 5.6 0 0 1.77zm0 -4.1l-5.6 0 0 -1.77 5.6 0 0 1.77zm0 -4.1l-5.6 0 0 -1.77 5.6 0 0 1.77zm0 -4.09l-5.6 0 0 -1.77 5.6 0 0 1.77zm0 -4.1l-5.6 0 0 -1.77 15.26 0 0 1.05 -9.66 0 0 0.72zm21.04 -0.72l-9.15 0 0 -34.3 16.56 0 0 12.17 -3.3 -1.74 0 9.95 -4.11 0 0 13.92zm-11.38 -3.38l-15.26 0 0 -1.77 15.26 0 0 1.77zm0 -4.1l-15.26 0 0 -1.77 15.26 0 0 1.77zm-31.38 -0.19l-4.54 0 0 -4.54 4.54 0 0 4.54zm-8.63 0l-2.38 0 0 -4.54 2.38 0 0 4.54zm-17.77 0l-4.03 0 0 -4.31 0.12 0 0 -0.23 3.91 0 0 4.54zm57.78 -3.9l-15.26 0 0 -1.78 15.26 0 0 1.78zm-65.31 -2.69l-11.78 0 -4.29 -2.27 16.07 0 0 2.27zm33.93 -0.98l-4.54 0 0 -4.55 4.54 0 0 4.55zm-8.63 0l-2.38 0 0 -4.55 2.38 0 0 4.55zm-17.77 0l-4.03 0 0 -1.29 0.12 0 0 -2.27 -0.12 0 0 -0.99 4.03 0 0 4.55zm57.78 -0.44l-15.26 0 0 -1.77 15.26 0 0 1.77zm-83.97 -2.21l-3.91 -2.07 0 -42.25 3.85 0 11.2 -10.41 11.14 10.41 3.91 0 0 15.17 -7.53 0 0 1 -18.66 0 0 2.27 18.66 0 0 2.27 -18.66 0 0 2.27 18.66 0 0 2.27 -18.66 0 0 2.27 18.66 0 0 2.27 -18.66 0 0 2.27 18.66 0 0 2.27 -18.66 0 0 2.27 18.66 0 0 2.27 -18.66 0 0 2.27 18.66 0 0 2.27 -18.66 0 0 0.91zm0 -32.69l0 2.27 22.28 0 0 -2.27 -22.28 0zm0 -4.54l0 2.27 22.28 0 0 -2.27 -22.28 0zm0 -4.54l0 2.27 22.28 0 0 -2.27 -22.28 0zm83.97 39.89l-15.26 0 0 -1.77 15.26 0 0 1.77zm-31.38 -3.04l-4.54 0 0 -4.54 4.54 0 0 4.54zm-8.63 0l-2.38 0 0 -4.54 2.38 0 0 4.54zm-17.77 0l-3.91 0 0 -0.53 -0.12 0 0 -2.27 0.12 0 0 -1.74 3.91 0 0 4.54zm57.78 -1.06l-15.26 0 0 -1.77 15.26 0 0 1.77zm0 -4.1l-15.26 0 0 -1.77 15.26 0 0 1.77zm-31.38 -2.41l-4.54 0 0 -4.55 4.54 0 0 4.55zm-8.63 0l-2.38 0 0 -4.55 2.38 0 0 4.55zm-17.77 0l-3.91 0 0 -2.04 -0.12 0 0 -2.27 0.12 0 0 -0.24 3.91 0 0 4.55zm57.78 -1.69l-15.26 0 0 -1.77 15.26 0 0 1.77zm-40.01 -5.89l-2.38 0 0 -4.54 2.38 0 0 4.54zm-17.77 0l-4.03 0 0 -1.27 0.12 0 0 -2.27 -0.12 0 0 -1 4.03 0 0 4.54z"/>
   <path class="fil14" d="M731.11 195.78l-17.98 0 0 -106.37 -2.31 2.53 0 103.84 -5.75 0 0 -45.31 -14.3 0c0.01,0 0.01,-0.01 0.01,-0.01l1.5 0 0 -7.69c2.7,-13.72 5.43,-27.47 8.22,-41.09 0.21,-1.05 -0.14,-2.18 -0.81,-2.72l16.47 -18 0 35.21 14.95 0 0 79.61zm-119.61 -10.53l-4.03 0 0 -13.05 4.03 0 0 13.05zm55.66 -19.42c-2.32,-5.35 -5.43,-9.99 -9.3,-13.92 -0.85,-0.86 -1.73,-1.68 -2.64,-2.46l0 -10.96 17.77 0 0 -2.28 -17.77 0 0 -2.27 17.77 0 0 -2.27 -17.77 0 0 -2.27 17.77 0 0 -2.27 -17.77 0 0 -2.27 17.77 0 0 -2.27 -17.77 0 0 -2.27 17.77 0 0 -2.27 -17.77 0 0 -2.27 17.77 0 0 -2.27 -17.77 0 0 -2.27 17.77 0 0 -2.27 -17.77 0 0 -2.27 17.77 0 0 -2.27 -17.77 0 0 -2.27 17.77 0 0 -2.27 -17.77 0 0 -2.27 17.77 0 0 -2.27 -21.36 0 0 -2.27 21.36 0 0 -2.27 -21.36 0 0 -3.13 -0.37 0 10.59 -9.83 11.14 10.41 3.91 0 0 62.2 10.42 0c-0.01,0 -0.01,0.01 -0.01,0.01l-20.15 0 0 15.36zm25.12 -40.59l0 -18.18 4.69 -5.13c-1.57,7.74 -3.14,15.52 -4.69,23.31z"/>
   <path class="fil15" d="M548.51 254.67l-110.78 0 0 -0.09 110.78 0 0 0.09zm-70.35 -82.47l-11.52 0 0 -35.65 4.11 0 0 -9.95 7.41 3.91 0 41.69zm-20.67 0l-19.76 0 0 -56.96 9.25 0 0 -28.58 1.26 0 0 28.58 9.25 0 0 56.96zm-17.49 -6.39l0 1.77 15.26 0 0 -1.77 -15.26 0zm0 -4.1l0 1.77 15.26 0 0 -1.77 -15.26 0zm0 -4.1l0 1.77 15.26 0 0 -1.77 -15.26 0zm0 -4.09l0 1.77 15.26 0 0 -1.77 -15.26 0zm0 -4.1l0 1.77 15.26 0 0 -1.77 -15.26 0zm0 -4.1l0 1.77 15.26 0 0 -1.77 -15.26 0zm0 -4.1l0 1.77 15.26 0 0 -1.77 -15.26 0zm0 -4.1l0 1.78 15.26 0 0 -1.78 -15.26 0zm0 -4.1l0 1.77 15.26 0 0 -1.77 -15.26 0zm0 -4.09l0 1.77 15.26 0 0 -1.77 -15.26 0zm0 -4.1l0 1.77 15.26 0 0 -1.77 -15.26 0zm0 -4.1l0 1.77 15.26 0 0 -1.77 -15.26 0zm0 -4.1l0 1.77 15.26 0 0 -1.77 -15.26 0zm83.65 33.83l-15.39 0 0 -7.66 0.51 0 0 -4.54 -0.51 0 0 -3.03 0.51 0 0 -4.55 -0.51 0 0 -3.02 0.51 0 0 -4.54 -0.51 0 0 -3.03 0.51 0 0 -4.55 -0.51 0 0 -3.03 0.51 0 0 -4.54 -0.51 0 0 -4.54 18.71 0 -3.32 3.63 0 0.91 -2.16 0 0 4.54 2.16 0 0 3.03 -2.16 0 0 4.55 2.16 0 0 3.03 -2.16 0 0 4.54 2.16 0 0 3.02 -2.16 0 0 4.55 2.16 0 0 3.03 -2.16 0 0 4.54 2.16 0 0 7.66zm-10.79 -12.2l0 4.54 4.54 0 0 -4.54 -4.54 0zm0 -7.58l0 4.55 4.54 0 0 -4.55 -4.54 0zm0 -7.56l0 4.54 4.54 0 0 -4.54 -4.54 0zm0 -7.58l0 4.55 4.54 0 0 -4.55 -4.54 0zm0 -7.57l0 4.54 4.54 0 0 -4.54 -4.54 0zm132.58 34.83l-0.66 0c-0.62,-0.29 -1.25,-0.56 -1.89,-0.82 -0.66,-0.27 -1.32,-0.52 -1.99,-0.76l0 -2.96 4.54 0 0 4.54zm-8.63 -2.81c-1.48,-0.38 -3,-0.68 -4.54,-0.92l0 -0.81 4.54 0 0 1.73zm-8.64 -1.39c-1.45,-0.11 -2.93,-0.16 -4.43,-0.16l-0.1 0 0 -0.18 4.53 0 0 0.34zm27.05 -0.11l-4.51 0 0 -2.28 4.51 0 0 2.28zm-150.99 0l-3.5 0 0 -2.28 3.62 0 0 2.05 -0.12 0 0 0.23zm-7.89 0l-14.27 0 0 -2.28 6.88 0 0.64 0.34 6.75 0 0 1.94zm149.1 -3.26l-4.54 0 0 -4.55 4.54 0 0 4.55zm-8.63 0l-4.54 0 0 -4.55 4.54 0 0 4.55zm-8.64 0l-4.53 0 0 -4.55 4.53 0 0 4.55zm27.05 -1.29l-4.51 0 0 -2.27 4.51 0 0 2.27zm-150.99 0l-3.5 0 0 -2.27 3.5 0 0 2.27zm-19.57 0l-2.59 0 0 -1.36 2.59 1.36zm170.56 -4.54l-4.51 0 0 -2.27 4.51 0 0 2.27zm-150.87 0l-3.62 0 0 -2.27 3.5 0 0 0.53 0.12 0 0 1.74zm141.09 -1.74l-4.54 0 0 -4.54 4.54 0 0 4.54zm-8.63 0l-4.54 0 0 -4.54 4.54 0 0 4.54zm-8.64 0l-4.53 0 0 -4.54 4.53 0 0 4.54zm27.05 -2.8l-4.51 0 0 -2.27 4.51 0 0 2.27zm-150.99 0l-3.5 0 0 -2.27 3.62 0 0 0.53 -0.12 0 0 1.74zm150.99 -4.54l-4.51 0 0 -2.27 4.51 0 0 2.27zm-150.87 0l-3.62 0 0 -2.27 3.5 0 0 2.04 0.12 0 0 0.23zm141.09 -0.23l-4.54 0 0 -4.55 4.54 0 0 4.55zm-8.63 0l-4.54 0 0 -4.55 4.54 0 0 4.55zm-8.64 0l-4.53 0 0 -4.55 4.53 0 0 4.55zm27.05 -4.31l-4.51 0 0 -2.27 4.51 0 0 2.27zm-150.99 0l-3.5 0 0 -2.27 3.62 0 0 2.03 -0.12 0 0 0.24zm132.58 -3.27l-4.54 0 0 -4.54 4.54 0 0 4.54zm-8.64 0l-4.53 0 0 -4.54 4.53 0 0 4.54zm27.05 -1.27l-4.51 0 0 -2.27 4.51 0 0 2.27zm-150.99 0l-3.5 0 0 -2.27 3.5 0 0 2.27zm150.99 -4.54l-4.51 0 0 -2.27 4.51 0 0 2.27zm-150.87 0l-3.62 0 0 -2.27 3.62 0 0 2.27zm142.45 -3.27l-26.47 0 0 -7.69 3.56 0 0 -8.06 27.37 0 -0.62 0.58 -3.84 0 0 15.17zm8.42 -1.27l-4.51 0 0 -2.27 4.51 0 0 2.27zm0 -4.54l-4.51 0 0 -2.27 0.92 0 0 0.39 3.59 0 0 1.88zm-3.59 -4.54l-0.92 0 0 -2.27 0.92 0 0 2.27z"/>
   <path class="fil16" d="M548.51 254.58l-110.78 0 0 -82.38 19.76 0 0 24.5 9.15 0 0 -24.5 11.52 0 0 -41.69 3.91 2.07 0 1.36 2.59 0 4.29 2.27 -6.88 0 0 2.28 14.27 0 0 46.76 4.39 0 0 -46.76 3.5 0 0 4.31 4.03 0 0 7.66 15.39 0 0 -7.66 2.38 0 0 -4.54 -2.38 0 0 -3.03 2.38 0 0 -4.55 -2.38 0 0 -3.02 2.38 0 0 -4.54 -2.38 0 0 -3.03 2.38 0 0 -4.55 -2.38 0 0 -3.03 2.38 0 0 -4.54 -2.38 0 0 -0.91 3.32 -3.63 11.1 0 0 106.5 10.44 0 0 44.65zm-18.39 -116.32l0 4.54 4.54 0 0 -4.54 -4.54 0zm0 -7.58l0 4.55 4.54 0 0 -4.55 -4.54 0zm0 -7.56l0 4.54 4.54 0 0 -4.54 -4.54 0zm0 -7.58l0 4.55 4.54 0 0 -4.55 -4.54 0zm47.3 81.16l-9.15 0 0 -46.23 9.15 0 0 46.23zm-11.38 -29.12l-9.66 0 0 -1.77 9.66 0 0 1.77zm0 -4.1l-9.66 0 0 -1.77 9.66 0 0 1.77zm0 -4.1l-9.66 0 0 -1.77 9.66 0 0 1.77zm0 -4.09l-9.66 0 0 -1.77 9.66 0 0 1.77zm0 -4.1l-9.66 0 0 -0.72 9.66 0 0 0.72zm-57.78 -12.93l-3.91 0 0 -2.05 -3.62 0 0 -2.27 3.5 0 0 1.29 4.03 0 0 3.03zm-4.03 -6.59l-3.5 0 0 -2.27 3.62 0 0 -1.74 3.91 0 0 3.02 -4.03 0 0 0.99zm0 -4.54l-3.5 0 0 -2.27 3.5 0 0 2.27zm4.03 -4.01l-3.91 0 0 -0.53 -3.62 0 0 -2.27 3.62 0 0 -0.23 3.91 0 0 3.03zm-4.03 -5.07l-3.5 0 0 -2.27 3.5 0 0 2.27zm4.03 -2.51l-3.91 0 0 -2.03 -3.62 0 0 -2.27 3.5 0 0 1.27 4.03 0 0 3.03zm-4.03 -6.57l-3.5 0 0 -2.27 3.62 0 0 -2.27 -3.62 0 0 -1 7.53 0 0 4.54 -4.03 0 0 1z"/>
   <path class="fil17" d="M655.22 149.45c-1.97,-1.69 -4.1,-3.2 -6.37,-4.54l0 -41.48 -2.05 0 0 -15.17 3.84 0 0.62 -0.58 0.37 0 0 3.13 -0.92 0 0 2.27 0.92 0 0 2.27 -0.92 0 0 2.27 4.51 0 0 2.27 -4.51 0 0 2.27 4.51 0 0 2.27 -4.51 0 0 2.27 4.51 0 0 2.27 -4.51 0 0 2.27 4.51 0 0 2.27 -4.51 0 0 2.27 4.51 0 0 2.27 -4.51 0 0 2.27 4.51 0 0 2.27 -4.51 0 0 2.27 4.51 0 0 2.27 -4.51 0 0 2.27 4.51 0 0 2.27 -4.51 0 0 2.27 4.51 0 0 2.27 -4.51 0 0 2.28 4.51 0 0 10.96z"/>
   <path class="fil18" d="M789.36 254.67l-93.87 0 0 -0.09 57.98 0 0 -138.41 -22.36 0 0 -20.43 3.56 0 0 -8.06 27.74 0 0 8.06 3.59 0 0 71.12 23.36 0 0 87.81zm-6.34 -58.51l0 4.08 4.07 0 0 -4.08 -4.07 0zm-7.56 0l0 4.08 4.07 0 0 -4.08 -4.07 0zm-7.57 0l0 4.08 4.08 0 0 -4.08 -4.08 0zm15.13 -8.16l0 4.08 4.07 0 0 -4.08 -4.07 0zm-7.56 0l0 4.08 4.07 0 0 -4.08 -4.07 0zm-7.57 0l0 4.08 4.08 0 0 -4.08 -4.08 0zm15.13 -8.16l0 4.07 4.07 0 0 -4.07 -4.07 0zm-7.56 0l0 4.07 4.07 0 0 -4.07 -4.07 0zm-7.57 0l0 4.07 4.08 0 0 -4.07 -4.08 0zm15.13 -8.16l0 4.07 4.07 0 0 -4.07 -4.07 0zm-7.56 0l0 4.07 4.07 0 0 -4.07 -4.07 0zm-7.57 0l0 4.07 4.08 0 0 -4.07 -4.08 0zm-54.76 32l-2.31 0 0 -7.9 2.31 0 0 7.9zm-92.8 -31.48l-8.83 0 0 -6.13 8.83 0 0 6.13zm0 -33.76l-0.78 0 0 -0.18 -4.55 0 0 0.18 -3.5 0 0 -35.01 8.83 0 0 35.01zm-5.33 -7.76l0 4.55 4.55 0 0 -4.55 -4.55 0zm0 -7.56l0 4.54 4.55 0 0 -4.54 -4.55 0zm0 -7.58l0 4.55 4.55 0 0 -4.55 -4.55 0zm0 -7.57l0 4.54 4.55 0 0 -4.54 -4.55 0zm-7.88 30.47l-22.29 0 0 -10.1 15.54 8.21 6.75 0 0 1.89zm-38.85 -22.27l-19.76 0 0 -0.93 9.25 0 0 -28.58 1.26 0 0 28.58 9.25 0 0 0.93z"/>
   <path class="fil19" d="M556.38 209.93l-7.87 0 0 -93.76 19.76 0 0 34.3 -2.23 0 0 -1.05 -15.26 0 0 1.77 5.6 0 0 2.33 -5.6 0 0 1.77 5.6 0 0 2.32 -5.6 0 0 1.77 5.6 0 0 2.33 -5.6 0 0 1.77 5.6 0 0 2.33 -5.6 0 0 1.77 5.6 0 0 42.35zm-5.6 -64.61l0 1.77 15.26 0 0 -1.77 -15.26 0zm0 -4.1l0 1.77 15.26 0 0 -1.77 -15.26 0zm0 -4.1l0 1.78 15.26 0 0 -1.78 -15.26 0zm0 -4.1l0 1.77 15.26 0 0 -1.77 -15.26 0zm0 -4.09l0 1.77 15.26 0 0 -1.77 -15.26 0zm0 -4.1l0 1.77 15.26 0 0 -1.77 -15.26 0zm0 -4.1l0 1.77 15.26 0 0 -1.77 -15.26 0zm0 -4.1l0 1.77 15.26 0 0 -1.77 -15.26 0zm28.58 33.84l-1.94 0 0 -13.92 4.11 0 0 -9.95 3.3 1.74 0 10.1 -1.37 0c-1.11,0 -2.07,0.46 -2.88,1.38 -0.82,0.92 -1.22,2.01 -1.22,3.28l0 7.37z"/>
   <path class="fil20" d="M753.47 254.58l-57.98 0 0 -96.18 -6.26 0c0.51,-2.64 1.03,-5.28 1.54,-7.93l14.3 0 0 45.31 5.75 0 0 7.9 2.31 0 0 -7.9 17.98 0 0 -79.61 22.36 0 0 138.41zm-133.14 -58.8l-12.86 0 0 -10.53 4.03 0 0 -13.05 8.83 0 0 23.58zm48.37 -25.99c-0.3,-0.87 -0.62,-1.74 -0.97,-2.6 -0.18,-0.46 -0.37,-0.91 -0.57,-1.36l0 -15.36 20.15 0c-0.51,2.65 -1.03,5.29 -1.54,7.93l-17.07 0 0 11.39z"/>
   <path class="fil21" d="M667.11 254.67l-13.5 0 0 -0.09 13.52 0c-0.01,0.03 -0.01,0.06 -0.02,0.09zm-18.43 0l-2.69 0c0.06,-0.03 0.12,-0.06 0.18,-0.09l2.51 0 0 0.09zm-69.32 0l-30.85 0 0 -0.09 30.85 0 0 0.09 0.4 0 -0.4 0zm59.75 -82.47l-18.78 0 0 -6.13 2.65 0c7.31,0 12.69,2.04 16.13,6.13zm7.69 -28.42c-0.67,-0.34 -1.34,-0.67 -2.02,-0.98l0.66 0 0 -4.54 -4.54 0 0 2.96c-1.33,-0.47 -2.7,-0.88 -4.09,-1.23l0 -1.73 -4.54 0 0 0.81c-1.34,-0.21 -2.7,-0.36 -4.1,-0.47l0 -0.34 -4.53 0 0 0.18 -3.31 0 0 -35.01 26.47 0 0 40.35zm-5.9 -13.1l0 4.55 4.54 0 0 -4.55 -4.54 0zm-8.63 0l0 4.55 4.54 0 0 -4.55 -4.54 0zm-8.63 0l0 4.55 4.53 0 0 -4.55 -4.53 0zm17.26 -7.56l0 4.54 4.54 0 0 -4.54 -4.54 0zm-8.63 0l0 4.54 4.54 0 0 -4.54 -4.54 0zm-8.63 0l0 4.54 4.53 0 0 -4.54 -4.53 0zm17.26 -7.58l0 4.55 4.54 0 0 -4.55 -4.54 0zm-8.63 0l0 4.55 4.54 0 0 -4.55 -4.54 0zm-8.63 0l0 4.55 4.53 0 0 -4.55 -4.53 0zm8.63 -7.57l0 4.54 4.54 0 0 -4.54 -4.54 0zm-8.63 0l0 4.54 4.53 0 0 -4.54 -4.53 0z"/>
   <polygon class="fil22" points="579.36,254.58 548.51,254.58 548.51,209.93 556.38,209.93 556.38,167.58 566.04,167.58 566.04,165.81 556.38,165.81 556.38,163.48 566.04,163.48 566.04,161.71 556.38,161.71 556.38,159.38 566.04,159.38 566.04,157.61 556.38,157.61 556.38,155.29 566.04,155.29 566.04,153.52 556.38,153.52 556.38,151.19 566.04,151.19 566.04,150.47 568.27,150.47 568.27,196.7 577.42,196.7 577.42,150.47 579.36,150.47 "/>
   <path class="fil23" d="M667.13 254.58l-13.52 0 0 -0.35 -4.93 0 0 0.35 -2.51 0c4.55,-2.24 8.55,-5.14 11.99,-8.72 4.1,-4.25 7.32,-9.32 9.65,-15.19 0.31,-0.8 0.61,-1.6 0.89,-2.42l0 18.35c-0.52,2.66 -1.05,5.32 -1.57,7.98zm-43.39 -22.88l-16.27 0 0 -35.92 12.86 0 0 -23.58 18.78 0c2.75,3.27 4.27,7.85 4.54,13.73 0.1,2.42 0.15,4.67 0.15,6.74 0,2.07 0,4.11 0,6.13 0,2.02 0,4.09 0,6.22 0,2.13 -0.05,4.4 -0.15,6.82 -0.51,13.24 -7.15,19.86 -19.91,19.86zm25.11 -86.79c-0.67,-0.39 -1.36,-0.77 -2.05,-1.13l0 -40.35 2.05 0 0 41.48z"/>
   <path class="fil24" d="M695.49 254.67l-24.92 0c3.93,-19.9 7.75,-39.72 11.48,-59.13 2.36,-12.25 4.75,-24.67 7.18,-37.14l6.26 0 0 96.27zm-26.79 -8.07l0 -18.35c1.78,-5.23 2.8,-10.93 3.06,-17.1 0.1,-2.3 0.15,-4.43 0.15,-6.39 0,-1.96 0,-3.86 0,-5.7 0,-1.84 0,-3.77 0,-5.79 0,-2.01 -0.05,-4.23 -0.15,-6.65 -0.26,-6.01 -1.28,-11.61 -3.06,-16.83l0 -11.39 17.07 0c-2.33,12.01 -4.64,23.96 -6.91,35.75 -3.32,17.24 -6.7,34.8 -10.16,52.45z"/>
   <path class="fil25" d="M845.71 256.27l-175.45 0c0.11,-0.54 0.21,-1.07 0.31,-1.6l175.14 0c0.53,0 0.95,0.36 0.95,0.8 0,0.44 -0.42,0.8 -0.95,0.8zm-266.11 0l-236.35 0c-1.21,-0.31 -2.47,-0.46 -3.73,-0.46 -1.28,0 -2.57,0.16 -3.83,0.46l-334.74 0c-0.53,0 -0.96,-0.36 -0.96,-0.8 0,-0.44 0.43,-0.8 0.96,-0.8l578.41 0 0 0c0,0.57 0.08,1.1 0.24,1.6zm65.57 -1.21c0.28,-0.13 0.55,-0.26 0.82,-0.39l2.69 0 0 0.38 -3.51 0.01zm8.44 -0.01l0 -0.38 13.5 0c-0.02,0.12 -0.05,0.24 -0.07,0.36l-13.43 0.02z"/>
   <path class="fil26" d="M304.05 137.83l17.07 1.87c4.23,0.47 7.83,-0.06 10.8,-1.59 2.97,-1.52 4.72,-4.69 5.25,-9.5 0.53,-4.8 -0.49,-8.28 -3.06,-10.41 -2.57,-2.14 -5.96,-3.44 -10.19,-3.91l-17.07 -1.87 -2.8 25.41zm22.8 -50.14c6.64,0.73 12.5,2.19 17.56,4.36 5.06,2.18 9.25,5.08 12.57,8.69 3.33,3.6 5.7,8.01 7.11,13.2 1.42,5.2 1.76,11.11 1.03,17.75 -0.95,8.58 -3.29,15.54 -7.04,20.86 -3.75,5.32 -8.65,9.15 -14.72,11.5l14.23 42.92c0.23,0.72 0.31,1.36 0.25,1.94 -0.12,1.03 -0.54,1.88 -1.28,2.55 -0.74,0.67 -1.55,0.96 -2.46,0.86l-20.55 -2.27c-2.01,-0.22 -3.39,-0.89 -4.13,-2.02 -0.75,-1.12 -1.31,-2.22 -1.7,-3.31l-12.72 -38.58 -13.9 -1.53 -4.05 36.73c-0.14,1.26 -0.66,2.31 -1.56,3.13 -0.91,0.83 -1.92,1.18 -3.03,1.06l-19.78 -2.18c-1.12,-0.12 -2.02,-0.68 -2.72,-1.69 -0.71,-1 -0.99,-2.13 -0.85,-3.39l12.21 -110.91c0.14,-1.25 0.66,-2.3 1.57,-3.12 0.9,-0.83 1.91,-1.18 3.02,-1.06l40.94 4.51z"/>
   <path class="fil27" d="M202.86 232.56l25.08 0c3.04,0 5.47,-1 7.29,-3.02 1.83,-2.01 2.74,-4.52 2.74,-7.51 0,-2.99 -0.91,-5.5 -2.74,-7.51 -1.82,-2.02 -4.25,-3.03 -7.29,-3.03l-25.08 0 0 21.07zm32.83 -57.51c0,-2.99 -0.79,-5.38 -2.36,-7.17 -1.57,-1.78 -3.87,-2.67 -6.91,-2.67l-23.56 0 0 19.69 23.56 0c3.04,0 5.34,-0.89 6.91,-2.68 1.57,-1.78 2.36,-4.17 2.36,-7.17zm-56.84 84.28c-1.12,0 -2.08,-0.45 -2.89,-1.38 -0.81,-0.92 -1.21,-2.01 -1.21,-3.28l0 -111.57c0,-1.27 0.4,-2.36 1.21,-3.28 0.81,-0.92 1.77,-1.38 2.89,-1.38l48.94 0c6.78,0 12.51,1.06 17.17,3.19 4.66,2.13 8.38,4.9 11.17,8.29 2.79,3.4 4.79,7.26 6,11.57 1.22,4.32 1.83,8.61 1.83,12.87 0,3.34 -0.33,6.25 -0.99,8.72 -0.66,2.48 -1.44,4.61 -2.36,6.39 -0.91,1.79 -1.85,3.23 -2.81,4.32 -0.96,1.1 -1.75,1.93 -2.36,2.51 3.96,3.11 6.72,6.7 8.29,10.79 1.57,4.09 2.35,9.01 2.35,14.77 0,4.72 -0.6,9.32 -1.82,13.81 -1.21,4.49 -3.22,8.5 -6,12.01 -2.79,3.51 -6.41,6.33 -10.87,8.46 -4.46,2.13 -9.93,3.19 -16.41,3.19l-52.13 0z"/>
   <path class="fil28" d="M409.18 213.91l24.62 0 -12.31 -41.45 -12.31 41.45zm24.62 -75.47c2.02,0 3.57,0.63 4.63,1.9 1.07,1.26 1.8,2.53 2.21,3.8l33.13 108.8c0.4,1.16 0.61,2.02 0.61,2.6 0,1.03 -0.33,1.93 -0.99,2.67 -0.66,0.75 -1.45,1.12 -2.36,1.12l-19.15 0c-2.02,0 -3.47,-0.48 -4.33,-1.46 -0.86,-0.98 -1.39,-1.93 -1.59,-2.85l-4.26 -14.34 -40.43 0 -4.25 14.34c-0.21,0.92 -0.74,1.87 -1.6,2.85 -0.86,0.98 -2.3,1.46 -4.33,1.46l-19.15 0c-0.91,0 -1.69,-0.37 -2.35,-1.12 -0.66,-0.74 -0.99,-1.64 -0.99,-2.67 0,-0.58 0.2,-1.44 0.61,-2.6l33.13 -108.8c0.4,-1.27 1.14,-2.54 2.2,-3.8 1.07,-1.27 2.61,-1.9 4.64,-1.9l24.62 0z"/>
   <path class="fil26" d="M549.5 259.33c-1.72,0 -3.11,-0.51 -4.18,-1.55 -1.06,-1.03 -1.74,-1.84 -2.05,-2.42l-34.8 -59.06 0 58.37c0,1.27 -0.41,2.36 -1.22,3.28 -0.81,0.93 -1.77,1.38 -2.88,1.38l-19.91 0c-1.12,0 -2.08,-0.45 -2.89,-1.38 -0.81,-0.92 -1.22,-2.01 -1.22,-3.28l0 -111.57c0,-1.27 0.41,-2.36 1.22,-3.28 0.81,-0.92 1.77,-1.38 2.89,-1.38l15.8 0c1.73,0 3.12,0.51 4.18,1.55 1.07,1.04 1.75,1.84 2.05,2.42l34.81 59.07 0 -58.38c0,-1.27 0.4,-2.36 1.21,-3.28 0.81,-0.92 1.77,-1.38 2.89,-1.38l19.91 0c1.11,0 2.07,0.46 2.89,1.38 0.81,0.92 1.21,2.01 1.21,3.28l0 111.57c0,1.27 -0.4,2.36 -1.21,3.28 -0.82,0.93 -1.78,1.38 -2.89,1.38l-15.81 0z"/>
   <path class="fil28" d="M643.65 185.93c-0.61,-13.24 -7.5,-19.86 -20.67,-19.86l-15.51 0 0 65.63 16.27 0c12.76,0 19.4,-6.62 19.91,-19.86 0.1,-2.42 0.15,-4.69 0.15,-6.82 0,-2.13 0,-4.2 0,-6.22 0,-2.02 0,-4.06 0,-6.13 0,-2.07 -0.05,-4.32 -0.15,-6.74zm-19.91 -47.49c6.99,0 13.37,1.18 19.15,3.54 5.77,2.36 10.76,5.67 14.97,9.93 4.2,4.26 7.49,9.36 9.87,15.28 2.38,5.93 3.73,12.41 4.03,19.43 0.1,2.42 0.15,4.64 0.15,6.65 0,2.02 0,3.95 0,5.79 0,1.84 0,3.74 0,5.7 0,1.96 -0.05,4.09 -0.15,6.39 -0.3,7.14 -1.62,13.64 -3.95,19.52 -2.33,5.87 -5.55,10.94 -9.65,15.19 -4.1,4.27 -8.99,7.58 -14.67,9.93 -5.67,2.37 -12,3.54 -18.99,3.54l-41.04 0c-1.11,0 -2.07,-0.45 -2.88,-1.38 -0.82,-0.92 -1.22,-2.01 -1.22,-3.28l0 -111.57c0,-1.27 0.4,-2.36 1.22,-3.28 0.81,-0.92 1.77,-1.38 2.88,-1.38l40.28 0z"/>
   <path class="fil29" d="M726.07 17.76c-0.63,-1.71 -1.25,-3.42 -1.87,-5.14 -0.26,-0.73 -0.58,-1.53 -1.27,-1.89 -0.42,-0.22 -0.91,-0.25 -1.37,-0.14 -1.63,0.37 -2.49,2.15 -2.95,3.76 -0.75,2.64 -1.06,5.43 -2.22,7.92 -0.26,0.56 -0.57,1.11 -0.71,1.72 -0.43,1.91 1.04,5.11 3.42,4.72 0.37,-0.06 0.72,-0.21 1.07,-0.33 1.48,-0.56 2.51,-0.13 3.95,0.28 1.34,0.37 2.78,0.1 3.98,-0.6 1.32,-0.78 2.31,-2.11 2.68,-3.61l-4.71 -6.69z"/>
   <path class="fil30" d="M699.94 291.48c-0.18,0 -0.35,-0.04 -0.52,-0.12 -0.88,-0.4 -1.39,-1.71 -1.14,-2.93 6.44,-31.55 12.58,-63.44 18.52,-94.28 5.94,-30.82 12.07,-62.68 18.46,-93.92 0.25,-1.21 1.16,-1.88 2.04,-1.48 0.87,0.4 1.38,1.71 1.13,2.93 -6.37,31.21 -12.51,63.06 -18.44,93.86 -5.94,30.86 -12.09,62.76 -18.54,94.34 -0.19,0.98 -0.82,1.6 -1.51,1.6z"/>
   <path class="fil30" d="M662 291.48c-0.17,0 -0.35,-0.04 -0.52,-0.12 -0.88,-0.4 -1.39,-1.71 -1.14,-2.93 6.44,-31.55 12.58,-63.44 18.52,-94.28 5.94,-30.82 12.08,-62.68 18.46,-93.92 0.25,-1.21 1.16,-1.88 2.04,-1.48 0.88,0.4 1.39,1.71 1.14,2.93 -6.38,31.21 -12.51,63.06 -18.45,93.86 -5.94,30.86 -12.09,62.76 -18.53,94.34 -0.2,0.98 -0.83,1.6 -1.52,1.6z"/>
   <path class="fil30" d="M710.01 235.92l-35.99 0c-0.91,0 -1.68,-1.04 -1.71,-2.33 -0.04,-1.28 0.67,-2.31 1.58,-2.31l35.99 0c0.91,0 1.68,1.03 1.71,2.31 0.04,1.29 -0.67,2.33 -1.58,2.33z"/>
   <path class="fil30" d="M715.75 204.56l-35.99 0c-0.91,0 -1.68,-1.03 -1.72,-2.32 -0.04,-1.28 0.67,-2.32 1.58,-2.32l35.99 0c0.91,0 1.68,1.04 1.72,2.32 0.04,1.29 -0.67,2.32 -1.58,2.32z"/>
   <path class="fil30" d="M704.28 267.27l-35.99 0c-0.91,0 -1.68,-1.04 -1.72,-2.32 -0.04,-1.28 0.67,-2.32 1.58,-2.32l35.99 0c0.91,0 1.68,1.04 1.72,2.32 0.04,1.28 -0.67,2.32 -1.58,2.32z"/>
   <path class="fil30" d="M722.6 173.21l-35.99 0c-0.91,0 -1.68,-1.04 -1.72,-2.32 -0.04,-1.28 0.67,-2.32 1.58,-2.32l35.99 0c0.91,0 1.68,1.04 1.72,2.32 0.03,1.28 -0.67,2.32 -1.58,2.32z"/>
   <path class="fil30" d="M727.8 141.85l-35.99 0c-0.91,0 -1.68,-1.03 -1.72,-2.31 -0.04,-1.29 0.67,-2.32 1.58,-2.32l35.99 0c0.91,0 1.68,1.03 1.72,2.32 0.04,1.28 -0.67,2.31 -1.58,2.31z"/>
   <path class="fil30" d="M735.18 110.5l-35.99 0c-0.91,0 -1.68,-1.03 -1.72,-2.32 -0.04,-1.28 0.67,-2.31 1.58,-2.31l35.99 0c0.91,0 1.68,1.03 1.72,2.31 0.04,1.29 -0.67,2.32 -1.58,2.32z"/>
   <path class="fil31" d="M719.56 291.48c0.17,0 0.35,-0.04 0.52,-0.12 0.92,-0.4 1.53,-1.71 1.39,-2.93 -3.77,-31.55 -7.22,-63.44 -10.56,-94.28 -3.33,-30.82 -6.77,-62.68 -10.52,-93.92 -0.14,-1.21 -1,-1.88 -1.91,-1.48 -0.91,0.4 -1.53,1.71 -1.39,2.93 3.74,31.21 7.19,63.06 10.52,93.86 3.33,30.86 6.78,62.76 10.56,94.34 0.12,0.98 0.69,1.6 1.39,1.6z"/>
   <path class="fil31" d="M757.49 291.48c0.17,0 0.35,-0.04 0.53,-0.12 0.91,-0.4 1.53,-1.71 1.39,-2.93 -3.78,-31.55 -7.22,-63.44 -10.56,-94.28 -3.33,-30.82 -6.77,-62.68 -10.52,-93.92 -0.15,-1.21 -1,-1.88 -1.91,-1.48 -0.91,0.4 -1.54,1.71 -1.39,2.93 3.74,31.21 7.19,63.06 10.51,93.86 3.34,30.86 6.79,62.76 10.57,94.34 0.12,0.98 0.69,1.6 1.38,1.6z"/>
   <path class="fil31" d="M714.17 235.92l35.99 0c0.91,0 1.77,-1.04 1.92,-2.33 0.14,-1.28 -0.48,-2.31 -1.39,-2.31l-35.99 0c-0.91,0 -1.76,1.03 -1.91,2.31 -0.15,1.29 0.47,2.33 1.38,2.33z"/>
   <path class="fil31" d="M711.09 204.56l35.99 0c0.91,0 1.77,-1.03 1.91,-2.32 0.15,-1.28 -0.47,-2.32 -1.38,-2.32l-35.99 0c-0.91,0 -1.77,1.04 -1.91,2.32 -0.15,1.29 0.47,2.32 1.38,2.32z"/>
   <path class="fil31" d="M717.25 267.27l35.99 0c0.92,0 1.77,-1.04 1.92,-2.32 0.15,-1.28 -0.47,-2.32 -1.38,-2.32l-35.99 0c-0.92,0 -1.77,1.04 -1.92,2.32 -0.14,1.28 0.48,2.32 1.38,2.32z"/>
   <path class="fil31" d="M706.89 173.21l35.99 0c0.91,0 1.76,-1.04 1.91,-2.32 0.15,-1.28 -0.47,-2.32 -1.38,-2.32l-35.99 0c-0.91,0 -1.77,1.04 -1.92,2.32 -0.14,1.28 0.48,2.32 1.39,2.32z"/>
   <path class="fil31" d="M704.34 141.85l35.98 0c0.92,0 1.77,-1.03 1.92,-2.31 0.15,-1.29 -0.47,-2.32 -1.38,-2.32l-35.99 0c-0.91,0 -1.77,1.03 -1.92,2.32 -0.14,1.28 0.48,2.31 1.39,2.31z"/>
   <path class="fil31" d="M699.61 110.5l35.98 0c0.91,0 1.77,-1.03 1.92,-2.32 0.14,-1.28 -0.48,-2.31 -1.39,-2.31l-35.98 0c-0.92,0 -1.77,1.03 -1.92,2.31 -0.15,1.29 0.47,2.32 1.39,2.32z"/>
   <path class="fil32" d="M692.23 101.58l50.81 0 0 -4.62c0,-2.19 -1.77,-3.97 -3.96,-3.97l-42.89 0c-2.19,0 -3.96,1.78 -3.96,3.97l0 4.62z"/>
   <path class="fil33" d="M722.23 41.35c0,0 -3.14,0.46 -7.1,0.91 -5.95,0.68 -13.78,1.33 -15.76,0.34 -3.29,-1.66 -14.12,-10.95 -14.12,-10.95l-1.7 -1.09c-0.29,-0.18 -0.6,-0.28 -0.93,-0.32 -0.36,-0.03 -0.97,-0.11 -1.78,-0.32 -0.41,-0.11 -0.8,-0.28 -1.13,-0.49l-0.19 -0.11 -0.05 -0.03c-0.75,-0.49 -1.33,-1.09 -1.82,-1.48 -0.75,-0.61 0.37,-0.99 1.63,-0.37 1.26,0.6 0.46,0.48 1.26,0.45 0.79,-0.03 -0.05,-1.22 -0.78,-2.06 -0.68,-0.8 -0.58,-0.82 -1.25,-1.75 -0.66,-0.91 -1.29,-1.62 -1.65,-2.21 -0.24,-0.42 -0.35,-0.95 0.13,-0.82 0.49,0.16 2.59,2.21 3.12,2.55 0.21,0.14 0.46,0.12 0.78,0.1 0.48,-0.03 1.11,-0.07 1.99,0.42 1.47,0.81 2.05,3.2 2.51,3.96 0.46,0.76 15.45,9.53 17.31,9.45 1.86,-0.1 15.93,-3.45 20.29,-3.21 2.36,0.13 -0.76,7.03 -0.76,7.03z"/>
   <path class="fil34" d="M703.56 43.11c-1.93,0 -3.46,-0.15 -4.19,-0.51 -3.29,-1.66 -14.12,-10.95 -14.12,-10.95l-1.7 -1.09c-0.29,-0.18 -0.6,-0.28 -0.93,-0.32 -0.36,-0.03 -0.97,-0.11 -1.78,-0.32 -0.41,-0.11 -0.8,-0.28 -1.13,-0.49 0.99,0.5 3.07,0.09 4.09,0.63 1.1,0.56 8.71,6.76 12.16,8.96 3.43,2.16 4.73,2.91 7.8,2.91 0.01,0 0.03,0 0.04,0 0.01,0 0.01,0 0.02,0 3.1,0 10.42,-1.3 10.42,-1.3l0.89 1.63c-3.76,0.43 -8.26,0.85 -11.57,0.85z"/>
   <path class="fil33" d="M687.21 137.12c0,0 -0.59,3.07 -0.47,5.51 0.36,1.68 0.06,2.18 0.06,2.18l-6.42 -0.36c0,0 2.79,-1.48 2.41,-8.07 -0.39,-6.6 4.42,0.74 4.42,0.74z"/>
   <path class="fil29" d="M686.83 143.13c0,0 -2.75,1.12 -5.52,0.41 -3.2,1.59 -5.46,2.24 -8.39,2.7 -2.93,0.45 -2.34,2.86 2.67,2.38 5.02,-0.47 8.54,-0.34 9.66,-0.26 1.12,0.08 2.91,0.18 2.96,-0.61 0.06,-0.78 -0.48,-4.9 -1.38,-4.62z"/>
   <path class="fil33" d="M706.86 139.99c0,0 -0.58,3.07 -0.46,5.5 0.35,1.68 0.05,2.19 0.05,2.19l-6.42 -0.37c0,0 2.8,-1.47 2.41,-8.07 -0.38,-6.6 4.42,0.75 4.42,0.75z"/>
   <path class="fil29" d="M706.49 146c0,0 -2.76,1.11 -5.53,0.41 -3.19,1.58 -5.45,2.24 -8.39,2.69 -2.93,0.46 -2.34,2.86 2.68,2.39 5.02,-0.48 8.53,-0.35 9.65,-0.27 1.12,0.08 2.92,0.18 2.97,-0.6 0.05,-0.79 -0.48,-4.9 -1.38,-4.62z"/>
   <path class="fil35" d="M712.71 77.52c0,0 -29.21,9.45 -30.45,20.92 -0.6,5.59 -5.4,38.05 -5.4,38.05 0,0 11.29,3.86 13.67,1.57 0,0 2.63,-32.39 3.71,-37.8 1.07,-5.41 29.63,-17.7 29.63,-17.7l-1.16 -7.36 -10 2.32z"/>
   <path class="fil35" d="M712.71 77.52c0,0 -29.21,9.45 -30.45,20.92 -0.6,5.59 -5.4,38.05 -5.4,38.05 0,0 11.29,3.86 13.67,1.57 0,0 2.63,-32.39 3.71,-37.8 1.07,-5.41 29.63,-17.7 29.63,-17.7l-1.16 -7.36 -10 2.32z"/>
   <path class="fil36" d="M716.41 77.5l6.85 1.18 0.61 3.88c0,0 -28.56,12.29 -29.63,17.7 -0.24,1.19 -0.55,3.68 -0.89,6.85 -0.53,-2.01 -1.05,-4.02 -1.57,-6.03 -0.21,-0.78 -0.41,-1.57 -0.43,-2.38 -0.02,-1.74 0.85,-3.37 1.85,-4.81 4.84,-6.95 15.56,-12.77 23.21,-16.39z"/>
   <path class="fil35" d="M707.52 100.91c-1.21,-8.04 22.3,-3.4 26.9,-10.28 1.6,-2.4 2.53,-9.72 0,-11.7 -4.95,-3.85 -15.08,-2.55 -15.08,-2.55 0,0 -23.91,14.31 -23.92,20.22 -0.03,6.62 3.28,44.03 3.28,44.03 0,0 10.77,1.49 11.52,-0.56 1.41,-10.43 -2.7,-39.16 -2.7,-39.16z"/>
   <path class="fil37" d="M716.08 53.4c0.99,13.39 -4.89,13.6 -5.31,25 0,0 14.56,-1.84 24.96,2.52 0,0 -0.83,-6.48 -3.1,-12.52 -0.07,-0.19 -0.14,-0.36 -0.21,-0.53 -0.44,-1.13 -0.93,-2.24 -1.48,-3.26l-0.08 -0.18c-0.07,-0.14 -0.14,-0.27 -0.18,-0.43l-0.08 -0.15c-0.65,-1.74 -0.37,-3.99 0.41,-6.41 0.73,-2.23 1.9,-4.61 3.17,-6.82 0.76,-1.31 1.55,-2.57 2.3,-3.7l0 -0.01c2.17,-3.24 4.04,-5.55 4.04,-5.55 0,0 1.27,-4.25 -1.29,-7.97l-0.02 -0.02c-0.29,-0.44 -0.65,-0.86 -1.05,-1.27 -1.11,-1.1 -4.17,-2.51 -6.67,-3.35 -0.64,-0.21 -1.25,-0.39 -1.77,-0.51 -0.42,-0.1 -0.79,-0.16 -1.09,-0.19 -1.46,-0.11 -2.55,-0.05 -3.45,0.14 -2.71,0.61 -3.58,1.17 -7.62,2.38l-8.81 3.83c0,0 1.18,7.39 0.27,9.61l6.1 -0.18c0,0 0.84,8 0.96,9.57z"/>
   <path class="fil38" d="M730.6 63.85c-1.61,-4.32 2.48,-11.8 5.88,-16.93l0 -0.01 -3.76 -3.96c0,0 0.07,6.51 -1.05,9.06 -1.11,2.53 -2.88,7.73 -1.07,11.84z"/>
   <path class="fil38" d="M716.94 37.74c0,0 -2.55,4.12 -1.81,6.1 -6.11,0.17 -6.11,0.17 -6.11,0.17 0,0 0.4,-0.96 0.34,-2.69 0.95,0.24 4.63,1.15 7.58,-3.58z"/>
   <path class="fil39" d="M722.06 76.49l-24.28 -0.97c-0.58,-0.03 -1.07,-0.44 -1.19,-1.01l-3.36 -16.43c-0.16,-0.8 0.47,-1.54 1.29,-1.51l24.28 0.98c0.57,0.02 1.06,0.44 1.18,1l3.36 16.43c0.16,0.8 -0.47,1.55 -1.28,1.51z"/>
   <path class="fil40" d="M722.12 75.9l-24.18 -0.97c-0.34,-0.01 -0.64,-0.26 -0.71,-0.6l-3.32 -16.25c-0.1,-0.48 0.28,-0.93 0.77,-0.91l23.62 0.95c0.54,0.03 1,0.41 1.11,0.94l3.3 16.14c0.07,0.37 -0.22,0.72 -0.59,0.7z"/>
   <path class="fil33" d="M724.03 67.64l0.17 0.98 0.51 -0.07 0.29 1.44c0,0 0.4,-0.08 1.14,-0.21l0.01 -0.01 0.03 -0.01c1.25,-0.22 3.48,-0.67 6.45,-1.36 1.93,-0.44 4.15,-0.98 6.66,-1.63 3.29,-0.84 5.44,-2.52 5.49,-2.98 0.09,-0.74 -0.04,-2.19 -0.29,-3.96 -0.13,-0.91 -0.28,-1.89 -0.46,-2.89 -0.6,-3.63 -1.42,-7.53 -1.72,-8.92 -0.02,-0.15 -0.05,-0.27 -0.07,-0.36l-0.03 -0.18 -0.96 0.37 -5.21 2.01 0.35 0.98 3.23 9.29 0.02 0.14c0.03,0.28 -0.13,0.54 -0.4,0.63 -2.56,0.93 -5.63,2.37 -8.29,3.71 -2.28,1.13 -4.27,2.21 -5.39,2.81l-0.22 0.12c-0.27,0.16 -0.57,0.18 -0.81,0.17 -0.29,-0.01 -0.5,-0.07 -0.5,-0.07z"/>
   <path class="fil33" d="M726.18 69.76c1.25,-0.23 3.48,-0.67 6.45,-1.36 1.92,-0.44 4.16,-0.98 6.66,-1.62 3.29,-0.85 5.44,-2.54 5.49,-2.99 0.09,-0.74 -0.04,-2.2 -0.29,-3.96 -0.58,-4.19 -1.79,-10.04 -2.18,-11.82 -0.02,-0.14 -0.04,-0.27 -0.07,-0.35l-1.3 0.67c0,0 0.05,0.23 0.14,0.63 0.42,1.92 1.69,7.74 2.27,11.13 0.19,1.13 0.31,1.99 0.3,2.35 -0.07,1.7 -1,1.91 -2.15,2.4 -0.66,0.29 -5.12,1.76 -9.08,3.03 -3.01,0.96 -5.73,1.8 -6.24,1.89z"/>
   <path class="fil33" d="M725.56 67.42c0,0 -0.66,0.14 -0.89,0.13 -0.35,-0.01 -0.46,-0.08 -0.46,-0.08 0,0 -1.41,-0.96 -2.63,-1.1l0.2 1c0,0 -1.65,0.93 -2.16,1.27 0,0 -0.55,0.24 -0.76,0.31 -0.22,0.06 -2.15,-0.12 -2.6,-0.11 -0.45,0.01 -0.7,0.27 -0.69,0.56 0,0 0.03,0.15 0.28,0.19 0.04,0.01 0.17,0.03 0.33,0.05 -0.23,-0.02 -0.42,-0.03 -0.51,-0.03 -0.46,0.01 -0.7,0.28 -0.69,0.56 0,0 0.03,0.15 0.28,0.19 0.07,0.02 0.41,0.06 0.85,0.11 -0.36,0.06 -0.56,0.28 -0.55,0.54 0,0 0.03,0.14 0.28,0.19 0.08,0.01 0.45,0.06 0.92,0.11 -0.14,0.11 -0.22,0.25 -0.21,0.41 0,0 0.03,0.14 0.28,0.19 0.25,0.04 3.62,0.59 3.96,0.53 0.63,-0.12 3.03,-1.86 3.16,-1.95 0.45,-0.27 1.05,-0.51 1.05,-0.51l0.56 -2.56z"/>
   <path class="fil37" d="M732 42.55c1.35,4.68 1.95,7.13 2.18,8.08 0.08,0.3 0.11,0.44 0.11,0.44 0,0 0.85,0 2.1,-0.23 1.31,-0.26 3.05,-0.79 4.7,-1.88l0.34 -0.23c0.3,-0.22 0.59,-0.45 0.88,-0.71 0.49,-0.45 0.97,-0.95 1.39,-1.52 0,0 -1.41,-9.18 -4.46,-13.11l-0.02 -0.02c-0.56,-0.71 -1.18,-1.26 -1.86,-1.53l-0.3 -0.1c-1.59,-0.52 -2.95,0.04 -3.94,1.28 -0.89,1.1 -1.46,2.75 -1.63,4.64 -0.12,1.53 0.02,3.2 0.51,4.89z"/>
   <path class="fil33" d="M721.8 25.78c1.12,0.59 2.31,0.82 3.5,0.85 -0.01,0.49 -0.05,1 -0.13,1.54 -0.3,0.08 -0.46,0.11 -0.66,0.19 -0.45,0.16 -0.24,1.05 -0.19,1.38 0.25,1.53 1.66,2.17 3.08,1.77 1.4,-0.4 1.93,-1.96 2.41,-3.17 0.19,-0.52 -0.03,-2.12 -0.02,-2.45 0.64,-0.26 2.36,-0.95 2.36,-0.95 0,0 2.97,-2.42 3,-4.58 0.02,-0.6 -1.05,-2.18 -1.07,-2.85 -0.04,-3.1 -2.12,-4.91 -3.22,-6.7 -1.38,-2.23 -4.99,-1.86 -7.5,-1.26 -1.51,0.36 -2.62,0.79 -2.62,0.79 0,0 -3.34,13.14 1.06,15.44z"/>
   <path class="fil29" d="M718.19 6.2c0.19,-0.33 0.38,-0.67 0.58,-0.99 0.3,0.6 1.1,0.72 1.76,0.7 2.82,-0.06 5.69,-1.24 8.38,-0.4 0.79,0.25 1.58,0.73 1.85,1.52 2.23,-0.67 4.46,-0.04 6.07,1.72 3.2,3.51 0.23,8.75 1.85,12.76 0.56,1.38 1.64,2.53 2.02,3.96 0.33,1.29 0.03,2.72 -0.79,3.76 -0.92,1.17 -2.35,1.77 -3.72,2.33 -0.58,0.24 -1.16,0.47 -1.77,0.62 -1.27,0.31 -2.63,0.21 -3.83,-0.28 -0.89,-0.36 -1.74,-1 -2,-1.92 -0.26,-0.91 0.12,-1.86 0.49,-2.73 0.68,-1.54 1.67,-2.53 2.61,-3.86 0.96,-1.35 1.91,-1.98 1.69,-3.79 -0.03,-0.28 -0.07,-0.58 -0.27,-0.78 -0.31,-0.32 -0.89,-0.22 -1.21,0.1 -0.33,0.31 -0.46,0.77 -0.58,1.21 -0.36,-1.21 -1.17,-2.27 -2.23,-2.95 -0.86,-0.55 -1.58,-0.91 -2.21,-1.72 -0.38,-0.5 -1.48,-2.02 -1.08,-2.61 -1.24,0.72 -3.72,0.47 -5.05,0.13 -1.56,-0.4 -3.04,-1.53 -3.39,-3.1 -0.28,-1.26 0.2,-2.51 0.83,-3.68z"/>
   <path class="fil41" d="M161.88 278.44c0,1.59 -14.63,2.88 -32.68,2.88 -18.05,0 -32.68,-1.29 -32.68,-2.88 0,-1.59 14.63,-2.88 32.68,-2.88 18.05,0 32.68,1.29 32.68,2.88z"/>
   <path class="fil29" d="M135.57 101.41c1.23,1.24 2.38,2.61 2.98,4.25 0.6,1.63 0.58,3.58 -0.41,5.01 -0.53,0.76 -1.46,1.37 -2.35,1.12 -0.24,-0.07 -0.46,-0.19 -0.67,-0.32 -2.21,-1.39 -3.74,-3.79 -4.07,-6.38l4.52 -3.68z"/>
   <path class="fil33" d="M109.86 266.24c0,0 -1.46,4.24 -1.88,5.3 -0.42,1.06 -3.56,0.09 -3.74,-0.6 -0.19,-0.69 1.23,-5.74 1.23,-5.74l4.39 1.04z"/>
   <path class="fil42" d="M103.31 271.04c-0.38,1.13 -1.09,2.74 -0.94,3.3 0.15,0.57 4.13,2.26 5.03,2.81 0.66,0.4 2.12,0.95 2.88,1.09 2.65,0.47 4.69,0.01 4.89,-0.4 0.84,-1.72 -4.41,-2.86 -6.65,-7.71 0,0 -0.4,-0.04 -0.81,0.37 -0.64,0.63 -1.52,0.88 -2.24,0.45 -0.41,-0.25 -0.91,-0.78 -1.11,-1.27 0,0 -0.67,0.24 -1.05,1.36z"/>
   <path class="fil33" d="M144.94 267.99c0,0 -0.1,4.48 -0.18,5.62 -0.08,1.14 -3.37,1.16 -3.75,0.56 -0.38,-0.6 -0.57,-5.84 -0.57,-5.84l4.5 -0.34z"/>
   <path class="fil42" d="M140.15 274.55c-0.02,1.19 -0.2,2.94 0.11,3.43 0.31,0.5 4.63,0.9 5.64,1.14 0.76,0.19 2.32,0.27 3.08,0.17 2.67,-0.35 4.47,-1.41 4.54,-1.86 0.28,-1.9 -5.07,-1.39 -8.68,-5.33 0,0 -0.39,0.08 -0.66,0.59 -0.41,0.8 -1.18,1.31 -2,1.12 -0.47,-0.11 -1.1,-0.47 -1.43,-0.87 0,0 -0.58,0.42 -0.6,1.61z"/>
   <path class="fil33" d="M177.56 90.38c-0.06,-0.48 -0.68,-0.24 -0.84,0.16 -0.02,0.05 -0.05,0.18 -0.09,0.35 0.05,-0.81 0.09,-1.46 0.07,-1.62 -0.05,-0.46 -0.63,-0.28 -0.82,0.08 0.01,-0.32 0.01,-0.56 0,-0.67 -0.06,-0.59 -0.69,-0.34 -0.84,0.15 -0.04,0.11 -0.09,0.42 -0.14,0.82 0.01,-0.21 0.01,-0.37 0,-0.45 -0.06,-0.48 -0.61,-0.35 -0.77,0.05 -0.05,0.13 -0.08,0.37 -0.16,0.94 -0.07,0.49 -0.21,1.01 -0.27,1.5 -0.06,0.45 -0.58,2.54 -1.62,2.77 -1.59,0.34 -0.58,-2.44 -1.71,-3.06 -0.35,-0.19 -0.72,1.96 -0.75,3.17 -0.03,1.22 -0.03,1.83 0.08,2.55 0.1,0.71 0.5,1.73 0.44,2.16 -0.09,0.7 -0.9,2.13 -0.9,2.13l4.02 0.92c0,0 0.96,-2.21 1.44,-2.73 1.23,-1.22 1.99,-2.62 2.44,-4.31 0.28,-1.06 0.38,-2.17 0.46,-3.26 0,0 -0.02,-1.49 -0.04,-1.65z"/>
   <path class="fil33" d="M139.69 124.05c0,0 12.77,-0.11 19.7,-7.88 5.54,-7.76 10.88,-16.33 11.28,-17.13 1.09,0.42 3.43,1.49 3.43,1.49 0,0 -7.31,16.35 -10.16,20.09 -2.85,3.73 -8.45,9.85 -20.28,12.89 -5.67,-6.51 -3.97,-9.46 -3.97,-9.46z"/>
   <path class="fil32" d="M149.27 225.78c0.74,-9.62 -2.59,-39.79 -2.91,-42.39 -0.32,-2.59 -2.15,-2.92 -3.55,-3.35 -6.96,-2.09 -15.21,8.7 -13.01,18.4 0.03,0.15 0.07,0.32 0.11,0.49 1.31,5.62 8.69,23.66 8.18,28.87 -4.05,10.92 0.54,33.54 1.93,43.05 0.16,0.01 0.33,0 0.49,-0.01 3.47,-0.1 5.44,-0.6 5.44,-0.6 0,0 2.59,-34.83 3.32,-44.46z"/>
   <path class="fil42" d="M140.44 227.68c0.25,-3.55 -3.34,-31.8 -4.23,-31.42 -0.3,0.13 -0.48,0.42 -0.64,0.7 -0.75,1.28 -1.46,2.58 -2.08,3.92 -0.65,1.38 -1.19,2.81 -1.65,4.26 2.6,7.69 6.63,18.76 6.25,22.66 -2.4,6.47 -1.76,17.06 -0.56,26.59 -0.46,-12.54 2.71,-23.87 2.91,-26.71z"/>
   <path class="fil32" d="M145.24 173.12c0,0 -2.64,0.66 -7.91,0.52 -6.69,-0.18 -15.17,-3.56 -15.17,-3.56 -8.53,9.23 -3.84,20.04 -4.14,23.6 -0.29,3.56 -0.99,20.45 -1.75,29.86 -8.65,8.48 -8.97,31 -11.5,42.85 -0.03,0.13 -0.06,0.27 -0.09,0.4 3.55,1.32 5.74,1.6 5.74,1.6l0.33 -0.95c2.58,-7.79 14.48,-30.13 17.44,-38.86 2.69,-7.92 9.63,-31.97 9.76,-31.95l8.85 1.52c0.02,-15.32 -1.56,-25.03 -1.56,-25.03z"/>
   <path class="fil33" d="M139.89 115.41c0.03,0.81 0.06,4 -1.63,4.76 -1.7,0.77 -2.78,1.1 -2.73,1.36 0.02,0.12 0.18,0.68 0.36,1.23 0.39,1.23 0.98,1.53 0.98,1.53l0.25 4.08 -3.05 3.04 -0.99 0.98 -1.49 -1.36 -4.87 -4.44c0,0 2.01,-2.47 0.62,-5.12 -0.2,-0.37 -2.42,-2.83 -4.19,-5.3 -1.03,-1.46 -1.9,-2.91 -2.13,-3.94 -0.64,-2.83 -1.17,-5.82 0.45,-7.59 1.62,-1.78 13.62,-7.48 15.75,1.79 0,0 1.8,2.41 2.63,3.15 0.85,0.75 0.63,1.77 -0.12,2.19 -0.73,0.42 0.13,2.82 0.16,3.64z"/>
   <path class="fil37" d="M147.5 183.33c0,0 -13.84,3.4 -31.23,0.17 0.84,-5.37 2.26,-21.53 2.48,-27.66l0.03 -0.62c0.14,-3.92 0.21,-6.71 0.29,-6.82 0.18,-0.25 -0.44,-12.73 0.58,-17.62 0.19,-0.9 0.44,-1.54 0.76,-1.8 2.03,-1.69 4.43,-3.47 7.1,-4.79 0,0 6.22,6.69 9.39,-0.71 3.49,-0.32 5.27,0.39 6.28,3.88 5.59,19.42 4.32,55.97 4.32,55.97z"/>
   <path class="fil37" d="M139.51 123.52c0,0 5.78,0.1 11.68,-2.51 3.3,3.87 5.29,10.92 5.29,10.92 0,0 -7.96,5.06 -13.78,5.55 -1.25,-8.48 -3.19,-13.96 -3.19,-13.96z"/>
   <path class="fil43" d="M140.63 124.74c0,0 3.59,4.54 4.76,12.25 4.02,-0.78 10.29,-4.25 11.09,-5.06 -1.77,0.58 -9.31,3.38 -10.34,1.06 -1.92,-4.33 -5.51,-8.25 -5.51,-8.25z"/>
   <path class="fil40" d="M139.14 129.08l25.6 2.78 -5.32 14.63 -21.46 -14.73c-0.65,-0.3 -0.92,-0.93 -0.63,-1.46l0.28 -0.53c0.25,-0.47 0.88,-0.75 1.53,-0.69z"/>
   <path class="fil44" d="M164.11 139.58c-1.47,4.04 -3.57,7.13 -4.69,6.91 -1.12,-0.23 -0.84,-3.69 0.63,-7.72 1.47,-4.04 3.57,-7.14 4.69,-6.91 1.12,0.22 0.84,3.68 -0.63,7.72z"/>
   <path class="fil33" d="M116.59 148.35c0,0 2.67,9.24 9.64,13.59 2.03,1.27 4.57,0.56 6.17,-1.22 4.76,-5.34 9.53,-17.35 11.05,-21.88 -2.79,-1.48 -3.69,-1.25 -3.69,-1.25 0,0 -6.75,9.38 -10.63,15.66l-2.9 -5.05 -9.64 0.15z"/>
   <path class="fil33" d="M139.57 137.94c0,0 1.24,-2.01 1.3,-3.53 0.06,-1.52 -0.67,-4.15 0.81,-5.52 0.55,-0.51 2.48,-1.29 4.65,-0.93 3.22,0.53 4.1,1.48 3.92,2.16 -0.17,0.68 -2.41,0.92 -2.99,2.08 -0.59,1.16 -0.26,1.88 -0.41,3.15 -0.22,1.91 -2.88,2.72 -3.46,3.67 -0.41,0.67 -3.82,-1.08 -3.82,-1.08z"/>
   <path class="fil38" d="M119.65 178.13c0.81,-2.78 1.59,-19.16 1.68,-21.59 2.17,-0.22 6.37,-1.82 8.83,-5.75 -0.91,-1.56 -3.17,-6.96 -7.37,-11.54l-2.43 -9.09c0,0 -0.28,0.21 -0.71,0.62 -1.02,4.89 -0.4,17.37 -0.58,17.62 -0.08,0.11 -0.15,2.9 -0.29,6.82l-0.03 0.62 0.01 0c-0.23,6.13 -1.64,22.29 -2.49,27.66 17.39,3.23 31.23,-0.17 31.23,-0.17 0,0 -28.75,-2.03 -27.85,-5.2z"/>
   <path class="fil37" d="M122 127.7c0,0 -7.17,4.7 -7.48,12.7 -0.23,6.19 3.86,15.22 3.86,15.22 0,0 7.09,0.78 10.82,-5.02 -1.1,-2.82 -2.07,-5.32 -4.19,-8.65l-3.01 -14.25z"/>
   <path class="fil29" d="M132.82 103.53c2.68,-0.83 6.25,-0.99 4.67,-4.89 -0.91,-2.27 -4.03,-4.12 -7.79,-3.92 -2.06,0.11 -4.36,2.38 -5.66,5.15 -5.94,2.34 -6.67,7.13 -5.48,11.98 0,0 2.63,9.12 9.54,9.47 0,0 -0.05,-1.83 -0.71,-4.21 0,0 -2.81,-0.94 -3.31,-2.61 -0.7,-2.32 2.59,-0.77 2.59,-0.77 0,0 0.03,-1.84 -0.32,-3.47 -0.14,-0.62 -0.51,-1.12 -0.99,-1.53 0.11,-0.24 1.48,-3.33 7.46,-5.2z"/>
   <path class="fil41" d="M682.57 294.36c0,2.41 -19.41,4.36 -43.35,4.36 -23.94,0 -43.35,-1.95 -43.35,-4.36 0,-2.41 19.41,-4.36 43.35,-4.36 23.94,0 43.35,1.95 43.35,4.36z"/>
   <polygon class="fil45" points="653.61,254.23 653.63,266.28 653.01,265.12 652.39,266.28 651.77,265.13 651.16,266.28 650.54,265.13 649.92,266.29 649.31,265.13 648.69,266.29 648.68,254.23 "/>
   <polygon class="fil32" points="669.5,255.03 669.54,295 636.48,295.03 636.44,255.07 "/>
   <polygon class="fil46" points="636.45,262.65 636.44,255.07 669.5,255.03 669.51,262.61 "/>
   <polygon class="fil40" points="670.78,261.43 635.62,261.47 635.62,254.25 670.78,254.21 "/>
   <polygon class="fil47" points="655.62,254.22 655.63,266.28 655.01,265.12 654.4,266.28 653.78,265.12 653.16,266.28 652.55,265.12 651.93,266.28 651.31,265.13 650.7,266.28 650.68,254.23 "/>
   <path class="fil48" d="M612.56 290.92l0.02 -19.81 -0.23 0 0 -5.16 2.95 0.01c1.39,0.88 2.93,1.48 4.57,1.89 2.07,0.51 4.43,1.27 5.77,3.05 0.51,0.67 0.78,1.83 1.66,2.12 0.14,0.06 0.29,0.08 0.44,0.08 0.2,0 0.4,-0.04 0.6,-0.11l-0.14 0.08 0.24 0.46 -0.21 0.3 -0.05 0.34c-0.03,0.22 0.11,0.44 0.32,0.5 0.2,0.05 0.34,0.28 0.3,0.5l-0.02 0.12c-0.03,0.21 0.1,0.43 0.29,0.5l0.07 0.02c0.2,0.07 0.33,0.3 0.28,0.5l-0.01 0.1c-0.05,0.21 0.09,0.44 0.29,0.51l0.05 0.01c0.09,0.03 0.17,0.04 0.26,0.04 0.14,0 0.26,-0.03 0.38,-0.09l6.07 -3.27 0.02 16.4c-8.99,0.05 -17.24,0.39 -23.92,0.91zm23.89 -19.86l0 0c-0.2,-0.09 -0.32,-0.34 -0.25,-0.54 0.07,-0.19 -0.04,-0.44 -0.24,-0.53l-0.31 -0.14 -0.31 0 -0.26 -0.48 -0.18 0.1c0.23,-0.22 0.41,-0.47 0.49,-0.8 0.25,-0.89 -0.57,-1.76 -0.85,-2.55 -0.02,-0.05 -0.03,-0.1 -0.05,-0.14l1.96 0 0 5.08z"/>
   <path class="fil49" d="M643.79 295.08l-31.23 -0.03 0 -4.13c6.68,-0.52 14.93,-0.86 23.92,-0.91l0 5.02 7.31 -0.01 0 0.06z"/>
   <path class="fil50" d="M636.48 295.03l0 -5.02 -0.02 -16.4 0.54 -0.29c0.19,-0.1 0.33,-0.28 0.4,-0.5l0.01 -0.04c0.06,-0.21 -0.06,-0.45 -0.26,-0.53l-0.09 -0.04c-0.19,-0.08 -0.31,-0.32 -0.26,-0.52l0.02 -0.07c0.05,-0.19 -0.06,-0.43 -0.26,-0.51l-0.11 -0.05 0 -5.08 7.35 0.01 -0.01 29.03 -7.31 0.01z"/>
   <path class="fil51" d="M609.64 252.57c0.7,-3.74 2.84,-7.26 6.22,-9.16 1.95,-1.09 4.17,-1.95 6.44,-1.95 1.98,-0.01 3.97,0.43 5.79,1.19 3.13,1.32 5.86,3.78 7.13,6.94 1.07,2.63 1.06,5.58 0.44,8.32 -0.6,2.67 -2.11,5.42 -1.12,8.21 0.28,0.79 1.1,1.66 0.85,2.55 -0.29,1.06 -1.5,1.4 -2.36,1.85 -1.02,0.54 -2.04,1.08 -3.06,1.62 -0.73,0.39 -1.78,1.21 -2.67,0.88 -0.88,-0.29 -1.15,-1.45 -1.66,-2.12 -1.34,-1.78 -3.7,-2.54 -5.77,-3.05 -2.37,-0.6 -4.53,-1.58 -6.35,-3.26 -3.37,-3.1 -4.73,-7.55 -3.88,-12.02z"/>
   <path class="fil37" d="M632.87 271.29c-0.01,0 -0.85,-1.73 -1.89,-3.9 -1.03,-2.17 -2.25,-4.77 -2.98,-6.51 -0.39,-0.93 -0.8,-1.84 -1.09,-3.39 -0.07,-0.36 -0.14,-0.88 -0.14,-1.39 0,-0.44 0.06,-0.88 0.2,-1.19 0.15,-0.31 0.33,-0.48 0.68,-0.54l0.2 -0.02c0.3,0.01 0.44,0.11 0.57,0.29 0.13,0.19 0.2,0.5 0.2,0.83 0,0.56 -0.2,1.19 -0.44,1.49 -0.45,0.61 -1.87,1.22 -2.71,1.2l-0.08 0c-1.5,-0.05 -2.99,-1.47 -3.49,-2.81l-0.06 -0.3c0.01,-0.21 0.09,-0.38 0.24,-0.52 0.15,-0.13 0.35,-0.22 0.55,-0.22 0.18,0.01 0.36,0.06 0.52,0.21 0.16,0.13 0.43,0.58 0.62,1.15 0.19,0.56 0.32,1.25 0.32,1.87 0,0.83 -0.23,1.5 -0.73,1.8 -0.55,0.34 -1.2,0.5 -1.86,0.5 -0.29,0 -0.57,-0.03 -0.85,-0.09 -0.76,-0.14 -1.25,-0.93 -1.24,-1.47 0,-0.18 0.05,-0.31 0.12,-0.39 0.07,-0.07 0.18,-0.14 0.41,-0.14 0.15,0 0.35,0.04 0.6,0.13 1.5,0.53 2.81,2.21 3.65,3.61 2.35,3.89 4.09,7.01 6.38,10.95l0.57 -0.33c-2.28,-3.94 -4.02,-7.06 -6.38,-10.97 -0.88,-1.44 -2.22,-3.24 -3.99,-3.89 -0.31,-0.11 -0.58,-0.17 -0.83,-0.17 -0.37,0 -0.7,0.13 -0.9,0.37 -0.21,0.23 -0.3,0.54 -0.3,0.83 0.01,0.87 0.65,1.88 1.77,2.12 0.33,0.07 0.66,0.1 0.99,0.1 0.76,0 1.54,-0.18 2.21,-0.59 0.8,-0.5 1.05,-1.44 1.05,-2.37 0,-0.72 -0.15,-1.46 -0.36,-2.09 -0.22,-0.63 -0.48,-1.13 -0.81,-1.43 -0.28,-0.26 -0.63,-0.37 -0.96,-0.37 -0.74,0 -1.44,0.57 -1.45,1.4 0,0.17 0.03,0.35 0.1,0.53 0.6,1.56 2.19,3.15 4.09,3.24l0.1 0.01c1.1,-0.02 2.54,-0.61 3.23,-1.46 0.37,-0.48 0.58,-1.19 0.58,-1.9 0,-0.42 -0.08,-0.84 -0.3,-1.19 -0.22,-0.35 -0.63,-0.6 -1.13,-0.6l-0.31 0.03c-0.57,0.09 -0.98,0.47 -1.17,0.92 -0.21,0.45 -0.27,0.97 -0.27,1.47 0,0.57 0.08,1.13 0.15,1.51 0.31,1.62 0.74,2.6 1.14,3.53 1.48,3.51 4.88,10.44 4.88,10.44l0.6 -0.29 0 0z"/>
   <polygon class="fil42" points="628.56,273.75 635.44,270.05 635.08,269.37 628.2,273.07 "/>
   <path class="fil32" d="M629.42 276.31c0.05,-0.2 -0.08,-0.43 -0.28,-0.5l-0.07 -0.02c-0.19,-0.07 -0.32,-0.29 -0.29,-0.5l0.02 -0.12c0.04,-0.22 -0.1,-0.45 -0.3,-0.5 -0.21,-0.06 -0.35,-0.28 -0.32,-0.5l0.05 -0.34 0.21 -0.3 6.84 -3.67 0.37 -0.01 0.31 0.14c0.2,0.09 0.31,0.34 0.24,0.53 -0.07,0.2 0.05,0.45 0.25,0.54l0.11 0.05c0.2,0.08 0.31,0.32 0.26,0.51l-0.02 0.07c-0.05,0.2 0.07,0.44 0.26,0.52l0.09 0.04c0.2,0.08 0.32,0.32 0.26,0.53l-0.01 0.04c-0.07,0.22 -0.21,0.4 -0.4,0.5l-6.61 3.56c-0.19,0.1 -0.42,0.12 -0.64,0.05l-0.05 -0.01c-0.2,-0.07 -0.34,-0.3 -0.29,-0.51l0.01 -0.1z"/>
   <polygon class="fil42" points="628.81,274.58 628.77,274.54 628.82,274.37 632.02,272.66 632.19,272.71 632.13,272.88 628.95,274.59 "/>
   <polygon class="fil42" points="633.42,272.11 633.38,272.07 633.44,271.89 635.2,270.94 635.38,270.99 635.32,271.17 633.56,272.12 "/>
   <polygon class="fil42" points="631.45,274.17 631.41,274.13 631.46,273.96 636.08,271.48 636.26,271.53 636.21,271.7 631.58,274.18 "/>
   <polygon class="fil42" points="629.22,275.37 629.18,275.33 629.23,275.16 630.6,274.43 630.77,274.48 630.72,274.65 629.35,275.38 "/>
   <polygon class="fil42" points="633.55,274.05 633.52,274.01 633.57,273.83 636.04,272.51 636.22,272.56 636.16,272.73 633.69,274.06 "/>
   <polygon class="fil42" points="630.94,275.45 630.91,275.41 630.96,275.24 631.95,274.7 632.13,274.75 632.07,274.93 631.08,275.46 "/>
   <polygon class="fil42" points="632.62,272.54 632.58,272.5 632.63,272.32 632.99,272.13 633.17,272.18 633.11,272.36 632.76,272.55 "/>
   <path class="fil52" d="M627.74 273.1c-0.15,0 -0.3,-0.02 -0.44,-0.08 -0.88,-0.29 -1.15,-1.45 -1.66,-2.12 -1.34,-1.78 -3.7,-2.54 -5.77,-3.05 -2.37,-0.6 -4.53,-1.58 -6.35,-3.26 -2.73,-2.5 -4.13,-5.9 -4.13,-9.47 0,-0.84 0.09,-1.7 0.25,-2.55 0.7,-3.74 2.84,-7.26 6.22,-9.16 0.38,-0.21 0.78,-0.42 1.18,-0.61 -5.28,3.27 -7.46,10.56 -4.21,16.18 2.47,4.27 6.13,6.45 11.24,6.45 0.53,0 1.08,-0.02 1.65,-0.07 0.16,-0.01 0.32,-0.02 0.47,-0.02 0.1,0 0.19,0 0.29,0.01 1.26,2.16 2.44,4.24 3.8,6.6l-1.94 1.04c-0.2,0.07 -0.4,0.11 -0.6,0.11zm3.13 -1.47c-1.26,-2.18 -2.37,-4.13 -3.53,-6.13 0.57,0.18 1.08,0.53 1.51,1.11 0.73,0.99 0.97,2.27 1.77,3.22 0.12,0.14 0.26,0.28 0.44,0.34 0.08,0.02 0.16,0.03 0.24,0.03 0.09,0 0.18,-0.01 0.28,-0.02 0,0 0,0 0,0 0.17,0.33 0.31,0.62 0.42,0.85l-1.13 0.6zm1.71 -0.92c-0.09,-0.18 -0.2,-0.41 -0.32,-0.67 1.16,-0.3 2.23,-0.87 3.18,-1.63l-0.05 0.26 0 0c-0.08,0.33 -0.26,0.58 -0.49,0.8l-2.32 1.24z"/>
   <path class="fil51" d="M630.28 271.95c-1.36,-2.36 -2.54,-4.44 -3.8,-6.6 0.3,0.02 0.58,0.07 0.86,0.15 1.16,2 2.27,3.95 3.53,6.13l-0.59 0.32zm1.72 -0.92c-0.11,-0.23 -0.25,-0.52 -0.42,-0.85 0.23,-0.04 0.46,-0.09 0.68,-0.14 0.12,0.26 0.23,0.49 0.32,0.67l-0.58 0.32z"/>
   <path class="fil53" d="M628.34 272.99l0 0 1.94 -1.04 0.59 -0.32 1.13 -0.6 0.58 -0.32 2.32 -1.24c-0.51,0.48 -1.27,0.74 -1.87,1.05 -1.02,0.54 -2.04,1.08 -3.06,1.62 -0.45,0.24 -1.04,0.65 -1.63,0.85z"/>
   <polygon class="fil54" points="610.82,266.54 610.79,295.05 639.89,295.08 639.92,266.57 "/>
   <path class="fil41" d="M369.9 286.49c0,1.58 -9.63,2.86 -21.51,2.86 -11.88,0 -21.51,-1.28 -21.51,-2.86 0,-1.57 9.63,-2.85 21.51,-2.85 11.88,0 21.51,1.28 21.51,2.85z"/>
   <path class="fil41" d="M346.47 295.74c0,4.16 -47.51,7.53 -106.12,7.53 -58.6,0 -106.11,-3.37 -106.11,-7.53 0,-4.16 47.51,-7.53 106.11,-7.53 58.61,0 106.12,3.37 106.12,7.53z"/>
   <path class="fil55" d="M192.02 286.31c-13.88,-0.67 -27.75,-0.35 -41.64,-0.32 -5.01,0.02 -10.05,0.09 -15.05,0.56 -3.01,0.28 -7.36,0.37 -9.87,2.32 -4.27,3.31 4.06,4.64 5.95,4.87 10.05,1.22 20.4,0.64 30.49,0.36 15.19,-0.43 30.41,0.27 45.57,-0.45 0.3,-0.01 0.31,-0.47 0,-0.47 -12.75,-0.06 -25.55,-0.19 -38.3,0.15 -9.17,0.24 -18.34,0.61 -27.51,0.44 -4.09,-0.08 -8.27,-0.16 -12.3,-0.89 -1.88,-0.33 -6.52,-1.42 -3.31,-3.73 2.9,-2.08 8.13,-1.99 11.49,-2.23 4.28,-0.3 8.56,-0.37 12.84,-0.39 13.89,-0.05 27.75,-0.21 41.64,-0.04l0 -0.18z"/>
   <path class="fil56" d="M283.78 276.14c7.34,0.15 14.67,0.66 21.98,1.36 3.33,0.32 6.65,0.73 9.98,1.02 1.57,0.13 3.6,0 5.07,0.58 2.15,0.25 2.37,1.87 0.66,4.86 -0.98,0.14 -1.96,0.25 -2.94,0.34 -6.3,0.6 -12.65,0.32 -18.99,0.04 -7.79,-0.34 -15.57,-0.68 -23.26,0.6 -0.34,0.06 -0.26,0.63 0.08,0.61 9.73,-0.73 19.31,-0.28 29.04,-0.07 5.04,0.12 10.2,0.19 15.2,-0.54 1.71,-0.25 3.92,-0.68 4.41,-2.66 1.27,-5.02 -9.6,-4.58 -12.16,-4.84 -9.67,-0.98 -19.35,-1.65 -29.07,-1.62 -0.21,0.01 -0.21,0.32 0,0.32z"/>
   <path class="fil56" d="M173.33 289.37c-7.27,0.08 -14.59,0.75 -21.73,1.96 -4.23,0.72 -8.7,1.61 -12.52,3.65 -1.88,0.99 -4.68,3.04 -3.92,5.55 0.71,2.31 3.94,3.24 5.96,3.8 3.95,1.1 8.09,1.52 12.16,1.85 7.02,0.56 14.05,0.53 21.08,0.55 5.89,0.02 15,0.91 17.26,-6.3 1.26,-4.02 -0.5,-8.25 -1.64,-12.07 -0.71,-2.36 -1.31,-4.95 -0.56,-7.38 0.41,-1.33 1.25,-2.73 2.73,-2.99 1.26,-0.23 2.39,0.39 2.91,1.53 0.23,0.49 0.94,0.07 0.72,-0.41 -0.93,-2.03 -3.53,-2.59 -5.3,-1.27 -2.75,2.04 -2.45,6.32 -1.72,9.24 0.97,3.92 2.98,7.86 2.32,12 -0.55,3.46 -3.3,5.55 -6.54,6.38 -4.2,1.07 -8.77,0.49 -13.09,0.51 -3.55,0.02 -7.11,-0.02 -10.66,-0.14 -4.38,-0.15 -8.77,-0.4 -13.12,-0.99 -3.31,-0.45 -7.08,-0.93 -10.01,-2.65 -2.39,-1.4 -2.24,-3.55 -0.2,-5.29 2.99,-2.57 7.45,-3.52 11.19,-4.33 8.07,-1.74 16.43,-2.44 24.7,-2.75l-0.02 -0.45z"/>
   <path class="fil56" d="M362.62 279.8c0.39,1.48 2.02,1.62 3.35,1.82 1.97,0.29 3.86,0.62 5.79,1.13 0.88,0.24 2.02,0.39 2.84,0.84 4.17,2.3 2.28,5.3 -0.98,6.47 -4.36,1.56 -9.31,0.9 -13.85,0.98 -5.2,0.1 -10.39,0.2 -15.58,0.22 -19.91,0.09 -39.81,0.18 -59.72,0.28 -0.4,0.01 -0.4,0.62 0,0.62 23.44,-0.12 46.9,0.01 70.34,-0.44 5.06,-0.1 10.38,0.33 15.39,-0.34 2.37,-0.31 6.13,-0.99 7.25,-3.54 0.82,-1.85 -0.17,-3.48 -1.83,-4.36 -1.96,-1.03 -4.47,-1.43 -6.63,-1.85 -1.69,-0.34 -5.55,-0.06 -6.2,-1.88l-0.17 0.05z"/>
   <path class="fil56" d="M359.56 280.8c0.14,1.16 2.72,2.3 3.53,2.83 1.86,1.23 5.36,2.99 6.02,5.34 1.7,6.11 -27.82,5.87 -39.74,5.62 -2.42,-0.05 -4.12,-0.1 -4.68,-0.09 -14.43,0.1 -28.85,0.21 -43.28,0.3 -0.4,0 -0.4,0.62 0,0.61 13.72,-0.08 27.42,-0.15 41.14,-0.29 3.39,-0.03 6.79,0 10.2,0.03 9.02,0.08 18.08,0.17 26.98,-0.95 2.46,-0.31 8.87,-0.67 9.9,-3.81 0.64,-1.99 -1.57,-3.74 -2.92,-4.79 -1.34,-1.05 -2.79,-1.94 -4.24,-2.83 -0.61,-0.38 -2.56,-1.19 -2.74,-1.99l-0.17 0.02z"/>
   <path class="fil51" d="M325.36 278.54c-1.99,-3.93 -2.53,-8.68 -0.77,-12.82 1.03,-2.39 2.46,-4.74 4.54,-6.35 1.81,-1.41 3.95,-2.42 6.16,-3 3.82,-1.01 8.06,-0.68 11.47,1.32 2.84,1.66 4.92,4.37 6.29,7.33 1.34,2.88 1.9,6.47 4.78,8.33 0.83,0.53 2.19,0.75 2.6,1.74 0.48,1.18 -0.4,2.35 -0.87,3.37 -0.55,1.22 -1.11,2.44 -1.66,3.66 -0.4,0.87 -0.78,2.38 -1.83,2.7 -1.01,0.36 -2.08,-0.52 -3.03,-0.78 -2.49,-0.68 -5.19,0.29 -7.46,1.28 -2.6,1.14 -5.28,1.77 -8.14,1.52 -5.29,-0.47 -9.69,-3.6 -12.08,-8.3z"/>
   <path class="fil37" d="M359.92 279.37c-0.01,-0.01 -2.01,-0.99 -4.49,-2.25 -2.49,-1.26 -5.45,-2.8 -7.36,-3.87 -1.02,-0.58 -2.04,-1.13 -3.42,-2.36 -0.33,-0.3 -0.8,-0.76 -1.18,-1.27 -0.38,-0.5 -0.65,-1.06 -0.65,-1.5 0.01,-0.27 0.08,-0.51 0.3,-0.74 0.27,-0.28 0.5,-0.37 0.71,-0.37 0.38,-0.01 0.84,0.33 1.19,0.84 0.35,0.5 0.58,1.15 0.58,1.58l0 0.02c-0.01,0.47 -0.23,1.12 -0.56,1.71 -0.34,0.6 -0.79,1.14 -1.2,1.43 -0.66,0.47 -1.51,0.68 -2.38,0.68 -1.05,0 -2.13,-0.31 -2.91,-0.79 -0.34,-0.22 -0.46,-0.5 -0.47,-0.8 0,-0.25 0.11,-0.51 0.28,-0.7 0.18,-0.19 0.43,-0.31 0.73,-0.31l0.08 0c0.19,0.01 0.57,0.14 0.97,0.37 0.62,0.34 1.34,0.89 1.89,1.53 0.55,0.63 0.92,1.34 0.91,1.96 0,0.19 -0.03,0.37 -0.09,0.55 -0.4,1.02 -1.24,1.85 -2.25,2.34 -0.26,0.13 -0.52,0.18 -0.79,0.18 -0.45,0 -0.88,-0.16 -1.2,-0.39 -0.31,-0.24 -0.48,-0.53 -0.48,-0.76 0.01,-0.13 0.05,-0.26 0.19,-0.41 0.15,-0.15 0.4,-0.31 0.79,-0.43 0.5,-0.16 1.05,-0.23 1.61,-0.23 1.47,0 3.08,0.47 4.36,0.97 4.92,1.91 8.72,3.54 13.61,5.54l0.23 -0.55c-4.88,-2 -8.7,-3.64 -13.62,-5.55 -1.32,-0.51 -2.98,-1.01 -4.58,-1.01 -0.61,0 -1.22,0.08 -1.79,0.26 -0.46,0.15 -0.8,0.34 -1.03,0.58 -0.24,0.24 -0.37,0.54 -0.36,0.83 0,0.5 0.3,0.93 0.72,1.24 0.41,0.31 0.96,0.51 1.55,0.51 0.35,0 0.71,-0.07 1.06,-0.24 1.12,-0.55 2.08,-1.48 2.53,-2.67 0.1,-0.25 0.14,-0.51 0.14,-0.76 -0.01,-1.14 -0.8,-2.19 -1.71,-3.01 -0.45,-0.41 -0.94,-0.75 -1.4,-1.01 -0.45,-0.25 -0.86,-0.41 -1.22,-0.44l-0.12 0c-0.96,0 -1.6,0.8 -1.61,1.61 0,0.49 0.25,1 0.76,1.31 0.89,0.55 2.05,0.88 3.22,0.88 0.96,0 1.94,-0.23 2.73,-0.79 0.51,-0.37 0.99,-0.97 1.37,-1.62 0.37,-0.66 0.62,-1.37 0.63,-2.01l0 -0.02c0,-0.61 -0.27,-1.32 -0.68,-1.92 -0.41,-0.59 -0.97,-1.09 -1.68,-1.1 -0.4,0 -0.8,0.19 -1.14,0.56 -0.32,0.34 -0.47,0.75 -0.47,1.15 0.01,0.67 0.36,1.3 0.77,1.86 0.42,0.56 0.91,1.04 1.27,1.36 1.41,1.26 2.5,1.85 3.52,2.43 3.85,2.17 11.87,6.13 11.87,6.13l0.27 -0.53 0 0z"/>
   <polygon class="fil42" points="357.74,284.6 361.45,276.32 360.63,275.96 356.93,284.23 "/>
   <path class="fil32" d="M360.35 286.34c-0.11,-0.22 -0.39,-0.34 -0.62,-0.26l-0.08 0.03c-0.22,0.07 -0.5,-0.04 -0.61,-0.25l-0.07 -0.13c-0.11,-0.23 -0.41,-0.34 -0.64,-0.25 -0.22,0.1 -0.51,-0.01 -0.63,-0.23l-0.2 -0.35c-0.07,-0.13 -0.08,-0.28 -0.02,-0.42l3.68 -8.22c0.06,-0.14 0.18,-0.23 0.33,-0.27l0.39 -0.09c0.25,-0.05 0.52,0.1 0.6,0.32 0.08,0.24 0.36,0.38 0.6,0.32l0.15 -0.03c0.23,-0.07 0.5,0.07 0.59,0.29l0.04 0.07c0.09,0.23 0.37,0.36 0.6,0.29l0.11 -0.03c0.24,-0.07 0.52,0.08 0.61,0.31l0.02 0.05c0.1,0.25 0.1,0.51 -0.01,0.74l-3.55 7.94c-0.11,0.23 -0.3,0.41 -0.55,0.51l-0.06 0.02c-0.22,0.08 -0.52,-0.03 -0.63,-0.26l-0.05 -0.1z"/>
   <polygon class="fil42" points="358.56,285.19 358.5,285.17 358.43,284.98 360.14,281.15 360.34,281.07 360.41,281.27 358.7,285.1 "/>
   <polygon class="fil42" points="361.04,279.65 360.98,279.63 360.91,279.44 361.86,277.32 362.05,277.24 362.13,277.44 361.18,279.56 "/>
   <polygon class="fil42" points="360.69,282.94 360.63,282.93 360.56,282.73 363.05,277.18 363.24,277.11 363.32,277.3 360.83,282.85 "/>
   <polygon class="fil42" points="359.49,285.62 359.43,285.61 359.36,285.41 360.09,283.78 360.29,283.7 360.36,283.9 359.63,285.53 "/>
   <polygon class="fil42" points="362.54,281.33 362.48,281.32 362.41,281.13 363.74,278.16 363.93,278.08 364.01,278.28 362.68,281.25 "/>
   <polygon class="fil42" points="361.14,284.47 361.08,284.46 361,284.26 361.53,283.07 361.73,283 361.8,283.19 361.27,284.38 "/>
   <polygon class="fil42" points="360.61,280.61 360.55,280.6 360.48,280.4 360.67,279.97 360.86,279.9 360.94,280.09 360.75,280.52 "/>
   <polygon class="fil57" points="324.61,265.7 324.74,265.7 324.74,265.4 324.61,265.4 "/>
   <path class="fil52" d="M338.7 286.89c-0.42,0 -0.84,-0.02 -1.26,-0.05 -5.29,-0.47 -9.69,-3.6 -12.08,-8.3 -1.17,-2.3 -1.84,-4.89 -1.83,-7.46 0,-1.83 0.33,-3.64 1.06,-5.36 0.01,0 0.01,-0.01 0.02,-0.02 0.04,-0.1 0.08,-0.2 0.13,-0.3 0.16,-0.36 0.33,-0.72 0.51,-1.08 -2.54,6.75 0.62,14.99 7.58,17.85 2.05,0.84 4.03,1.27 5.97,1.27 3.61,0 7.06,-1.48 10.4,-4.54 0.25,-0.23 0.5,-0.43 0.77,-0.6 2.67,1.08 5.21,2.15 8.12,3.34l-1.08 2.41c-0.25,0.36 -0.55,0.65 -0.94,0.77 -0.17,0.06 -0.34,0.08 -0.51,0.08 -0.85,0 -1.73,-0.64 -2.52,-0.86 -0.58,-0.16 -1.17,-0.23 -1.77,-0.23 -1.96,0 -3.95,0.75 -5.69,1.51 -2.21,0.97 -4.49,1.57 -6.88,1.57zm19.63 -5.79c-2.74,-1.13 -5.16,-2.14 -7.67,-3.17 0.4,-0.16 0.81,-0.25 1.26,-0.25 0.33,0 0.67,0.05 1.03,0.15 1.37,0.4 2.5,1.4 3.91,1.71 0.12,0.02 0.24,0.04 0.36,0.04 0.1,0 0.19,-0.01 0.28,-0.04 0.19,-0.07 0.34,-0.21 0.48,-0.36 0.03,-0.02 0.05,-0.05 0.07,-0.07 0.38,0.18 0.7,0.35 0.96,0.47l-0.68 1.52z"/>
   <path class="fil52" d="M359.25 279.04c-0.22,-0.11 -0.49,-0.25 -0.79,-0.4 0.89,-1.11 1.48,-2.42 1.82,-3.82l0.15 0.27c0.09,0.24 0.14,0.48 0.14,0.72 0,0.12 -0.01,0.24 -0.03,0.36l-1.29 2.87z"/>
   <path class="fil51" d="M358.09 281.64c-2.91,-1.19 -5.45,-2.26 -8.12,-3.34 0.22,-0.15 0.45,-0.27 0.69,-0.37 2.51,1.03 4.93,2.04 7.67,3.17l-0.24 0.54zm0.92 -2.06c-0.26,-0.12 -0.58,-0.29 -0.96,-0.47 0.14,-0.15 0.28,-0.31 0.41,-0.47 0.3,0.15 0.57,0.29 0.79,0.4l-0.24 0.54z"/>
   <path class="fil53" d="M357.01 284.05l0 0 1.08 -2.41 0.24 -0.54 0.68 -1.52 0.24 -0.54 1.29 -2.87c-0.13,0.8 -0.65,1.59 -0.98,2.29 -0.55,1.22 -1.11,2.44 -1.66,3.66 -0.25,0.54 -0.49,1.34 -0.89,1.93z"/>
   <path class="fil58" d="M287.52 292.81l-96.98 0c-0.28,0 -0.51,0.19 -0.51,0.42l0 3c0,0.23 0.23,0.42 0.51,0.42l106.73 0c1.81,0 3.27,-1.2 3.27,-2.69l0 -19.51c0,-1.49 -1.46,-2.7 -3.27,-2.7l-106.73 0c-0.28,0 -0.51,0.19 -0.51,0.42l0 3c0,0.24 0.23,0.43 0.51,0.43l96.98 0c1.81,0 3.27,1.2 3.27,2.69l0 11.82c0,1.49 -1.46,2.7 -3.27,2.7z"/>
   <path class="fil59" d="M194.23 275.6l93.83 0c3.93,0 7.12,3.19 7.12,7.12l0 2.96c0,3.94 -3.19,7.13 -7.12,7.13l-93.83 0 0 -17.21z"/>
   <path class="fil60" d="M295.18 288.12l-0.42 0c0.14,-0.38 0.24,-0.78 0.32,-1.2l0.1 0 0 1.2z"/>
   <path class="fil61" d="M294.76 288.12l-45.06 0 0 -1.2 45.38 0c-0.08,0.42 -0.18,0.82 -0.32,1.2z"/>
   <polygon class="fil61" points="220.31,284.71 295.18,284.71 295.18,283.51 220.31,283.51 "/>
   <path class="fil60" d="M295.18 281.58l-0.09 0c-0.06,-0.41 -0.16,-0.81 -0.3,-1.19l0.39 0 0 1.19z"/>
   <path class="fil61" d="M295.09 281.58l-94.43 0 0 -1.19 94.13 0c0.14,0.38 0.24,0.78 0.3,1.19z"/>
   <polygon class="fil61" points="209.44,278.25 284.47,278.25 284.47,277.05 209.44,277.05 "/>
   <polygon class="fil61" points="207.21,288.12 233.25,288.12 233.25,286.92 207.21,286.92 "/>
   <path class="fil42" d="M194.48 259.5l100.22 0c0.27,0 0.48,-0.11 0.48,-0.24l0 -1.75c0,-0.14 -0.21,-0.24 -0.48,-0.24l-109.34 0c-1.69,0 -2.52,0.7 -2.52,1.56l0 11.36c0,0.86 0.83,1.57 2.52,1.57l109.34 0c0.27,0 0.48,-0.12 0.48,-0.25l0 -1.75c0,-0.13 -0.21,-0.24 -0.48,-0.24l-100.22 0c-1.69,0 -3.06,-0.7 -3.06,-1.57l0 -6.88c0,-0.87 1.37,-1.57 3.06,-1.57z"/>
   <path class="fil62" d="M291.25 269.52l-101.06 0c-2.76,0 -5,-2.24 -5,-5.01 0,-2.77 2.24,-5.01 5,-5.01l101.06 0 0 10.02z"/>
   <path class="fil63" d="M185.37 263.18l-0.18 0 0 -1.2 0.68 0c-0.22,0.37 -0.39,0.77 -0.5,1.2z"/>
   <path class="fil64" d="M228.71 263.18l-43.34 0c0.11,-0.43 0.28,-0.83 0.5,-1.2l42.84 0 0 1.2z"/>
   <path class="fil63" d="M185.23 265.16l-0.04 0 0 -0.65c0,0.22 0.01,0.44 0.04,0.65zm-0.04 -0.65l0 -0.54 0.03 0c-0.02,0.18 -0.03,0.36 -0.03,0.54z"/>
   <path class="fil64" d="M256.83 265.16l-71.6 0c-0.03,-0.21 -0.04,-0.43 -0.04,-0.65l0 0c0,-0.18 0.01,-0.36 0.03,-0.54l71.61 0 0 1.19z"/>
   <path class="fil63" d="M185.84 266.98l-0.65 0 0 -1.2 0.16 0c0.11,0.43 0.28,0.83 0.49,1.2z"/>
   <path class="fil64" d="M285.1 266.98l-99.26 0c-0.21,-0.37 -0.38,-0.77 -0.49,-1.2l99.75 0 0 1.2z"/>
   <polygon class="fil64" points="195.44,268.92 276.7,268.92 276.7,267.72 195.44,267.72 "/>
   <polygon class="fil64" points="244.45,263.18 278.83,263.18 278.83,261.98 244.45,261.98 "/>
   <path class="fil51" d="M253.87 247.46c-6.16,0.01 -8.2,3.14 -8.88,4.45 -0.68,-1.31 -2.72,-4.44 -8.88,-4.45 -9.04,-0.01 -45.58,3.99 -45.58,3.99l0 1.53 108.92 0 0 -1.53c0,0 -36.54,-4 -45.58,-3.99z"/>
   <path class="fil65" d="M299.02 252.08c-0.01,0 -35.98,-3.45 -45.12,-3.45l-0.03 0 0 0.29 0 -0.29c-6.24,-0.01 -8.44,2.67 -9.15,4.07l0.27 0.14 0.27 -0.14c-0.71,-1.4 -2.91,-4.08 -9.15,-4.07l0 0 -0.03 0c-9.14,0 -45.11,3.45 -45.12,3.45l0.06 0.59c0,0 2.25,-0.21 5.76,-0.54 10.55,-0.97 32.51,-2.91 39.3,-2.91l0.03 0c6.07,0.02 7.97,2.53 8.61,3.75l0.27 0.52 0.27 -0.52c0.64,-1.22 2.54,-3.73 8.61,-3.75l0.01 0 -0.01 0 0.03 0c4.52,0 15.8,0.86 25.93,1.73 5.07,0.43 9.85,0.86 13.37,1.18 3.51,0.33 5.76,0.54 5.76,0.54l0.06 -0.59z"/>
   <path class="fil65" d="M222.37 252.58c0.01,0 2.31,-0.12 5.2,-0.23 2.89,-0.12 6.36,-0.23 8.67,-0.23 0.86,0 1.56,0.01 2,0.05 2.04,0.17 3.71,0.41 4.88,0.61 1.16,0.19 1.8,0.35 1.8,0.35 0.13,0.03 0.27,-0.03 0.33,-0.15l-0.06 -0.36c-0.04,-0.04 -2.91,-2.7 -9.57,-2.7 -4,0 -44.64,2.76 -44.65,2.76l0.04 0.6c0,0 2.54,-0.17 6.42,-0.43 11.61,-0.78 35.25,-2.33 38.19,-2.33 3.25,0 5.55,0.65 7.03,1.28 0.75,0.32 1.28,0.64 1.63,0.88 0.18,0.11 0.31,0.21 0.39,0.28l0.09 0.07 0.02 0.03 0.21 -0.22 0.07 -0.29c-0.01,-0.01 -2.65,-0.64 -6.77,-0.98 -0.47,-0.04 -1.18,-0.05 -2.05,-0.05 -4.66,0 -13.89,0.46 -13.89,0.46l0.03 0.6 -0.01 0z"/>
   <polygon class="fil65" points="221.46,251.92 201.36,252.68 201.38,253.28 221.48,252.52 "/>
   <path class="fil65" d="M267.69 251.98c0,0 -9.24,-0.46 -13.9,-0.46 -0.86,0 -1.57,0.01 -2.04,0.05 -4.12,0.34 -6.76,0.97 -6.77,0.98l0.07 0.29 0.2 0.22 0.03 -0.03c0.29,-0.25 3.04,-2.51 9.14,-2.51 1.95,0 13.12,0.69 23.78,1.38 5.33,0.34 10.54,0.69 14.41,0.95 3.88,0.26 6.41,0.43 6.42,0.43l0.04 -0.6c-0.01,0 -40.65,-2.76 -44.65,-2.76 -6.67,0 -9.54,2.66 -9.58,2.7l-0.05 0.36c0.06,0.12 0.2,0.18 0.33,0.15 0,0 0.64,-0.16 1.8,-0.35 1.16,-0.2 2.84,-0.44 4.88,-0.61 0.44,-0.04 1.14,-0.05 1.99,-0.05 2.32,0 5.79,0.11 8.68,0.23 2.88,0.11 5.19,0.23 5.19,0.23l0.03 -0.6z"/>
   <polygon class="fil65" points="268.56,252.52 288.65,253.28 288.67,252.68 268.58,251.92 "/>
   <path class="fil40" d="M300.35 257.27l-110.04 0c-0.76,0 -1.37,-0.62 -1.37,-1.37l0 -1.55c0,-0.76 0.61,-1.37 1.37,-1.37l110.04 0c0.75,0 1.37,0.61 1.37,1.37l0 1.55c0,0.75 -0.62,1.37 -1.37,1.37z"/>
   <path class="fil41" d="M401.22 305.08c0,2.23 -14.94,4.04 -33.38,4.04 -18.42,0 -33.36,-1.81 -33.36,-4.04 0,-2.23 14.94,-4.04 33.36,-4.04 18.44,0 33.38,1.81 33.38,4.04z"/>
   <path class="fil33" d="M353.78 295.65c0,0 -0.01,3.42 0.21,4.65 0.21,1.22 3.56,0.94 3.87,0.26 0.32,-0.68 -0.11,-6.35 -0.11,-6.35l-3.97 1.44z"/>
   <path class="fil29" d="M358.42 300.68c0.04,1.1 0.25,2.71 -0.06,3.16 -0.32,0.46 -4.71,0.82 -5.75,1.05 -0.76,0.17 -2.35,0.24 -3.13,0.15 -2.73,-0.33 -4.58,-1.31 -4.65,-1.73 -0.32,-1.75 5.15,-1.27 8.77,-4.9 0,0 0.4,0.07 0.69,0.55 0.43,0.73 1.22,1.2 2.05,1.03 0.48,-0.1 0.95,-0.3 1.29,-0.68 0,0 0.75,0.27 0.79,1.37z"/>
   <path class="fil37" d="M382.69 200.39c1.39,-1.03 2.9,-2.18 4.34,-3.38 3.28,-2.76 6.21,-5.75 6.58,-7.93 0.8,-4.88 0.17,-19.39 -0.22,-26.24 -0.01,-0.42 -0.03,-0.8 -0.06,-1.17 -0.39,-6.47 -3.87,-9.34 -5.61,-10.39 -0.89,8.41 -2.89,27.41 -3.05,28.39 -0.22,1.25 -1.98,20.72 -1.98,20.72z"/>
   <path class="fil43" d="M382.68 200.39c1.39,-1.03 2.91,-2.18 4.35,-3.38 0.12,-5.36 1.72,-12.83 3.96,-22.18 2.66,-11.79 0.98,-13.96 0.98,-13.96l-5.34 0.82c-0.89,8.32 -1.86,17.31 -1.97,17.98 -0.21,1.25 -1.98,20.72 -1.98,20.72z"/>
   <path class="fil33" d="M382.16 293.86c0,0 0.46,4.11 0.63,5.16 0.17,1.04 3.52,0.82 3.86,0.24 0.35,-0.58 0.12,-5.41 0.12,-5.41l-4.61 0.01z"/>
   <path class="fil29" d="M387.55 299.55c0.12,1.09 0.45,2.68 0.17,3.16 -0.28,0.48 -4.64,1.16 -5.65,1.46 -0.76,0.22 -2.34,0.41 -3.12,0.37 -2.75,-0.13 -4.66,-0.97 -4.76,-1.38 -0.44,-1.73 5.04,-1.65 8.4,-5.53 0,0 0.4,0.04 0.72,0.5 0.48,0.7 1.3,1.12 2.12,0.88 0.47,-0.13 1.08,-0.5 1.39,-0.9 0,0 0.62,0.35 0.73,1.44z"/>
   <path class="fil35" d="M383.83 198.68l-15.98 -0.09 1.52 19.77 0.52 6.68c0,0 1.51,26.8 2.72,31 2.02,11.81 9.3,41.05 9.3,41.05 1.93,0.53 4.18,0.51 5.52,-0.33 -1.43,-15.59 1.46,-32.94 -4.75,-44.06 0.98,-7.17 2.47,-13.54 3.92,-29.88 0.29,-3.3 1.42,-3.82 1.81,-10.67 0.37,-6.87 -4.58,-13.47 -4.58,-13.47z"/>
   <path class="fil36" d="M371.23 244.5c0.72,-3.31 2.91,-10.29 4.24,-13.9 1.85,-5.05 3.88,-7.36 3.88,-7.36 7.31,-9.14 0.82,-19.57 0.82,-19.57 0,0 -6.07,6 -6.48,6.6 -0.39,0.56 -2.61,5.4 -4.32,8.09l0.52 6.68c0,0 0.61,9.28 1.34,19.46z"/>
   <path class="fil35" d="M380.26 198.7l-20.64 0.93c0,0 -5.62,44.1 -5.31,52.53 0.57,15.26 -0.97,44.77 -0.97,44.77 0,0 2.51,2.37 5.35,0.98 0,0 10.68,-26.18 7.49,-42.98 1.48,-6.12 7.08,-26.32 8.88,-29.12 2.52,-3.91 12.1,-7.6 5.2,-27.11z"/>
   <path class="fil33" d="M379.36 147.51c0,0 -1.15,-3.88 -0.65,-6.74 0.5,-2.86 2.22,-8.02 1.58,-11.88 -0.65,-3.87 -5.51,-7.09 -10.67,-6.59 -5.15,0.5 -6.66,5.44 -7.52,8.3 -0.86,2.87 -0.71,7.24 -0.5,9.6 0.22,2.36 1.51,4.22 2.37,4.72 0.85,0.5 4.09,-0.16 4.65,0.46 0.57,0.62 1,4.27 1,4.27l9.74 -2.14z"/>
   <path class="fil37" d="M381.79 150.58c0,0 -0.29,-2.26 -1.15,-3.07 -0.86,-0.8 -6.58,-0.8 -8.3,-0.58 -1.72,0.21 -5.95,2.19 -6.51,2.61 -0.56,0.41 0.54,2.59 0.54,2.59l15.42 -1.55z"/>
   <path class="fil29" d="M379.43 142.53l-0.21 0.12c-1.25,0.65 -2.87,0.53 -4.01,-0.3 -0.93,0.73 -2.13,1.27 -3.3,1.02 -1.17,-0.24 -2.13,-1.52 -1.68,-2.6 -0.91,0.14 -1.9,-0.17 -2.55,-0.81 -1.36,-1.31 -0.47,-2.45 -0.48,-3.96 0,-1.08 -0.08,-2.92 -1.48,-3.14 -0.53,-0.08 -1.1,0.19 -1.35,0.66 -0.11,0.18 -0.17,0.41 -0.35,0.53 -0.24,0.16 -0.59,0.05 -0.77,-0.17 -0.18,-0.22 -0.24,-0.52 -0.25,-0.8 -0.09,-1.31 0.42,-2.69 1.4,-3.6 -1.93,-1.1 -2.98,-2.97 -3.19,-5.15 -0.08,-0.91 -0.03,-1.86 0.4,-2.67 0.59,-1.13 1.79,-1.81 2.98,-2.3 1.55,-0.64 3.1,-0.81 4.76,-0.5 1.89,0.34 2.53,1.5 3.99,1.97 2.33,-0.78 5.46,-0.03 5.95,2.55 1.22,-0.22 2.51,0.06 3.31,1.09 1.12,1.44 0.25,2.65 -0.13,4.13 -0.53,2.07 0.14,3.84 0.03,5.85 -0.09,1.73 -1.32,3.19 -1.78,4.81 -0.34,1.21 -0.04,2.5 -1.29,3.27z"/>
   <path class="fil37" d="M359.25 195.23c-0.27,2.24 -2.23,7.73 -0.89,8.22 0.54,0.19 2.73,0.06 5.4,-0.16l0.08 0 0.13 -0.02c2.37,-0.2 5.09,-0.46 7.37,-0.63 9.1,-0.39 13.75,-0.6 14.66,-1.11 0.44,-0.27 0.45,-1.06 0.32,-1.87 -0.32,-2 -0.42,-4.02 -0.15,-6.04 0.22,-1.68 0.53,-3.7 0.97,-6 1.51,-7.98 4.45,-20.16 4.88,-27.49 0.71,-11.48 -11.59,-10.39 -11.59,-10.39 -15.65,-0.98 -23,3.53 -23.85,10.26 -0.07,0.47 -0.1,0.98 -0.14,1.52 -0.4,6.94 1.71,18.13 2.72,26.5 0.27,2.3 0.22,4.97 0.09,7.21z"/>
   <path class="fil37" d="M359.25 195.23c-0.27,2.24 -2.23,7.73 -0.89,8.22 0.54,0.19 2.73,0.06 5.4,-0.16 -2.41,0.17 -2.86,-3.7 -2.32,-4.95 0.53,-1.25 1.65,-4.07 1.55,-7.41 -0.11,-3.33 -1.37,-10.84 -2.1,-17.94 -0.71,-6.6 -0.1,-11.76 -0.02,-12.44 -0.37,0.75 -1.45,1.8 -4.48,2.5 -0.06,6.97 1.84,17.19 2.77,24.97 0.27,2.3 0.22,4.97 0.09,7.21z"/>
   <path class="fil33" d="M319.32 190.95c-0.36,-0.2 0.02,-0.61 0.38,-0.61 0.05,0 0.15,0.02 0.29,0.04 -0.63,-0.21 -1.15,-0.38 -1.27,-0.45 -0.34,-0.18 -0.02,-0.57 0.32,-0.61 -0.26,-0.09 -0.44,-0.17 -0.52,-0.21 -0.44,-0.23 -0.05,-0.64 0.38,-0.61 0.09,0.01 0.35,0.07 0.68,0.15 -0.17,-0.06 -0.3,-0.11 -0.35,-0.14 -0.36,-0.19 -0.09,-0.58 0.27,-0.58 0.12,0 0.31,0.05 0.78,0.16 0.4,0.1 0.85,0.16 1.25,0.26 0.56,0.15 1.17,0.2 1.18,0.21 1.38,-0.45 2.06,-1.18 2.06,-1.18l-1.37 -0.76c0,0 -0.08,-1.2 3.73,0.24 0.57,0.22 1.05,0.99 1.41,1.09 0.35,0.09 1.4,0.08 1.4,0.08l0 3.33c0,0 -1.86,-0.32 -2.41,-0.1 -0.55,0.23 -2.76,0.94 -3.14,0.97 -0.16,0.01 -0.82,-0.06 -1.59,-0.16l-1.15 -0.24 -1.07 -0.34 -1.26 -0.54z"/>
   <path class="fil37" d="M329.1 191.6c0,0 5.96,1.35 10.8,2.25 3.75,0.68 7.72,1.23 11.64,0.95l0.09 0.01c2.42,-0.09 5.63,-0.81 6.38,-1.89 0.75,-1.09 2.21,-5.38 2.21,-5.38 1.23,-2.52 3.08,-9.39 4.64,-15.23l0.07 -0.27c0.73,-2.72 1.39,-5.21 1.89,-6.9 0.25,-0.79 0.22,-1.63 -0.05,-2.37 -0.23,-0.67 -0.66,-1.25 -1.28,-1.67l-0.02 -0.02c-1.63,-1.12 -1.13,-2.71 -2.82,-1.62l-1.17 -0.21c-1.09,-2.66 -0.36,-6.24 -0.36,-6.24 0,0 -4.73,2.07 -6.45,11.82 -0.39,2.16 -2.76,17.42 -2.92,19.29 -0.01,0.14 -0.01,0.28 -0.03,0.41 0,0 -0.06,0.22 -0.12,0.56 -0.01,0.1 -0.02,0.23 -0.03,0.36 -1.41,-0.04 -2.97,0.07 -4.62,0.44 -5.39,1.23 -17.47,1.85 -17.47,1.85l-0.32 3.02 0 0.03 0.01 0.02 -0.07 0.79z"/>
   <path class="fil66" d="M293.53 63.51c14.41,-1.81 23.29,-1.69 31.36,-3.81l0 2.7c-11.76,0.26 -22.7,0.61 -31.36,1.11zm33.51 -1.15l0 -3.28c1.83,-0.59 3.63,-1.31 5.48,-2.22 4.98,-2.46 10.22,-5.41 15.63,-5.41 0.83,0 1.66,0.07 2.49,0.22 4.26,0.76 7.84,3.54 11.24,6.23 1.79,-3.25 3.65,-6.6 6.57,-8.9 1.85,-1.46 4.25,-2.39 6.58,-2.39 1.33,0 2.64,0.3 3.8,1 2.3,1.37 3.61,3.92 4.47,6.45 2.79,-4.7 7.21,-8.54 12.46,-10.08 1.59,-0.46 3.25,-0.69 4.92,-0.69 3.82,0 7.64,1.23 10.52,3.73 4.13,3.58 5.96,9.8 3.9,14.86 0,0 -9.85,-0.07 -24.33,-0.07 -17.53,0 -41.87,0.11 -63.73,0.55z"/>
   <path class="fil67" d="M324.89 62.4l0 -2.7c0.72,-0.19 1.44,-0.39 2.15,-0.62l0 3.28c-0.72,0.01 -1.43,0.03 -2.15,0.04z"/>
   <path class="fil41" d="M529.11 313.66c0,1.58 9.63,2.86 21.52,2.86 11.87,0 21.51,-1.28 21.51,-2.86 0,-1.58 -9.64,-2.85 -21.51,-2.85 -11.89,0 -21.52,1.27 -21.52,2.85z"/>
   <path class="fil51" d="M573.65 305.71c2,-3.93 2.54,-8.69 0.77,-12.82 -1.02,-2.39 -2.45,-4.75 -4.53,-6.36 -1.81,-1.41 -3.95,-2.41 -6.17,-3 -3.81,-1.01 -8.05,-0.67 -11.46,1.32 -2.84,1.67 -4.92,4.38 -6.3,7.33 -1.33,2.89 -1.9,6.48 -4.78,8.34 -0.82,0.53 -2.18,0.75 -2.59,1.74 -0.48,1.18 0.39,2.35 0.86,3.37 0.56,1.22 1.11,2.43 1.67,3.65 0.39,0.87 0.78,2.38 1.83,2.71 1.01,0.35 2.08,-0.52 3.03,-0.78 2.48,-0.68 5.19,0.29 7.45,1.28 2.61,1.14 5.29,1.76 8.15,1.51 5.29,-0.46 9.69,-3.6 12.07,-8.29z"/>
   <path class="fil37" d="M539.36 307.07c0.01,0 8.03,-3.96 11.88,-6.14 1.01,-0.57 2.1,-1.16 3.52,-2.43 0.36,-0.31 0.85,-0.8 1.27,-1.35 0.41,-0.56 0.76,-1.2 0.76,-1.87 0,-0.4 -0.14,-0.81 -0.46,-1.15 -0.34,-0.37 -0.75,-0.55 -1.15,-0.55 -0.7,0.01 -1.27,0.51 -1.68,1.1 -0.41,0.59 -0.67,1.3 -0.68,1.92l0 0.02 0.3 -0.01 -0.3 0.01c0.01,0.63 0.27,1.34 0.64,2 0.37,0.66 0.85,1.25 1.37,1.62 0.79,0.56 1.76,0.8 2.73,0.8 1.17,0 2.33,-0.34 3.22,-0.89 0.51,-0.31 0.76,-0.82 0.75,-1.3 0,-0.81 -0.64,-1.61 -1.6,-1.62l-0.12 0.01c-0.36,0.02 -0.77,0.19 -1.23,0.44 -0.68,0.38 -1.44,0.96 -2.04,1.66 -0.6,0.7 -1.06,1.5 -1.07,2.35 0,0.26 0.05,0.52 0.14,0.76 0.46,1.2 1.42,2.12 2.54,2.67 0.35,0.17 0.71,0.24 1.06,0.24 0.58,0 1.13,-0.2 1.55,-0.51 0.41,-0.31 0.71,-0.73 0.72,-1.23 0,-0.29 -0.12,-0.59 -0.36,-0.83 -0.24,-0.24 -0.58,-0.44 -1.03,-0.58 -0.57,-0.19 -1.18,-0.26 -1.8,-0.26 -1.59,0 -3.25,0.5 -4.57,1.01 -4.93,1.91 -8.74,3.54 -13.62,5.55l0.23 0.55c4.88,-2.01 8.69,-3.64 13.61,-5.55 1.28,-0.49 2.89,-0.97 4.35,-0.96 0.57,0 1.12,0.07 1.61,0.22 0.4,0.13 0.65,0.29 0.79,0.43 0.15,0.16 0.19,0.28 0.19,0.42 0.01,0.23 -0.16,0.52 -0.48,0.75 -0.31,0.24 -0.75,0.4 -1.19,0.39 -0.27,0 -0.54,-0.05 -0.8,-0.18 -1,-0.49 -1.85,-1.31 -2.24,-2.34 -0.07,-0.18 -0.1,-0.36 -0.1,-0.55 -0.01,-0.82 0.67,-1.81 1.51,-2.56 0.42,-0.38 0.88,-0.7 1.29,-0.93 0.41,-0.23 0.79,-0.36 0.98,-0.37l0.08 0c0.3,0 0.54,0.13 0.72,0.32 0.18,0.19 0.29,0.45 0.29,0.7 -0.01,0.3 -0.13,0.58 -0.47,0.79 -0.79,0.49 -1.86,0.8 -2.91,0.8 -0.87,0 -1.72,-0.21 -2.39,-0.69 -0.4,-0.28 -0.85,-0.83 -1.19,-1.42 -0.34,-0.59 -0.56,-1.25 -0.56,-1.72l0 -0.01 0 0c0,-0.44 0.22,-1.08 0.57,-1.58 0.35,-0.52 0.82,-0.85 1.19,-0.84 0.22,0 0.45,0.08 0.72,0.36 0.21,0.24 0.29,0.47 0.29,0.74 0.01,0.45 -0.26,1 -0.64,1.51 -0.38,0.51 -0.85,0.97 -1.19,1.27 -1.37,1.22 -2.39,1.77 -3.42,2.35 -1.9,1.08 -4.87,2.61 -7.35,3.87 -2.49,1.26 -4.49,2.25 -4.49,2.25l0.26 0.54z"/>
   <polygon class="fil42" points="541.27,311.76 537.57,303.49 538.38,303.12 542.09,311.4 "/>
   <path class="fil32" d="M538.66 313.51c0.11,-0.22 0.4,-0.34 0.62,-0.26l0.08 0.02c0.23,0.08 0.51,-0.03 0.62,-0.25l0.07 -0.13c0.11,-0.22 0.41,-0.34 0.64,-0.24 0.22,0.09 0.51,-0.01 0.63,-0.23l0.2 -0.35c0.07,-0.13 0.08,-0.29 0.02,-0.42l-3.69 -8.22c-0.06,-0.14 -0.18,-0.24 -0.32,-0.27l-0.4 -0.09c-0.24,-0.05 -0.51,0.09 -0.59,0.32 -0.08,0.23 -0.36,0.38 -0.61,0.32l-0.14 -0.04c-0.23,-0.06 -0.5,0.07 -0.6,0.29l-0.03 0.08c-0.09,0.22 -0.37,0.35 -0.6,0.29l-0.11 -0.03c-0.24,-0.07 -0.53,0.07 -0.62,0.3l-0.02 0.05c-0.09,0.25 -0.09,0.52 0.01,0.75l3.56 7.94c0.1,0.23 0.3,0.41 0.55,0.5l0.05 0.02c0.23,0.09 0.53,-0.03 0.63,-0.25l0.05 -0.1z"/>
   <polygon class="fil42" points="540.46,312.35 540.52,312.34 540.59,312.14 538.87,308.31 538.68,308.24 538.6,308.43 540.32,312.27 "/>
   <polygon class="fil42" points="537.98,306.81 538.04,306.8 538.11,306.6 537.16,304.48 536.96,304.41 536.89,304.6 537.84,306.73 "/>
   <polygon class="fil42" points="538.32,310.11 538.38,310.09 538.46,309.9 535.97,304.35 535.77,304.27 535.7,304.47 538.19,310.02 "/>
   <polygon class="fil42" points="539.52,312.79 539.58,312.77 539.66,312.58 538.92,310.94 538.73,310.87 538.65,311.06 539.39,312.7 "/>
   <polygon class="fil42" points="536.48,308.5 536.54,308.49 536.61,308.29 535.28,305.32 535.09,305.25 535.01,305.44 536.34,308.41 "/>
   <polygon class="fil42" points="537.88,311.64 537.94,311.63 538.02,311.43 537.48,310.24 537.29,310.16 537.21,310.36 537.75,311.55 "/>
   <polygon class="fil42" points="538.41,307.78 538.47,307.76 538.54,307.57 538.35,307.14 538.15,307.06 538.08,307.26 538.27,307.69 "/>
   <path class="fil52" d="M560.32 314.06c-2.39,0 -4.67,-0.6 -6.89,-1.57 -1.73,-0.76 -3.73,-1.51 -5.68,-1.51 -0.6,0 -1.19,0.07 -1.77,0.23 -0.79,0.22 -1.67,0.86 -2.53,0.86 -0.17,0 -0.34,-0.02 -0.5,-0.08 -0.4,-0.13 -0.7,-0.41 -0.94,-0.77l-1.08 -2.41c2.91,-1.2 5.45,-2.26 8.12,-3.35 0.26,0.17 0.52,0.38 0.77,0.61 3.34,3.05 6.78,4.53 10.39,4.53 1.94,0 3.93,-0.42 5.98,-1.27 6.96,-2.85 10.12,-11.1 7.58,-17.84 0.23,0.46 0.45,0.93 0.65,1.4 0.73,1.71 1.07,3.53 1.07,5.35 0,2.58 -0.67,5.16 -1.84,7.47 -2.38,4.69 -6.78,7.83 -12.07,8.29 -0.43,0.04 -0.84,0.06 -1.26,0.06zm-19.63 -5.8l-0.68 -1.51c0.25,-0.13 0.58,-0.29 0.95,-0.48 0.03,0.03 0.05,0.05 0.07,0.08 0.14,0.14 0.29,0.29 0.48,0.35 0.09,0.04 0.19,0.05 0.28,0.05 0.13,0 0.25,-0.02 0.37,-0.05 1.41,-0.31 2.53,-1.3 3.9,-1.7 0.37,-0.1 0.71,-0.15 1.04,-0.15 0.44,0 0.86,0.08 1.26,0.25 -2.51,1.02 -4.93,2.04 -7.67,3.16zm-0.93 -2.06l-1.28 -2.87c-0.02,-0.11 -0.03,-0.24 -0.03,-0.36 0,-0.23 0.04,-0.47 0.14,-0.71l0.15 -0.27c0.34,1.39 0.93,2.71 1.82,3.82 -0.31,0.15 -0.58,0.28 -0.8,0.39z"/>
   <path class="fil51" d="M540.93 308.81l-0.24 -0.55c2.74,-1.12 5.16,-2.14 7.67,-3.16 0.23,0.09 0.46,0.22 0.69,0.36 -2.67,1.09 -5.21,2.15 -8.12,3.35zm-0.92 -2.06l-0.25 -0.55c0.22,-0.11 0.49,-0.24 0.8,-0.39 0.13,0.15 0.26,0.31 0.4,0.46 -0.37,0.19 -0.7,0.35 -0.95,0.48z"/>
   <path class="fil53" d="M542.01 311.22c-0.4,-0.6 -0.65,-1.39 -0.89,-1.94 -0.56,-1.22 -1.11,-2.43 -1.67,-3.65 -0.32,-0.71 -0.84,-1.49 -0.97,-2.3l0 0 1.28 2.87 0.25 0.55 0.68 1.51 0.24 0.55 1.08 2.41z"/>
  </g>
 </g>
</svg>
