<?xml version="1.0" encoding="UTF-8"?>
<!DOCTYPE svg PUBLIC "-//W3C//DTD SVG 1.1//EN" "http://www.w3.org/Graphics/SVG/1.1/DTD/svg11.dtd">
<!-- Creator: CorelDRAW -->
<svg xmlns="http://www.w3.org/2000/svg" xml:space="preserve" width="25.399mm" height="4.8716mm" version="1.1" style="shape-rendering:geometricPrecision; text-rendering:geometricPrecision; image-rendering:optimizeQuality; fill-rule:evenodd; clip-rule:evenodd"
viewBox="0 0 2539.9 487.16"
 xmlns:xlink="http://www.w3.org/1999/xlink"
 xmlns:xodm="http://www.corel.com/coreldraw/odm/2003">
 <defs>
  <style type="text/css">
   <![CDATA[
    .fil3 {fill:none}
    .fil1 {fill:#2A427B}
    .fil0 {fill:#606062;fill-rule:nonzero}
    .fil2 {fill:url(#id1)}
   ]]>
  </style>
   <clipPath id="id0">
    <path d="M226.46 69.68c0,-30.44 -24.65,-55.09 -55.1,-55.09l-116.33 0c-30.45,0 -55.1,24.65 -55.1,55.09l0 116.36 0 83.8c0,30.45 24.65,55.1 55.1,55.1l116.33 0c30.45,0 55.1,-24.65 55.1,-55.1l0 -25.36 -75.49 0 0 5.8c0,12.65 -10.29,22.93 -23,22.93l-29.55 0c-12.71,0 -23,-10.28 -23,-22.93l0 -64.24 0 -96.79c0,-12.65 10.29,-22.94 23,-22.94l29.55 0c12.71,0 23,10.29 23,22.94l0 5.79 75.49 0 0 -25.36zm2144.65 200.22c0,30.33 24.65,54.98 55.15,54.98l113.62 0 0 -138.84 0 -37.03c0,-30.5 -24.71,-55.15 -55.15,-55.15l-113.62 0 0 66.92 56.34 0 0 -28.5 33.28 0c12.59,0 22.82,10.41 22.82,23l0 30.76 0 2.88 -112.44 0 0 80.98zm79.15 16.56c-12.59,0 -22.81,-10.29 -22.81,-23l0 -39.9 56.1 0 0 62.9 -33.29 0zm-265.36 -100.42l0 138.84 113.62 0c30.33,0 54.98,-24.65 54.98,-54.98l0 -83.86 0 -184.1 -56.16 0 0 91.92 -57.29 0c-30.5,0 -55.15,24.65 -55.15,55.15l0 37.03zm112.44 0l0 77.42c0,12.71 -10.23,23 -23,23l-33.28 0 0 -100.42 0 -30.76c0,-12.59 10.4,-22.82 22.99,-22.82l33.29 -0.18 0 53.76zm-186.57 0l0 138.9 56.22 0 0 -138.9 0 -92.18 -56.22 0 0 92.18zm-202.68 0l33.79 138.9 75.55 0 33.79 -138.9 41.7 -171.45 -62.78 0 -41.72 171.45 -8.77 36.04 -8.77 -36.04 -41.71 -171.45 -62.78 0 41.7 171.45zm-258.06 67.37c-1,13.55 2.51,26.6 10.54,39.15 8.04,12.55 20.59,22.01 37.65,28.36 8.71,3.35 17.66,4.94 26.86,4.77 9.2,-0.16 18.32,-1.59 27.36,-4.26 5.02,8.7 10.29,16.23 15.81,22.59 5.52,6.35 11.13,11.29 16.82,14.8 5.69,3.52 11.46,5.36 17.32,5.53 5.86,0.16 11.63,-1.59 17.32,-5.27 -1.68,-0.34 -3.68,-1.01 -6.03,-2.01 -2.34,-1.01 -4.85,-2.34 -7.53,-4.02 6.36,2.34 12.22,2.85 17.57,1.51 5.36,-1.34 8.87,-4.35 10.55,-9.04 -2.35,1.34 -5.61,1.51 -9.79,0.5 -4.19,-1 -8.7,-2.92 -13.56,-5.77 -4.85,-2.84 -9.62,-6.44 -14.3,-10.79 -4.69,-4.35 -8.71,-9.37 -12.05,-15.06 7.36,9.03 14.97,15.39 22.84,19.07 7.86,3.69 15.48,1.51 22.84,-6.52 -5.69,0 -11.46,-2.43 -17.32,-7.28 -5.86,-4.85 -11.63,-11.3 -17.32,-19.33 12.38,-8.7 22.42,-18.66 30.12,-29.87 7.7,-11.21 11.55,-22 11.55,-32.38 0,-2.34 -2.6,-3.84 -7.78,-4.51 -5.19,-0.67 -10.63,-0.67 -16.32,0 -5.69,0.67 -10.37,1.92 -14.05,3.76 -3.69,1.84 -4.02,3.93 -1.01,6.28 -1.34,3.68 -3.85,7.44 -7.53,11.29 -3.68,3.85 -8.2,7.61 -13.55,11.3 0,0.33 0.17,1.25 0.5,2.76 0.33,1.5 0.5,2.59 0.5,3.26 -3.68,-6.69 -7.28,-14.56 -10.79,-23.59 -3.52,-9.04 -6.61,-16.9 -9.29,-23.6 10.38,1.01 19.66,-0.25 27.86,-3.76 8.2,-3.52 15.06,-8.29 20.58,-14.31 5.53,-6.02 9.54,-12.97 12.05,-20.83 2.51,-7.87 3.27,-15.56 2.26,-23.09 -1,-7.53 -4.01,-14.65 -9.03,-21.34 -5.02,-6.69 -12.22,-11.88 -21.59,-15.56 -12.05,-4.69 -23.34,-6.11 -33.89,-4.27 -10.54,1.84 -19.57,5.94 -27.1,12.3 -7.53,6.36 -13.14,14.64 -16.82,24.85 -3.06,8.49 -4.16,17.49 -3.28,27.01 0.17,1.94 0.43,3.89 0.77,5.87 -19.08,4.35 -33.55,12.3 -43.42,23.85 -9.88,11.54 -15.31,24.09 -16.32,37.65zm129.41 -67.37c-1.59,1.22 -3.39,2.26 -5.41,3.11 -4.35,1.84 -9.04,1.76 -14.06,-0.25 -2.18,-0.77 -4.03,-1.72 -5.54,-2.86 -2.45,-1.83 -4.03,-4.14 -4.75,-6.93 -1.17,-4.52 -0.75,-8.7 1.25,-12.55 2.01,-3.85 5.27,-6.78 9.79,-8.79 4.52,-2 9.62,-1.67 15.31,1.01 5.69,3.01 9.04,6.61 10.04,10.79 1.01,4.18 0.34,8.03 -2,11.55 -1.26,1.88 -2.8,3.52 -4.63,4.92zm-69.92 99.24c-6.19,-3.68 -10.12,-8.62 -11.8,-14.81 -1.67,-6.19 -0.83,-12.8 2.51,-19.83 3.35,-7.02 9.54,-12.88 18.58,-17.57 2.34,9.37 5.1,19.16 8.28,29.37 3.18,10.21 6.44,19.5 9.79,27.86 -0.67,-0.67 -1.26,-1.5 -1.76,-2.51 -0.5,-1 -0.92,-1.34 -1.25,-1 -10.04,2.68 -18.16,2.17 -24.35,-1.51zm-271.66 -15.38c0,30.33 24.65,54.98 55.15,54.98l113.62 0 0 -138.84 0 -37.03c0,-30.5 -24.71,-55.15 -55.15,-55.15l-113.62 0 0 66.92 56.34 0 0 -28.5 33.28 0c12.59,0 22.82,10.41 22.82,23l0 30.76 0 2.88 -112.44 0 0 80.98zm79.15 16.56c-12.59,0 -22.81,-10.29 -22.81,-23l0 -39.9 56.1 0 0 62.9 -33.29 0zm-265.72 -17.27l0 17.21 0 21.34 0 17.2 168.71 0 0 -17.2 0 -21.34 0 -17.21 -106.4 0c-0.24,-16.47 49.02,-52.7 80.59,-83.15 14.87,-14.34 25.81,-27.39 25.81,-36.49l0 -17.21 0 -21.28 0 -17.2 -168.71 0 0 17.2 0 21.28 0 17.21 112.44 0c-4.2,7.22 -18.41,20.82 -35.39,36.49 -33.23,30.67 -77.05,69.22 -77.05,83.15zm-74.13 -21.28l0 77.03 56.27 0 0 -138.9 0 -92.18 -56.27 0 0 77.03 -56.22 -77.03 -56.22 0 0 92.18 0 138.9 56.22 0 0 -138.9 0 -15.15 11.06 15.15 45.16 61.87zm-299.01 -58.99l0 80.98c0,30.33 24.65,54.98 55.15,54.98l113.62 0 0 -138.84 0 -37.03c0,-30.5 -24.71,-55.15 -55.15,-55.15l-113.62 0 0 66.92 56.34 0 0 -28.5 33.28 0c12.59,0 22.82,10.41 22.82,23l0 30.76 0 2.88 -112.44 0zm79.15 97.54c-12.59,0 -22.81,-10.29 -22.81,-23l0 -39.9 56.1 0 0 62.9 -33.29 0zm-153.28 -100.42l0 138.9 56.22 0 0 -138.9 0 -92.18 -56.22 0 0 92.18zm-186.57 0l0 138.9 56.22 0 0 -138.9 0 -15.15 84.36 0 0 -38.55 -84.36 0 0 -56.81c0,-12.71 10.28,-22.99 22.99,-22.99l33.23 0 0 41.32 56.27 0 0 -91.87 -113.61 0c-30.45,0 -55.1,24.66 -55.1,55.1l0 128.95zm-119.29 0l45.16 61.87 0 77.03 56.27 0 0 -138.9 0 -92.18 -56.27 0 0 77.03 -56.22 -77.03 -56.22 0 0 92.18 0 138.9 56.22 0 0 -138.9 0 -15.15 11.06 15.15zm-253.85 0l0 83.86c0,30.33 24.65,54.98 55.15,54.98l113.62 0 0 -138.84 0 -37.03c0,-30.5 -24.82,-55.15 -55.15,-55.15l-113.62 0 0 92.18zm112.44 0l0 100.42 -33.29 0c-12.76,0 -22.99,-10.29 -22.99,-23l0 -77.42 0 -53.76 33.28 0c12.77,0 23,10.41 23,23l0 30.76zm1754.02 -184.05l0 71.12 56.22 0 0 -71.12 -56.22 0zm-1306.75 71.12l56.22 0 0 -71.12 -56.22 0 0 71.12z"/>
   </clipPath>
  <linearGradient id="id1" gradientUnits="userSpaceOnUse" x1="1312.18" y1="-35.6" x2="1279.14" y2="913.94">
   <stop offset="0" style="stop-opacity:1; stop-color:#2A427B"/>
   <stop offset="1" style="stop-opacity:1; stop-color:#07ACEE"/>
  </linearGradient>
 </defs>
 <g id="Capa_x0020_1">
  <metadata id="CorelCorpID_0Corel-Layer"/>
  <path class="fil0" d="M1410.15 454.59l0 -90.92 36.8 90.92 8.95 0 36.93 -90.92 0 90.92 8.67 0 0 -105.12 -11.65 0 -38.36 94.61 -38.49 -94.61 -11.65 0 0 105.12 8.8 0zm177.73 -6.39c-2.42,1.7 -3.98,2.27 -6.11,2.27 -6.11,0 -6.54,-4.69 -6.54,-7.67l0 -33.95c0,-17.05 -6.53,-29.84 -26.28,-29.84 -19.46,0 -29.26,13.36 -23.44,27.71l7.53 0c-4.69,-11.37 1.85,-21.03 15.77,-21.03 17.9,0 18.18,15.91 18.18,21.59l0 3.98 -17.47 2.7c-22.02,3.13 -28.98,13.07 -28.98,23.87 0,12.36 9.09,19.03 21.59,19.03 16.2,0 22.45,-11.5 24.44,-16.76l0.42 0 0 4.4c0,8.67 6.11,12.36 12.79,12.36 4.97,0 7.95,-1.99 10.08,-4.54l-1.98 -4.12zm-20.89 -20.6c0,9.66 -8.09,23.15 -23.3,23.15 -8.38,0 -15.05,-3.97 -15.05,-13.35 0,-8.95 6.1,-15.2 20.31,-17.61l18.04 -2.7 0 10.51zm70.18 -48.59c-12.92,0 -20.88,7.82 -24.29,21.03l-0.57 -0.14 0 -18.47 -8.24 0 0 73.16 8.24 0 0 -39.21c0,-14.35 8.1,-29.4 23.3,-29.4 12.79,0 15.34,10.65 9.8,25.85l7.96 0c7.24,-21.74 -0.71,-32.82 -16.2,-32.82zm77.86 44.61c3.12,-0.99 5.82,-2.27 8.38,-3.98 7.1,-4.83 11.51,-12.36 11.51,-21.16 0,-11.23 -7.82,-19.47 -21.31,-19.47 -12.79,0 -25.15,7.53 -32.68,27.14l-0.57 -0.14 0 -56.54 -8.24 0 0 105.12 8.24 0 0 -28.41c0,-21.45 15.49,-40.35 32.11,-40.35 9.52,0 14.21,6.11 14.21,13.78 0,6.68 -3.27,12.08 -8.24,15.49 -5.12,3.55 -12.08,5.54 -20.32,5.54l0 5.4c2.99,0 5.83,-0.15 8.53,-0.57l19.74 29.12 9.66 0 -21.02 -30.97zm92.2 18.04c-4.69,3.7 -11.23,7.96 -21.88,7.96 -16.62,0 -27.99,-10.23 -29.26,-28.41l49.86 0c10.37,-28.7 -4.12,-42.2 -23.02,-42.2 -19.88,0 -35.65,14.92 -35.65,38.93 0,22.87 14.49,38.92 37.5,38.92 12.64,0 20.6,-5.11 25.71,-9.66l-3.26 -5.54zm-24.58 -55.4c13.64,0 23.72,9.23 18.04,28.27l-44.6 0c1.13,-17.9 12.21,-28.27 26.56,-28.27zm79.27 59.95c-3.55,2.84 -6.82,3.69 -10.23,3.69 -8.52,0 -9.23,-6.53 -9.23,-10.94l0 -50.57 21.31 0 0 -6.96 -21.31 0 0 -20.88 -8.24 2.7 0 18.18 -15.63 0 0 6.96 15.63 0 0 50.57c0,12.08 5.97,17.9 16.34,17.9 5.39,0 9.8,-1.84 13.92,-5.25l-2.56 -5.4zm25.72 -77.57c5.55,0 9.81,-3.97 9.81,-9.51 0,-5.54 -4.26,-9.38 -9.81,-9.38 -5.54,0 -9.8,3.84 -9.8,9.38 0,5.54 4.26,9.51 9.8,9.51zm-4.12 85.95l8.39 0 0 -73.16 -8.39 0 0 73.16zm36.66 0l8.24 0 0 -41.62c0,-15.77 11.37,-26.99 25.72,-26.99 12.92,0 19.46,8.23 19.46,23.29l0 45.32 8.38 0 0 -46.88c0,-21.02 -12.64,-28.7 -25.57,-28.7 -12.79,0 -23.16,7.39 -27.42,19.61l-0.57 -0.14 0 -17.05 -8.24 0 0 73.16zm145.62 -66.63c4.83,-9.8 0.85,-18.61 -8.24,-18.61 -8.1,0 -12.93,7.11 -10.66,15.91l-0.28 0.15c-4.97,-4.12 -11.65,-6.4 -19.18,-6.4 -16.48,0 -28.84,11.08 -28.84,28.27 0,12.08 6.11,21.03 15.35,25.43l-0.15 0.43c-6.1,-0.43 -11.22,3.27 -11.22,8.66 0,8.53 10.09,11.09 25.86,13.78 12.5,2.14 25.99,2.7 25.99,13.07 0,11.08 -15.34,13.64 -24.72,13.64 -16.62,0 -27.84,-5.4 -33.1,-8.52l-3.26 5.96c5.11,3.13 17.04,9.38 36.65,9.38 14.77,0 32.39,-4.97 32.39,-20.31 0,-15.77 -17.05,-17.19 -32.11,-19.75 -11.93,-2.27 -19.74,-3.55 -19.74,-8.67 0,-3.41 3.41,-5.68 7.81,-6.1 2.84,0.85 5.97,1.27 9.09,1.27 16.2,0 28.84,-11.08 28.84,-28.27 0,-7.67 -2.42,-14.06 -6.53,-18.75 -1.99,-8.66 2.27,-13.35 6.96,-13.35 5.11,0 6.67,6.11 2.84,12.78l6.25 0zm-38.5 41.06c-12.08,0 -20.74,-8.38 -20.74,-21.59 0,-13.22 8.81,-22.02 20.88,-22.02 11.93,0 20.88,8.66 20.88,21.87 0,13.36 -9.09,21.74 -21.02,21.74l0 0zm126.3 25.57c33.38,0 52.42,-19.46 52.42,-52.56 0,-33.1 -19.04,-52.56 -52.42,-52.56l-31.25 0 0 105.12 31.25 0zm-22.45 -97.6l21.74 0c27.7,0 43.9,16.2 43.9,45.04 0,28.98 -16.34,45.03 -43.9,45.03l-21.74 0 0 -90.07zm105.7 11.65c5.54,0 9.8,-3.97 9.8,-9.51 0,-5.54 -4.26,-9.38 -9.8,-9.38 -5.54,0 -9.8,3.84 -9.8,9.38 0,5.54 4.26,9.51 9.8,9.51zm-4.12 85.95l8.38 0 0 -73.16 -8.38 0 0 73.16zm98.45 -66.63c4.83,-9.8 0.85,-18.61 -8.24,-18.61 -8.1,0 -12.93,7.11 -10.66,15.91l-0.28 0.15c-4.97,-4.12 -11.65,-6.4 -19.18,-6.4 -16.48,0 -28.84,11.08 -28.84,28.27 0,12.08 6.11,21.03 15.35,25.43l-0.15 0.43c-6.1,-0.43 -11.22,3.27 -11.22,8.66 0,8.53 10.09,11.09 25.86,13.78 12.5,2.14 25.99,2.7 25.99,13.07 0,11.08 -15.34,13.64 -24.72,13.64 -16.62,0 -27.84,-5.4 -33.1,-8.52l-3.26 5.96c5.11,3.13 17.04,9.38 36.65,9.38 14.77,0 32.39,-4.97 32.39,-20.31 0,-15.77 -17.05,-17.19 -32.11,-19.75 -11.93,-2.27 -19.74,-3.55 -19.74,-8.67 0,-3.41 3.41,-5.68 7.81,-6.1 2.84,0.85 5.97,1.27 9.09,1.27 16.2,0 28.84,-11.08 28.84,-28.27 0,-7.67 -2.42,-14.06 -6.53,-18.75 -1.99,-8.66 2.27,-13.35 6.96,-13.35 5.11,0 6.67,6.11 2.84,12.78l6.25 0zm-38.5 41.06c-12.08,0 -20.74,-8.38 -20.74,-21.59 0,-13.22 8.81,-22.02 20.88,-22.02 11.93,0 20.88,8.66 20.88,21.87 0,13.36 -9.09,21.74 -21.02,21.74l0 0zm62.37 -60.38c5.54,0 9.8,-3.97 9.8,-9.51 0,-5.54 -4.26,-9.38 -9.8,-9.38 -5.54,0 -9.8,3.84 -9.8,9.38 0,5.54 4.26,9.51 9.8,9.51zm-4.12 85.95l8.38 0 0 -73.16 -8.38 0 0 73.16zm69.04 -8.38c-3.55,2.84 -6.82,3.69 -10.23,3.69 -8.52,0 -9.23,-6.53 -9.23,-10.94l0 -50.57 21.31 0 0 -6.96 -21.31 0 0 -20.88 -8.24 2.7 0 18.18 -15.63 0 0 6.96 15.63 0 0 50.57c0,12.08 5.97,17.9 16.34,17.9 5.39,0 9.8,-1.84 13.92,-5.25l-2.56 -5.4zm82.12 1.99c-2.42,1.7 -3.98,2.27 -6.11,2.27 -6.11,0 -6.54,-4.69 -6.54,-7.67l0 -33.95c0,-17.05 -6.53,-29.84 -26.28,-29.84 -19.46,0 -29.26,13.36 -23.44,27.71l7.53 0c-4.69,-11.37 1.85,-21.03 15.77,-21.03 17.9,0 18.18,15.91 18.18,21.59l0 3.98 -17.47 2.7c-22.02,3.13 -28.98,13.07 -28.98,23.87 0,12.36 9.09,19.03 21.59,19.03 16.2,0 22.45,-11.5 24.44,-16.76l0.42 0 0 4.4c0,8.67 6.11,12.36 12.79,12.36 4.97,0 7.95,-1.99 10.08,-4.54l-1.98 -4.12zm-20.89 -20.6c0,9.66 -8.09,23.15 -23.3,23.15 -8.38,0 -15.05,-3.97 -15.05,-13.35 0,-8.95 6.1,-15.2 20.31,-17.61l18.04 -2.7 0 10.51zm48.44 29.12c4.4,0 7.25,-1.14 10.23,-3.12l-2.13 -5.4c-1.99,0.85 -4.12,1.7 -6.54,1.7 -7.24,0 -7.53,-5.25 -7.53,-9.66l0 -90.77 -8.24 0 0 91.48c0,9.66 4.41,15.77 14.21,15.77z"/>
  <path class="fil1" d="M226.46 69.68c0,-30.44 -24.65,-55.09 -55.1,-55.09l-116.33 0c-30.45,0 -55.1,24.65 -55.1,55.09l0 116.36 0 83.8c0,30.45 24.65,55.1 55.1,55.1l116.33 0c30.45,0 55.1,-24.65 55.1,-55.1l0 -25.36 -75.49 0 0 5.8c0,12.65 -10.29,22.93 -23,22.93l-29.55 0c-12.71,0 -23,-10.28 -23,-22.93l0 -64.24 0 -96.79c0,-12.65 10.29,-22.94 23,-22.94l29.55 0c12.71,0 23,10.29 23,22.94l0 5.79 75.49 0 0 -25.36zm2144.65 200.22c0,30.33 24.65,54.98 55.15,54.98l113.62 0 0 -138.84 0 -37.03c0,-30.5 -24.71,-55.15 -55.15,-55.15l-113.62 0 0 66.92 56.34 0 0 -28.5 33.28 0c12.59,0 22.82,10.41 22.82,23l0 30.76 0 2.88 -112.44 0 0 80.98zm79.15 16.56c-12.59,0 -22.81,-10.29 -22.81,-23l0 -39.9 56.1 0 0 62.9 -33.29 0zm-265.36 -100.42l0 138.84 113.62 0c30.33,0 54.98,-24.65 54.98,-54.98l0 -83.86 0 -184.1 -56.16 0 0 91.92 -57.29 0c-30.5,0 -55.15,24.65 -55.15,55.15l0 37.03zm112.44 0l0 77.42c0,12.71 -10.23,23 -23,23l-33.28 0 0 -100.42 0 -30.76c0,-12.59 10.4,-22.82 22.99,-22.82l33.29 -0.18 0 53.76zm-186.57 0l0 138.9 56.22 0 0 -138.9 0 -92.18 -56.22 0 0 92.18zm-202.68 0l33.79 138.9 75.55 0 33.79 -138.9 41.7 -171.45 -62.78 0 -41.72 171.45 -8.77 36.04 -8.77 -36.04 -41.71 -171.45 -62.78 0 41.7 171.45zm-258.06 67.37c-1,13.55 2.51,26.6 10.54,39.15 8.04,12.55 20.59,22.01 37.65,28.36 8.71,3.35 17.66,4.94 26.86,4.77 9.2,-0.16 18.32,-1.59 27.36,-4.26 5.02,8.7 10.29,16.23 15.81,22.59 5.52,6.35 11.13,11.29 16.82,14.8 5.69,3.52 11.46,5.36 17.32,5.53 5.86,0.16 11.63,-1.59 17.32,-5.27 -1.68,-0.34 -3.68,-1.01 -6.03,-2.01 -2.34,-1.01 -4.85,-2.34 -7.53,-4.02 6.36,2.34 12.22,2.85 17.57,1.51 5.36,-1.34 8.87,-4.35 10.55,-9.04 -2.35,1.34 -5.61,1.51 -9.79,0.5 -4.19,-1 -8.7,-2.92 -13.56,-5.77 -4.85,-2.84 -9.62,-6.44 -14.3,-10.79 -4.69,-4.35 -8.71,-9.37 -12.05,-15.06 7.36,9.03 14.97,15.39 22.84,19.07 7.86,3.69 15.48,1.51 22.84,-6.52 -5.69,0 -11.46,-2.43 -17.32,-7.28 -5.86,-4.85 -11.63,-11.3 -17.32,-19.33 12.38,-8.7 22.42,-18.66 30.12,-29.87 7.7,-11.21 11.55,-22 11.55,-32.38 0,-2.34 -2.6,-3.84 -7.78,-4.51 -5.19,-0.67 -10.63,-0.67 -16.32,0 -5.69,0.67 -10.37,1.92 -14.05,3.76 -3.69,1.84 -4.02,3.93 -1.01,6.28 -1.34,3.68 -3.85,7.44 -7.53,11.29 -3.68,3.85 -8.2,7.61 -13.55,11.3 0,0.33 0.17,1.25 0.5,2.76 0.33,1.5 0.5,2.59 0.5,3.26 -3.68,-6.69 -7.28,-14.56 -10.79,-23.59 -3.52,-9.04 -6.61,-16.9 -9.29,-23.6 10.38,1.01 19.66,-0.25 27.86,-3.76 8.2,-3.52 15.06,-8.29 20.58,-14.31 5.53,-6.02 9.54,-12.97 12.05,-20.83 2.51,-7.87 3.27,-15.56 2.26,-23.09 -1,-7.53 -4.01,-14.65 -9.03,-21.34 -5.02,-6.69 -12.22,-11.88 -21.59,-15.56 -12.05,-4.69 -23.34,-6.11 -33.89,-4.27 -10.54,1.84 -19.57,5.94 -27.1,12.3 -7.53,6.36 -13.14,14.64 -16.82,24.85 -3.06,8.49 -4.16,17.49 -3.28,27.01 0.17,1.94 0.43,3.89 0.77,5.87 -19.08,4.35 -33.55,12.3 -43.42,23.85 -9.88,11.54 -15.31,24.09 -16.32,37.65zm129.41 -67.37c-1.59,1.22 -3.39,2.26 -5.41,3.11 -4.35,1.84 -9.04,1.76 -14.06,-0.25 -2.18,-0.77 -4.03,-1.72 -5.54,-2.86 -2.45,-1.83 -4.03,-4.14 -4.75,-6.93 -1.17,-4.52 -0.75,-8.7 1.25,-12.55 2.01,-3.85 5.27,-6.78 9.79,-8.79 4.52,-2 9.62,-1.67 15.31,1.01 5.69,3.01 9.04,6.61 10.04,10.79 1.01,4.18 0.34,8.03 -2,11.55 -1.26,1.88 -2.8,3.52 -4.63,4.92zm-69.92 99.24c-6.19,-3.68 -10.12,-8.62 -11.8,-14.81 -1.67,-6.19 -0.83,-12.8 2.51,-19.83 3.35,-7.02 9.54,-12.88 18.58,-17.57 2.34,9.37 5.1,19.16 8.28,29.37 3.18,10.21 6.44,19.5 9.79,27.86 -0.67,-0.67 -1.26,-1.5 -1.76,-2.51 -0.5,-1 -0.92,-1.34 -1.25,-1 -10.04,2.68 -18.16,2.17 -24.35,-1.51zm-271.66 -15.38c0,30.33 24.65,54.98 55.15,54.98l113.62 0 0 -138.84 0 -37.03c0,-30.5 -24.71,-55.15 -55.15,-55.15l-113.62 0 0 66.92 56.34 0 0 -28.5 33.28 0c12.59,0 22.82,10.41 22.82,23l0 30.76 0 2.88 -112.44 0 0 80.98zm79.15 16.56c-12.59,0 -22.81,-10.29 -22.81,-23l0 -39.9 56.1 0 0 62.9 -33.29 0zm-265.72 -17.27l0 17.21 0 21.34 0 17.2 168.71 0 0 -17.2 0 -21.34 0 -17.21 -106.4 0c-0.24,-16.47 49.02,-52.7 80.59,-83.15 14.87,-14.34 25.81,-27.39 25.81,-36.49l0 -17.21 0 -21.28 0 -17.2 -168.71 0 0 17.2 0 21.28 0 17.21 112.44 0c-4.2,7.22 -18.41,20.82 -35.39,36.49 -33.23,30.67 -77.05,69.22 -77.05,83.15zm-74.13 -21.28l0 77.03 56.27 0 0 -138.9 0 -92.18 -56.27 0 0 77.03 -56.22 -77.03 -56.22 0 0 92.18 0 138.9 56.22 0 0 -138.9 0 -15.15 11.06 15.15 45.16 61.87zm-299.01 -58.99l0 80.98c0,30.33 24.65,54.98 55.15,54.98l113.62 0 0 -138.84 0 -37.03c0,-30.5 -24.71,-55.15 -55.15,-55.15l-113.62 0 0 66.92 56.34 0 0 -28.5 33.28 0c12.59,0 22.82,10.41 22.82,23l0 30.76 0 2.88 -112.44 0zm79.15 97.54c-12.59,0 -22.81,-10.29 -22.81,-23l0 -39.9 56.1 0 0 62.9 -33.29 0zm-153.28 -100.42l0 138.9 56.22 0 0 -138.9 0 -92.18 -56.22 0 0 92.18zm-186.57 0l0 138.9 56.22 0 0 -138.9 0 -15.15 84.36 0 0 -38.55 -84.36 0 0 -56.81c0,-12.71 10.28,-22.99 22.99,-22.99l33.23 0 0 41.32 56.27 0 0 -91.87 -113.61 0c-30.45,0 -55.1,24.66 -55.1,55.1l0 128.95zm-119.29 0l45.16 61.87 0 77.03 56.27 0 0 -138.9 0 -92.18 -56.27 0 0 77.03 -56.22 -77.03 -56.22 0 0 92.18 0 138.9 56.22 0 0 -138.9 0 -15.15 11.06 15.15zm-253.85 0l0 83.86c0,30.33 24.65,54.98 55.15,54.98l113.62 0 0 -138.84 0 -37.03c0,-30.5 -24.82,-55.15 -55.15,-55.15l-113.62 0 0 92.18zm112.44 0l0 100.42 -33.29 0c-12.76,0 -22.99,-10.29 -22.99,-23l0 -77.42 0 -53.76 33.28 0c12.77,0 23,10.41 23,23l0 30.76zm1754.02 -184.05l0 71.12 56.22 0 0 -71.12 -56.22 0zm-1306.75 71.12l56.22 0 0 -71.12 -56.22 0 0 71.12z"/>
  <g style="clip-path:url(#id0)">
   <g id="_2328089938384">
    <rect class="fil2" x="-552.96" y="-31.8" width="3697.24" height="941.94"/>
   </g>
  </g>
  <path class="fil3" d="M226.46 69.68c0,-30.44 -24.65,-55.09 -55.1,-55.09l-116.33 0c-30.45,0 -55.1,24.65 -55.1,55.09l0 116.36 0 83.8c0,30.45 24.65,55.1 55.1,55.1l116.33 0c30.45,0 55.1,-24.65 55.1,-55.1l0 -25.36 -75.49 0 0 5.8c0,12.65 -10.29,22.93 -23,22.93l-29.55 0c-12.71,0 -23,-10.28 -23,-22.93l0 -64.24 0 -96.79c0,-12.65 10.29,-22.94 23,-22.94l29.55 0c12.71,0 23,10.29 23,22.94l0 5.79 75.49 0 0 -25.36zm2144.65 200.22c0,30.33 24.65,54.98 55.15,54.98l113.62 0 0 -138.84 0 -37.03c0,-30.5 -24.71,-55.15 -55.15,-55.15l-113.62 0 0 66.92 56.34 0 0 -28.5 33.28 0c12.59,0 22.82,10.41 22.82,23l0 30.76 0 2.88 -112.44 0 0 80.98zm79.15 16.56c-12.59,0 -22.81,-10.29 -22.81,-23l0 -39.9 56.1 0 0 62.9 -33.29 0zm-265.36 -100.42l0 138.84 113.62 0c30.33,0 54.98,-24.65 54.98,-54.98l0 -83.86 0 -184.1 -56.16 0 0 91.92 -57.29 0c-30.5,0 -55.15,24.65 -55.15,55.15l0 37.03zm112.44 0l0 77.42c0,12.71 -10.23,23 -23,23l-33.28 0 0 -100.42 0 -30.76c0,-12.59 10.4,-22.82 22.99,-22.82l33.29 -0.18 0 53.76zm-186.57 0l0 138.9 56.22 0 0 -138.9 0 -92.18 -56.22 0 0 92.18zm-202.68 0l33.79 138.9 75.55 0 33.79 -138.9 41.7 -171.45 -62.78 0 -41.72 171.45 -8.77 36.04 -8.77 -36.04 -41.71 -171.45 -62.78 0 41.7 171.45zm-258.06 67.37c-1,13.55 2.51,26.6 10.54,39.15 8.04,12.55 20.59,22.01 37.65,28.36 8.71,3.35 17.66,4.94 26.86,4.77 9.2,-0.16 18.32,-1.59 27.36,-4.26 5.02,8.7 10.29,16.23 15.81,22.59 5.52,6.35 11.13,11.29 16.82,14.8 5.69,3.52 11.46,5.36 17.32,5.53 5.86,0.16 11.63,-1.59 17.32,-5.27 -1.68,-0.34 -3.68,-1.01 -6.03,-2.01 -2.34,-1.01 -4.85,-2.34 -7.53,-4.02 6.36,2.34 12.22,2.85 17.57,1.51 5.36,-1.34 8.87,-4.35 10.55,-9.04 -2.35,1.34 -5.61,1.51 -9.79,0.5 -4.19,-1 -8.7,-2.92 -13.56,-5.77 -4.85,-2.84 -9.62,-6.44 -14.3,-10.79 -4.69,-4.35 -8.71,-9.37 -12.05,-15.06 7.36,9.03 14.97,15.39 22.84,19.07 7.86,3.69 15.48,1.51 22.84,-6.52 -5.69,0 -11.46,-2.43 -17.32,-7.28 -5.86,-4.85 -11.63,-11.3 -17.32,-19.33 12.38,-8.7 22.42,-18.66 30.12,-29.87 7.7,-11.21 11.55,-22 11.55,-32.38 0,-2.34 -2.6,-3.84 -7.78,-4.51 -5.19,-0.67 -10.63,-0.67 -16.32,0 -5.69,0.67 -10.37,1.92 -14.05,3.76 -3.69,1.84 -4.02,3.93 -1.01,6.28 -1.34,3.68 -3.85,7.44 -7.53,11.29 -3.68,3.85 -8.2,7.61 -13.55,11.3 0,0.33 0.17,1.25 0.5,2.76 0.33,1.5 0.5,2.59 0.5,3.26 -3.68,-6.69 -7.28,-14.56 -10.79,-23.59 -3.52,-9.04 -6.61,-16.9 -9.29,-23.6 10.38,1.01 19.66,-0.25 27.86,-3.76 8.2,-3.52 15.06,-8.29 20.58,-14.31 5.53,-6.02 9.54,-12.97 12.05,-20.83 2.51,-7.87 3.27,-15.56 2.26,-23.09 -1,-7.53 -4.01,-14.65 -9.03,-21.34 -5.02,-6.69 -12.22,-11.88 -21.59,-15.56 -12.05,-4.69 -23.34,-6.11 -33.89,-4.27 -10.54,1.84 -19.57,5.94 -27.1,12.3 -7.53,6.36 -13.14,14.64 -16.82,24.85 -3.06,8.49 -4.16,17.49 -3.28,27.01 0.17,1.94 0.43,3.89 0.77,5.87 -19.08,4.35 -33.55,12.3 -43.42,23.85 -9.88,11.54 -15.31,24.09 -16.32,37.65zm129.41 -67.37c-1.59,1.22 -3.39,2.26 -5.41,3.11 -4.35,1.84 -9.04,1.76 -14.06,-0.25 -2.18,-0.77 -4.03,-1.72 -5.54,-2.86 -2.45,-1.83 -4.03,-4.14 -4.75,-6.93 -1.17,-4.52 -0.75,-8.7 1.25,-12.55 2.01,-3.85 5.27,-6.78 9.79,-8.79 4.52,-2 9.62,-1.67 15.31,1.01 5.69,3.01 9.04,6.61 10.04,10.79 1.01,4.18 0.34,8.03 -2,11.55 -1.26,1.88 -2.8,3.52 -4.63,4.92zm-69.92 99.24c-6.19,-3.68 -10.12,-8.62 -11.8,-14.81 -1.67,-6.19 -0.83,-12.8 2.51,-19.83 3.35,-7.02 9.54,-12.88 18.58,-17.57 2.34,9.37 5.1,19.16 8.28,29.37 3.18,10.21 6.44,19.5 9.79,27.86 -0.67,-0.67 -1.26,-1.5 -1.76,-2.51 -0.5,-1 -0.92,-1.34 -1.25,-1 -10.04,2.68 -18.16,2.17 -24.35,-1.51zm-271.66 -15.38c0,30.33 24.65,54.98 55.15,54.98l113.62 0 0 -138.84 0 -37.03c0,-30.5 -24.71,-55.15 -55.15,-55.15l-113.62 0 0 66.92 56.34 0 0 -28.5 33.28 0c12.59,0 22.82,10.41 22.82,23l0 30.76 0 2.88 -112.44 0 0 80.98zm79.15 16.56c-12.59,0 -22.81,-10.29 -22.81,-23l0 -39.9 56.1 0 0 62.9 -33.29 0zm-265.72 -17.27l0 17.21 0 21.34 0 17.2 168.71 0 0 -17.2 0 -21.34 0 -17.21 -106.4 0c-0.24,-16.47 49.02,-52.7 80.59,-83.15 14.87,-14.34 25.81,-27.39 25.81,-36.49l0 -17.21 0 -21.28 0 -17.2 -168.71 0 0 17.2 0 21.28 0 17.21 112.44 0c-4.2,7.22 -18.41,20.82 -35.39,36.49 -33.23,30.67 -77.05,69.22 -77.05,83.15zm-74.13 -21.28l0 77.03 56.27 0 0 -138.9 0 -92.18 -56.27 0 0 77.03 -56.22 -77.03 -56.22 0 0 92.18 0 138.9 56.22 0 0 -138.9 0 -15.15 11.06 15.15 45.16 61.87zm-299.01 -58.99l0 80.98c0,30.33 24.65,54.98 55.15,54.98l113.62 0 0 -138.84 0 -37.03c0,-30.5 -24.71,-55.15 -55.15,-55.15l-113.62 0 0 66.92 56.34 0 0 -28.5 33.28 0c12.59,0 22.82,10.41 22.82,23l0 30.76 0 2.88 -112.44 0zm79.15 97.54c-12.59,0 -22.81,-10.29 -22.81,-23l0 -39.9 56.1 0 0 62.9 -33.29 0zm-153.28 -100.42l0 138.9 56.22 0 0 -138.9 0 -92.18 -56.22 0 0 92.18zm-186.57 0l0 138.9 56.22 0 0 -138.9 0 -15.15 84.36 0 0 -38.55 -84.36 0 0 -56.81c0,-12.71 10.28,-22.99 22.99,-22.99l33.23 0 0 41.32 56.27 0 0 -91.87 -113.61 0c-30.45,0 -55.1,24.66 -55.1,55.1l0 128.95zm-119.29 0l45.16 61.87 0 77.03 56.27 0 0 -138.9 0 -92.18 -56.27 0 0 77.03 -56.22 -77.03 -56.22 0 0 92.18 0 138.9 56.22 0 0 -138.9 0 -15.15 11.06 15.15zm-253.85 0l0 83.86c0,30.33 24.65,54.98 55.15,54.98l113.62 0 0 -138.84 0 -37.03c0,-30.5 -24.82,-55.15 -55.15,-55.15l-113.62 0 0 92.18zm112.44 0l0 100.42 -33.29 0c-12.76,0 -22.99,-10.29 -22.99,-23l0 -77.42 0 -53.76 33.28 0c12.77,0 23,10.41 23,23l0 30.76zm1754.02 -184.05l0 71.12 56.22 0 0 -71.12 -56.22 0zm-1306.75 71.12l56.22 0 0 -71.12 -56.22 0 0 71.12z"/>
 </g>
</svg>
