<?xml version="1.0" encoding="UTF-8"?>
<!DOCTYPE svg PUBLIC "-//W3C//DTD SVG 1.1//EN" "http://www.w3.org/Graphics/SVG/1.1/DTD/svg11.dtd">
<!-- Creator: CorelDRAW -->
<svg xmlns="http://www.w3.org/2000/svg" xml:space="preserve" width="42.3332mm" height="42.3332mm" version="1.1" style="shape-rendering:geometricPrecision; text-rendering:geometricPrecision; image-rendering:optimizeQuality; fill-rule:evenodd; clip-rule:evenodd"
viewBox="0 0 4233.32 4233.32"
 xmlns:xlink="http://www.w3.org/1999/xlink"
 xmlns:xodm="http://www.corel.com/coreldraw/odm/2003">
 <defs>
  <style type="text/css">
   <![CDATA[
    .fil14 {fill:#FEFEFE;fill-rule:nonzero}
    .fil47 {fill:#E6E7E8;fill-rule:nonzero}
    .fil35 {fill:#FFD580;fill-rule:nonzero}
    .fil5 {fill:#F8A887;fill-rule:nonzero}
    .fil11 {fill:#F7A280;fill-rule:nonzero}
    .fil6 {fill:#E18A74;fill-rule:nonzero}
    .fil12 {fill:#E98F75;fill-rule:nonzero}
    .fil49 {fill:#F391B8;fill-rule:nonzero}
    .fil1 {fill:#5E2E44;fill-rule:nonzero}
    .fil45 {fill:#F6B992;fill-rule:nonzero}
    .fil46 {fill:#DDA083;fill-rule:nonzero}
    .fil43 {fill:#F4B892;fill-rule:nonzero}
    .fil3 {fill:#E7977B;fill-rule:nonzero}
    .fil20 {fill:#CD5783;fill-rule:nonzero}
    .fil18 {fill:#813B55;fill-rule:nonzero}
    .fil19 {fill:#A34E75;fill-rule:nonzero}
    .fil25 {fill:#8A3B5A;fill-rule:nonzero}
    .fil51 {fill:#A5DEF5;fill-rule:nonzero}
    .fil0 {fill:#A0ADD4;fill-rule:nonzero}
    .fil50 {fill:#9AC4E9;fill-rule:nonzero}
    .fil17 {fill:#83BDE7;fill-rule:nonzero}
    .fil36 {fill:#4B3128;fill-rule:nonzero}
    .fil13 {fill:#48372F;fill-rule:nonzero}
    .fil26 {fill:#392E28;fill-rule:nonzero}
    .fil44 {fill:#432D2B;fill-rule:nonzero}
    .fil48 {fill:#82C891;fill-rule:nonzero}
    .fil52 {fill:#6EA2D6;fill-rule:nonzero}
    .fil40 {fill:#582F40;fill-rule:nonzero}
    .fil16 {fill:#47B1E4;fill-rule:nonzero}
    .fil30 {fill:#6779BA;fill-rule:nonzero}
    .fil27 {fill:#464F77;fill-rule:nonzero}
    .fil8 {fill:#6C5AA5;fill-rule:nonzero}
    .fil2 {fill:#2F3543;fill-rule:nonzero}
    .fil21 {fill:#313133;fill-rule:nonzero}
    .fil33 {fill:#29292B;fill-rule:nonzero}
    .fil22 {fill:#232223;fill-rule:nonzero}
    .fil29 {fill:#5F67AD;fill-rule:nonzero}
    .fil7 {fill:#353A41;fill-rule:nonzero}
    .fil9 {fill:#30343B;fill-rule:nonzero}
    .fil28 {fill:#4D528C;fill-rule:nonzero}
    .fil15 {fill:#0097C8;fill-rule:nonzero}
    .fil32 {fill:#1A83A5;fill-rule:nonzero}
    .fil39 {fill:#3073AD;fill-rule:nonzero}
    .fil34 {fill:#3F5A8E;fill-rule:nonzero}
    .fil38 {fill:#2167A5;fill-rule:nonzero}
    .fil10 {fill:#3C4875;fill-rule:nonzero}
    .fil4 {fill:#32395B;fill-rule:nonzero}
    .fil31 {fill:#294871;fill-rule:nonzero}
    .fil24 {fill:#2A599B;fill-rule:nonzero}
    .fil23 {fill:#2D4F78;fill-rule:nonzero}
    .fil42 {fill:#1C60AB;fill-rule:nonzero}
    .fil41 {fill:#21518F;fill-rule:nonzero}
    .fil37 {fill:#03578C;fill-rule:nonzero}
   ]]>
  </style>
 </defs>
 <g id="Capa_x0020_1">
  <metadata id="CorelCorpID_0Corel-Layer"/>
  <g id="_2371431437200">
   <path class="fil0" d="M2504.38 2541.31l-634.93 -267.19 -495.34 334.25 263.01 110.66c-5.81,4.91 -15.7,10.62 -17.73,11.57 -9.22,4.2 -21,7.32 -32.45,9.43 -22.12,4.1 -49.28,3.41 -65.03,14.05 -24.64,16.63 -5.24,46.81 43.25,68.44 1.4,0.62 2.84,1.24 4.29,1.87 51.61,21.69 114.01,25.46 139.37,8.34 20.59,-13.9 4.75,-35.98 17.05,-52.11 1,-1.34 11.58,-10.32 20.53,-15.6l262.67 110.53 204.95 -138.28c-0.84,-0.4 -1.72,-0.81 -2.63,-1.2 -10.14,-4.53 -24.66,-9.37 -26.99,-9.89 -30.57,-6.72 -71.89,1.42 -98.29,-9.69 -32.36,-14.39 -25.75,-47.07 14.06,-73.96 40.26,-27.16 99.24,-38.1 131.75,-24.42 20.16,8.98 19.39,23.13 27.21,34.74 4.09,6.1 10.12,12.39 18.16,17.34 0.97,0.61 4.63,2.44 9.26,4.51 3.88,1.74 8.45,3.62 12.71,5.06l205.12 -138.45z"/>
   <path class="fil0" d="M1830.45 3479.39c-16.01,-10.81 -43.63,-10.12 -66.1,-14.26 -11.65,-2.15 -23.62,-5.34 -33,-9.63 -2.03,-0.93 -12.12,-6.74 -18,-11.72l267.3 -112.49 -208.28 -140.54c0.85,-0.41 1.76,-0.84 2.68,-1.23 10.29,-4.6 25.05,-9.54 27.41,-10.06 31.04,-6.82 73.05,1.47 100.99,-10.29 31.79,-14.18 25.09,-47.39 -15.4,-74.71 -40.92,-27.62 -100.87,-38.73 -134.89,-24.41 -19.5,8.71 -18.72,23.1 -26.66,34.88 -4.17,6.2 -10.31,12.6 -18.48,17.64 -0.97,0.61 -4.74,2.5 -9.48,4.61 -3.93,1.77 -8.54,3.64 -12.82,5.11l-208.53 -140.71 -645.37 271.55 503.46 339.72 267 -112.34c9.07,5.36 19.82,14.47 20.86,15.85 12.49,16.41 -3.61,38.84 17.31,52.97 25.79,17.39 89.2,13.57 141.67,-8.48 1.47,-0.63 2.93,-1.25 4.35,-1.9 49.29,-21.97 69.02,-52.65 43.98,-69.56z"/>
   <path class="fil0" d="M2329.63 2845.95l267 -112.34c9.09,5.34 19.84,14.48 20.87,15.84 12.5,16.43 -3.62,38.86 17.32,52.99 25.78,17.38 89.18,13.57 141.66,-8.49 1.46,-0.62 2.91,-1.25 4.33,-1.87 49.29,-22 69.06,-52.69 43.99,-69.6 -16.01,-10.79 -43.63,-10.11 -66.11,-14.27 -11.64,-2.13 -23.6,-5.34 -32.99,-9.6 -2.04,-0.95 -12.1,-6.77 -18.01,-11.74l267.33 -112.47 503.45 339.71 -645.38 271.58 -208.29 -140.56c0.82,-0.41 1.7,-0.8 2.59,-1.19 10.29,-4.59 25.14,-9.56 27.48,-10.08 31.07,-6.83 73.1,1.47 99.94,-9.84 32.87,-14.65 26.17,-47.85 -14.31,-75.16 -40.93,-27.62 -100.88,-38.75 -133.9,-24.84 -20.51,9.14 -19.71,23.5 -27.64,35.29 -4.2,6.22 -10.32,12.62 -18.48,17.66 -0.99,0.58 -4.74,2.48 -9.5,4.59 -3.92,1.77 -8.53,3.66 -12.8,5.11l-208.55 -140.72z"/>
   <path class="fil0" d="M3189.65 3583.74l-262.7 -110.53c-8.94,5.25 -19.5,14.26 -20.51,15.57 -12.28,16.18 3.55,38.24 -17.04,52.13 -25.38,17.11 -87.76,13.38 -139.38,-8.33 -1.44,-0.63 -2.88,-1.25 -4.28,-1.88 -48.49,-21.62 -67.9,-51.81 -43.28,-68.44 15.77,-10.64 42.93,-9.95 65.04,-14.04 11.48,-2.11 23.24,-5.23 32.46,-9.46 2,-0.92 11.91,-6.65 17.71,-11.54l-262.99 -110.66 -205.16 138.45c-4.25,-1.45 -8.81,-3.34 -12.69,-5.07 -4.63,-2.06 -8.29,-3.9 -9.24,-4.5 -8.04,-4.95 -14.09,-11.24 -18.18,-17.36 -7.82,-11.61 -7.05,-25.75 -26.22,-34.3 -33.5,-14.1 -92.46,-3.16 -132.74,24 -39.81,26.89 -46.4,59.56 -15.12,73.5 27.49,11.59 68.8,3.41 99.35,10.15 2.33,0.5 16.82,5.36 26.95,9.86 0.92,0.41 1.81,0.82 2.65,1.23l-204.93 138.26 634.97 267.2 495.33 -334.24z"/>
   <path class="fil0" d="M1695.94 2490.88c0,89.12 -162.38,161.37 -362.68,161.37 -200.3,0 -362.68,-72.25 -362.68,-161.37 0,-89.12 162.38,-161.37 362.68,-161.37 200.3,0 362.68,72.25 362.68,161.37z"/>
   <polygon class="fil1" points="1430.9,2480.07 1436.84,2478.97 1442.79,2429.03 1427.17,2410.53 "/>
   <polygon class="fil2" points="1423.73,2476.02 1430.9,2480.07 1429.77,2398.34 1417.15,2395.45 "/>
   <path class="fil3" d="M1478.69 2373.13l13.27 43.82c0,0 18.06,42.22 32.95,58.89 0,0 26.89,36.84 -23.41,34.38 0,0 -53.64,-2.84 -52.83,-37.26 0.7,-29.6 -26.5,-66.33 -26.5,-66.33 -10,-17.32 0.12,-31.36 3.51,-35.33l9.3 -10.62 45.11 -7.88 -1.4 20.33z"/>
   <path class="fil2" d="M1527.83 2489.41c-22.17,4.16 -44.63,-4.09 -58.42,-17.66 -13.95,-13.74 -29.86,-64.02 -24.59,-47.33 2.19,6.92 -14.21,-54.2 -9.84,-63.74l-9.3 10.62c-3.39,3.97 -14.43,18.94 -4.43,36.26 0,0 28.12,35.8 27.42,65.4 -0.81,34.42 52.83,37.26 52.83,37.26 30.19,1.49 32.56,-11.2 29.64,-21.58 -1.05,0.32 -2.15,0.58 -3.31,0.77z"/>
   <path class="fil2" d="M1553.11 2504.13c0,0 7.57,14.32 -16.46,14.32 0,0 -90.01,-5.73 -89.97,-44.39l-0.04 -31.15c0,0 7.08,44.46 62.67,44.57 0,0 24.68,0 11.93,-15.73l31.87 32.38z"/>
   <path class="fil4" d="M1408.22 420.24c0,33.09 -26.81,59.92 -59.89,59.92 -33.09,0 -59.9,-26.83 -59.9,-59.92 0,-33.06 26.81,-59.89 59.9,-59.89 33.08,0 59.89,26.83 59.89,59.89z"/>
   <path class="fil5" d="M1391.27 696.31l117.97 0c-5.36,-17.16 -16.47,-61.6 0.72,-91.89l-119.19 -78.27c0,0 21.19,131.34 0.5,170.16z"/>
   <path class="fil6" d="M1404.49 622.22c7.06,18.04 18.49,26.86 37.14,32.75 20.65,6.54 40.5,7.82 59.91,4.42 -1.87,-18.1 -0.88,-38.61 8.42,-54.97l-119.19 -78.27c0,0 6.45,40.07 8.75,82.48 1.62,4.52 3.2,9.07 4.97,13.59z"/>
   <path class="fil5" d="M1532.65 631.75l6.26 -17.76 15.28 -52.19c2.11,-8.29 3.11,-19.6 0.27,-27.7 -3.42,-9.73 -6.06,-25.59 -2.43,-43.35 9.72,-47.49 -11.37,-72.29 -11.37,-72.29 -27.73,-43.69 -93.16,-43.47 -93.16,-43.47 -80.9,4.21 -87.51,82.55 -87.51,82.55 -12.99,52.13 28.57,95.38 28.64,95.47 5.27,5.45 5.83,14.33 8.37,21.13 2.71,7.23 6.8,13.96 11.87,19.78 11.37,13.03 26.22,25.52 41.47,33.28 14.46,7.39 42.47,14.93 62.37,14.71 8.25,-0.09 16.35,0.03 19.94,-10.16z"/>
   <polygon class="fil1" points="1155.03,2489.46 1161.03,2490.32 1182.68,2444.93 1173.83,2422.38 "/>
   <polygon class="fil2" points="1149.55,2483.32 1155.03,2489.46 1180.2,2411.65 1169.17,2404.91 "/>
   <path class="fil5" d="M1234.62 2403.48c-1.19,36.54 -3.9,77.56 10.83,112.13 0,0 13.64,43.51 -33.21,25.05 0,0 -49.89,-19.9 -38.08,-52.24 10.16,-27.81 -3.82,-71.32 -3.82,-71.32 -3.92,-19.6 10.18,-29.66 14.65,-32.33l12.23 -7.09 46.9 0 -9.5 25.8z"/>
   <path class="fil2" d="M1243.86 2529.42c-22.33,-3.19 -40.97,-18.21 -49.67,-35.5 -8.8,-17.47 -7.75,-70.21 -8.1,-52.69 -0.14,7.23 3.92,-55.93 11.13,-63.55l-12.23 7.09c-4.47,2.67 -19.74,13.29 -15.82,32.91 0,0 15.15,42.93 4.99,70.74 -11.81,32.34 38.08,52.24 38.08,52.24 28.12,11.1 34.44,-0.17 35.01,-10.94 -1.1,-0.02 -2.23,-0.13 -3.39,-0.3z"/>
   <path class="fil2" d="M1263.08 2551.45c0,0 2.58,15.99 -20.18,8.28 0,0 -83.42,-34.3 -70.97,-70.89l9.96 -29.54c0,0 -7.57,44.38 45.04,62.32 0,0 23.38,7.93 16.35,-11.07l19.8 40.9z"/>
   <path class="fil5" d="M1286.43 1857.67c-59.82,110.47 -70.41,155.42 -81.05,239.42 -6.21,48.86 -4.15,254.65 -10.55,285.35 -2.68,12.73 45.69,5.75 45.69,5.75 8.84,-21.54 149.68,-494.36 149.68,-494.36 0,0 15.75,-48.98 2.68,-57.49 -65.67,-42.78 -80.38,-26.82 -106.45,21.33z"/>
   <path class="fil7" d="M1241.97 2398.06c8.85,-21.55 148.23,-504.23 148.23,-504.23 0,0 15.75,-48.98 2.68,-57.49 -65.67,-42.78 -80.38,-26.82 -106.45,21.33 -59.82,110.47 -70.41,155.42 -81.05,239.42 -6.21,48.86 -16.29,247.54 -22.7,278.26 0,0 35.79,42.63 59.29,22.71z"/>
   <path class="fil7" d="M1554.97 1058.8c0,0 45.98,194.59 39.81,215.84 -17.78,61.23 -182.73,147.14 -333.13,21.85 0,0 34.38,-143.9 105.78,-265.67 0,0 26.24,27.11 187.54,27.98z"/>
   <path class="fil8" d="M1531.54 663.41c0,0 60.17,116.32 87.03,180.14 -11.26,74.78 -51.9,185.77 -68.24,209.17 -35.8,51.29 -199.46,5.52 -199.46,5.52l-47.17 -157.52c137.7,-49.45 65.19,-194.53 65.19,-194.53l21.58 -13.65c0,0 22.03,71.33 111.65,68.77 0,0 29.44,-19.16 7.78,-100.52 0,0 12.93,0.41 21.64,2.62z"/>
   <path class="fil3" d="M1381.75 1327.02c0,0 15.84,313.93 73.91,482.77 8.65,25.17 107.9,-8.29 107.9,-8.29 0,0 50.08,-270.09 47.08,-382 -1.7,-63.25 -24.33,-199.63 -24.33,-199.63 0,0 -186.12,-24.34 -204.56,107.15z"/>
   <path class="fil3" d="M1458.52 1808.66l105.04 -7.16c0,0 -64.55,535.89 -70.39,558.4 0,0 -45.17,16.36 -44.25,3.37 2.19,-31.28 -35.48,-271.78 -36.63,-321.01 -1.85,-79.1 1.25,-129.06 46.23,-233.6z"/>
   <path class="fil9" d="M1381.75 1327.02c0,0 15.84,313.93 73.91,482.77 8.65,25.17 107.9,-8.29 107.9,-8.29 0,0 50.08,-270.09 47.08,-382 -1.7,-63.25 -24.33,-199.63 -24.33,-199.63 0,0 -186.12,-24.34 -204.56,107.15z"/>
   <path class="fil9" d="M1506.18 2363.27c10.65,-20.68 57.38,-561.77 57.38,-561.77l-105.04 7.16c-44.98,104.54 -48.08,154.5 -46.23,233.6 1.15,49.23 24.99,289.73 22.8,321.01 0,0 57.09,27.18 71.09,0z"/>
   <path class="fil3" d="M1721.56 1044.47l-79.64 -288.7c-28.67,-77.22 -71.44,-79.12 -71.44,-79.12 -82.01,12.4 -29.52,156.3 -29.52,156.3l101.22 239.81 79.38 -28.29z"/>
   <path class="fil3" d="M1952.34 1260.19c-34.42,-25.56 -36.81,-32.5 -42.01,-42.88 -22.45,-44.59 34.81,-34.81 48.78,-29.38 8.02,3.11 5.62,22.93 27.8,50.82 0,0 36.98,29.48 47.19,29.29 0,0 10.17,2.99 9.07,10.47 0,0 -30.89,12.62 -90.83,-18.32z"/>
   <path class="fil3" d="M1715.39 1027.7l233.21 176.43c6.44,32.16 -8.3,34.46 -8.3,34.46l-188.1 -85.59c-80.54,-34.87 -108.58,-74.98 -108.58,-74.98 0,0 -32.91,-30.84 19.49,-61.75 0,0 23.8,-13.68 52.28,11.43z"/>
   <path class="fil3" d="M1952.49 1185.9c0,0 -10.21,19.76 16.45,18.48l28.2 -15.55c0,0 8.5,-3.05 6.83,-11 0,0 -2.4,-4.74 -11.13,-1.65l-40.35 9.72z"/>
   <path class="fil5" d="M1253.29 1353.29c0,0 1.21,314.03 42.64,487.71 6.17,25.89 100.78,17.95 100.78,17.95 0,0 61.74,-296.99 69.6,-408.65 4.45,-63.11 17.08,-173.57 17.08,-173.57 0,0 -221.5,-21.97 -230.1,76.56z"/>
   <path class="fil5" d="M1299.11 743.93c-48.28,35.3 -23.59,88.37 -23.59,88.37l91.17 221.42c0,0 147.84,50.29 183.64,-1 16.34,-23.4 31.47,-85.47 51.31,-174.99 13.49,-60.86 14.41,-167.14 -19.84,-198.62 -19.75,-18.13 -83.68,-17.76 -84.15,-19.94l-103.57 33.37 -94.97 51.39z"/>
   <path class="fil5" d="M1494.3 1035.65c8.76,-1.59 56.03,17.07 56.03,17.07 0,0 34.04,145.11 35.98,167.15 1.93,22.06 -149.79,136.26 -319.29,71.26 0,0 85.59,-201.89 98.1,-244.11 14.36,-48.45 129.18,-11.37 129.18,-11.37z"/>
   <path class="fil8" d="M1576.61 753.15c0,0 50.03,58.89 54.23,102.67 2.34,24.37 -28.43,65.16 -43.82,80.21 -10.91,10.62 -75.53,-142.22 -10.41,-182.88z"/>
   <path class="fil7" d="M1308.55 1243.02c0,0 -59.76,13.27 -54.38,122.82 5.26,106.99 200.04,129.23 225.05,21.44 26.91,-116.03 -64.31,-184.02 -170.67,-144.26z"/>
   <path class="fil10" d="M1397.69 583.2c-0.42,-36.95 0.52,-34.68 0.52,-34.68 0.86,-10.78 22.03,12.5 21.6,-1.59 -2.01,-64.34 21.38,-95 30.53,-99.96 24.83,-13.43 51.04,-17.29 71.8,-13.61 32.56,5.79 31.31,49.1 31.31,49.1 27.74,-158.63 -149.18,-107.94 -149.18,-107.94 -86.17,22.63 -77.29,103.83 -77.29,103.83 -10.56,87.19 72.05,137.57 72.05,137.57l-1.34 -32.72z"/>
   <path class="fil11" d="M1403.35 570.65c-2.89,2.21 -6.6,3.49 -11.23,3.39 -12.53,-0.15 -22.94,-11.9 -23.23,-26.14 -0.28,-14.24 9.61,-25.68 22.12,-25.49 5.94,0.09 11.39,2.77 15.53,7.07 6.01,6.3 6.2,17.92 4.78,25.93 -1.13,6.39 -3.65,11.87 -7.97,15.24z"/>
   <path class="fil12" d="M1396.07 535.68c-0.73,-7.47 -15.88,-0.34 -13.59,3.9 1.33,2.4 3.99,4.17 6.07,5.89 2.86,2.34 4.26,4.45 4.66,8.19 0.04,0.41 0.13,1.72 -0.3,2.03 -1.96,1.34 -8.39,-5.95 -9.79,-7.51 -2.77,-3.02 -3.15,-8.2 -1.82,-11.97 1.41,-3.98 4.04,-5.85 8.3,-5.6 3.4,0.21 6.86,0.43 6.67,4.67 -0.01,0.06 -0.16,0.78 -0.2,0.4l0 0z"/>
   <path class="fil12" d="M1391.23 543.44c1.58,-1.55 3.09,-0.25 4.69,0.91 1.49,1.09 2.32,2.65 2.71,4.39 0.87,3.9 0.34,9.13 -1.88,12.53 -1.8,2.71 -4.83,4.39 -8.13,4.3 -4.56,-0.13 -5.91,-4.15 -6.08,-8.01 -0.06,-1.03 -0.14,-3.46 0.87,-4.11 1.1,-0.69 1.87,0.99 2.6,1.74 1.02,0.94 2.51,1.34 3.86,1.43 2.6,0.22 5.14,-1.09 6.78,-3.02 0.28,-0.34 0.55,-0.75 0.69,-1.15 -0.01,2.49 -0.14,3.05 -0.4,1.68 -0.2,-0.65 -0.5,-1.24 -0.86,-1.78 -1.05,-1.74 -2.84,-2.95 -4.02,-4.61 -0.56,-0.78 -1.63,-3.49 -0.83,-4.3l0 0z"/>
   <path class="fil13" d="M1475.11 515.52c0.44,4.49 -1.68,8.36 -4.72,8.67 -3.04,0.28 -5.86,-3.12 -6.29,-7.61 -0.44,-4.48 1.68,-8.35 4.72,-8.63 3.04,-0.31 5.86,3.09 6.29,7.57z"/>
   <path class="fil13" d="M1537.35 507.14c0.17,4.49 -2.17,8.23 -5.23,8.35 -3.05,0.1 -5.66,-3.46 -5.82,-7.94 -0.17,-4.52 2.17,-8.26 5.22,-8.35 3.06,-0.13 5.67,3.42 5.83,7.94z"/>
   <path class="fil10" d="M1448.3 509.48c11.69,-12.28 39.2,-11.31 39.2,-11.31 0,0 1.84,-0.1 1.35,-5.7 0,0 -0.14,-4.96 -4.11,-4.46 0,0 -35,-2.34 -36.44,21.47z"/>
   <path class="fil10" d="M1553.15 485.98c-12.22,-9.9 -34.68,-2.18 -34.68,-2.18 -3.95,0.56 -2.79,5.39 -2.79,5.39 0.99,5.52 2.8,5.15 2.8,5.15 0,0 18.57,-5.74 33.11,-2.34 0.54,-2 1.08,-3.99 1.56,-6.02z"/>
   <path class="fil14" d="M1529.48 572.36l-44.32 8.2c-2.33,0.43 -3.26,1.8 -2,3.05 0,0 12.75,12.77 27.12,10.06 14.36,-2.68 21.55,-19.16 21.55,-19.16 0.62,-1.46 -0.46,-2.27 -2.35,-2.15z"/>
   <path class="fil12" d="M1497.65 558.4c23.22,-1.68 24.49,-7.76 24.49,-7.76l-12.18 -24.49c0,0 2.8,24.49 -12.31,32.25z"/>
   <path class="fil7" d="M1253.29 1353.29c0,0 1.21,314.03 42.64,487.71 6.17,25.89 100.78,17.95 100.78,17.95 0,0 61.74,-296.99 69.6,-408.65 4.45,-63.11 17.08,-173.57 17.08,-173.57 0,0 -221.5,-21.97 -230.1,76.56z"/>
   <path class="fil7" d="M1554.97 1058.8c0,0 45.98,194.59 39.81,215.84 -17.78,61.23 -182.73,147.14 -333.13,21.85 0,0 34.38,-143.9 105.78,-265.67 0,0 26.24,27.11 187.54,27.98z"/>
   <path class="fil8" d="M1350.87 1058.24c0,0 168.31,51.85 204.1,0.56 16.35,-23.4 52.34,-140.47 63.6,-215.25 -26.86,-63.82 -87.03,-180.14 -87.03,-180.14 -8.71,-2.21 -21.64,-2.62 -21.64,-2.62 21.66,81.36 -7.78,100.52 -7.78,100.52 -89.62,2.56 -111.65,-68.77 -111.65,-68.77l-21.58 13.65c0,0 66.76,138.66 -62.1,202.07 0,0 -3.09,148.79 44.08,149.98z"/>
   <path class="fil14" d="M1403.95 573.23c0,4.24 -3.44,7.67 -7.67,7.67 -4.24,0 -7.67,-3.43 -7.67,-7.67 0,-4.24 3.43,-7.66 7.67,-7.66 4.23,0 7.67,3.42 7.67,7.66z"/>
   <path class="fil5" d="M1371.4 764.15c26.18,27.86 24.84,71.64 -3,97.81 -27.84,26.18 -115.32,76.13 -116.13,37.89 -1.61,-75.09 1.32,-115.88 29.16,-142.06 27.84,-26.2 63.78,-21.47 89.97,6.36z"/>
   <path class="fil5" d="M1374.52 827.65l-60.46 -34.86 -60.77 38.01c0,0 -35.57,226.63 -22.46,278.48 13.96,55.24 39.34,14.55 51.35,-0.56 0,0 99.18,-237.04 92.34,-281.07z"/>
   <path class="fil5" d="M1240.01 1131.4c0,0 108.73,77.65 205.24,119.87 0,0 31.88,-13.39 15.93,-28.1 -27.07,-25.05 -145.43,-138.38 -172.75,-163.47 -48.42,-16.51 -48.42,71.7 -48.42,71.7z"/>
   <path class="fil5" d="M1500.27 1294.62c-39.35,-16.98 -43.26,-23.22 -50.7,-32.13 -32.05,-38.26 25.93,-41.85 40.78,-39.76 8.51,1.22 10.7,21.07 38.68,43.13 0,0 42.74,20.22 52.64,17.7 0,0 10.58,0.62 11.2,8.16 0,0 -27.18,19.32 -92.6,2.9z"/>
   <path class="fil5" d="M1488.51 1222.26c0,0 -16.85,14.49 8.33,23.31l31.97 -3.86c0,0 9.02,0.37 10.44,-7.64 0,0 -0.44,-5.29 -9.68,-5.7l-41.06 -6.11z"/>
   <path class="fil15" d="M2169.8 1504.18c-0.46,-0.11 -0.95,-0.2 -1.43,-0.31 -0.71,-0.16 -1.44,-0.33 -2.17,-0.47 -0.52,-0.11 -1.06,-0.19 -1.6,-0.28 -0.51,-0.09 -1.01,-0.18 -1.53,-0.26l-1.1 123.75 -204.93 138.28 1.29 -147.68 169.78 -114.55c-2.5,0.29 -4.99,0.65 -7.54,1.07 -0.54,0.07 -1.08,0.18 -1.63,0.27 -0.98,0.17 -1.92,0.34 -2.89,0.53 -0.67,0.13 -1.32,0.26 -1.96,0.39 -0.93,0.18 -1.87,0.38 -2.82,0.59 -0.58,0.12 -1.17,0.26 -1.77,0.39 -1.49,0.34 -2.97,0.7 -4.46,1.06 -0.39,0.11 -0.78,0.2 -1.18,0.31 -1.83,0.47 -3.67,0.98 -5.5,1.52 -0.32,0.09 -0.64,0.2 -0.97,0.29 -2.52,0.74 -5.04,1.55 -7.56,2.4 -0.08,0.04 -0.17,0.06 -0.26,0.1 -2.54,0.87 -5.04,1.78 -7.54,2.76 -0.17,0.08 -0.36,0.14 -0.53,0.21 -2.83,1.11 -5.63,2.29 -8.38,3.54 -0.13,0.05 -0.28,0.1 -0.39,0.17 -2.8,1.26 -5.56,2.6 -8.27,4 -0.09,0.04 -0.17,0.08 -0.26,0.13 -2.76,1.42 -5.45,2.92 -8.08,4.47 -0.04,0.03 -0.11,0.06 -0.15,0.09 -2.67,1.57 -5.3,3.23 -7.82,4.94 -22.62,15.26 -34.53,32.41 -34.66,46.99 0.43,-49.22 0.86,-98.44 1.31,-147.66 0.11,-14.61 12.02,-31.74 34.64,-47.01 2.54,-1.72 5.15,-3.36 7.82,-4.95 0.06,-0.02 0.11,-0.05 0.15,-0.08 2.65,-1.56 5.32,-3.04 8.08,-4.47 0.09,-0.04 0.17,-0.09 0.28,-0.13 2.69,-1.4 5.45,-2.73 8.23,-4 0.15,-0.05 0.28,-0.12 0.43,-0.17 2.73,-1.25 5.51,-2.42 8.34,-3.53 0.06,-0.03 0.11,-0.05 0.17,-0.06 0.15,-0.07 0.3,-0.13 0.47,-0.18 2.44,-0.96 4.92,-1.86 7.39,-2.72 0.11,-0.03 0.24,-0.1 0.34,-0.13 2.5,-0.84 4.98,-1.62 7.48,-2.36 0.22,-0.07 0.43,-0.16 0.67,-0.22 0.13,-0.03 0.28,-0.07 0.41,-0.13 1.83,-0.53 3.64,-1.03 5.45,-1.49 0.41,-0.1 0.82,-0.19 1.23,-0.32 1.46,-0.34 2.93,-0.71 4.37,-1.02 0.3,-0.1 0.6,-0.16 0.88,-0.22 0.35,-0.09 0.67,-0.16 0.99,-0.22 0.91,-0.19 1.81,-0.37 2.7,-0.56 0.68,-0.16 1.37,-0.28 2.07,-0.41 0.9,-0.18 1.8,-0.34 2.73,-0.49 0.47,-0.1 0.95,-0.19 1.44,-0.28 0.11,0 0.24,0 0.35,-0.04 2.52,-0.4 5.02,-0.74 7.52,-1.06 0.19,-0.03 0.42,-0.06 0.64,-0.09 0.15,0 0.32,-0.03 0.48,-0.03 2.17,-0.25 4.32,-0.44 6.46,-0.59 0.19,-0.03 0.36,-0.03 0.56,-0.06 0.23,0 0.47,0 0.71,0 2.02,-0.16 4,-0.25 5.99,-0.28 0.02,0 0.04,0 0.06,0 0.05,0 0.09,0 0.11,0 1.85,-0.04 3.68,-0.04 5.52,0 0.23,0 0.49,0 0.73,0 0.21,0.03 0.43,0.03 0.62,0.06 1.83,0.06 3.64,0.15 5.41,0.28 0.06,0 0.11,0 0.17,0 0.13,0.03 0.26,0.06 0.41,0.06 1.83,0.16 3.64,0.37 5.41,0.59 0.19,0.03 0.41,0.06 0.6,0.1 0.15,0 0.28,0.03 0.41,0.06 0.71,0.09 1.4,0.25 2.11,0.34 0.56,0.09 1.12,0.19 1.68,0.31 0.69,0.13 1.36,0.28 2.03,0.44 0.47,0.09 0.94,0.19 1.4,0.31 0.06,0 0.11,0.03 0.17,0.03 1.59,0.41 3.12,0.81 4.63,1.31 0.34,0.09 0.69,0.22 1.04,0.34 1.52,0.5 2.99,1.03 4.41,1.62 1.14,0.5 2.2,1.03 3.21,1.56 0.3,0.16 0.58,0.34 0.88,0.5 0.35,0.22 0.73,0.41 1.08,0.59 0.28,0.19 0.56,0.38 0.84,0.56 0.37,0.25 0.73,0.47 1.08,0.72 0.56,0.37 1.1,0.75 1.59,1.15 0.3,0.23 0.63,0.45 0.91,0.69 0.11,0.08 0.21,0.16 0.3,0.24 0.62,0.5 1.18,1.02 1.72,1.54 0.09,0.07 0.15,0.15 0.24,0.22 0.43,0.41 0.84,0.84 1.23,1.27l0 0.04 0 -0.04c0.13,0.13 0.23,0.27 0.36,0.4 0.2,0.23 0.37,0.44 0.56,0.66 0.39,0.46 0.76,0.92 1.1,1.39 0.17,0.23 0.33,0.44 0.5,0.66 0.06,0.1 0.17,0.22 0.23,0.32 0.18,0.26 0.33,0.5 0.48,0.74 0.3,0.46 0.6,0.92 0.88,1.39 0.22,0.34 0.41,0.68 0.6,1.02 0.26,0.47 0.52,0.95 0.78,1.42 0.07,0.15 0.15,0.27 0.24,0.42 0.08,0.17 0.15,0.33 0.21,0.49 0.41,0.82 0.82,1.65 1.19,2.49 0.06,0.13 0.13,0.28 0.19,0.4 0.5,1.13 0.99,2.27 1.47,3.4 0.32,0.74 0.64,1.47 0.97,2.21 0.15,0.32 0.3,0.66 0.45,0.99 0.43,0.98 0.88,1.94 1.35,2.9 0.26,0.49 0.52,0.96 0.78,1.43 0.15,0.27 0.28,0.53 0.43,0.79 0.43,0.74 0.86,1.46 1.36,2.17 0.3,0.47 0.65,0.92 0.97,1.38 0.47,0.65 0.95,1.29 1.46,1.94 0.22,0.27 0.43,0.56 0.65,0.83 0.69,0.86 1.42,1.7 2.17,2.54 0.05,0.05 0.09,0.1 0.13,0.15 0.8,0.87 1.66,1.72 2.53,2.56 0.25,0.25 0.53,0.49 0.79,0.72 0.65,0.61 1.29,1.2 1.98,1.79 0.35,0.28 0.67,0.56 1.01,0.84 0.7,0.56 1.41,1.11 2.16,1.66 0.32,0.24 0.65,0.49 0.97,0.72 1.08,0.76 2.17,1.51 3.34,2.23 0.04,0.03 0.13,0.08 0.21,0.12 0.09,0.05 0.2,0.12 0.35,0.2 0.06,0.02 0.15,0.08 0.21,0.1 0.16,0.1 0.31,0.18 0.5,0.28 0.11,0.05 0.24,0.12 0.34,0.18 0.2,0.1 0.39,0.19 0.61,0.29 0.13,0.06 0.28,0.15 0.41,0.21 0.21,0.12 0.43,0.23 0.69,0.34 0.17,0.1 0.36,0.18 0.56,0.28 0.23,0.11 0.47,0.23 0.73,0.35 0.26,0.13 0.58,0.28 0.86,0.42 0.19,0.08 0.37,0.16 0.54,0.25 0.34,0.16 0.69,0.32 1.03,0.47 0.17,0.1 0.37,0.17 0.56,0.27 0.54,0.23 1.08,0.48 1.66,0.75 3.88,1.73 8.45,3.61 12.71,5.04l205.12 -138.41 -1.29 147.65 -205.12 138.43c-4.27,-1.43 -8.83,-3.3 -12.71,-5.03 -0.58,-0.27 -1.14,-0.51 -1.68,-0.76 -0.11,-0.06 -0.2,-0.1 -0.28,-0.13 -0.45,-0.21 -0.88,-0.41 -1.29,-0.61 -0.18,-0.06 -0.33,-0.14 -0.48,-0.22 -0.32,-0.15 -0.64,-0.3 -0.95,-0.45 -0.19,-0.09 -0.39,-0.18 -0.58,-0.27 -0.24,-0.12 -0.49,-0.24 -0.71,-0.36 -0.15,-0.06 -0.3,-0.15 -0.45,-0.2 -0.22,-0.12 -0.45,-0.24 -0.67,-0.35 -0.13,-0.06 -0.21,-0.12 -0.34,-0.17 -0.2,-0.1 -0.41,-0.21 -0.59,-0.3 -0.1,-0.05 -0.17,-0.11 -0.25,-0.14 -0.18,-0.1 -0.35,-0.17 -0.48,-0.25 -0.06,-0.04 -0.1,-0.07 -0.17,-0.11 -0.11,-0.05 -0.22,-0.1 -0.28,-0.16 -0.02,-0.01 -0.04,-0.02 -0.07,-0.04 -1.16,-0.7 -2.26,-1.45 -3.31,-2.21 -0.37,-0.25 -0.69,-0.5 -1.04,-0.75 -0.71,-0.54 -1.42,-1.07 -2.11,-1.64 -0.17,-0.14 -0.36,-0.28 -0.53,-0.42 -0.18,-0.14 -0.33,-0.29 -0.5,-0.43 -0.67,-0.58 -1.31,-1.16 -1.94,-1.74 -0.28,-0.26 -0.56,-0.51 -0.82,-0.77 -0.88,-0.84 -1.72,-1.69 -2.5,-2.54 -0.02,-0.02 -0.02,-0.03 -0.02,-0.03 -0.06,-0.06 -0.11,-0.12 -0.17,-0.18 -0.75,-0.82 -1.47,-1.66 -2.13,-2.49 -0.22,-0.27 -0.43,-0.56 -0.65,-0.83 -0.52,-0.65 -1.01,-1.3 -1.49,-1.96 -0.1,-0.15 -0.23,-0.31 -0.34,-0.47 -0.22,-0.3 -0.41,-0.59 -0.6,-0.89 -0.5,-0.71 -0.93,-1.43 -1.36,-2.17 -0.19,-0.34 -0.37,-0.68 -0.56,-1.02 -0.2,-0.38 -0.43,-0.75 -0.6,-1.13 -0.03,-0.02 -0.03,-0.03 -0.03,-0.05 -0.51,-0.98 -0.96,-1.97 -1.42,-2.95 -0.11,-0.28 -0.23,-0.55 -0.34,-0.83 -0.39,-0.88 -0.78,-1.75 -1.17,-2.64 -0.43,-1 -0.86,-2.03 -1.31,-3.04 -0.09,-0.18 -0.17,-0.38 -0.26,-0.56 -0.36,-0.79 -0.73,-1.58 -1.12,-2.37 -0.17,-0.31 -0.32,-0.64 -0.5,-0.95 -0.23,-0.46 -0.49,-0.92 -0.75,-1.38 -0.19,-0.35 -0.39,-0.71 -0.6,-1.05 -0.28,-0.47 -0.58,-0.92 -0.89,-1.39 -0.23,-0.34 -0.47,-0.71 -0.71,-1.05 -0.17,-0.22 -0.34,-0.45 -0.49,-0.67 -0.37,-0.46 -0.71,-0.92 -1.1,-1.37 -0.19,-0.22 -0.39,-0.46 -0.58,-0.68 -0.5,-0.56 -1.04,-1.11 -1.57,-1.66 -0.09,-0.07 -0.15,-0.15 -0.24,-0.23 -0.62,-0.6 -1.31,-1.19 -2.02,-1.78 -0.28,-0.22 -0.61,-0.46 -0.91,-0.68 -0.5,-0.4 -1.03,-0.78 -1.59,-1.16 -0.35,-0.23 -0.71,-0.47 -1.08,-0.7 -0.61,-0.4 -1.25,-0.78 -1.92,-1.16 -0.3,-0.16 -0.6,-0.32 -0.9,-0.49 -0.99,-0.54 -2.05,-1.07 -3.19,-1.57 -1.42,-0.6 -2.89,-1.12 -4.42,-1.63 -0.34,-0.11 -0.69,-0.23 -1.05,-0.34 -1.49,-0.49 -3.04,-0.92 -4.63,-1.3z"/>
   <path class="fil16" d="M1322.08 1497.72l1.3 -147.7 263 110.67 -1.07 122.91c0.08,0 0.17,0.01 0.25,0.02 0.57,0.07 1.14,0.13 1.71,0.2 2.1,0.23 4.18,0.45 6.25,0.61 0.21,0.01 0.41,0.03 0.62,0.06 1.52,0.12 3.02,0.22 4.52,0.3 0.56,0.04 1.12,0.05 1.69,0.09 1.12,0.05 2.25,0.1 3.37,0.15 0.42,0.01 0.83,0.01 1.24,0.02 2.64,0.07 5.25,0.09 7.8,0.04 0.34,0 0.68,-0.01 1.02,-0.03 2.13,-0.05 4.22,-0.13 6.28,-0.26 0.15,-0.01 0.32,-0.03 0.48,-0.03 1.92,-0.13 3.79,-0.31 5.63,-0.5 0.47,-0.06 0.93,-0.11 1.39,-0.17 1.57,-0.18 3.11,-0.4 4.62,-0.63 0.18,-0.03 0.37,-0.06 0.55,-0.09 1.63,-0.27 3.21,-0.58 4.77,-0.92 0.4,-0.09 0.79,-0.18 1.19,-0.27 1.45,-0.34 2.87,-0.71 4.25,-1.1 0.2,-0.05 0.41,-0.11 0.6,-0.16 0.29,-0.09 0.57,-0.18 0.85,-0.28 0.75,-0.23 1.5,-0.47 2.23,-0.72 0.38,-0.13 0.74,-0.27 1.12,-0.4 0.62,-0.24 1.23,-0.46 1.84,-0.71 0.34,-0.13 0.68,-0.29 1.01,-0.42 0.59,-0.26 1.17,-0.53 1.74,-0.79 0.33,-0.15 0.64,-0.3 0.96,-0.46 0.58,-0.3 1.16,-0.6 1.71,-0.9 0.26,-0.15 0.53,-0.29 0.78,-0.43 0.79,-0.46 1.57,-0.94 2.31,-1.44 9.86,-6.66 11.36,-15.2 11.6,-24.07 0.03,-2.4 0.05,-4.79 0.07,-7.19 0.06,-7.29 0.56,-14.52 5.37,-20.84 1.01,-1.34 11.59,-10.33 20.54,-15.6l262.66 110.53 -1.29 147.68 -262.68 -110.53c-8.94,5.26 -19.51,14.25 -20.52,15.58 -4.32,5.7 -5.17,12.1 -5.34,18.63 -0.02,2.39 -0.04,4.78 -0.07,7.17 -0.08,9.65 -0.93,19.1 -11.65,26.33 -0.73,0.5 -1.5,0.97 -2.29,1.43 -0.26,0.14 -0.54,0.29 -0.8,0.43 -0.55,0.3 -1.12,0.61 -1.69,0.9 -0.32,0.15 -0.65,0.31 -0.97,0.47 -0.57,0.26 -1.15,0.52 -1.73,0.77 -0.34,0.15 -0.67,0.29 -1.01,0.44 -0.2,0.07 -0.37,0.15 -0.56,0.23 -0.43,0.16 -0.87,0.31 -1.31,0.47 -0.36,0.13 -0.72,0.28 -1.09,0.41 -0.72,0.23 -1.44,0.47 -2.19,0.71 -0.31,0.09 -0.6,0.19 -0.92,0.28 -0.04,0.02 -0.09,0.03 -0.15,0.05 -0.12,0.03 -0.26,0.06 -0.39,0.1 -1.39,0.41 -2.84,0.77 -4.32,1.11 -0.21,0.06 -0.4,0.11 -0.62,0.16 -0.16,0.04 -0.35,0.07 -0.51,0.09 -1.57,0.34 -3.17,0.66 -4.81,0.94 -0.04,0.01 -0.07,0.01 -0.1,0.02 -0.11,0.01 -0.24,0.03 -0.36,0.05 -1.54,0.26 -3.13,0.47 -4.74,0.66 -0.23,0.03 -0.45,0.07 -0.68,0.09 -0.21,0.03 -0.43,0.04 -0.64,0.07 -1.85,0.2 -3.73,0.36 -5.66,0.49 -0.04,0 -0.08,0.02 -0.12,0.02 -0.12,0.01 -0.26,0.01 -0.39,0.01 -2.05,0.14 -4.15,0.22 -6.29,0.28 -0.21,0 -0.42,0.02 -0.64,0.02 -0.1,0 -0.22,0 -0.32,0 -2.55,0.05 -5.15,0.03 -7.8,-0.04 -0.21,-0.01 -0.41,0 -0.62,-0.01 -0.22,0 -0.45,-0.01 -0.65,-0.03 -1.11,-0.02 -2.23,-0.07 -3.36,-0.14 -0.56,-0.02 -1.12,-0.04 -1.69,-0.08 -1.6,-0.09 -3.2,-0.19 -4.83,-0.34 -0.09,0 -0.17,0 -0.27,-0.01 0,0 -0.01,0 -0.01,0 -2.09,-0.17 -4.19,-0.4 -6.31,-0.62 -0.55,-0.06 -1.1,-0.13 -1.65,-0.2 -1.86,-0.22 -3.74,-0.45 -5.61,-0.73 -0.24,-0.03 -0.47,-0.05 -0.69,-0.09 -0.08,0 -0.16,-0.03 -0.24,-0.03 -1.75,-0.26 -3.49,-0.54 -5.24,-0.82 -0.3,-0.06 -0.6,-0.12 -0.9,-0.18 -1.47,-0.25 -2.94,-0.51 -4.42,-0.79 -0.65,-0.12 -1.31,-0.27 -1.97,-0.4 -1.12,-0.22 -2.24,-0.44 -3.37,-0.68 -0.74,-0.16 -1.47,-0.33 -2.21,-0.5 -1.05,-0.22 -2.11,-0.47 -3.16,-0.72 -0.28,-0.05 -0.56,-0.12 -0.84,-0.18 -0.23,-0.06 -0.48,-0.13 -0.72,-0.19 -2.85,-0.69 -5.69,-1.43 -8.54,-2.23 -0.37,-0.11 -0.75,-0.21 -1.12,-0.31 -2.9,-0.83 -5.78,-1.7 -8.64,-2.63 -0.3,-0.09 -0.6,-0.19 -0.88,-0.28 -2.96,-0.98 -5.9,-1.99 -8.81,-3.06 -0.17,-0.07 -0.34,-0.15 -0.52,-0.2 -3.02,-1.13 -6.03,-2.32 -8.99,-3.57 -1.45,-0.6 -2.89,-1.23 -4.29,-1.85 -1.99,-0.89 -3.93,-1.79 -5.82,-2.72 -0.65,-0.31 -1.27,-0.62 -1.91,-0.94 -1.24,-0.62 -2.45,-1.23 -3.64,-1.85 -0.71,-0.37 -1.39,-0.74 -2.08,-1.11 -1.08,-0.61 -2.16,-1.2 -3.21,-1.79 -0.67,-0.38 -1.32,-0.76 -1.97,-1.14 -0.39,-0.23 -0.81,-0.46 -1.19,-0.69 -0.66,-0.4 -1.29,-0.81 -1.93,-1.21 -0.56,-0.34 -1.15,-0.7 -1.7,-1.05 -1.15,-0.75 -2.28,-1.49 -3.39,-2.26 -0.35,-0.23 -0.72,-0.48 -1.08,-0.73 -1.42,-1 -2.79,-2 -4.1,-3.01 -0.35,-0.26 -0.66,-0.52 -0.99,-0.79 -0.78,-0.6 -1.56,-1.22 -2.3,-1.83 -0.14,-0.12 -0.27,-0.23 -0.41,-0.36 -0.96,-0.81 -1.87,-1.62 -2.76,-2.43 -0.39,-0.37 -0.81,-0.73 -1.19,-1.09 -1.24,-1.19 -2.42,-2.35 -3.51,-3.53 -0.01,-0.02 -0.01,-0.02 -0.01,-0.02 -0.95,-1.04 -1.83,-2.07 -2.66,-3.09 -0.26,-0.34 -0.49,-0.67 -0.74,-1 -0.44,-0.56 -0.9,-1.14 -1.3,-1.7 -0.1,-0.16 -0.19,-0.3 -0.3,-0.47 -0.19,-0.28 -0.37,-0.57 -0.56,-0.86 -0.47,-0.72 -0.91,-1.44 -1.32,-2.16 -0.17,-0.31 -0.34,-0.61 -0.5,-0.91 -0.1,-0.17 -0.2,-0.34 -0.29,-0.51 -0.39,-0.76 -0.74,-1.51 -1.06,-2.27 -0.05,-0.12 -0.09,-0.25 -0.15,-0.38 -0.21,-0.53 -0.42,-1.05 -0.6,-1.58 -0.11,-0.34 -0.2,-0.66 -0.29,-0.99 -0.06,-0.17 -0.11,-0.34 -0.16,-0.51 -0.2,-0.77 -0.39,-1.51 -0.51,-2.26 -0.03,-0.16 -0.04,-0.3 -0.07,-0.46 -0.02,-0.16 -0.04,-0.31 -0.06,-0.47 -0.11,-0.86 -0.19,-1.7 -0.19,-2.53 0,-0.1 0,-0.17 0,-0.27 0.31,-35.04 0.62,-70.06 0.93,-105.11l-138.03 -58.06z"/>
   <path class="fil17" d="M2453.65 1283l-634.93 -267.2 -495.34 334.22 263 110.67c-5.79,4.91 -15.69,10.63 -17.72,11.56 -9.22,4.2 -21.01,7.34 -32.45,9.45 -22.12,4.08 -49.28,3.41 -65.03,14.04 -24.64,16.63 -5.25,46.82 43.24,68.44 1.4,0.63 2.84,1.24 4.29,1.86 51.62,21.71 114.02,25.47 139.38,8.34 20.59,-13.89 4.75,-35.95 17.04,-52.1 1.01,-1.34 11.59,-10.33 20.54,-15.6l262.66 110.53 204.96 -138.28c-0.84,-0.39 -1.72,-0.8 -2.65,-1.21 -10.13,-4.51 -24.64,-9.36 -26.97,-9.88 -30.57,-6.71 -71.88,1.43 -98.29,-9.68 -32.36,-14.4 -25.77,-47.08 14.06,-73.95 40.26,-27.18 99.25,-38.12 131.75,-24.44 20.17,8.98 19.39,23.12 27.21,34.73 4.09,6.11 10.12,12.41 18.16,17.36 0.97,0.6 4.63,2.43 9.26,4.51 3.88,1.73 8.45,3.61 12.71,5.04l205.12 -138.41z"/>
   <path class="fil18" d="M1872.75 1884.2c0,0.36 -0.02,0.72 -0.03,1.09 -0.01,0.39 -0.03,0.78 -0.05,1.16 -0.03,0.32 -0.07,0.64 -0.1,0.96 -0.05,0.37 -0.09,0.75 -0.15,1.12 -0.06,0.36 -0.13,0.73 -0.21,1.09 -0.05,0.27 -0.1,0.55 -0.16,0.82 -0.09,0.38 -0.2,0.75 -0.31,1.1 -0.08,0.26 -0.15,0.53 -0.23,0.79 -0.06,0.16 -0.11,0.3 -0.17,0.45 -0.36,1.03 -0.76,2.03 -1.26,3 -0.01,0.01 -0.02,0.05 -0.03,0.07 -0.48,0.93 -1.05,1.86 -1.66,2.74 -0.1,0.14 -0.19,0.3 -0.29,0.44 -0.62,0.87 -1.3,1.71 -2.05,2.52 -0.19,0.24 -0.41,0.46 -0.62,0.69 -0.24,0.24 -0.47,0.49 -0.71,0.72 -0.28,0.26 -0.56,0.54 -0.86,0.8 -0.26,0.23 -0.53,0.48 -0.79,0.7 -0.25,0.22 -0.51,0.42 -0.77,0.62 -0.47,0.37 -0.95,0.74 -1.44,1.11 -0.26,0.18 -0.52,0.36 -0.79,0.55 -0.53,0.36 -1.09,0.73 -1.66,1.07 -0.25,0.16 -0.49,0.31 -0.75,0.47 -0.49,0.3 -1.01,0.57 -1.53,0.84 -0.28,0.17 -0.55,0.33 -0.86,0.49 -0.82,0.4 -1.68,0.82 -2.56,1.22 -3.35,1.4 -6.89,2.53 -10.61,3.42 -2.95,0.71 -5.99,1.29 -9.13,1.74 -2.98,0.43 -6.03,0.76 -9.13,1.01 -4.33,0.35 -8.75,0.56 -13.23,0.67 -9.79,0.29 -19.84,0.19 -29.59,0.46 -4.4,0.14 -8.75,0.33 -12.98,0.67l1.32 150.12c4.24,-0.35 8.58,-0.56 12.98,-0.67 9.76,-0.28 19.8,-0.19 29.59,-0.47 4.48,-0.11 8.9,-0.33 13.23,-0.67 3.1,-0.26 6.15,-0.61 9.13,-1.01 3.13,-0.46 6.18,-1.04 9.14,-1.75 3.7,-0.9 7.25,-2.01 10.61,-3.43 0.88,-0.39 1.74,-0.79 2.57,-1.23 0.24,-0.12 0.46,-0.26 0.69,-0.38 0.58,-0.3 1.15,-0.61 1.71,-0.94 0.05,-0.04 0.11,-0.07 0.17,-0.1 0.16,-0.1 0.32,-0.2 0.48,-0.31 0.59,-0.35 1.18,-0.73 1.74,-1.11 0.26,-0.19 0.52,-0.37 0.78,-0.56 0.48,-0.36 0.97,-0.73 1.43,-1.1 0.15,-0.11 0.31,-0.22 0.45,-0.34 0.11,-0.09 0.21,-0.2 0.33,-0.29 0.27,-0.23 0.53,-0.46 0.79,-0.7 0.29,-0.27 0.58,-0.52 0.85,-0.79 0.25,-0.24 0.49,-0.49 0.73,-0.73 0.14,-0.17 0.29,-0.31 0.43,-0.46 0.07,-0.06 0.12,-0.14 0.19,-0.22 0.74,-0.81 1.42,-1.66 2.04,-2.53 0.04,-0.05 0.09,-0.11 0.13,-0.16 0.06,-0.09 0.09,-0.18 0.16,-0.27 0.61,-0.89 1.18,-1.81 1.66,-2.76l0.01 -0.01c0,-0.01 0.01,-0.03 0.02,-0.03 0.49,-1 0.92,-2.01 1.27,-3.04 0.03,-0.08 0.08,-0.16 0.1,-0.24 0.02,-0.05 0.03,-0.1 0.05,-0.16 0.1,-0.31 0.18,-0.61 0.26,-0.9 0.09,-0.33 0.19,-0.65 0.28,-1 0.06,-0.3 0.12,-0.6 0.18,-0.9 0.06,-0.24 0.12,-0.49 0.16,-0.74 0.02,-0.1 0.03,-0.18 0.04,-0.27 0.06,-0.4 0.11,-0.8 0.15,-1.21 0.04,-0.29 0.07,-0.57 0.09,-0.85 0.03,-0.46 0.05,-0.91 0.06,-1.35 0.01,-0.23 0.03,-0.43 0.03,-0.65 0,-0.1 0,-0.2 0,-0.3l-1.32 -150.09z"/>
   <path class="fil18" d="M1751.73 1921.12c-0.06,0.02 -0.11,0.02 -0.16,0.05 -2.79,0.67 -17.17,5.5 -27.25,10.01 -0.93,0.41 -1.83,0.82 -2.68,1.24l1.32 150.09c0.85,-0.41 1.74,-0.82 2.68,-1.23 10.08,-4.5 24.46,-9.32 27.24,-10.01 0.06,-0.02 0.11,-0.02 0.15,-0.05 2.37,-0.51 4.8,-0.94 7.26,-1.31 2.96,-0.41 5.99,-0.75 9.07,-0.99l-1.32 -150.12c-3.09,0.26 -6.11,0.59 -9.06,1.02 -2.47,0.35 -4.9,0.8 -7.25,1.3z"/>
   <path class="fil19" d="M1931.23 2223.07l-1.31 -150.12 -267.31 112.49 1.1 124.9c-31.04,3.72 -58.93,0.81 -73.99,-9.35 -10.01,-6.76 -11.54,-15.4 -11.79,-24.41 -0.02,-2.47 -0.04,-4.95 -0.06,-7.43 -0.07,-7.39 -0.59,-14.71 -5.46,-21.13 -1.04,-1.36 -11.8,-10.47 -20.85,-15.86l-267.01 112.34 1.31 150.13 267.01 -112.36c9.07,5.36 19.81,14.49 20.86,15.85 4.36,5.75 5.23,12.21 5.41,18.83 0.02,2.48 0.04,4.95 0.06,7.43 0.09,9.8 0.97,19.39 11.85,26.71 25.77,17.41 89.19,13.6 141.65,-8.48 1.48,-0.63 2.93,-1.26 4.36,-1.9 34.9,-15.55 54.98,-35.48 54.84,-51.79 -0.32,-35.63 -0.63,-71.22 -0.94,-106.82l140.27 -59.03z"/>
   <path class="fil18" d="M1852.71 1910.83l1.33 150.09c-27.94,11.77 -69.95,3.5 -101.01,10.3 -2.35,0.54 -17.11,5.45 -27.39,10.06 -0.94,0.41 -1.83,0.82 -2.68,1.23l-1.32 -150.09c0.85,-0.42 1.75,-0.83 2.68,-1.24 10.29,-4.59 25.06,-9.53 27.41,-10.06 31.03,-6.82 73.06,1.46 100.98,-10.29z"/>
   <polygon class="fil18" points="1284.55,2344.5 781.09,2004.8 782.4,2154.89 1285.86,2494.63 "/>
   <path class="fil20" d="M1779.72 2221.05c-16.01,-10.82 -43.63,-10.13 -66.1,-14.26 -11.65,-2.16 -23.62,-5.32 -33.01,-9.63 -2.03,-0.93 -12.11,-6.74 -18,-11.72l267.31 -112.49 -208.28 -140.53c0.85,-0.42 1.75,-0.83 2.68,-1.24 10.29,-4.59 25.06,-9.53 27.41,-10.06 31.03,-6.82 73.06,1.46 100.98,-10.29 31.8,-14.18 25.1,-47.4 -15.39,-74.7 -40.92,-27.62 -100.87,-38.75 -134.9,-24.41 -19.49,8.7 -18.71,23.08 -26.65,34.86 -4.18,6.22 -10.31,12.62 -18.48,17.66 -0.98,0.59 -4.73,2.48 -9.48,4.61 -3.92,1.75 -8.53,3.64 -12.82,5.1l-208.53 -140.72 -645.37 271.57 503.46 339.7 267.01 -112.34c9.05,5.39 19.81,14.5 20.85,15.86 12.48,16.44 -3.62,38.84 17.31,52.97 25.79,17.38 89.2,13.57 141.66,-8.49 1.48,-0.6 2.94,-1.25 4.36,-1.87 49.29,-22 69.02,-52.67 43.98,-69.58z"/>
   <path class="fil0" d="M3116.74 2796.43c0,89.14 162.37,161.37 362.67,161.37 200.3,0 362.67,-72.23 362.67,-161.37 0,-89.12 -162.37,-161.37 -362.67,-161.37 -200.3,0 -362.67,72.25 -362.67,161.37z"/>
   <path class="fil21" d="M3357.23 2760.24c-25.61,25.81 -67.84,39.55 -67.84,39.59 -35.61,9.03 -56.55,-14.65 -56.55,-14.65 -7.63,-10.68 1.65,-16.56 1.65,-16.56 75.07,-57.09 97.53,-73.27 97.53,-73.27l68.93 0c3.36,27.73 1.49,38.89 1.49,38.89 -5.98,8.16 -18.6,19.69 -37.79,22.92 -1.44,0.23 -4.09,-1.85 -5.43,-1.3l-1.99 4.38z"/>
   <path class="fil22" d="M3234.15 2768.85c0.31,1.6 0.75,3.19 1.46,4.72 5.83,12.48 22.03,17.65 34.9,17.45 15.43,-0.21 29.45,-7.75 42.91,-14.56 12.96,-6.55 24.33,-14.86 35.52,-24.11 7.76,-6.44 17.67,-9.45 26.86,-13.44 10.35,-4.52 18.17,-11.54 27.11,-18.27 0.06,7.44 -0.47,13.6 -0.47,13.6 -5.98,8.16 -18.6,19.69 -37.79,22.92 -1.44,0.23 -4.09,-1.85 -5.43,-1.3l-1.99 4.38c-25.61,25.81 -67.84,39.55 -67.84,39.59 -35.61,9.03 -56.55,-14.65 -56.55,-14.65 -6.79,-9.5 -0.25,-15.18 1.31,-16.33z"/>
   <path class="fil3" d="M3408.55 2136.45c-76.65,84.62 -107.03,-4.89 -107.03,-4.89l-9.48 -520.09c-1.02,7.75 -3.55,-52.45 93.2,-39.42 96.47,13 120.9,50.61 120.9,50.61 0,0 -53.06,359.24 -97.59,513.79z"/>
   <path class="fil3" d="M3301.05 2124.99c0,0 38.89,547.72 42.03,566.94 0,0 47.3,10.47 47.49,-0.43 0.53,-26.24 54.53,-346.76 55.22,-387.99 1.77,-104.37 -25.15,-124.1 -51.98,-194.42 0,0 -92.95,-68.72 -92.76,15.9z"/>
   <path class="fil23" d="M3431.61 2156.14c44.53,-154.55 74.53,-533.48 74.53,-533.48 0,0 -24.43,-37.61 -120.9,-50.61 -96.75,-13.03 -94.22,47.17 -93.2,39.42 0,0 -29.32,282.03 -2.49,538.36 0,0 82.67,43.88 142.06,6.31z"/>
   <path class="fil5" d="M3577.84 1332.51c13.68,48.66 70.11,234.37 70.11,234.37 -202.01,241.66 -354.16,30.2 -356.16,8.16 -2.43,-26.38 27.02,-127.12 32.38,-235.77 0,0 55.06,-84.79 253.67,-6.76z"/>
   <path class="fil23" d="M3292.95 1635.54c-9.57,-65.11 10.28,-130.74 20.47,-196.52l295.89 0c18.95,63.06 38.64,127.86 38.64,127.86 0,0 12.65,149.21 -114.07,167.08 0,0 -220.8,38.28 -240.93,-98.42z"/>
   <path class="fil5" d="M3629.57 2147.85c-63.29,95.02 -106.57,11.01 -106.57,11.01l-102.64 -506.67c0.19,7.81 3.09,-65.99 100.71,-67.43 97.34,-1.44 127.07,32.13 127.07,32.13 0,0 2.56,371.5 -18.57,530.96z"/>
   <path class="fil5" d="M3521.54 2152.42c0,0 101.61,577.19 107.59,595.71 0,0 48.3,3.34 46.9,-7.45 -3.37,-26.05 5.33,-390 -0.06,-430.86 -13.75,-103.48 -28.11,-121.28 -65.04,-186.85 0,0 -102.11,-54.2 -89.39,29.45z"/>
   <path class="fil21" d="M3624.52 2736.97l-28.6 87.18c0,0 5.92,78.03 68.49,29.67l18.63 -18.06c9.53,-8.05 6.73,-19.15 6.73,-19.15l-5.58 -33.41 -6.6 -46.23c0,0 -39.23,-26.6 -53.07,0z"/>
   <path class="fil22" d="M3664.41 2842.68l18.63 -18.05c3.71,-3.13 5.55,-6.74 6.39,-9.98l0.34 1.96c0,0 2.8,11.1 -6.73,19.15l-18.63 18.06c-62.57,48.36 -68.49,-29.67 -68.49,-29.67l1.12 -3.4c3.52,18.42 17.32,60.62 67.37,21.93z"/>
   <path class="fil24" d="M3510.48 2172.84c-35.65,-104.61 -102.93,-537.3 -102.93,-537.3 0.16,7.79 20.13,-103.35 117.76,-104.78 97.34,-1.44 122.64,36.12 122.64,36.12 0,0 30.48,423.49 9.35,582.95 0,0 -68.55,79.19 -146.82,23.01z"/>
   <path class="fil3" d="M3339.16 999.66c0,0 -165.31,194.37 -247.48,258.78 0,0 -55.24,-20.41 -53.53,-57.96 0,0 121,-179.01 196.96,-284.89 0,0 102.74,-29.6 104.05,84.07z"/>
   <path class="fil3" d="M3062.08 1184.25c0,0 -180.5,105.04 -255.23,140.19 0,0 -13.42,21 8.23,22.99 36.17,3.31 287.67,-81.88 293.8,-101.64 28.67,-92.17 -46.8,-61.54 -46.8,-61.54z"/>
   <path class="fil3" d="M3226.95 977.94c12.99,34.71 51.57,52.57 86.13,39.85 34.52,-12.68 52.06,-51.1 39.07,-85.84 -13.02,-34.72 -51.54,-52.57 -86.13,-39.86 -34.55,12.72 -52.03,51.14 -39.07,85.85z"/>
   <path class="fil25" d="M3309.49 888.39c0,0 -58.92,-20.66 -99.43,37.17l-144.18 209.11c0,0 29.73,66.59 99.9,102.93 0,0 258.1,-237.69 143.71,-349.21z"/>
   <path class="fil11" d="M3476.51 818.18c0,0 11.9,-22.9 38.14,-66.81 0,0 55.87,-57.36 24.59,-129.5 0,0 -17.2,-60.26 -122.62,-51.5 0,0 -10.09,165.92 59.89,247.81z"/>
   <path class="fil5" d="M3480.69 724.2c0,0 -17.73,165.4 20.09,177.9l-134.89 -8.01c0,0 21.19,-49.98 -3.46,-86.85l118.26 -83.04z"/>
   <path class="fil6" d="M3373.31 865.17c2.24,-37.77 -2.53,-45.43 -10.88,-57.93l118.26 -83.04c0,0 -5.71,53.44 -3.74,101.87 -34.22,32.4 -62.51,40.04 -103.64,39.1z"/>
   <path class="fil5" d="M3270.76 888.04c-30.04,21.94 -33.5,74.41 -22.75,107.22 12.31,37.65 17.17,85.69 29.51,140.13 16.7,73.79 28.02,130.59 46.65,203.88 15.42,60.59 258.91,11.75 258.91,11.75l87.25 -298.2c0,0 15.08,-77.87 -55.5,-103.77 0,0 -74.29,-40.1 -128.69,-58.55 -48.02,-16.26 -65.41,-17.79 -114.73,-14.77 0,0 -66.06,2.43 -100.65,12.31z"/>
   <path class="fil26" d="M3314.14 582.89c-6.95,31.72 -14.84,48.3 -6.08,77.4 7.88,26.12 6.04,53.57 17.45,78.9 16.3,36.08 37.45,31.38 53.66,-1.84 16.54,-33.99 33.84,-79.95 -3.59,-105.13 -24.02,-16.17 -32.68,-44 -61.44,-49.33l0 0z"/>
   <path class="fil11" d="M3334.98 830.8l-5.61 -18.69c0,0 -14.21,-69.15 -14.21,-69.15 -1.77,-8.69 -1.09,-20.1 1.13,-28.73 2.36,-9.41 4.17,-19.29 2.43,-29.51 -8.51,-49.6 18.47,-75.4 18.47,-75.4 30.91,-43.91 98.72,-40.48 98.72,-40.48 83.66,8.38 86.62,89.9 86.62,89.9 10.94,54.65 -34.3,97.43 -34.37,97.53 -3.61,3.42 -2.77,21.28 -4.05,26.26 -5.51,21.35 -26.79,33.53 -45.49,41.73 -20.6,9.03 -45.4,18.44 -67.93,19.38 -8.57,0.37 -32.5,-2.12 -35.71,-12.84z"/>
   <path class="fil26" d="M3316.88 741.68c11,9.91 25.95,5.39 37.64,12.59 7.66,4.68 11.47,4.4 19.85,1.93 6.7,-1.96 12.09,-1.34 18.91,0.63 6.98,2.02 19.66,8.1 26.43,10.84 10.34,4.18 21.96,2.87 30,-6.95 8.42,-10.25 11.59,-12.34 15.58,-24.61 7.26,-22.63 30.1,-24 45.84,-11.31 -10.28,19.35 -22.93,31.4 -22.97,31.47 -3.61,3.42 -2.77,36.02 -4.05,41.03 -5.51,21.32 -26.79,33.53 -45.49,41.73 -20.6,9 -51.97,10.25 -74.53,11.18 -8.54,0.35 -25.9,-8.69 -29.11,-19.41l-5.61 -18.69c0,0 -14.21,-69.15 -14.21,-69.15 -0.25,-1.21 -0.34,-2.55 -0.49,-3.86 0.71,0.9 1.37,1.8 2.21,2.58z"/>
   <path class="fil26" d="M3315.35 612.4c18.95,0.03 18.73,15.86 33.25,24.68 31.1,18.91 79.36,-8.82 104.42,21.84 2.27,2.78 4.36,6.02 6.35,9.76 7.39,13.8 9.6,30.5 11.97,45.83 0.71,4.52 -2.65,16.08 1.46,19.54 2.34,1.99 6.45,1.4 10.75,0.03 0.84,6.92 -4.73,12.25 -7.1,18.63 -2.4,6.39 -6.14,11.81 -2.77,18.26 8.75,16.61 2.05,13.87 2.83,47.21 5.39,-7.91 18.7,-17.51 22.9,-21.19 12.19,-10.59 23.65,-22.15 32.38,-35.83 8.57,-13.37 14.15,-28.39 19.69,-43.19 9.04,-24.24 14.27,-50.51 6.98,-75.94 0,0 -5.7,-59.11 -55.15,-65.46 0,0 6.29,-38.08 -84.1,-48.15 0,0 -71.39,1.13 -75.29,-23.49 0,0 -14.45,12.31 -10.87,31.35 0,0 -29.32,8.94 -42.53,-24.65 0,0 -24.46,88.46 24.83,100.77z"/>
   <path class="fil11" d="M3475.23 770.23c2.22,2.86 5.33,4.89 9.51,5.64 11.25,2.05 22.49,-8.42 25.14,-23.41 2.65,-14.95 -4.27,-28.79 -15.51,-30.84 -5.36,-0.97 -10.69,0.87 -15.12,4.67 -6.45,5.55 -8.54,17.76 -8.6,26.46 -0.06,6.94 1.25,13.18 4.58,17.48z"/>
   <path class="fil12" d="M3487.35 734.92c1.75,-7.85 16.92,1.68 13.93,5.86 -1.74,2.4 -4.73,3.96 -7.2,5.48 -3.33,2.15 -5.07,4.21 -5.98,8.11 -0.12,0.46 -0.34,1.83 0.06,2.21 1.91,1.68 9.63,-5.27 11.38,-6.7 3.3,-2.87 4.39,-8.32 3.43,-12.5 -0.97,-4.42 -3.53,-6.76 -8.11,-7.01 -3.61,-0.25 -7.32,-0.43 -7.66,4.08 0,0.1 0.06,0.88 0.15,0.47l0 0z"/>
   <path class="fil12" d="M3491.53 743.8c-1.5,-1.9 -3.24,-0.68 -5.11,0.35 -1.75,0.96 -2.84,2.52 -3.46,4.33 -1.43,4.02 -1.53,9.63 0.41,13.52 1.55,3.12 4.58,5.3 8.07,5.64 4.86,0.44 6.82,-3.68 7.51,-7.76 0.18,-1.09 0.59,-3.68 -0.41,-4.49 -1.09,-0.84 -2.12,0.85 -2.96,1.53 -1.21,0.9 -2.87,1.09 -4.3,1.03 -2.8,-0.09 -5.33,-1.81 -6.82,-4.05 -0.28,-0.44 -0.47,-0.87 -0.6,-1.34 -0.31,2.68 -0.24,3.3 0.22,1.84 0.31,-0.66 0.66,-1.25 1.16,-1.78 1.34,-1.71 3.39,-2.77 4.83,-4.39 0.68,-0.72 2.18,-3.49 1.46,-4.43l0 0z"/>
   <path class="fil12" d="M3359.04 737.57l22.81 8.79c0,0 -30.76,1.93 -31.94,-7.01 0,0 4.64,-17.45 9.69,-33.97 0,0 -3.96,30.88 -0.56,32.19z"/>
   <path class="fil26" d="M3398.83 705.38c0,4.83 2.68,8.73 5.95,8.73 3.24,0 5.89,-3.9 5.89,-8.73 0,-4.83 -2.65,-8.72 -5.89,-8.72 -3.27,0 -5.95,3.89 -5.95,8.72z"/>
   <path class="fil26" d="M3333.05 698.06c0,4.83 2.68,8.72 5.95,8.72 3.24,0 5.89,-3.89 5.89,-8.72 0,-4.8 -2.65,-8.69 -5.89,-8.69 -3.27,0 -5.95,3.89 -5.95,8.69z"/>
   <path class="fil26" d="M3392.66 688.46c-2.12,0.44 -2.65,-2.43 -2.65,-2.43 -0.65,-2.77 0.16,-5.08 0.16,-5.08 0.84,-1.99 2.52,-2.58 2.52,-2.58 5.52,-0.78 16.14,0.59 25.21,3.27 4.98,1.49 13.09,5.2 13.62,9.84 0.15,1.38 0.28,3.74 -1.28,4.18 0,0 -17.23,-5.33 -37.58,-7.2z"/>
   <path class="fil26" d="M3317.88 680.98c5.98,0.1 16.54,0.66 29.41,3.06 1.93,1.03 3.18,-1.59 3.21,-1.59 1.37,-2.49 1.25,-4.96 1.25,-4.96 -0.28,-2.11 -1.75,-3.17 -1.75,-3.17 -5.05,-2.25 -12.37,-3.53 -21.78,-3.4 -2.8,0.03 -7.7,0.4 -10.97,1.46 0,0 -0.62,1.75 0.63,8.6z"/>
   <path class="fil14" d="M3346.29 765.4c-1.84,0 -2.86,0.84 -2.15,2.21 0,0 8.23,15.42 22.59,17.14 14.34,1.74 26.08,-11.25 26.08,-11.25 1.16,-1.28 0.16,-2.56 -2.18,-2.84 0,0 -24.8,-3.18 -44.34,-5.26z"/>
   <path class="fil24" d="M3627.51 1507.82c0,0 51.82,83.63 0,177.37 -51.82,93.75 -210.05,59.58 -210.48,-61.84 -0.47,-119.95 108.68,-165.82 210.48,-115.53z"/>
   <path class="fil25" d="M3371.41 875.73c0,0 -66.06,2.43 -100.65,12.31 -30.04,21.94 -33.5,74.41 -22.75,107.22 12.31,37.65 17.17,85.69 29.51,140.13 16.7,73.79 -4.36,127.73 14.27,200.98 15.4,60.6 337.62,0 337.62,0l40.92 -283.55c0,0 15.08,-77.87 -55.5,-103.77 0,0 -70.89,-38.95 -125.29,-57.36 0,0 8.47,57.36 -85.04,41.5 0,0 -57.15,-13.77 -33.09,-57.46z"/>
   <path class="fil25" d="M3629.41 1336.37c13.68,48.68 24.49,212.78 24.49,212.78 -37.04,153.62 -377.81,43.09 -379.84,21.05 -2.4,-26.38 8.01,-151.92 13.37,-260.56 0,0 143.34,-51.29 341.98,26.73z"/>
   <path class="fil5" d="M3528.95 1060.08c22.25,45.21 104.79,273.46 131.31,309.55 7.04,9.59 75.1,53.42 90.4,-6.34 -37.49,-236.9 -94.23,-372.08 -94.23,-372.08 0,0 -66.22,-55.21 -119.13,-4.17 0,0 -24.02,41.69 -8.35,73.04z"/>
   <path class="fil5" d="M3519.57 1019.63c-7.32,43.41 21.94,84.54 65.35,91.86 43.4,7.32 84.56,-21.9 91.86,-65.31 7.32,-43.44 -21.94,-84.57 -65.35,-91.89 -43.4,-7.32 -84.53,21.93 -91.86,65.34z"/>
   <path class="fil25" d="M3598.19 940.33c0,0 68.49,25.67 84.72,81.26l42.29 151.32c0,0 -55.4,80.58 -138.01,77.9l-81.58 -181.23c0,0 -54.87,-101.77 92.58,-129.25z"/>
   <path class="fil3" d="M2721.2 1373.16l21.09 -0.57c0,0 -38.47,9.88 -50.88,-2.63 0,0 -3.17,-1.97 1.77,-6.45 0,0 34.03,-1.15 48.98,-5.45 0,0 -33.67,8.14 -57.64,5.73 0,0 -9.4,-6.17 0.73,-11.78 -7.65,-2.96 -1.12,-7.97 -1.12,-7.97 0,0 6.87,-3.87 22.92,-8.85 0,0 24.66,-7.88 52.54,-20.47 0,0 -22.21,-14.56 -13.89,-26.27l34.25 18.07 30.99 19.91 4.14 21 -32.25 22.41c0,0 -31.34,12.6 -49.09,13.2 0,0 -50.93,-1.81 -12.54,-9.88z"/>
   <path class="fil24" d="M3510.48 2172.84l88.61 552.31c0,0 29.36,28.3 97.5,0l11.31 -269.86c0,0 20.01,-178.3 -50.6,-305.46 0,0 -139.1,-112.26 -146.82,23.01z"/>
   <path class="fil23" d="M3431.61 2156.14c0,0 37.73,54.59 3.93,259.45l-34.59 279.76c0,0 -39.79,23.85 -84.6,1.1l-27.86 -557.35c0,0 24.99,-94.61 143.12,17.04z"/>
   <path class="fil27" d="M2784.94 1481.91c-0.06,-6.72 -3.55,-12.82 -10.88,-17.77 -1.16,-0.77 -2.39,-1.48 -3.66,-2.15 -0.41,-0.21 -0.81,-0.39 -1.23,-0.59 -0.92,-0.45 -1.87,-0.87 -2.82,-1.27 -0.25,-0.11 -0.47,-0.22 -0.71,-0.31 -0.19,-0.08 -0.43,-0.13 -0.64,-0.22 -1.53,-0.58 -3.13,-1.14 -4.76,-1.62 -0.03,-0.02 -0.05,-0.02 -0.07,-0.03 -0.02,0 -0.04,-0.01 -0.04,-0.01 -1.66,-0.49 -3.39,-0.91 -5.13,-1.3 -0.19,-0.05 -0.39,-0.12 -0.58,-0.16 -0.24,-0.04 -0.5,-0.09 -0.74,-0.14 -2.04,-0.45 -4.15,-0.84 -6.28,-1.21 -0.07,0 -0.11,-0.01 -0.18,-0.02 -0.17,-0.03 -0.36,-0.06 -0.53,-0.08 -2.22,-0.36 -4.44,-0.69 -6.7,-0.98 -0.24,-0.03 -0.48,-0.07 -0.71,-0.1 -2.4,-0.32 -4.79,-0.57 -7.18,-0.85 -0.13,-0.03 -0.26,-0.04 -0.41,-0.05 -1.94,-0.23 -3.88,-0.45 -5.82,-0.67 -2.28,-0.26 -4.54,-0.53 -6.8,-0.81 -0.39,-0.07 -0.82,-0.11 -1.23,-0.17 -2.22,-0.29 -4.39,-0.61 -6.55,-0.95 -1.12,-0.19 -2.24,-0.37 -3.34,-0.58 -2.26,-0.41 -4.52,-0.88 -6.78,-1.36 -0.41,-0.1 -0.82,-0.19 -1.23,-0.28 -1.64,-0.36 -3.27,-0.76 -4.91,-1.17 -0.04,-0.01 -0.09,-0.02 -0.13,-0.04 -1.66,-0.42 -3.28,-0.86 -4.89,-1.32 -0.52,-0.16 -1.01,-0.31 -1.53,-0.47 -1.12,-0.33 -2.22,-0.69 -3.32,-1.04 -0.53,-0.18 -1.05,-0.36 -1.59,-0.55 -1.12,-0.38 -2.22,-0.79 -3.32,-1.19 -0.41,-0.18 -0.84,-0.32 -1.23,-0.48 -1.4,-0.55 -2.75,-1.11 -4.05,-1.7 -2.04,-0.94 -12.1,-6.76 -18.01,-11.75l1.32 150.1c5.9,5.01 15.98,10.8 18.01,11.74 1.29,0.6 2.65,1.16 4.03,1.72 0.1,0.03 0.19,0.08 0.3,0.12 0.3,0.12 0.64,0.22 0.95,0.34 1.09,0.42 2.19,0.83 3.33,1.22 0.52,0.18 1.04,0.34 1.55,0.53 1.12,0.36 2.27,0.72 3.41,1.08 0.32,0.09 0.62,0.18 0.95,0.28 0.17,0.05 0.32,0.08 0.49,0.14 1.62,0.47 3.27,0.92 4.94,1.35 0,0 0,0.01 0.02,0.01 1.66,0.41 3.33,0.8 5.04,1.19 0.15,0.04 0.3,0.08 0.47,0.11 0.24,0.05 0.45,0.1 0.67,0.14 2.28,0.5 4.56,0.97 6.83,1.39 0.92,0.17 1.85,0.33 2.8,0.5 0.17,0.02 0.37,0.04 0.56,0.08 2.13,0.34 4.31,0.64 6.5,0.94 0.46,0.06 0.89,0.12 1.32,0.18 2.22,0.27 4.43,0.53 6.67,0.79 0.03,0 0.05,0 0.09,0.02 1.47,0.15 2.93,0.33 4.4,0.49 0.6,0.07 1.18,0.15 1.78,0.2 2.44,0.29 4.85,0.58 7.26,0.88 0.18,0.02 0.37,0.07 0.56,0.08 2.29,0.3 4.55,0.63 6.79,1 0.24,0.02 0.48,0.06 0.71,0.1 2.13,0.36 4.24,0.76 6.29,1.19 0.45,0.11 0.89,0.2 1.34,0.31 1.74,0.39 3.46,0.83 5.12,1.31 1.68,0.5 3.3,1.06 4.85,1.65 0.45,0.17 0.9,0.36 1.36,0.53 0.97,0.39 1.89,0.82 2.82,1.27 0.41,0.2 0.82,0.39 1.21,0.59 1.29,0.67 2.52,1.38 3.68,2.16 7.32,4.94 10.81,11.05 10.88,17.76l-1.32 -150.1z"/>
   <path class="fil28" d="M2567.46 1812.46c0.49,-0.12 1.01,-0.23 1.53,-0.34 0.71,-0.15 1.4,-0.31 2.09,-0.46 0.58,-0.1 1.16,-0.2 1.74,-0.3 0.5,-0.08 0.99,-0.17 1.47,-0.25l1.12 125.78 208.29 140.56 -1.34 -150.11 -172.53 -116.43c2.52,0.31 5.06,0.66 7.6,1.08 0.61,0.09 1.19,0.19 1.77,0.3 0.95,0.17 1.9,0.33 2.87,0.53 0.66,0.11 1.35,0.25 2.04,0.4 0.93,0.18 1.83,0.37 2.74,0.57 0.65,0.14 1.29,0.28 1.91,0.43 1.49,0.34 2.98,0.7 4.46,1.07 0.41,0.09 0.82,0.2 1.23,0.32 1.86,0.47 3.71,0.98 5.56,1.52 0.37,0.11 0.71,0.21 1.06,0.32 2.56,0.76 5.1,1.56 7.62,2.42 0.13,0.04 0.26,0.09 0.37,0.13 2.54,0.87 5.04,1.8 7.54,2.76 0.19,0.09 0.41,0.17 0.6,0.25 2.86,1.11 5.71,2.32 8.51,3.58 0.13,0.07 0.26,0.12 0.41,0.18 2.84,1.27 5.62,2.64 8.38,4.07 0.09,0.04 0.19,0.08 0.28,0.13 2.8,1.44 5.54,2.97 8.21,4.54 0.04,0.03 0.11,0.06 0.13,0.08 2.73,1.61 5.38,3.28 7.96,5.02 23.01,15.52 35.1,32.95 35.22,47.79 -0.43,-50.04 -0.88,-100.08 -1.31,-150.12 -0.13,-14.82 -12.23,-32.24 -35.22,-47.76 -2.58,-1.75 -5.23,-3.43 -7.97,-5.03 -0.04,-0.03 -0.08,-0.05 -0.13,-0.09 -2.67,-1.57 -5.43,-3.08 -8.21,-4.53 -0.1,-0.05 -0.19,-0.1 -0.3,-0.14 -2.73,-1.42 -5.53,-2.78 -8.36,-4.07 -0.15,-0.05 -0.27,-0.12 -0.43,-0.17 -2.8,-1.27 -5.62,-2.46 -8.48,-3.59 -0.07,-0.03 -0.11,-0.05 -0.18,-0.07 -0.13,-0.05 -0.28,-0.1 -0.43,-0.16 -2.52,-0.98 -5.04,-1.92 -7.6,-2.79 -0.09,-0.04 -0.19,-0.07 -0.28,-0.1 -2.56,-0.88 -5.13,-1.68 -7.69,-2.44 -0.22,-0.06 -0.39,-0.14 -0.6,-0.2 -0.13,-0.03 -0.24,-0.07 -0.39,-0.11 -1.85,-0.55 -3.73,-1.06 -5.6,-1.55 -0.39,-0.09 -0.76,-0.18 -1.15,-0.27 -1.53,-0.4 -3.05,-0.76 -4.56,-1.1 -0.28,-0.07 -0.58,-0.15 -0.86,-0.21 -0.33,-0.07 -0.63,-0.13 -0.95,-0.2 -0.95,-0.21 -1.9,-0.4 -2.87,-0.6 -0.64,-0.13 -1.31,-0.27 -1.98,-0.4 -0.95,-0.18 -1.92,-0.35 -2.89,-0.51 -0.45,-0.09 -0.92,-0.18 -1.37,-0.25 -0.13,-0.02 -0.24,-0.04 -0.37,-0.05 -2.59,-0.43 -5.15,-0.79 -7.69,-1.09 -0.19,-0.02 -0.41,-0.05 -0.6,-0.08 -0.15,-0.02 -0.3,-0.02 -0.45,-0.05 -2.23,-0.23 -4.44,-0.45 -6.62,-0.6 -0.17,-0.02 -0.37,-0.04 -0.54,-0.06 -0.26,0 -0.49,0 -0.73,-0.02 -4.07,-0.25 -8.03,-0.34 -11.93,-0.24 -0.22,0 -0.46,-0.01 -0.69,0 -0.2,0 -0.39,0.02 -0.61,0.03 -1.87,0.06 -3.75,0.15 -5.55,0.3 -0.05,0 -0.09,0 -0.13,0 -0.11,0.01 -0.22,0.04 -0.33,0.05 -1.91,0.16 -3.77,0.37 -5.6,0.63 -0.19,0.03 -0.41,0.04 -0.6,0.07 -0.13,0.01 -0.28,0.05 -0.41,0.06 -0.75,0.12 -1.51,0.25 -2.24,0.38 -0.54,0.11 -1.08,0.19 -1.6,0.29 -0.77,0.14 -1.52,0.33 -2.28,0.49 -0.39,0.09 -0.82,0.16 -1.2,0.26 -0.07,0.01 -0.11,0.03 -0.18,0.04 -1.61,0.4 -3.21,0.85 -4.74,1.33 -0.34,0.11 -0.69,0.23 -1.03,0.35 -1.55,0.51 -3.06,1.05 -4.5,1.65 -1.17,0.51 -2.24,1.07 -3.25,1.6 -0.33,0.17 -0.61,0.35 -0.91,0.52 -0.37,0.19 -0.75,0.39 -1.1,0.6 -0.3,0.18 -0.56,0.37 -0.86,0.55 -0.37,0.25 -0.76,0.48 -1.1,0.72 -0.56,0.38 -1.1,0.78 -1.62,1.18 -0.29,0.24 -0.64,0.47 -0.92,0.7 -0.11,0.09 -0.22,0.17 -0.32,0.24 -0.61,0.53 -1.21,1.04 -1.75,1.57 -0.07,0.06 -0.13,0.14 -0.19,0.19 -0.45,0.44 -0.88,0.88 -1.3,1.33 -0.12,0.13 -0.23,0.27 -0.34,0.41 -0.19,0.22 -0.39,0.44 -0.58,0.67 -0.39,0.46 -0.78,0.93 -1.12,1.41 -0.17,0.21 -0.35,0.43 -0.5,0.66 -0.08,0.12 -0.17,0.23 -0.25,0.35 -0.2,0.25 -0.33,0.5 -0.48,0.75 -0.32,0.46 -0.62,0.92 -0.9,1.39 -0.22,0.35 -0.41,0.71 -0.63,1.07 -0.26,0.46 -0.51,0.93 -0.75,1.37 -0.09,0.16 -0.17,0.31 -0.26,0.49 -0.09,0.17 -0.17,0.35 -0.24,0.52 -0.41,0.8 -0.79,1.61 -1.16,2.41 -0.09,0.19 -0.15,0.36 -0.24,0.54 -0.47,1.08 -0.95,2.16 -1.42,3.23 -0.34,0.83 -0.69,1.66 -1.06,2.48 -0.15,0.32 -0.28,0.63 -0.43,0.94 -0.43,0.99 -0.9,1.97 -1.4,2.94 -0.25,0.53 -0.53,1.04 -0.82,1.54 -0.13,0.25 -0.25,0.48 -0.38,0.72 -0.43,0.74 -0.89,1.48 -1.36,2.2 -0.32,0.45 -0.65,0.91 -0.97,1.37 -0.47,0.65 -0.99,1.31 -1.51,1.99 -0.21,0.28 -0.43,0.55 -0.66,0.84 -0.7,0.85 -1.43,1.69 -2.18,2.55 -0.06,0.05 -0.11,0.13 -0.17,0.2 -0.82,0.87 -1.68,1.74 -2.59,2.6 -0.23,0.25 -0.51,0.5 -0.77,0.75 -0.67,0.61 -1.34,1.21 -2.03,1.8 -0.34,0.29 -0.69,0.58 -1.05,0.87 -0.69,0.56 -1.43,1.12 -2.16,1.66 -0.34,0.26 -0.67,0.51 -1.01,0.78 -1.1,0.76 -2.22,1.52 -3.38,2.25 -0.11,0.05 -0.24,0.12 -0.39,0.2 -0.04,0.04 -0.09,0.05 -0.15,0.11 -0.13,0.06 -0.3,0.15 -0.48,0.24 -0.08,0.04 -0.17,0.08 -0.26,0.15 -0.17,0.08 -0.38,0.18 -0.58,0.27 -0.13,0.08 -0.25,0.13 -0.38,0.21 -0.18,0.09 -0.41,0.2 -0.61,0.3 -0.17,0.09 -0.34,0.18 -0.56,0.27 -0.17,0.11 -0.39,0.19 -0.6,0.3 -0.24,0.11 -0.45,0.23 -0.71,0.35 -0.22,0.09 -0.45,0.22 -0.69,0.31 -0.26,0.14 -0.5,0.24 -0.78,0.38 -0.34,0.16 -0.71,0.34 -1.07,0.49 -0.18,0.08 -0.33,0.17 -0.52,0.25 -0.54,0.25 -1.12,0.51 -1.73,0.76 -3.91,1.76 -8.5,3.66 -12.79,5.11l-208.55 -140.72 1.32 150.12 208.55 140.71c4.26,-1.46 8.87,-3.36 12.81,-5.11 1.15,-0.51 2.22,-1.01 3.23,-1.46 0.03,-0.02 0.05,-0.02 0.05,-0.05 0.47,-0.2 0.92,-0.41 1.36,-0.62 0.04,-0.03 0.08,-0.05 0.1,-0.06 0.35,-0.17 0.65,-0.3 0.95,-0.46 0.13,-0.06 0.26,-0.13 0.39,-0.2 0.26,-0.11 0.47,-0.22 0.71,-0.34 0.15,-0.06 0.3,-0.15 0.43,-0.22 0.19,-0.09 0.37,-0.18 0.54,-0.27 0.15,-0.07 0.3,-0.15 0.43,-0.23 0.15,-0.06 0.26,-0.12 0.37,-0.18 0.12,-0.08 0.28,-0.14 0.38,-0.21 0.09,-0.05 0.15,-0.09 0.24,-0.13 0.09,-0.05 0.17,-0.11 0.24,-0.13 0.02,-0.03 0.04,-0.04 0.06,-0.04 1.19,-0.72 2.31,-1.5 3.4,-2.27 0.33,-0.24 0.65,-0.49 0.97,-0.74 0.76,-0.55 1.49,-1.11 2.2,-1.7 0.17,-0.13 0.37,-0.26 0.54,-0.41 0.17,-0.14 0.32,-0.29 0.49,-0.43 0.7,-0.61 1.36,-1.19 2.01,-1.8 0.28,-0.25 0.56,-0.51 0.82,-0.76 0.88,-0.85 1.74,-1.72 2.56,-2.6 0,-0.01 0,-0.01 0.02,-0.04 0.07,-0.06 0.11,-0.13 0.17,-0.19 0.76,-0.85 1.49,-1.67 2.16,-2.51 0.23,-0.29 0.45,-0.59 0.69,-0.88 0.52,-0.64 0.99,-1.3 1.46,-1.95 0.13,-0.18 0.28,-0.34 0.41,-0.53 0.2,-0.27 0.39,-0.56 0.58,-0.83 0.5,-0.74 0.95,-1.48 1.36,-2.22 0.17,-0.27 0.3,-0.54 0.45,-0.81 0.24,-0.45 0.5,-0.9 0.71,-1.36 0.02,-0.01 0.05,-0.04 0.05,-0.06 0.49,-0.99 0.97,-1.97 1.42,-2.97 0.13,-0.31 0.26,-0.62 0.41,-0.92 0.34,-0.82 0.71,-1.64 1.05,-2.47 0.48,-1.1 0.95,-2.18 1.43,-3.28 0.08,-0.17 0.15,-0.31 0.23,-0.46 0.37,-0.85 0.76,-1.66 1.16,-2.49 0.18,-0.33 0.33,-0.64 0.5,-0.95 0.24,-0.48 0.5,-0.96 0.78,-1.42 0.19,-0.36 0.39,-0.71 0.6,-1.06 0.28,-0.46 0.58,-0.93 0.9,-1.39 0.24,-0.37 0.48,-0.74 0.74,-1.11 0.17,-0.22 0.32,-0.43 0.49,-0.66 0.37,-0.46 0.73,-0.94 1.12,-1.4 0.2,-0.22 0.39,-0.46 0.59,-0.68 0.51,-0.58 1.05,-1.14 1.61,-1.69 0.09,-0.08 0.15,-0.16 0.22,-0.22 0.64,-0.62 1.35,-1.22 2.09,-1.81 0.28,-0.24 0.58,-0.48 0.88,-0.7 0.54,-0.4 1.08,-0.8 1.63,-1.19 0.37,-0.24 0.74,-0.48 1.1,-0.71 0.63,-0.39 1.28,-0.79 1.96,-1.18 0.31,-0.16 0.59,-0.32 0.91,-0.49 1.01,-0.55 2.09,-1.09 3.25,-1.61 1.45,-0.59 2.95,-1.14 4.5,-1.66 0.35,-0.11 0.69,-0.23 1.04,-0.33 1.55,-0.49 3.1,-0.94 4.74,-1.33z"/>
   <polygon class="fil29" points="3427.75,1655.78 3429.05,1805.87 2783.7,2077.45 2782.36,1927.34 "/>
   <path class="fil30" d="M2278.9 1587.61l266.97 -112.34c9.11,5.35 19.86,14.48 20.9,15.83 12.47,16.44 -3.62,38.86 17.32,52.99 25.78,17.39 89.18,13.58 141.66,-8.48 1.46,-0.62 2.9,-1.24 4.31,-1.87 49.3,-21.99 69.06,-52.69 44,-69.6 -16.02,-10.79 -43.62,-10.11 -66.11,-14.27 -11.63,-2.14 -23.59,-5.33 -32.98,-9.6 -2.04,-0.94 -12.1,-6.76 -18.01,-11.75l267.32 -112.46 503.47 339.72 -645.39 271.56 -208.29 -140.54c0.82,-0.41 1.7,-0.8 2.59,-1.2 10.29,-4.59 25.14,-9.56 27.5,-10.08 31.05,-6.82 73.07,1.46 99.92,-9.83 32.87,-14.65 26.17,-47.86 -14.31,-75.17 -40.93,-27.62 -100.88,-38.74 -133.9,-24.84 -20.51,9.13 -19.71,23.51 -27.64,35.29 -4.2,6.22 -10.32,12.62 -18.48,17.66 -1,0.58 -4.74,2.48 -9.51,4.59 -3.91,1.76 -8.5,3.66 -12.79,5.11l-208.55 -140.72z"/>
   <path class="fil11" d="M1373.91 2294.89c0,0 22.09,-14.32 0.88,-40.76 -54.81,-3.48 -119.24,-33.08 -119.24,-33.08 -80.57,-25.36 -193.72,-150.06 -245.23,-206.8 -57.85,-63.72 -145.44,-9.63 -98.43,63.11 87.95,136.13 319.1,225.87 460.86,220.55l1.16 -3.02z"/>
   <path class="fil31" d="M774.14 2928.05c33.67,-157.28 43.75,-521.57 43.75,-521.57 0,0 -26.97,-35.8 -124.14,-42.05 -97.41,-6.29 -90.69,53.58 -90.24,45.82 0,0 0.09,257.77 44.7,511.62 0,0 69.28,47.78 125.93,6.18z"/>
   <path class="fil32" d="M604.49 2428.09c-9.57,-65.08 10.26,-130.74 20.49,-196.53l295.89 0c18.94,63.07 38.62,127.87 38.62,127.87 0,0 12.66,149.2 -114.06,167.08 0,0 -220.83,38.28 -240.94,-98.42z"/>
   <path class="fil0" d="M430.78 3563.86c0,125.43 228.55,227.13 510.49,227.13 281.91,0 510.45,-101.7 510.45,-227.13 0,-125.44 -228.54,-227.14 -510.45,-227.14 -281.94,0 -510.49,101.7 -510.49,227.14z"/>
   <path class="fil21" d="M1238.2 3555.65l-16.86 -0.99c-5.74,-0.88 -5.7,8.16 -6.47,8.46 -17.64,6.96 -33.3,12.37 -39.93,12.65 0,0 -31.18,-4.05 -34.53,-13.48l4.41 -57.89c34.75,-2.91 71.03,-9.63 71.03,-9.63l76.39 -10.73c36.76,-3.83 43.44,9.46 43.44,9.46 0,0 22.51,33.61 -97.48,62.15z"/>
   <path class="fil33" d="M1191.84 3552.22c5.57,-2.58 13.84,-5.4 19.76,-6.44 37.67,-6.59 74.54,-10.34 105.91,-34.55 7.66,-5.92 13.07,-13.27 13.62,-22.06 3.47,2.29 4.55,4.33 4.55,4.33 0,0 22.51,33.61 -97.48,62.15l-16.86 -0.99c-5.74,-0.88 -5.7,8.16 -6.47,8.46 -17.64,6.96 -33.3,12.37 -39.93,12.65 0,0 -31.18,-4.05 -34.53,-13.48l1.08 -14.12c12.41,7.14 34.33,11.46 50.35,4.05z"/>
   <path class="fil21" d="M727.87 3541.32l-16.86 -0.99c-5.75,-0.88 -5.71,8.15 -6.5,8.47 -17.62,6.94 -33.28,12.36 -39.91,12.64 0,0 -31.18,-4.05 -34.51,-13.5l4.38 -57.86c34.77,-2.93 71.04,-9.63 71.04,-9.63l76.39 -10.75c36.77,-3.84 43.44,9.48 43.44,9.48 0,0 22.51,33.6 -97.47,62.14z"/>
   <path class="fil33" d="M681.49 3537.9c5.6,-2.61 13.85,-5.41 19.76,-6.44 37.69,-6.59 74.54,-10.34 105.92,-34.58 7.66,-5.9 13.07,-13.25 13.62,-22.04 3.48,2.29 4.55,4.34 4.55,4.34 0,0 22.51,33.6 -97.47,62.14l-16.86 -0.99c-5.75,-0.88 -5.71,8.15 -6.5,8.47 -17.62,6.94 -33.28,12.36 -39.91,12.64 0,0 -31.18,-4.05 -34.51,-13.5l1.06 -14.09c12.41,7.13 34.33,11.44 50.34,4.05z"/>
   <path class="fil31" d="M721.4 3494.3c12.52,-14.93 53.57,-563.6 53.57,-563.6 6.82,-84.34 -133.43,-48.92 -133.43,-48.92 -20.42,83.97 -17.12,99.76 -23.53,203.96 -2.55,41.14 4.01,382 2.48,408.21 0,0 65.1,43.13 100.91,0.35z"/>
   <path class="fil34" d="M828.99 2307.84c0,0 84.21,143.36 32.39,237.11 -51.82,93.75 -270.17,-8.29 -256.75,-116.82 14.73,-119.06 122.57,-170.59 224.36,-120.29z"/>
   <path class="fil5" d="M889.39 2125.04c13.68,48.68 70.1,234.39 70.1,234.39 -154.61,145.8 -354.16,30.2 -356.18,8.16 -2.4,-26.38 27.04,-127.13 32.39,-235.77 0,0 55.06,-84.8 253.69,-6.78z"/>
   <path class="fil34" d="M1075.42 2900.82c-16.41,-160.01 -130.39,-568.19 -130.39,-568.19 0,0 -33.31,-30.67 -127.68,-6.72 -94.6,24.04 -104.81,147.15 -106.78,139.61 0,0 109.81,258.35 255.91,485.99 0,0 70.58,36.13 108.94,-50.69z"/>
   <path class="fil34" d="M1217.79 3488.2c-2.77,-19.3 -145.07,-592.59 -145.07,-592.59 -33.49,-70.7 -129.68,3.75 -129.68,3.75 0.33,51.31 1.7,113.2 34.84,212.18 13.08,39.1 134.05,393.16 142.47,418.02 0,0 71.49,22.66 97.44,-41.36z"/>
   <path class="fil3" d="M524.28 1753.48c0,0 -15.29,257.5 -5.54,361.45 0,0 0,47.24 83.21,70.92 0,0 30.26,-286.68 54.9,-414.68 0,0 -49.14,-94.92 -132.57,-17.69z"/>
   <path class="fil3" d="M617.19 1819.99c-34.14,14.46 -73.61,-1.26 -88.14,-35.09 -14.56,-33.83 1.32,-72.96 35.47,-87.42 34.13,-14.44 73.6,1.28 88.15,35.11 14.55,33.83 -1.34,72.96 -35.48,87.4z"/>
   <path class="fil35" d="M582.29 1680.6c0,0 -60.82,14.08 -64.07,84.6l-9.84 253.81c0,0 60.74,40.34 139.46,33.48 0,0 90.79,-338.95 -65.55,-371.89z"/>
   <path class="fil5" d="M811.92 1519.47c0,0 0.54,90.64 8.46,180.94l-119.58 -19.81c0,0 17.52,-41.24 -7.14,-78.1l118.26 -83.03z"/>
   <path class="fil5" d="M582.29 1680.6c-30.03,21.95 -33.47,74.43 -22.76,107.2 12.32,37.65 17.2,85.69 29.53,140.14 16.7,73.78 28.02,130.6 46.64,203.88 15.42,60.58 258.91,11.76 258.91,11.76l87.28 -298.23c0,0 15.03,-77.85 -55.5,-103.76 0,0 -74.3,-40.11 -128.69,-58.54 -48.03,-16.27 -65.44,-17.79 -114.74,-14.75 0,0 -66.07,2.42 -100.67,12.3z"/>
   <path class="fil34" d="M939.05 2300.39c0,0 51.82,83.62 0,177.35 -51.83,93.75 -210.03,59.56 -210.5,-61.85 -0.46,-119.94 108.7,-165.8 210.5,-115.5z"/>
   <path class="fil35" d="M682.96 1668.3c0,0 -66.07,2.42 -100.67,12.3 -31.24,22.84 -30.69,67.68 -24.66,101.62 11.52,64.89 23.21,130.44 29.23,196.09 2.67,29.09 9.92,88.28 12.08,117.39 2.11,28.26 11.05,43.83 39.96,58.76 21.98,11.33 38.31,2.33 62.26,2.97 60.88,1.66 120.99,-5 181.32,-12.47 2.55,-0.3 96.72,63.23 65.73,16.48l33.68 -316.09c0,0 15.03,-77.85 -55.5,-103.76 0,0 -49.59,-31.05 -104,-49.47 0,0 -94.59,2.4 -139.43,-23.82z"/>
   <path class="fil11" d="M852.15 1624.16l5.11 -19.69c0,0 12.1,-72.58 12.1,-72.59 1.52,-9.12 0.35,-20.98 -2.27,-29.89 -2.85,-9.69 -5.13,-19.91 -3.72,-30.63 6.94,-51.99 -22.18,-77.82 -22.18,-77.82 -33.89,-44.55 -104.38,-38.32 -104.41,-38.32 -36.56,5.55 -68.49,20.67 -86.67,54.02 -16.51,30.24 -25.48,67.12 -15.69,100.89 10.73,37.01 31.47,65.92 58.91,92.17 17.57,16.79 35.52,18.86 58.5,27.27 16.01,5.84 46.64,9.25 63.65,9.38 8.92,0.02 33.74,-3.48 36.67,-14.79z"/>
   <path class="fil36" d="M838.23 1423.69l-11.23 45.06c-12.82,5.61 -17.97,10.57 -16.21,27.43l4.07 37.22 -10.13 3.89c0.84,-14.91 -19.83,-15.12 -19.83,-15.12 -15.12,-0.86 -17.69,12.02 -16.83,24.42 2.25,32.2 -9.48,83.35 -36.48,92.36 -10.66,3.55 -30.76,7.25 -34.14,-7.19 -4.12,-17.66 -37.57,-52.74 -37.57,-52.74 -40.18,-38.92 -50.26,-105.34 -31.26,-156.08 5.74,-15.35 17.07,-31.36 28.85,-42.64 25.05,-23.99 56.61,-35.76 89.86,-40.1 0,0 45.82,-5.57 71.57,12.5 15.95,11.22 26.44,21.47 33.25,30.42 0,0 9.77,20.69 -13.92,40.57z"/>
   <path class="fil11" d="M801.31 1568.9c-2.93,2.57 -6.8,4.19 -11.76,4.42 -13.38,0.66 -25.28,-11.15 -26.56,-26.35 -1.29,-15.2 8.51,-28.06 21.88,-28.69 6.33,-0.31 12.36,2.19 17.05,6.5 6.85,6.31 7.85,18.68 6.87,27.33 -0.78,6.91 -3.09,12.94 -7.48,16.79z"/>
   <path class="fil12" d="M791.18 1532.09c-1.31,-7.93 -16.98,0.72 -14.25,5.07 1.59,2.5 4.53,4.22 6.88,5.88 3.21,2.31 4.84,4.49 5.52,8.41 0.09,0.48 0.26,1.85 -0.18,2.2 -2,1.6 -9.35,-5.78 -10.96,-7.32 -3.16,-3.04 -3.92,-8.56 -2.77,-12.66 1.26,-4.35 3.94,-6.54 8.51,-6.55 3.63,-0.02 7.35,0 7.42,4.52 0,0.1 -0.12,0.86 -0.17,0.45l0 0z"/>
   <path class="fil12" d="M786.53 1540.72c1.58,-1.81 3.27,-0.51 5.07,0.63 1.66,1.07 2.66,2.66 3.19,4.53 1.19,4.09 0.98,9.68 -1.16,13.46 -1.74,3.04 -4.86,5.05 -8.39,5.17 -4.87,0.17 -6.59,-4.04 -7.04,-8.15 -0.11,-1.09 -0.39,-3.71 0.66,-4.45 1.12,-0.8 2.06,0.95 2.88,1.68 1.16,0.96 2.77,1.25 4.23,1.29 2.8,0.06 5.42,-1.52 7.05,-3.69 0.26,-0.4 0.51,-0.84 0.64,-1.3 0.17,2.69 0.06,3.3 -0.31,1.84 -0.26,-0.68 -0.61,-1.29 -1.05,-1.84 -1.24,-1.8 -3.22,-2.96 -4.6,-4.66 -0.64,-0.77 -1.97,-3.59 -1.17,-4.51l0 0z"/>
   <path class="fil5" d="M1458.35 2267.51c-6.19,-9.17 -0.77,-13.95 -13.32,-14.37 -14.29,-0.47 -27.09,-7.51 -36.79,-7.26 -16.89,0.48 -80.68,15.37 -37.87,51.88 9.96,8.53 38.47,46.64 58.22,35.35 29.17,-16.72 19.25,-10.56 34.07,-46.83l-4.31 -18.77z"/>
   <path class="fil5" d="M863.38 1799.06c-22.34,34.81 -12.25,81.12 22.54,103.47 34.8,22.35 81.11,12.26 103.45,-22.53 22.35,-34.81 12.26,-81.12 -22.54,-103.46 -34.78,-22.34 -81.1,-12.25 -103.45,22.52z"/>
   <path class="fil35" d="M957.26 2076.52c9.72,102.09 16,352.1 16,352.1 -36.23,96.71 -381.85,15.1 -383.86,-6.93 -2.41,-26.39 4.67,-212.19 10.01,-320.85 0,0 159.23,-102.34 357.85,-24.32z"/>
   <path class="fil35" d="M910.22 1733.11c91.04,25.63 102.35,135.79 102.35,135.79l41.1 180.92c0,0 -103.43,82.02 -166.47,58.95 0,0 -51.36,-136.57 -67.47,-272.7 0,0 0.65,-99.99 90.49,-102.96z"/>
   <path class="fil36" d="M857.61 1422.65c-10.28,8.29 -23.37,2.84 -35.13,0.12 -16.03,18.81 3.16,37.6 -21.13,46.71 -12.86,4.82 -31.88,6.21 -46.13,8.51 -11.38,1.83 -22.87,-0.81 -31.01,7.7 -8.81,9.19 -0.46,37.84 -10.87,43.33 -18.2,9.6 -32.47,-40.2 -55.66,-36.25 -19.79,3.36 -23.29,34.75 -16.36,50.19 -2.31,-2.01 -3.96,-2.86 -5.18,-3.51 -9.44,-24.59 -21.48,-25.02 -31.88,-42.51 -16.13,-27.1 -13.4,-20.63 -16.61,-46.66 -0.04,-0.24 3.17,-11.4 3.21,-11.55 7.57,-27.69 20.52,-32.42 26.74,-44.17 6.56,-12.41 16.69,-21.11 25.1,-32.04 7.75,-10.07 11.64,-23.62 20.55,-32.63 13.52,-13.68 35.67,-20.53 54.26,-22.99 20.03,-2.62 39.09,9.81 58.93,6.32 8.14,-1.43 15.76,-8.82 23.93,-8.35 9.95,0.56 16.86,10.44 25.46,14.3 16.01,7.2 41.23,4.3 54.9,15.55 15.12,12.47 11.87,30.47 2.56,45.72 -5.22,8.56 -15.8,13.48 -20.51,22.35 -1.3,2.45 -4.84,19.6 -5.17,19.86z"/>
   <path class="fil5" d="M3670.08 1349.9c0,0 -82.95,145.1 -148.54,308.71 0,0 1.21,31.12 24.15,21.5 22.87,-9.59 207.9,-271.61 208.08,-295.46 0.47,-61.3 -83.69,-34.75 -83.69,-34.75z"/>
   <path class="fil5" d="M3477.29 1720.9l19.97 -6.79c0,0 -33.81,20.82 -49.35,12.56 0,0 -3.65,-0.95 -0.25,-6.67 0,0 32.18,-11.18 45.18,-19.72 0,0 -29.76,17.72 -53.38,22.52 0,0 -10.78,-3.11 -2.77,-11.45 -8.17,-0.56 -3.43,-7.31 -3.43,-7.31 0,0 5.42,-5.71 19.29,-15.23 0,0 21.22,-14.81 44.12,-35.11 0,0 -25.52,-7.32 -21.03,-20.96l38.08 7.11 35.49 9.86 10.15 18.83 -24.17 30.95c0,0 -26.21,21.3 -42.97,27.14 0,0 -49.21,13.35 -14.93,-5.73z"/>
   <path class="fil37" d="M2641.04 2221.39c0.07,-6.61 3.52,-12.62 10.69,-17.47 1.14,-0.78 2.37,-1.46 3.62,-2.11 0.39,-0.21 0.79,-0.41 1.2,-0.6 0.91,-0.43 1.84,-0.85 2.76,-1.25 0.24,-0.09 0.45,-0.22 0.71,-0.31 0.2,-0.08 0.43,-0.14 0.65,-0.21 1.51,-0.58 3.04,-1.12 4.65,-1.59 0.05,0 0.07,-0.02 0.09,-0.02 0,0 0.02,0 0.02,-0.03 1.61,-0.47 3.32,-0.88 5.02,-1.27 0.19,-0.04 0.39,-0.1 0.6,-0.15 0.24,-0.04 0.52,-0.08 0.76,-0.15 2,-0.43 4.03,-0.82 6.12,-1.18 0.06,0 0.12,0 0.19,-0.03 0.21,-0.02 0.45,-0.06 0.67,-0.1 2.06,-0.33 4.15,-0.63 6.28,-0.91 0.28,-0.04 0.55,-0.08 0.82,-0.1 2.29,-0.31 4.59,-0.57 6.9,-0.85 0.15,-0.02 0.28,-0.02 0.41,-0.04 0.51,-0.06 1.03,-0.11 1.55,-0.17 1.55,-0.18 3.1,-0.35 4.65,-0.54 2.18,-0.24 4.33,-0.52 6.46,-0.78 0.43,-0.06 0.87,-0.1 1.3,-0.17 2.13,-0.28 4.24,-0.58 6.31,-0.92 1.12,-0.18 2.22,-0.35 3.29,-0.54 2.24,-0.43 4.46,-0.89 6.7,-1.38 0.43,-0.09 0.84,-0.17 1.27,-0.28 1.6,-0.34 3.19,-0.73 4.79,-1.14 0.04,0 0.08,-0.02 0.15,-0.02 1.61,-0.41 3.21,-0.86 4.78,-1.32 0.5,-0.15 0.97,-0.3 1.46,-0.43 1.1,-0.35 2.18,-0.69 3.26,-1.03 0.53,-0.18 1.08,-0.35 1.59,-0.54 1.08,-0.37 2.13,-0.75 3.17,-1.14 0.43,-0.17 0.88,-0.33 1.29,-0.5 1.38,-0.56 2.72,-1.12 4.01,-1.7 2,-0.9 11.91,-6.63 17.7,-11.55l-1.29 147.67c-5.79,4.91 -15.7,10.64 -17.7,11.55 -1.3,0.6 -2.66,1.16 -4.03,1.72 -0.11,0.03 -0.2,0.09 -0.31,0.13 -0.3,0.11 -0.6,0.22 -0.9,0.33 -1.05,0.4 -2.16,0.79 -3.25,1.18 -0.52,0.17 -1.04,0.34 -1.55,0.52 -1.08,0.36 -2.16,0.69 -3.26,1.03 -0.34,0.08 -0.66,0.19 -0.99,0.3 -0.17,0.07 -0.34,0.11 -0.51,0.13 -1.58,0.47 -3.15,0.9 -4.74,1.32 -0.09,0.01 -0.15,0.01 -0.22,0.04 -1.57,0.41 -3.14,0.77 -4.74,1.14 -0.17,0.04 -0.34,0.09 -0.52,0.13 -0.25,0.04 -0.51,0.08 -0.77,0.15 -2.24,0.47 -4.46,0.95 -6.68,1.33 -0.9,0.18 -1.83,0.35 -2.76,0.5 -0.17,0.04 -0.38,0.04 -0.58,0.09 -2.04,0.34 -4.13,0.64 -6.22,0.9 -0.48,0.07 -0.95,0.13 -1.43,0.2 -2.06,0.25 -4.13,0.51 -6.24,0.75 -0.04,0 -0.13,0.02 -0.18,0.02 -1.48,0.17 -2.97,0.35 -4.43,0.52 -0.73,0.06 -1.49,0.17 -2.22,0.23 -2.29,0.27 -4.55,0.54 -6.81,0.84 -0.28,0.03 -0.54,0.07 -0.82,0.09 -2.11,0.28 -4.22,0.58 -6.31,0.93 -0.28,0.04 -0.56,0.08 -0.84,0.13 -2.09,0.36 -4.14,0.75 -6.14,1.18 -0.43,0.09 -0.88,0.17 -1.31,0.28 -1.73,0.41 -3.43,0.82 -5.06,1.31 0,0 -0.03,0 -0.05,0 -1.61,0.48 -3.19,1.02 -4.72,1.62 -0.43,0.15 -0.88,0.33 -1.33,0.52 -0.95,0.39 -1.85,0.8 -2.76,1.25 -0.41,0.19 -0.82,0.36 -1.21,0.58 -1.24,0.67 -2.47,1.36 -3.61,2.11 -7.2,4.87 -10.62,10.88 -10.69,17.47l1.29 -147.67z"/>
   <path class="fil37" d="M2064.29 2360.57c-0.07,-0.28 -0.14,-0.56 -0.2,-0.84 -0.04,-0.26 -0.11,-0.51 -0.15,-0.77 -0.02,-0.09 -0.02,-0.17 -0.04,-0.26 -0.07,-0.39 -0.11,-0.78 -0.14,-1.16 -0.04,-0.31 -0.08,-0.59 -0.1,-0.89 -0.02,-0.41 -0.04,-0.82 -0.04,-1.25 -0.03,-0.23 -0.05,-0.45 -0.05,-0.69 0,-0.1 0,-0.21 0,-0.3l1.32 -147.69c-0.03,0.35 0.02,0.67 0.02,1.01 0,0.41 0.02,0.84 0.04,1.25 0.02,0.28 0.06,0.58 0.11,0.87 0.04,0.41 0.09,0.77 0.15,1.18 0.04,0.33 0.11,0.67 0.19,1.01 0.05,0.31 0.11,0.56 0.18,0.86 0.08,0.35 0.19,0.69 0.28,1.04 0.08,0.28 0.15,0.54 0.23,0.82 0.07,0.13 0.11,0.26 0.15,0.41 0.37,1.01 0.78,2 1.27,2.97 0,0.02 0.03,0.04 0.03,0.06 0.47,0.93 1.03,1.84 1.63,2.72 0.09,0.13 0.18,0.28 0.28,0.43 0.61,0.84 1.29,1.68 2.01,2.48 0.21,0.21 0.41,0.45 0.62,0.66 0.22,0.24 0.45,0.48 0.71,0.71 0.26,0.26 0.54,0.52 0.84,0.8 0.26,0.24 0.5,0.46 0.78,0.69 0.24,0.22 0.49,0.41 0.75,0.63 0.45,0.36 0.93,0.71 1.42,1.05 0.24,0.2 0.5,0.39 0.76,0.54 0.56,0.39 1.12,0.75 1.7,1.1 0.24,0.15 0.43,0.28 0.67,0.41 0.51,0.32 1.05,0.62 1.61,0.9 0.26,0.13 0.5,0.28 0.74,0.41 0.82,0.41 1.65,0.82 2.54,1.21 1.68,0.71 3.42,1.33 5.21,1.92 0.58,0.19 1.21,0.34 1.83,0.51 1.21,0.35 2.41,0.71 3.68,1.02 0.33,0.08 0.67,0.15 1,0.21 1.42,0.32 2.86,0.6 4.3,0.86 0.59,0.11 1.19,0.2 1.77,0.28 1.36,0.24 2.74,0.43 4.12,0.61 0.45,0.06 0.9,0.1 1.37,0.15 1.79,0.21 3.62,0.4 5.48,0.53 1.14,0.11 2.32,0.18 3.49,0.24 0.97,0.07 1.96,0.13 2.95,0.17 1.18,0.09 2.39,0.11 3.59,0.16 0.97,0.01 1.92,0.08 2.91,0.1 2.31,0.07 4.61,0.11 6.96,0.13 0.07,0 0.11,0 0.17,0 2.74,0.05 5.5,0.06 8.23,0.09 1.75,0.02 3.49,0.04 5.24,0.06 0.86,0.02 1.72,0.05 2.58,0.05 1.49,0.02 2.98,0.06 4.46,0.08 0.37,0.02 0.75,0.02 1.12,0.05 0.67,0 1.29,0.04 1.94,0.06 1.12,0.02 2.24,0.06 3.36,0.13 1.05,0.04 2.09,0.11 3.15,0.17 1.07,0.07 2.15,0.13 3.23,0.19 0.36,0.05 0.73,0.07 1.1,0.09l0 0.02 0 -0.02c1.2,0.09 2.39,0.22 3.57,0.35 0.26,0.02 0.5,0.04 0.73,0.06 1.55,0.17 3.11,0.35 4.61,0.58 0.18,0.02 0.35,0.07 0.54,0.11 2.26,0.32 4.48,0.71 6.66,1.19 0.04,0.01 0.13,0.01 0.19,0.04 0.05,0.02 0.15,0.04 0.22,0.06 0.08,0.02 0.19,0.05 0.3,0.09 0.15,0.02 0.3,0.09 0.47,0.13 0.11,0.04 0.24,0.06 0.39,0.11 0.17,0.06 0.39,0.12 0.6,0.19 0.16,0.04 0.33,0.11 0.48,0.15 0.23,0.09 0.51,0.15 0.77,0.26 0.18,0.04 0.33,0.08 0.5,0.15 0.3,0.09 0.6,0.19 0.92,0.3 0.2,0.04 0.37,0.11 0.57,0.17 0.32,0.11 0.66,0.24 1.03,0.35 0.19,0.06 0.39,0.13 0.58,0.21 0.39,0.13 0.75,0.26 1.14,0.39 0.22,0.07 0.43,0.13 0.65,0.22 0.37,0.13 0.75,0.28 1.14,0.4 0.26,0.09 0.5,0.18 0.76,0.27 0.36,0.12 0.73,0.25 1.09,0.38 0.31,0.11 0.61,0.22 0.91,0.34 0.34,0.14 0.71,0.27 1.07,0.39 0.31,0.11 0.63,0.24 0.95,0.35 0.37,0.13 0.73,0.28 1.1,0.41 0.33,0.13 0.65,0.26 0.99,0.36 0.37,0.16 0.73,0.3 1.1,0.44 0.32,0.12 0.65,0.25 0.97,0.38 0.37,0.13 0.73,0.28 1.12,0.41 0.32,0.15 0.65,0.28 0.97,0.41 0.37,0.13 0.73,0.3 1.1,0.43 0.32,0.13 0.64,0.28 0.95,0.41 0.41,0.15 0.77,0.32 1.16,0.48 0.28,0.12 0.56,0.23 0.84,0.36 0.65,0.28 1.29,0.54 1.92,0.84 0.92,0.39 1.81,0.8 2.64,1.21l-1.29 147.67c-0.84,-0.39 -1.72,-0.8 -2.64,-1.21 -0.63,-0.28 -1.28,-0.56 -1.92,-0.84 -0.22,-0.11 -0.43,-0.17 -0.65,-0.26 -0.45,-0.21 -0.91,-0.39 -1.36,-0.58 -0.26,-0.11 -0.54,-0.21 -0.79,-0.32 -0.41,-0.18 -0.84,-0.35 -1.25,-0.52 -0.3,-0.11 -0.61,-0.23 -0.89,-0.34 -0.4,-0.16 -0.79,-0.33 -1.2,-0.48 -0.3,-0.13 -0.63,-0.23 -0.93,-0.34 -0.39,-0.17 -0.77,-0.3 -1.16,-0.46 -0.33,-0.12 -0.65,-0.25 -0.97,-0.36 -0.37,-0.13 -0.73,-0.28 -1.1,-0.43 -0.32,-0.11 -0.62,-0.22 -0.93,-0.35 -0.38,-0.13 -0.75,-0.25 -1.12,-0.38 -0.3,-0.11 -0.6,-0.22 -0.88,-0.33 -0.37,-0.13 -0.73,-0.25 -1.08,-0.39 -0.32,-0.1 -0.64,-0.23 -0.95,-0.34 -0.3,-0.09 -0.6,-0.19 -0.9,-0.3 -0.32,-0.13 -0.62,-0.24 -0.95,-0.32 -0.28,-0.11 -0.56,-0.2 -0.84,-0.31 -0.28,-0.1 -0.56,-0.17 -0.81,-0.28 -0.29,-0.08 -0.57,-0.19 -0.82,-0.26 -0.26,-0.1 -0.5,-0.17 -0.74,-0.25 -0.26,-0.09 -0.51,-0.15 -0.75,-0.24 -0.22,-0.06 -0.43,-0.15 -0.65,-0.22 -0.21,-0.06 -0.43,-0.12 -0.62,-0.19 -0.22,-0.07 -0.41,-0.13 -0.58,-0.17 -0.18,-0.07 -0.37,-0.13 -0.52,-0.18 -0.17,-0.04 -0.3,-0.08 -0.45,-0.12 -0.15,-0.05 -0.3,-0.09 -0.43,-0.13 -0.11,-0.03 -0.22,-0.05 -0.31,-0.07 -0.15,-0.04 -0.32,-0.08 -0.4,-0.11 -2.18,-0.49 -4.42,-0.86 -6.68,-1.2 -1.68,-0.26 -3.39,-0.5 -5.11,-0.67 -0.28,-0.02 -0.58,-0.06 -0.86,-0.09 -1.51,-0.15 -3.04,-0.3 -4.59,-0.41 -1.05,-0.06 -2.13,-0.15 -3.21,-0.21 -1.05,-0.06 -2.09,-0.11 -3.16,-0.17 -1.08,-0.04 -2.2,-0.09 -3.3,-0.13 -1.06,-0.02 -2.09,-0.07 -3.14,-0.09 -1.45,-0.04 -2.89,-0.06 -4.34,-0.09 -0.9,-0.01 -1.8,-0.04 -2.71,-0.06 -1.72,0 -3.45,-0.02 -5.17,-0.04 -2.26,-0.02 -4.52,-0.04 -6.79,-0.09 -0.55,0 -1.12,0 -1.7,0 -2.28,-0.04 -4.58,-0.08 -6.85,-0.15 -0.13,0 -0.23,0 -0.34,0l0 -0.02 0 0.02c-0.95,-0.02 -1.9,-0.09 -2.83,-0.11 -1.14,-0.04 -2.25,-0.08 -3.4,-0.12 -1.01,-0.05 -2.02,-0.14 -3.03,-0.2 -1.15,-0.06 -2.27,-0.13 -3.39,-0.22 -0.1,0 -0.23,0 -0.36,-0.02 -1.73,-0.15 -3.45,-0.32 -5.15,-0.51 -0.43,-0.05 -0.86,-0.11 -1.27,-0.16 -0.86,-0.12 -1.73,-0.21 -2.57,-0.32l0 -0.04 0 0.04c-0.56,-0.08 -1.07,-0.19 -1.63,-0.28 -0.58,-0.08 -1.17,-0.19 -1.73,-0.3 -1.46,-0.24 -2.88,-0.54 -4.31,-0.86 -0.34,-0.07 -0.69,-0.13 -1.03,-0.22 -0.09,-0.02 -0.19,-0.04 -0.28,-0.04 -1.18,-0.3 -2.3,-0.65 -3.44,-0.97 -0.59,-0.17 -1.19,-0.32 -1.77,-0.49 -1.79,-0.58 -3.54,-1.21 -5.21,-1.92 -0.89,-0.39 -1.73,-0.8 -2.55,-1.21 -0.28,-0.15 -0.54,-0.32 -0.82,-0.45 -0.51,-0.28 -1.03,-0.56 -1.52,-0.84 -0.05,-0.04 -0.13,-0.07 -0.18,-0.11 -0.19,-0.13 -0.36,-0.24 -0.53,-0.36 -0.59,-0.33 -1.13,-0.69 -1.64,-1.04 -0.28,-0.19 -0.54,-0.38 -0.8,-0.58 -0.47,-0.34 -0.95,-0.69 -1.38,-1.05 -0.15,-0.11 -0.32,-0.22 -0.47,-0.35l0 -0.02 0 0.02c-0.11,-0.08 -0.22,-0.19 -0.33,-0.28 -0.25,-0.22 -0.49,-0.45 -0.75,-0.67 -0.28,-0.28 -0.58,-0.54 -0.86,-0.82 -0.24,-0.21 -0.47,-0.45 -0.69,-0.69 -0.15,-0.15 -0.3,-0.3 -0.45,-0.45 -0.07,-0.08 -0.11,-0.15 -0.18,-0.21 -0.73,-0.82 -1.4,-1.66 -2,-2.5 -0.04,-0.07 -0.09,-0.11 -0.13,-0.15 -0.06,-0.09 -0.11,-0.2 -0.15,-0.28 -0.63,-0.89 -1.16,-1.77 -1.64,-2.7 0,0 -0.02,0 -0.02,-0.02 0,-0.02 -0.02,-0.04 -0.02,-0.06 -0.48,-0.95 -0.88,-1.94 -1.23,-2.93 -0.04,-0.09 -0.08,-0.17 -0.11,-0.26l0 -0.04 0 0.04c-0.02,-0.06 -0.04,-0.13 -0.06,-0.19 -0.09,-0.26 -0.15,-0.52 -0.24,-0.8 -0.08,-0.35 -0.19,-0.69 -0.27,-1.06z"/>
   <polygon class="fil38" points="2008.62,2392.45 2007.33,2540.12 2642.29,2807.33 2643.59,2659.64 "/>
   <polygon class="fil37" points="2643.59,2659.64 2642.29,2807.33 3137.61,2473.09 3138.92,2325.39 "/>
   <path class="fil39" d="M3138.92 2325.39l-262.7 -110.53c-8.94,5.26 -19.48,14.27 -20.51,15.6 -12.28,16.16 3.55,38.22 -17.04,52.11 -25.38,17.11 -87.76,13.38 -139.38,-8.34 -1.44,-0.62 -2.88,-1.22 -4.28,-1.87 -48.49,-21.61 -67.9,-51.81 -43.28,-68.44 15.77,-10.64 42.93,-9.95 65.03,-14.02 11.46,-2.11 23.25,-5.26 32.47,-9.48 2,-0.9 11.91,-6.63 17.7,-11.55l-262.98 -110.66 -205.16 138.45c-4.24,-1.44 -8.81,-3.32 -12.69,-5.06 -4.63,-2.05 -8.29,-3.9 -9.24,-4.5 -8.04,-4.96 -14.09,-11.25 -18.2,-17.34 -7.8,-11.62 -7.03,-25.77 -26.2,-34.32 -33.5,-14.11 -92.46,-3.17 -132.74,24.02 -39.83,26.86 -46.4,59.54 -15.12,73.48 27.48,11.59 68.8,3.42 99.35,10.15 2.3,0.51 16.82,5.36 26.95,9.88 0.92,0.39 1.81,0.8 2.64,1.21l-204.92 138.27 634.97 267.19 495.33 -334.25z"/>
   <path class="fil0" d="M3505.77 3865.94c0,89.14 -162.41,161.37 -362.7,161.37 -200.29,0 -362.67,-72.23 -362.67,-161.37 0,-89.12 162.38,-161.37 362.67,-161.37 200.29,0 362.7,72.25 362.7,161.37z"/>
   <path class="fil3" d="M2959.26 3861.03c0,0 -38.47,-7.05 -27.66,24.34 0,0 89.82,38.58 152.57,29.88 0,0 44.07,-1.49 37.15,-49.31l0.75 -38.88 -59.15 11.22 3.37 36.92 -107.03 -14.17z"/>
   <path class="fil40" d="M3121.32 3865.94c0.03,6.14 -1.87,12.02 -5.89,16.67 -15.49,17.84 -45.93,18.38 -67.34,17.02 -33.9,-2.16 -69.2,-7.3 -102.44,-14.32 -7.33,-1.56 -9.38,-3.95 -9.44,-6.1 3.83,-8.58 10.71,-15.97 23.05,-18.18l-32.76 -4.2c-30.23,-1.08 -43.93,5.86 -50.99,10.42 -8.36,23.91 32.35,39.88 32.35,39.88 0,0 43.26,16.37 95.36,26.6 0,0 114.98,27.12 128.88,-8.25l-10.78 -59.54z"/>
   <path class="fil3" d="M3187.63 3807.58c0,0 -38.49,-7.02 -27.64,24.34 0,0 89.8,38.58 152.53,29.9 0,0 44.09,-1.48 37.2,-49.33l0.72 -38.86 -59.14 11.18 3.36 36.94 -107.03 -14.17z"/>
   <path class="fil40" d="M3349.72 3812.49c0.03,6.16 -1.9,12.04 -5.92,16.67 -15.46,17.86 -45.9,18.4 -67.31,17.02 -33.93,-2.15 -69.23,-7.28 -102.45,-14.32 -7.32,-1.55 -9.38,-3.94 -9.47,-6.1 3.83,-8.55 10.75,-15.94 23.06,-18.18l-32.75 -4.18c-30.23,-1.08 -43.94,5.84 -50.98,10.41 -8.35,23.91 32.34,39.85 32.34,39.85 0,0 43.25,16.39 95.38,26.65 0,0 114.95,27.09 128.85,-8.25l-10.75 -59.57z"/>
   <path class="fil41" d="M3176.97 2769.44c0,60.59 49.14,109.77 109.78,109.77 60.63,0 109.77,-49.18 109.77,-109.77 0,-60.64 -49.14,-109.8 -109.77,-109.8 -60.64,0 -109.78,49.16 -109.78,109.8z"/>
   <path class="fil41" d="M3355.86 3297.9c0,0 -1.56,27.6 -51.1,28.29 0,0 -46.96,16 -67.22,-45.11 -79.83,-240.67 -58.73,-491.8 -58.73,-491.8 0,0 112.73,-62.8 217.71,-19.84 0,0 -16.95,315.89 -40.66,528.46z"/>
   <path class="fil41" d="M3237.54 3281.08c0,0 38.67,520.15 42.29,538.74 37.73,23.95 71.07,-0.67 71.07,-0.67 -0.18,-25.51 27.64,-238.21 30.48,-278.15 4.95,-68.65 13.21,-155.38 -30.19,-254.04l-113.65 -5.88z"/>
   <path class="fil42" d="M3037.68 3313.78c0,0 -10.59,25.52 -57.58,9.74 0,0 -49.6,-0.44 -48.48,-64.8 4.4,-253.53 115.47,-516.28 115.47,-516.28 0,0 125.14,-11.95 210.02,63.36 0,0 -126.63,315.24 -219.43,507.98z"/>
   <path class="fil42" d="M3049.93 2733.05c-20.1,57.22 10,119.86 67.21,139.96 57.18,20.08 119.84,-10 139.97,-67.21 20.07,-57.19 -10.03,-119.86 -67.24,-139.94 -57.21,-20.09 -119.87,10 -139.94,67.19z"/>
   <path class="fil42" d="M3396.52 2753.45c-13.24,-122.08 -74.5,-178.73 -74.5,-178.73l-212.2 -26.8c0,0 -58.52,101.79 -64.6,205.53 25.34,69.2 115.76,89.36 115.76,89.36l68.65 20.38c0,0 155.58,-23.65 166.89,-109.74z"/>
   <path class="fil42" d="M2941.42 3309.21c0,0 105.27,546.41 111.59,564.25 -2.77,-1.34 49.74,24.12 73.01,-8.75 -3.95,-25.2 -6.2,-302.75 -9.25,-342.69 -5.3,-68.63 -4.55,-132.67 -62.07,-223.82 0,0 -143.69,-102.86 -113.28,11.01z"/>
   <path class="fil3" d="M3412.23 2352.49c0,0 -38.64,45.52 -115.54,155.43l13.3 22.51c0,0 131.68,-66.33 173.69,-140.8l-71.45 -37.14z"/>
   <path class="fil3" d="M3303.39 2189.62c0,0 99.15,216.3 158.66,208.07 0,0 20.54,1.29 24.65,-14.2 0,0 42.07,-37.28 -132.77,-306.26 0,0 -17.08,-22.84 -52.07,-16.93 0,0 -53.1,35.07 1.53,129.32z"/>
   <polygon class="fil43" points="3143.07,2134.19 3250.24,2134.19 3250.24,2020.29 3143.07,2020.29 "/>
   <path class="fil5" d="M3076.79 2022.88l-4.02 -18.21c0,0 -8.01,-66.69 -8.01,-66.7 -1.03,-8.38 0.81,-19.11 3.96,-27.09 3.4,-8.69 6.29,-17.88 5.45,-27.71 -4.02,-47.7 26.71,-69.71 26.71,-69.71 36.58,-38.81 107.03,-29.52 107.06,-29.52 36.4,6.93 67.62,22.33 84.01,53.63 14.86,28.38 21.78,62.42 10.03,92.66 -12.83,33.15 -35.33,58.41 -64.4,80.9 -18.58,14.38 -36.74,15.35 -60.33,21.82 -16.39,4.5 -47.36,6.04 -64.47,5.27 -8.94,-0.43 -33.68,-4.88 -35.99,-15.34z"/>
   <path class="fil44" d="M3125.59 1961.15c5.29,-7.5 24.52,-12.13 24.55,-12.13 23.28,0 20.22,31.05 22.4,44.5 0.75,4.38 1.59,8.88 2.56,13.36 11.09,39.47 44.28,39.13 72.63,43.9 1.06,-0.61 2.15,-1.24 3.31,-1.87 5.14,-17.5 21.47,-35.69 21.47,-35.69 42.59,-36.81 56.46,-102.97 40.25,-155.04 -4.89,-15.74 -15.36,-32.47 -26.54,-44.45 -23.84,-25.5 -54.88,-39.13 -88.03,-45.38 -32.97,-6.2 -150.91,9.79 -118.72,81.42 0,0 48.52,55.99 46.12,111.38z"/>
   <path class="fil45" d="M3125.59 1961.15c4.2,-10.64 14.58,-18.84 26.26,-15.36 8.57,2.57 13.68,10.12 12.84,18.93 -0.18,1.92 -0.62,3.81 -0.78,5.72 -3.39,20.43 -24.92,28.22 -24.92,28.22l-13.4 -37.51z"/>
   <path class="fil46" d="M3149.67 1955.44c-1.18,-0.85 -3.67,-1.3 -5.17,-1.4 -7.82,-0.5 -14.11,11.55 -6.29,13.7 2.93,2.87 -0.1,6.18 -0.1,6.18 -2.71,2.92 -6.32,7.12 -5.51,11.24 0.5,2.44 3.21,3.75 5.64,4.35 1.99,0.49 2.37,-1.04 0.81,-1.78 -1.19,-0.57 -2.18,-1.47 -2.96,-2.44 -0.06,-0.14 -0.16,-0.27 -0.25,-0.42 -0.1,-0.07 -0.13,-0.19 -0.19,-0.31 -0.25,-0.58 -0.25,-1.18 -0.06,-1.79 1.74,1.25 4.67,1.54 6.04,-0.06 1.5,-1.79 0.38,-4.58 0.88,-6.62 0.34,-1.41 1.02,-2.76 1.8,-4.03 3.56,-5.97 -2.86,-6.98 -2.86,-6.98 -1,0.01 -1.75,0.08 -2.4,0.17 -3.27,-1.7 0.37,-6.62 2.4,-7.4 2.3,-0.91 5.14,-0.59 6.79,1.19 1.65,1.81 2.34,4.61 2.18,6.9 -0.19,2.83 -0.9,5.66 -2.12,8.27 -0.71,1.47 -1.62,3.2 -2.34,4.68 -0.81,1.67 1.16,2.41 1.97,0.72 1.68,-3.53 4.89,-8.71 5.58,-13.6 0.53,-4.06 -0.19,-7.95 -3.84,-10.57z"/>
   <path class="fil46" d="M3125.59 1961.15c0,0 0.93,-1.33 2.46,-3.75 0.71,-1.25 2.02,-2.32 3.24,-3.74 1.15,-1.28 3.21,-2.75 4.92,-3.84 2.03,-1.02 4.21,-2.1 6.7,-2.42 2.46,-0.31 5.05,-0.31 7.64,0.53 0.84,0.21 2.83,1.05 3.86,1.64 1.03,0.65 2.06,1.38 3.08,2.36 1.91,1.88 3.4,4.25 4.06,6.94 0.65,2.72 0.68,5.29 0.15,8.62l-0.31 2.35 -0.03 0.3 0 0.04c0,-0.14 -0.06,0.34 0.06,-0.29l-0.03 0.07 -0.03 0.14 -0.1 0.58 -0.24 1.15c-0.22,1.62 -0.72,2.85 -1.13,4.13 -0.9,2.56 -2.15,5.08 -3.61,7.23 -1.43,2.21 -3.09,4.1 -4.71,5.82 -3.27,3.34 -6.45,5.81 -8.78,7.32 -2.37,1.54 -3.8,2.33 -3.8,2.33 0,0 1.58,-0.32 4.26,-1.4 2.59,-1.14 6.45,-2.82 10.41,-5.96 1.93,-1.59 4.05,-3.4 5.83,-5.72 1.9,-2.26 3.58,-4.89 4.86,-7.96 0.62,-1.58 1.25,-3.23 1.53,-4.69l0.31 -1.12 0.15 -0.58 0.03 -0.15 0.07 -0.45 0.06 -0.31 0.37 -2.35c0.56,-2.92 0.75,-6.91 -0.12,-10.49 -0.97,-3.61 -3.09,-6.86 -5.73,-9.35 -0.72,-0.59 -1.38,-1.21 -2.12,-1.72l-2.47 -1.38c-1.74,-0.8 -2.64,-1.16 -4.7,-1.67 -3.3,-0.9 -6.7,-0.56 -9.66,0.13 -3.05,0.7 -5.48,2.3 -7.6,3.8 -2.12,1.78 -3.49,3.22 -4.71,5.1 -1.06,1.8 -2.18,3.21 -2.65,4.55 -0.99,2.65 -1.52,4.21 -1.52,4.21z"/>
   <path class="fil14" d="M3138.99 1993.67c0,3.56 -2.9,6.47 -6.52,6.47 -3.58,0 -6.48,-2.91 -6.48,-6.47 0,-3.59 2.9,-6.5 6.48,-6.5 3.62,0 6.52,2.91 6.52,6.5z"/>
   <path class="fil47" d="M3134.06 1997.13c-2.87,0 -5.14,-2.3 -5.14,-5.15 0,-2.28 1.5,-4.14 3.55,-4.81l0 0c-3.58,0 -6.48,2.91 -6.48,6.5 0,3.56 2.9,6.47 6.48,6.47 3.62,0 6.52,-2.91 6.52,-6.47 0,-0.16 -0.04,-0.32 -0.04,-0.47 -0.56,2.23 -2.52,3.93 -4.89,3.93z"/>
   <path class="fil40" d="M3422.32 2625.62c-0.43,-0.6 -118.31,-169.75 -118.31,-169.75 -5.52,-24.94 6.92,-74.57 6.92,-74.57l37.82 -260.12c-4.48,-29.79 -6.54,-67.65 -46.89,-60.88 -28.45,4.76 -34.09,8.75 -51.6,14.39 5.11,24.15 -36.58,39.66 -36.58,39.66 -57.34,24.77 -70.61,8.47 -70.61,8.47 -15.27,8.25 -66.87,34.03 -80.27,45.06 -13.93,11.44 -22.34,29.28 -17.95,59.29l41.26 246.54 -7.26 61.25 -75.38 191.16c23.31,-8.36 48.8,-11.74 73.44,-8.77 23.44,2.8 43.66,16.63 66.94,19.21 35.21,3.88 61.32,-8.83 87.87,-25.65 32.28,-6.96 66.84,-18.16 101.67,-35.74 0.75,0 1.47,-0.02 2.21,-0.02 26.34,0.15 56.12,-0.3 75.57,-20.92 4.08,-4.33 16.14,-21.45 11.15,-28.61z"/>
   <path class="fil5" d="M3014.06 2562.53l0.69 -299.5c7.29,-82.05 48.05,-95.15 48.05,-95.15 82.39,-9.67 69.67,143 69.67,143l-34.37 258 -84.04 -6.35z"/>
   <path class="fil5" d="M2751.83 2726.27c37.79,-20.23 41.17,-26.76 47.83,-36.26 28.73,-40.82 -29.34,-39.53 -43.95,-36.21 -8.4,1.92 -8.92,21.86 -34.94,46.21 0,0 -40.91,23.74 -50.97,22.06 0,0 -10.49,1.51 -10.49,9.04 0,0 28.72,16.98 92.52,-4.84z"/>
   <path class="fil5" d="M3020.27 2530.97l-256.52 140.39c-11.1,30.87 3.16,35.31 3.16,35.31l198.6 -57.13c84.76,-22.71 118.38,-58.3 118.38,-58.3 0,0 37.05,-25.67 -10.25,-63.93 0,0 -21.53,-17.04 -53.37,3.66z"/>
   <path class="fil44" d="M3102.81 1942.82c6.67,49.66 -0.84,115.4 23.93,169.7 11,24.15 23.15,36.13 16.55,64.17 -5.4,22.95 -16.27,44.59 -22.13,68.36 -12.99,52.43 4.68,103.65 65.78,84.68 29.29,-9.12 32.56,-8.97 59.27,1.37 22.4,8.68 43.47,11.12 65.74,0.28 34.56,-16.84 24.15,-42.26 43.5,-67.74 14.74,-19.41 35.59,-18.92 46.71,-45.01 13.43,-31.49 -2.55,-48.29 -18.88,-75 -17.04,-27.84 -19.76,-46.15 -14.18,-79.71 4.74,-28.19 -2.24,-42.44 -11.59,-68.37 -9.53,-26.55 -5.36,-49.69 -9.91,-76.33 -8.97,-52.66 -37.73,-124.13 -92.92,-139.58 -27.04,-7.58 -61.98,-13.49 -87.99,-3.94 -35.43,12.99 -74.88,26.84 -73.35,70.41 1.55,44.83 3.58,52.46 9.47,96.71z"/>
   <path class="fil5" d="M2762.56 2652.76c0,0 7.2,21.03 -18.98,15.88l-25.63 -19.51c0,0 -7.95,-4.25 -5.13,-11.87 0,0 3.06,-4.33 11.25,-0.03l38.49 15.53z"/>
   <path class="fil48" d="M3344.83 305.19c0,48.93 -39.64,88.59 -88.56,88.59 -48.92,0 -88.59,-39.66 -88.59,-88.59 0,-48.92 39.67,-88.55 88.59,-88.55 48.92,0 88.56,39.63 88.56,88.55z"/>
   <path class="fil48" d="M582.74 4027.31c0,48.9 -39.65,88.55 -88.56,88.55 -48.92,0 -88.58,-39.65 -88.58,-88.55 0,-48.92 39.66,-88.58 88.58,-88.58 48.91,0 88.56,39.66 88.56,88.58z"/>
   <path class="fil49" d="M494.18 979.22c0,35.02 -28.4,63.41 -63.4,63.41 -35.01,0 -63.39,-28.39 -63.39,-63.41 0,-35 28.38,-63.35 63.39,-63.35 35,0 63.4,28.35 63.4,63.35z"/>
   <path class="fil49" d="M4146.42 1455.09c0,35 -28.39,63.38 -63.38,63.38 -35.02,0 -63.38,-28.38 -63.38,-63.38 0,-35.01 28.36,-63.39 63.38,-63.39 34.99,0 63.38,28.38 63.38,63.39z"/>
   <path class="fil50" d="M2393.03 843.67c0,34.99 -28.39,63.41 -63.4,63.41 -35,0 -63.39,-28.42 -63.39,-63.41 0,-35.02 28.39,-63.38 63.39,-63.38 35.01,0 63.4,28.36 63.4,63.38z"/>
   <path class="fil51" d="M227.26 2311.39c0,35.01 -28.37,63.4 -63.39,63.4 -35,0 -63.38,-28.39 -63.38,-63.4 0,-35 28.38,-63.37 63.38,-63.37 35.02,0 63.39,28.37 63.39,63.37z"/>
   <path class="fil51" d="M4197.21 2728.29c0,35.01 -28.39,63.38 -63.41,63.38 -34.99,0 -63.38,-28.37 -63.38,-63.38 0,-35 28.39,-63.39 63.38,-63.39 35.02,0 63.41,28.39 63.41,63.39z"/>
   <path class="fil35" d="M1917.42 180.83c0,35.03 -28.38,63.41 -63.38,63.41 -35.02,0 -63.39,-28.38 -63.39,-63.41 0,-34.99 28.37,-63.38 63.39,-63.38 35,0 63.38,28.39 63.38,63.38z"/>
   <path class="fil35" d="M3904.24 3711.59c0,35.03 -28.38,63.4 -63.38,63.4 -35.02,0 -63.37,-28.37 -63.37,-63.4 0,-34.98 28.35,-63.37 63.37,-63.37 35,0 63.38,28.39 63.38,63.37z"/>
   <g>
    <polygon class="fil52" points="198.74,2819.27 -0.01,2819.27 -0.01,2792.41 198.74,2792.41 "/>
   </g>
   <g>
    <polygon class="fil52" points="327.76,2819.27 228.37,2819.27 228.37,2792.41 327.76,2792.41 "/>
   </g>
   <g>
    <polygon class="fil52" points="4083.04,3244.52 3851.52,3244.52 3851.52,3215.52 4083.04,3215.52 "/>
   </g>
   <g>
    <polygon class="fil52" points="4233.33,3244.52 4117.57,3244.52 4117.57,3215.52 4233.33,3215.52 "/>
   </g>
   <g>
    <polygon class="fil52" points="1786.17,3971.16 1984.94,3971.16 1984.94,3998.02 1786.17,3998.02 "/>
   </g>
   <g>
    <polygon class="fil52" points="1657.18,3971.16 1756.56,3971.16 1756.56,3998.02 1657.18,3998.02 "/>
   </g>
   <g>
    <polygon class="fil52" points="3747.29,559.58 3663.88,559.58 3663.88,532.72 3747.29,532.72 "/>
   </g>
   <g>
    <polygon class="fil52" points="3840.86,559.58 3768.76,559.58 3768.76,532.72 3840.86,532.72 "/>
   </g>
   <g>
    <polygon class="fil52" points="3639.13,559.58 3567.06,559.58 3567.06,532.72 3639.13,532.72 "/>
   </g>
   <g>
    <polygon class="fil52" points="4229.46,1962.16 3936.59,1962.16 3936.59,1935.3 4229.46,1935.3 "/>
   </g>
   <g>
    <polygon class="fil52" points="2434.39,498.43 2406.69,470.7 2425.69,451.72 2453.39,479.45 "/>
   </g>
   <g>
    <polygon class="fil52" points="2481.63,545.68 2453.93,517.98 2472.93,498.98 2500.63,526.68 "/>
   </g>
   <g>
    <polygon class="fil52" points="2453.93,479.45 2481.63,451.72 2500.63,470.7 2472.93,498.43 "/>
   </g>
   <g>
    <polygon class="fil52" points="2406.69,526.68 2434.39,498.98 2453.39,517.98 2425.69,545.68 "/>
   </g>
   <g>
    <polygon class="fil52" points="107.12,1431.18 79.41,1403.48 98.41,1384.48 126.12,1412.18 "/>
   </g>
   <g>
    <polygon class="fil52" points="154.38,1478.44 126.67,1450.73 145.67,1431.73 173.38,1459.44 "/>
   </g>
   <g>
    <polygon class="fil52" points="126.67,1412.18 154.38,1384.48 173.38,1403.48 145.67,1431.18 "/>
   </g>
   <g>
    <polygon class="fil52" points="79.41,1459.44 107.12,1431.73 126.12,1450.73 98.41,1478.44 "/>
   </g>
   <g>
    <polygon class="fil52" points="2194.27,3159.17 2166.57,3131.45 2185.57,3112.45 2213.27,3140.17 "/>
   </g>
   <g>
    <polygon class="fil52" points="2241.53,3206.41 2213.83,3178.71 2232.83,3159.71 2260.53,3187.41 "/>
   </g>
   <g>
    <polygon class="fil52" points="2213.83,3140.17 2241.53,3112.45 2260.53,3131.45 2232.83,3159.17 "/>
   </g>
   <g>
    <polygon class="fil52" points="2166.57,3187.41 2194.27,3159.71 2213.27,3178.71 2185.57,3206.41 "/>
   </g>
   <g>
    <path class="fil52" d="M817.89 898.92l0 -26.86 0 0 1.08 -0.03 1.05 -0.08 1.08 -0.14 1.06 -0.19 0.98 -0.22 0.97 -0.28 1.02 -0.34 0.93 -0.37 0.91 -0.41 0.91 -0.47 0.87 -0.5 0.85 -0.54 0.83 -0.59 0.78 -0.61 0.75 -0.66 0.75 -0.72 0.7 -0.73 0.65 -0.75 0.63 -0.8 0.59 -0.83 0.54 -0.85 0.5 -0.87 0.47 -0.91 0.41 -0.91 0.37 -0.93 0.34 -1.02 0.28 -0.97 0.22 -0.98 0.19 -1.06 0.14 -1.08 0.08 -1.05 0.03 -1.08 26.86 0 -0.05 2.46 -0.2 2.45 -0.3 2.36 -0.41 2.32 -0.54 2.36 -0.66 2.29 -0.74 2.18 -0.85 2.19 -0.97 2.13 -1.05 2.07 -1.16 2.01 -1.24 1.93 -1.33 1.87 -1.41 1.8 -1.51 1.75 -1.58 1.65 -1.63 1.56 -1.75 1.52 -1.82 1.43 -1.87 1.33 -1.93 1.24 -2.01 1.16 -2.07 1.05 -2.13 0.97 -2.19 0.85 -2.18 0.74 -2.29 0.66 -2.36 0.54 -2.32 0.41 -2.36 0.3 -2.45 0.2 -2.46 0.05 0 0zm-47.82 -47.83l26.86 0 0 0 0.03 1.08 0.08 1.05 0.14 1.08 0.19 1.06 0.22 0.98 0.28 0.97 0.34 1.02 0.37 0.93 0.41 0.91 0.47 0.91 0.5 0.87 0.54 0.85 0.59 0.83 0.63 0.8 0.65 0.75 0.68 0.71 0.76 0.72 0.77 0.68 0.8 0.62 0.8 0.58 0.84 0.53 0.9 0.52 0.89 0.46 0.91 0.41 0.96 0.37 0.99 0.34 0.98 0.28 0.98 0.22 1.05 0.19 1.08 0.14 1.05 0.08 1.08 0.03 0 26.86 -2.46 -0.05 -2.45 -0.2 -2.36 -0.3 -2.33 -0.41 -2.34 -0.54 -2.3 -0.66 -2.19 -0.74 -2.16 -0.85 -2.15 -0.97 -2.07 -1.06 -1.98 -1.14 -1.96 -1.25 -1.88 -1.34 -1.8 -1.42 -1.73 -1.5 -1.64 -1.56 -1.6 -1.67 -1.51 -1.75 -1.41 -1.8 -1.33 -1.87 -1.24 -1.93 -1.16 -2.01 -1.05 -2.07 -0.97 -2.13 -0.85 -2.19 -0.74 -2.18 -0.66 -2.29 -0.54 -2.36 -0.41 -2.32 -0.3 -2.36 -0.2 -2.45 -0.05 -2.46 0 0zm47.82 -47.83l0 26.86 0 0 -1.08 0.03 -1.05 0.08 -1.08 0.14 -1.05 0.19 -0.98 0.22 -0.98 0.28 -0.96 0.33 -0.96 0.38 -0.94 0.42 -0.92 0.48 -0.87 0.49 -0.81 0.53 -0.83 0.59 -0.82 0.64 -0.77 0.67 -0.72 0.68 -0.68 0.72 -0.67 0.77 -0.64 0.82 -0.58 0.8 -0.53 0.84 -0.52 0.9 -0.46 0.89 -0.41 0.91 -0.37 0.94 -0.34 1.02 -0.28 0.98 -0.22 0.96 -0.19 1.06 -0.14 1.09 -0.08 1.04 -0.03 1.08 -26.86 0 0.05 -2.46 0.2 -2.44 0.3 -2.35 0.41 -2.34 0.54 -2.36 0.66 -2.28 0.74 -2.18 0.85 -2.18 0.97 -2.15 1.06 -2.07 1.14 -1.98 1.25 -1.96 1.34 -1.88 1.4 -1.78 1.49 -1.73 1.6 -1.68 1.68 -1.6 1.73 -1.49 1.78 -1.4 1.85 -1.33 1.99 -1.27 2.01 -1.15 2.04 -1.04 2.12 -0.96 2.16 -0.86 2.22 -0.75 2.3 -0.66 2.34 -0.54 2.33 -0.41 2.36 -0.3 2.45 -0.2 2.46 -0.05 0 0zm47.82 47.83l-26.86 0 0 0 -0.03 -1.08 -0.08 -1.04 -0.14 -1.09 -0.19 -1.06 -0.22 -0.96 -0.28 -0.98 -0.34 -1.02 -0.37 -0.94 -0.41 -0.91 -0.46 -0.89 -0.52 -0.9 -0.53 -0.84 -0.58 -0.8 -0.64 -0.82 -0.67 -0.77 -0.7 -0.74 -0.71 -0.68 -0.75 -0.65 -0.8 -0.63 -0.86 -0.6 -0.82 -0.54 -0.84 -0.48 -0.94 -0.48 -0.95 -0.43 -0.93 -0.37 -0.98 -0.33 -0.97 -0.28 -0.98 -0.22 -1.06 -0.19 -1.08 -0.14 -1.05 -0.08 -1.08 -0.03 0 -26.86 2.46 0.05 2.45 0.2 2.36 0.3 2.32 0.41 2.36 0.54 2.29 0.66 2.22 0.75 2.19 0.87 2.09 0.95 2.04 1.04 2.04 1.16 1.96 1.26 1.84 1.32 1.8 1.41 1.75 1.51 1.67 1.6 1.58 1.66 1.49 1.73 1.4 1.78 1.34 1.88 1.25 1.96 1.14 1.98 1.06 2.07 0.97 2.15 0.85 2.18 0.74 2.18 0.66 2.28 0.54 2.36 0.41 2.34 0.3 2.35 0.2 2.44 0.05 2.46 0 0z"/>
   </g>
   <g>
    <path class="fil52" d="M3087.48 1060.26l0 -26.86 0 0 1.08 -0.03 1.05 -0.08 1.08 -0.14 1.06 -0.19 0.98 -0.22 0.97 -0.28 1.02 -0.34 0.93 -0.37 0.91 -0.41 0.9 -0.46 0.87 -0.51 0.88 -0.56 0.79 -0.56 0.79 -0.62 0.77 -0.67 0.71 -0.68 0.72 -0.76 0.67 -0.76 0.61 -0.78 0.57 -0.81 0.55 -0.86 0.52 -0.9 0.44 -0.86 0.42 -0.94 0.39 -0.98 0.32 -0.94 0.27 -0.98 0.23 -1 0.19 -1.06 0.14 -1.09 0.08 -1.05 0.03 -1.08 26.86 0 -0.05 2.46 -0.2 2.45 -0.3 2.35 -0.41 2.34 -0.53 2.32 -0.65 2.28 -0.76 2.26 -0.85 2.14 -0.94 2.12 -1.08 2.1 -1.14 1.98 -1.23 1.94 -1.35 1.89 -1.43 1.82 -1.49 1.72 -1.56 1.64 -1.67 1.6 -1.73 1.49 -1.79 1.42 -1.91 1.36 -1.92 1.22 -1.99 1.15 -2.08 1.06 -2.13 0.97 -2.19 0.85 -2.18 0.74 -2.29 0.66 -2.36 0.54 -2.32 0.41 -2.36 0.3 -2.45 0.2 -2.46 0.05 0 0zm-47.8 -47.83l26.86 0 0 0 0.03 1.08 0.08 1.05 0.14 1.09 0.19 1.06 0.23 1 0.27 0.98 0.32 0.94 0.39 0.98 0.42 0.94 0.44 0.86 0.52 0.9 0.55 0.86 0.57 0.81 0.61 0.78 0.67 0.76 0.72 0.76 0.71 0.68 0.77 0.67 0.79 0.62 0.79 0.56 0.88 0.56 0.87 0.51 0.9 0.46 0.91 0.41 0.93 0.37 1.02 0.34 0.97 0.28 0.98 0.22 1.06 0.19 1.08 0.14 1.05 0.08 1.08 0.03 0 26.86 -2.46 -0.05 -2.45 -0.2 -2.36 -0.3 -2.32 -0.41 -2.36 -0.54 -2.29 -0.66 -2.18 -0.74 -2.19 -0.85 -2.13 -0.97 -2.08 -1.06 -1.99 -1.15 -1.92 -1.22 -1.91 -1.36 -1.79 -1.42 -1.73 -1.49 -1.67 -1.6 -1.56 -1.64 -1.49 -1.72 -1.43 -1.82 -1.35 -1.89 -1.23 -1.94 -1.14 -1.98 -1.08 -2.1 -0.94 -2.12 -0.85 -2.14 -0.76 -2.26 -0.65 -2.28 -0.53 -2.32 -0.41 -2.34 -0.3 -2.35 -0.2 -2.45 -0.05 -2.46 0 0zm47.8 -47.83l0 26.86 0 0 -1.08 0.03 -1.05 0.08 -1.08 0.14 -1.06 0.19 -0.98 0.22 -0.97 0.28 -1.02 0.34 -0.93 0.37 -0.91 0.41 -0.9 0.46 -0.87 0.51 -0.88 0.56 -0.79 0.56 -0.77 0.6 -0.79 0.7 -0.73 0.69 -0.68 0.72 -0.67 0.77 -0.63 0.8 -0.59 0.83 -0.54 0.85 -0.5 0.87 -0.45 0.88 -0.42 0.94 -0.39 0.97 -0.32 0.94 -0.27 0.97 -0.23 1.02 -0.19 1.06 -0.14 1.08 -0.08 1.05 -0.03 1.08 -26.86 0 0.05 -2.46 0.2 -2.45 0.3 -2.36 0.41 -2.32 0.53 -2.32 0.65 -2.29 0.76 -2.26 0.85 -2.15 0.94 -2.1 1.07 -2.1 1.16 -2.01 1.24 -1.93 1.33 -1.87 1.41 -1.8 1.49 -1.73 1.6 -1.68 1.65 -1.57 1.71 -1.48 1.81 -1.44 1.91 -1.36 1.92 -1.22 1.99 -1.15 2.08 -1.06 2.13 -0.97 2.19 -0.85 2.18 -0.74 2.29 -0.66 2.36 -0.54 2.32 -0.41 2.36 -0.3 2.45 -0.2 2.46 -0.05 0 0zm47.8 47.83l-26.86 0 0 0 -0.03 -1.08 -0.08 -1.05 -0.14 -1.08 -0.19 -1.06 -0.23 -1.02 -0.27 -0.97 -0.32 -0.94 -0.39 -0.97 -0.42 -0.94 -0.45 -0.88 -0.5 -0.87 -0.54 -0.85 -0.59 -0.83 -0.63 -0.8 -0.67 -0.77 -0.68 -0.72 -0.73 -0.69 -0.79 -0.7 -0.77 -0.6 -0.79 -0.56 -0.88 -0.56 -0.87 -0.51 -0.9 -0.46 -0.91 -0.41 -0.93 -0.37 -1.02 -0.34 -0.97 -0.28 -0.98 -0.22 -1.06 -0.19 -1.08 -0.14 -1.05 -0.08 -1.08 -0.03 0 -26.86 2.46 0.05 2.45 0.2 2.36 0.3 2.32 0.41 2.36 0.54 2.29 0.66 2.18 0.74 2.19 0.85 2.13 0.97 2.08 1.06 1.99 1.15 1.92 1.22 1.91 1.36 1.81 1.44 1.71 1.48 1.65 1.57 1.6 1.68 1.49 1.73 1.41 1.8 1.33 1.87 1.24 1.93 1.16 2.01 1.07 2.1 0.94 2.1 0.85 2.15 0.76 2.26 0.65 2.29 0.53 2.32 0.41 2.32 0.3 2.36 0.2 2.45 0.05 2.46 0 0z"/>
   </g>
  </g>
 </g>
</svg>
