<?xml version="1.0" encoding="UTF-8"?>
<!DOCTYPE svg PUBLIC "-//W3C//DTD SVG 1.1//EN" "http://www.w3.org/Graphics/SVG/1.1/DTD/svg11.dtd">
<!-- Creator: CorelDRAW -->
<svg xmlns="http://www.w3.org/2000/svg" xml:space="preserve" width="8.4666mm" height="8.4666mm" version="1.1" style="shape-rendering:geometricPrecision; text-rendering:geometricPrecision; image-rendering:optimizeQuality; fill-rule:evenodd; clip-rule:evenodd"
viewBox="0 0 846.66 846.66"
 xmlns:xlink="http://www.w3.org/1999/xlink"
 xmlns:xodm="http://www.corel.com/coreldraw/odm/2003">
 <defs>
  <style type="text/css">
   <![CDATA[
    .fil0 {fill:none}
    .fil1 {fill:#FF3366}
   ]]>
  </style>
 </defs>
 <g id="Capa_x0020_1">
  <metadata id="CorelCorpID_0Corel-Layer"/>
  <rect class="fil0" x="-0" y="-0.01" width="846.66" height="846.67"/>
  <g id="_2181119358016">
   <path class="fil1" d="M421.67 712.53l127.33 0 -67.79 64.49c-11.6,-17.32 -31.94,-32.66 -45.05,-47.55l-14.49 -16.94zm424.99 -202.72l0 16.82c-1.05,13.21 -4.61,26.52 -11,39.29 -17.05,34.07 -52.97,60.62 -96.48,60.62 -20.41,0 -30.86,-6.32 -46.31,-9.92l-12.74 10.41c-11.56,9.68 -27.82,29.57 -43.73,42.26l-143.95 138.85c-12.39,11.35 -21.59,-0.89 -26.54,-5.9 -7.19,-7.26 -14.89,-14.02 -21.49,-21.51l-265.39 -277.01c-3.87,-4.02 -6.82,-6.76 -10.78,-10.71l-74.39 -77.75c-3.67,-3.96 -6.89,-6.84 -10.77,-10.72l-43 -44.65c-6.8,-6.8 -40.1,-38.01 -40.1,-45.89 0,-14.4 27.76,-190.17 31.15,-213.6 3.05,-21.08 3.17,-15.87 -9.24,-28.25 -7.44,-7.42 -16.95,-13.02 -16.95,-24.39 0,-7.68 4.34,-11.33 10.03,-13.2 13.27,-4.34 21.46,12.19 36.55,26.16 6.62,6.12 10.2,3.57 18.35,2.39l145 -8.83c26.86,-2.1 53.78,-4.87 82.77,-4.87 2.57,0 43.24,42.39 48.39,47.52 5.05,5.03 6.66,8.37 11.52,13.29l173.64 180.25c8.31,8.4 15.62,15.56 24.01,23.94l103.42 108.24c4.04,4.83 7.68,6.97 11.09,12.07 18.3,-12.26 37.31,-24.81 67.8,-24.81 61.57,0 104.94,47.04 109.14,99.9zm-109.14 -70.13c45.28,0 79.38,33.33 79.38,81.03 0,63.91 -82.16,103.86 -133.56,52.53 -29.75,-29.71 -31.37,-78.82 -0.81,-109.18 14.4,-14.31 32.28,-24.38 54.99,-24.38zm-671.38 -95.92c4.49,-6.7 23.06,-24.65 29.76,-29.76l122.79 -118.65c6.11,-6.12 8.96,-8.55 15.63,-14.13 5.51,-4.61 10.58,-10.43 15.79,-15.64l31.4 -29.77c9.7,-8.54 21.39,-23.72 31.02,-30.17 4.4,2.95 6.4,7.23 10.31,11.19l179.45 186.01c7.59,7.55 13.92,13.93 21.5,21.49 3.94,3.95 7.18,6.65 10.58,10.92 12.68,15.9 32.66,32.25 42.26,43.73 4.21,5.03 5.18,6.75 9.99,11.51l63.26 65.72c-14.39,27.19 -22.14,41.59 -17.96,77.48 1.43,12.29 7.11,27.75 12.66,36.96 3.38,5.61 6.02,9.91 10,14.81 4.06,5 8.32,7.72 11.83,12.97 -5.32,7.95 -56.38,55.55 -67.38,66.56 -4.18,4.18 -7.28,7.73 -11.72,11.43 -8.09,6.75 -8.55,6.45 -16.69,6.46 -60.1,0.08 -120.25,-0.12 -180.37,-0.12 -2.19,-8.2 -29.93,-31.06 -40.08,-42.59 -3.84,-4.35 -4.66,-6.35 -9.09,-10.76l-31.46 -31.38c-4.51,-4.46 -5.24,-6.01 -9.15,-10.69l-31.35 -31.49c-4.51,-4.45 -5.44,-5.8 -9.26,-10.59 -7.02,-8.8 -33.36,-32.32 -41.1,-41.58 -14.22,-17.01 -25.93,-26.8 -40.62,-42.06l-112 -117.86zm51.26 -205.05c21.45,0 18.26,26.46 1.66,26.46 -18.22,0 -18.56,-26.46 -1.66,-26.46zm-74.41 183.56c-1.74,-6.5 -8.25,-11.55 -13.23,-14.89 4.56,-19.56 10.65,-72.7 14.88,-97.56 2.76,-16.23 4.83,-31.86 7.33,-48.89 2.33,-15.9 4.22,-34.35 7.55,-48.68 5.52,3.7 9.74,8.63 14.57,13.6 8.8,9.05 1.97,4.93 1.97,31.05 0,21 19.3,38.04 46.3,38.04 19.28,0 39.69,-19.06 39.69,-38.04l0 -9.92c0,-18.46 -19.57,-38.03 -38.03,-38.03 -10.45,0 -14.38,-0.91 -23.15,3.3l-18.56 -19.48 185.49 -12.02c10.95,-0.91 13.71,-4.64 23.24,1.74 -2.59,9.69 -21.94,22.64 -29.37,30.16 -10.51,10.63 -19.94,20.14 -30.55,30.64l-31.45 29.73c-5.23,5.24 -9.5,9.95 -14.86,14.91 -3.57,3.3 -4.75,3.5 -8.28,6.6l-116.59 113.27c-5.13,5.13 -9.55,12.49 -16.95,14.47z"/>
   <path class="fil1" d="M494.43 525.67zm0 0zm0 0c0.18,-7.74 13.42,-56.95 16.23,-68.12 2.03,-8.1 4.72,-14.77 0.99,-21.75 -3.24,-6.08 -11.8,-9.68 -18.82,-6.13 -7.51,3.8 -37.3,34.79 -44.28,41.85l-28.94 27.27c-7.64,7.64 -27.79,21.69 -12.52,34.85 13.62,11.75 26.52,-7.52 33.99,-15.03l30.2 -27.67c-1.45,17.44 -24.13,79.65 -18.32,91.04 2.75,5.4 12.51,9.41 20.25,5.19 1.69,-0.92 4.76,-4.64 6.84,-6.43l37.12 -35.64c2.47,-2.49 4.05,-4.34 6.63,-6.61l22.31 -20.68c6.86,-6.86 27.41,-21.65 12.17,-34.51 -13.97,-11.78 -26.07,7.42 -33.63,14.7l-30.22 27.67z"/>
   <path class="fil1" d="M208.35 284.23c6.75,-4.52 6.39,-7.52 19.85,-16.53 29.41,19.69 2.79,50.33 -19.85,16.53zm41.34 -39.68c8.68,-5.81 11.04,-12.66 21.5,-18.19 3.04,5.73 1.77,3.95 6.22,8.65 15.6,16.48 -6.81,40.75 -27.72,9.54zm-23.15 84.33c25.96,0 42.87,-18.24 44.65,-39.69 33.57,-0.74 59.7,-43.98 25.24,-78.16 -6.04,-5.99 -17.08,-21.14 -26.69,-20.6 -12.89,0.71 -40.29,35.98 -52.16,45.15 -8.86,6.84 -45.68,40.21 -45.17,50.12 0.35,6.78 6.9,11.13 14.2,20.28 9.19,11.51 22.12,22.9 39.93,22.9z"/>
   <path class="fil1" d="M547.35 618.27c-13.13,0 -24.52,-5.39 -29.76,-13.23 1.92,-2.63 11.64,-10.81 15.29,-14.47 8.43,-8.44 36.69,-37.25 45.89,-43.41 8.3,12.4 16.36,27.42 7.15,46.84 -5.98,12.62 -20.44,24.27 -38.57,24.27zm-66.14 -13.23c0,5.61 1.75,6.98 4.4,10.48 18.19,24.05 43.53,37.4 76.18,32.08 48.88,-7.96 76.17,-67.98 45.35,-112.27 -17.63,-25.33 -27.76,-31.36 -42.83,-15.86 -4.99,5.13 -8.3,6.62 -13.27,11.54 -8.41,8.32 -15.56,15.62 -23.95,24.01 -12.81,12.81 -45.88,39.08 -45.88,50.02z"/>
   <path class="fil1" d="M724.29 481.02c-5.93,-3.98 -8.93,-11.2 -16.53,-13.23l-20.24 19.45 13.97 14.93 -20.19 0.35 0 29.76 21.49 0 -15.23 16.19 19.8 20.59 16.58 -15.64 0.35 21.86 29.77 0 0 -19.85 14.54 13.58 20.58 -19.8c-2.42,-7.99 -9.65,-10.99 -13.62,-16.93l21.49 0c0,-35.45 3.55,-29.76 -21.49,-29.76l13.58 -14.54 -19.8 -20.59 -14.94 13.98c-1,-25.25 6.36,-21.85 -30.11,-21.85l0 21.5z"/>
   <path class="fil1" d="M319.15 317.31l19.48 -18.56c30.93,21.42 2.76,51.78 -19.48,18.56zm-77.72 38.03c0,10.19 6.01,16.54 16.53,16.54 14.61,0 28.01,-29.52 41.34,-33.08 3.18,6.63 0.71,5.22 -3.93,19.22 -6.87,20.72 -26.43,55.2 2.28,55.2 12.23,0 14.26,-12.07 17.57,-22.12 3.59,-10.9 8.12,-20.39 10.54,-30.8 15.28,2.25 28.61,2.99 42.65,-10.27 19.33,-18.26 17.91,-46.04 -1.71,-65.4 -33.26,-32.83 -21.33,-31.46 -78.58,21.49l-35.53 35.58c-2.27,2.06 -11.16,8.42 -11.16,13.64z"/>
   <path class="fil1" d="M395.19 438.01c-1.65,-1.21 -13.49,-14.47 -14.86,-16.52 9.8,-0.82 18.31,-9.11 28.11,-9.93l-13.25 26.45zm-82.66 -11.56c0,27.66 23.71,16.72 39.69,8.27 5.81,8.67 21.33,25.77 29.77,31.42 -6.35,11.99 -20.75,39.68 4.96,39.68 8.45,0 12.28,-5.68 14.91,-11.54 3.17,-7.06 5.17,-12.1 8.79,-19.33 6.03,-12.05 43.46,-86.37 43.18,-94.61 -0.9,-26.26 -36.75,-5.84 -47.98,-1.14l-64.64 27.97c-9.3,4.13 -28.68,10.3 -28.68,19.28z"/>
  </g>
 </g>
</svg>
