<?xml version="1.0" encoding="UTF-8"?>
<!DOCTYPE svg PUBLIC "-//W3C//DTD SVG 1.1//EN" "http://www.w3.org/Graphics/SVG/1.1/DTD/svg11.dtd">
<!-- Creator: CorelDRAW -->
<svg xmlns="http://www.w3.org/2000/svg" xml:space="preserve" width="8.4666mm" height="8.4666mm" version="1.1" style="shape-rendering:geometricPrecision; text-rendering:geometricPrecision; image-rendering:optimizeQuality; fill-rule:evenodd; clip-rule:evenodd"
viewBox="0 0 846.66 846.66"
 xmlns:xlink="http://www.w3.org/1999/xlink"
 xmlns:xodm="http://www.corel.com/coreldraw/odm/2003">
 <defs>
  <style type="text/css">
   <![CDATA[
    .fil0 {fill:none}
    .fil1 {fill:#FF3366}
   ]]>
  </style>
 </defs>
 <g id="Capa_x0020_1">
  <metadata id="CorelCorpID_0Corel-Layer"/>
  <rect class="fil0" x="-0" y="-0.01" width="846.66" height="846.67"/>
  <g id="_2181128055536">
   <path class="fil1" d="M357.18 603.58l132.3 0c0,24.8 10.82,64.74 17.54,84.98 6.42,19.3 21.5,61.75 25.45,78.73l-218.28 0c3.75,-16.12 18.93,-59.34 25.03,-77.5 6.61,-19.73 17.96,-60.79 17.96,-86.21zm-281.12 -47.96l0 -51.26 694.54 0 0 51.26c0,6.05 -4.57,13.23 -9.92,13.23l-674.7 0c-5.35,0 -9.92,-7.18 -9.92,-13.23zm0 -463.02c0,-6.04 4.57,-13.23 9.92,-13.23l674.7 0c5.35,0 9.92,7.19 9.92,13.23l0 377.03 -694.54 0 0 -377.03zm-33.07 -6.62l0 476.26c0,20.35 22.42,41.34 42.99,41.34l236.48 0c0,42.1 -25.37,101.59 -38.25,143.66 -1.99,6.5 -3.51,14.03 -6.4,20.05l-138.93 -0.02c-42.17,-0.27 -29.6,26.33 -24.13,30.78 2.49,2.02 6.97,3.97 10.92,3.97l595.32 0c9.78,0 16.53,-6.78 16.53,-18.19 0,-14.89 -14.22,-16.66 -29.74,-16.56l-138.93 0.02 -25.83 -78.35c-7.57,-22.66 -18.82,-57.02 -18.82,-85.36l236.48 0c20.57,0 42.99,-20.99 42.99,-41.34l0 -476.26c0,-20.35 -22.42,-41.34 -42.99,-41.34l-674.7 0c-20.57,0 -42.99,20.99 -42.99,41.34z"/>
   <path class="fil1" d="M347.26 377.03c-40.68,0 -56.4,-1.21 -95.49,12 -6.76,2.28 -12.22,4.7 -18.61,6.19 2.16,-8.09 30.28,-54.32 37.35,-65.18l27.51 -35.32c31.57,-31.34 95.54,-30.65 95.54,27.74 0,18.44 -10.54,44.65 -24.81,52.92 -8.81,5.11 -10.81,1.65 -21.49,1.65zm74.42 -87.65c-12.33,-23.28 -4.84,-8.98 -16.54,-26.45l160.73 -105.51c8.74,-5.82 48.09,-33.4 55.9,-33.4 14.91,0 20.77,17.76 11.12,27.65l-29.84 19.78c-10.61,6.26 -19.57,12.81 -29.9,19.71 -10.56,7.04 -19.53,12.47 -30.09,19.51l-121.38 78.71zm-66.15 -49.61c-31.35,0 -53.45,8.28 -75.4,25.48 -3.93,3.08 -8.62,7.65 -11.76,11.39l-29.55 39.9c-14.33,23.53 -63.54,104.89 -63.54,123.33 0,10.58 8.08,14.88 18.19,14.88 7.27,0 8.9,-3.73 14.34,-7.16 86.7,-54.57 142.81,-30.87 164.56,-37.19 31.88,-9.26 54.27,-47.18 54.27,-82.98l129.97 -85c11.12,-7.41 21.44,-13.72 32.09,-20.83 10.95,-7.33 21.48,-14.71 32.99,-21.58l31.78 -21.13c44.09,-34.56 1.33,-109.76 -52.7,-84.13l-224.04 146.51c-6.52,3.35 -10.72,-1.49 -21.2,-1.49z"/>
   <path class="fil1" d="M390.26 684.61c0,23.59 23.32,18.19 49.61,18.19 20.34,0 26.91,-34.73 -6.62,-34.73 -16.73,0 -42.99,-3.35 -42.99,16.54z"/>
  </g>
 </g>
</svg>
