<?xml version="1.0" encoding="UTF-8"?>
<!DOCTYPE svg PUBLIC "-//W3C//DTD SVG 1.1//EN" "http://www.w3.org/Graphics/SVG/1.1/DTD/svg11.dtd">
<!-- Creator: CorelDRAW -->
<svg xmlns="http://www.w3.org/2000/svg" xml:space="preserve" width="8.4666mm" height="8.4666mm" version="1.1" style="shape-rendering:geometricPrecision; text-rendering:geometricPrecision; image-rendering:optimizeQuality; fill-rule:evenodd; clip-rule:evenodd"
viewBox="0 0 846.66 846.66"
 xmlns:xlink="http://www.w3.org/1999/xlink"
 xmlns:xodm="http://www.corel.com/coreldraw/odm/2003">
 <defs>
  <style type="text/css">
   <![CDATA[
    .fil0 {fill:none}
    .fil1 {fill:#FF3366}
   ]]>
  </style>
 </defs>
 <g id="Capa_x0020_1">
  <metadata id="CorelCorpID_0Corel-Layer"/>
  <rect class="fil0" x="-0" y="-0.01" width="846.66" height="846.67"/>
  <g id="_2181124794336">
   <path class="fil1" d="M332.38 730.91l77.72 0c-7.81,14.75 -17.56,27.01 -38.22,27.48 -23.38,0.54 -32.13,-13.56 -39.5,-27.48zm-33.07 -54.57l143.86 0 0 28.11 -143.86 0 0 -28.11zm0 -54.57l143.86 0 0 28.11 -143.86 0 0 -28.11zm84.33 -244.74l31.42 0 0 218.28 -31.42 0 0 -218.28zm-57.88 0l31.42 0 0 218.28 -31.42 0 0 -218.28zm46.31 -92.61c1.02,4.41 13.55,27.4 16.51,33.1 4.67,8.97 14.17,22.81 16.56,33.05l-69.45 0c4.98,-9.42 31.49,-62.57 36.38,-66.15zm-72.76 310.89l-3.31 0c-1.37,-16.51 -13.22,-44.39 -19.13,-58.59 -16.89,-40.54 -43.26,-66.77 -63,-110.63 -17.39,-38.64 -12.44,-96.72 5.5,-132.31 54.27,-107.67 189.86,-126.91 272.2,-44.52 12.92,12.93 25.76,32.53 33.12,49.56 31.26,72.41 9.67,125.75 -29.92,184.37l-28.43 50.95c-4.71,10.52 -19.58,48.63 -19.86,61.17l-4.96 0c0,-70 -0.02,-140.01 0,-210.01 0.01,-34.25 -1.87,-24.92 -19.29,-60.09l-18.17 -34.75c-3.41,-6.72 -5.92,-10.02 -9.4,-17.05 -4.31,-8.71 -12,-30.33 -22.59,-30.33 -12.68,0 -24.76,29.57 -33.06,46.32l-27.55 51.82c-8.82,17.37 -12.26,14.25 -12.16,40.76 0.28,71.09 0.01,142.24 0.01,213.33zm-122.37 -231.51c0,104.75 59.7,116.26 90.37,222.16 2.17,7.48 5.18,16.04 5.57,24.2 1.26,26.82 -1.37,63.37 -0.06,92.67 0.9,20.48 11.66,28.08 33.1,28.08 2.06,24.8 32.07,52.92 61.19,52.92 36.27,0 61.71,-19.71 69.45,-52.92 41.03,0 31.42,-29.32 31.42,-77.72 0,-42.06 -0.62,-52.47 16.3,-94.5 10.82,-26.9 23.76,-49.23 38.59,-72.2 13.15,-20.37 30.59,-47.14 36.74,-74.06 13.03,-57.04 -0.55,-125.83 -39.14,-168.92 -19.12,-21.36 -33.33,-35.6 -61.31,-49.49 -84.85,-42.14 -172.22,-21.9 -235.53,46.15 -27.26,29.29 -46.69,80.55 -46.69,123.63z"/>
   <path class="fil1" d="M203.39 821.86c18.71,0 14.89,-12.09 14.89,-34.73 0,-42.58 -13.06,-86.63 -24.56,-117.66 -14.13,-38.16 -40.03,-81.94 -64.51,-112.42 -77.66,-96.66 -84.26,-238.06 -24.53,-344.88 47.35,-84.66 128.23,-141.37 224.37,-157.62 79.49,-13.44 161.71,5.35 227.24,48.96 10.36,6.89 18.24,13.37 27.46,20.49 9,6.96 16.1,15.31 24.38,23.58 41.54,41.54 69.53,98 81.31,156.81 2.87,14.32 3.5,26.44 5.75,42.21 6.23,43.72 36.83,95.48 56.67,135.16 4.17,8.34 30.31,61.02 30.31,65.59 0,12.97 -27.37,9.93 -41.34,9.93 -21.58,-0.01 -32.57,-2.61 -41.39,11.52 -10.29,16.48 4.04,73.46 -9.87,95.97 -14.11,22.85 -53.04,16.53 -87.65,16.53 -17.11,0 -36.09,-0.79 -52.96,-0.05 -15.09,0.66 -26.41,11.03 -26.41,26.51l0 100.87c0,16.51 26.46,21.15 26.46,-4.96l0 -95.91 102.52 0c39.24,0 69.46,-26 69.46,-59.53l0 -66.15 52.91 0c16.9,0 30.19,-14.08 33.37,-29.59 3.35,-16.35 -8.17,-32.46 -14.62,-45.37 -14.27,-28.53 -27.12,-55.88 -41.35,-84.34 -16.63,-33.28 -27,-48.54 -31.96,-93.71 -4.08,-37.09 -13.69,-72.4 -26.48,-100.85 -52.01,-115.62 -169.02,-203.42 -302.6,-203.42 -84.28,0 -151.06,20.23 -213.8,67.33l-33.01 28.17c-14.38,14.4 -26.19,25.71 -37.96,43.07 -5.56,8.21 -11.11,15.23 -16.12,23.56 -13.47,22.38 -17.18,29.35 -27.01,54.02 -4.43,11.12 -6.95,18.49 -10.53,30.82 -3.05,10.48 -5.52,20.87 -7.65,32.04 -2.95,15.52 -7.67,59.57 -5.45,74.17 5.72,37.78 1.27,53.84 19.61,102.76 16.94,45.19 30.75,66.04 58.83,103.23 36.72,48.62 63.53,108.11 72.3,170.79 1.67,11.99 2.53,24.86 3.76,35.92 0.71,6.38 -0.42,13.71 0.19,19.66 0.58,5.67 4.29,11.52 9.97,11.52z"/>
   <path class="fil1" d="M357.18 115.75c0,8.98 -0.99,28.11 13.23,28.11 16.71,0 13.23,-20.67 13.23,-34.72 0,-10.82 -26.46,-19.96 -26.46,6.61z"/>
   <path class="fil1" d="M115.75 377.03c14.05,0 34.73,3.48 34.73,-13.23 0,-16.75 -41.47,-18.84 -45.49,-2.33 -1.76,7.2 4.78,15.56 10.76,15.56z"/>
   <path class="fil1" d="M138.9 238.12c0,11.31 23.58,21.5 29.77,21.5 11.89,0 16.48,-12.55 9.28,-20.81 -6.76,-7.75 -39.05,-26.22 -39.05,-0.69z"/>
   <path class="fil1" d="M474.59 160.4c0,8.02 5.48,14.88 13.23,14.88 8.86,0 14.77,-13.34 18.34,-19.72 11.67,-20.83 -10.57,-33.52 -22.64,-12.7 -1.92,3.31 -8.93,14.99 -8.93,17.54z"/>
   <path class="fil1" d="M560.58 244.74c0,30.53 35.7,5.07 38.56,2.13 6.01,-6.2 7.44,-34.41 -26.07,-14.45 -4.51,2.69 -12.49,6.44 -12.49,12.32z"/>
   <path class="fil1" d="M592 363.8c0,16.15 15.71,13.23 31.42,13.23 13.69,0 27.04,-26.46 -13.23,-26.46 -9.84,0 -18.19,3.18 -18.19,13.23z"/>
   <path class="fil1" d="M231.51 145.52c0,5 9.91,21.99 12.89,25.16 6.1,6.5 35.67,8.16 13.93,-27.18 -13.33,-21.68 -26.82,-7.9 -26.82,2.02z"/>
  </g>
 </g>
</svg>
