<?xml version="1.0" encoding="UTF-8"?>
<!DOCTYPE svg PUBLIC "-//W3C//DTD SVG 1.1//EN" "http://www.w3.org/Graphics/SVG/1.1/DTD/svg11.dtd">
<!-- Creator: CorelDRAW -->
<svg xmlns="http://www.w3.org/2000/svg" xml:space="preserve" width="8.4666mm" height="8.4666mm" version="1.1" style="shape-rendering:geometricPrecision; text-rendering:geometricPrecision; image-rendering:optimizeQuality; fill-rule:evenodd; clip-rule:evenodd"
viewBox="0 0 846.66 846.66"
 xmlns:xlink="http://www.w3.org/1999/xlink"
 xmlns:xodm="http://www.corel.com/coreldraw/odm/2003">
 <defs>
  <style type="text/css">
   <![CDATA[
    .fil0 {fill:none}
    .fil1 {fill:#FF3366}
   ]]>
  </style>
 </defs>
 <g id="Capa_x0020_1">
  <metadata id="CorelCorpID_0Corel-Layer"/>
  <rect class="fil0" x="-0" y="-0.01" width="846.66" height="846.67"/>
  <g id="_2180931858288">
   <path class="fil1" d="M206.7 674.69l62.84 0c3.22,0 16.43,12.26 19.46,15.26l126.06 117.03 -353.88 0 17.75 -16.98c3.92,-3.93 4.9,-4.35 8.95,-7.58 11.2,-8.94 51.16,-49.26 63.55,-58.82 7.13,-5.51 10.93,-11.33 17.73,-17.01 3.96,-3.31 5.16,-3.63 9.05,-7.48l18.07 -16.66c3.11,-2.66 5.99,-7.76 10.42,-7.76zm120.72 13.22c4.26,-6.36 6.97,-7.24 12.74,-12.06l68.72 -63.57c4.82,-4.83 7.95,-8.68 13.49,-12.97 5.9,-4.55 9.01,-8.8 14.19,-12.27l0 201.75 -109.14 -100.88zm-287.74 100.88l0 -201.75 68.21 62.43c7.74,7.82 37.46,33.26 40.93,38.44 -4.26,6.37 -6.96,7.25 -12.74,12.07l-68.72 63.56c-4.82,4.84 -7.95,8.69 -13.49,12.97 -5.9,4.56 -9.01,8.81 -14.19,12.28zm8.27 -233.17c29.83,-19.97 73.54,-58.31 102.53,-77.72l23.32 117.38 77.55 0.03 0 -124.02c34.49,8.03 69.26,24.88 96.18,44.38 8.73,6.34 7.96,4.84 12.47,15.63 11.12,26.6 44.08,30.13 58.37,17.71 4.34,2.91 4.63,3.81 9.92,6.61 -3.61,5.4 -8.44,9.99 -13.72,14.4l-70.13 63.81c-2.93,2.45 -4.81,4.64 -7.51,7.37l-15.73 14.03c-5.49,5.08 -9.29,10.49 -15.28,14.49 -3.04,-4.53 -21.12,-21.49 -24.8,-21.49l-85.99 0c-3.87,0 -10.1,7.51 -13.23,9.92 -5.1,3.92 -8.22,8.22 -13.23,11.57 -7.53,-11.24 -113.52,-103.35 -120.72,-114.1zm335.69 -41.34l0 -287.73c0,-19.24 26.46,-19.24 26.46,0l0 287.73c0,19.24 -26.46,19.24 -26.46,0zm-208.36 -51.26c21.36,0 38.19,3.05 49.61,3.3l0 102.53 -28.11 0c-3.98,-17.06 -7,-34.17 -10.61,-52.23l-10.89 -53.6zm23.15 -158.75c87.07,0 151.14,-49.23 158.75,-51.27l0 234.82c-4.31,-1.15 -25.1,-15.57 -41.81,-22.67 -3.85,-1.64 -5.14,-2.54 -8.87,-4.36 -25.51,-12.47 -76.19,-24.23 -108.07,-24.23l0 -132.29zm238.13 102.52l0 -72.76c13.45,3.14 26.46,20.16 26.46,36.38 0,16.22 -13.01,33.25 -26.46,36.38zm-274.51 -102.52l9.92 0 0 132.29c-20.94,0 -44.39,-4.09 -49.6,-26.46l23.15 0 0 -26.46 -26.46 0 0 -26.46 26.46 0 0 -26.45 -23.15 0c3.5,-15.06 20.74,-26.46 39.68,-26.46zm-69.45 34.72l0 62.84c0,22.59 20.99,50.6 38.03,54.57 -4.58,6.84 -48.23,39.1 -57.87,46.31 -4.91,3.66 -8.76,6.83 -13.93,10.87l-37.53 28.62c-4.42,3.59 -2.23,3.59 -8.08,5.15l0 286.09 449.8 0 0 -286.09c-4.78,-1.27 -9.4,-6.23 -13.7,-9.45 -5.3,-3.97 -9.21,-6.9 -14.41,-10.39 3.76,-6.7 1.65,-79.21 1.65,-92.6 25.22,-0.57 52.92,-32.74 52.92,-59.54l0 -9.92c0,-26.79 -27.7,-58.97 -52.92,-59.53l0 -84.34c0,-37.49 -58.32,-52.81 -76.06,-13.22 -6.4,14.26 -9.43,15.53 -28.82,27.41 -24.26,14.87 -49.42,26.32 -80.31,33.79 -47.85,11.58 -84.42,5.13 -105.23,8.87 -26.28,4.72 -53.54,30.69 -53.54,60.56z"/>
   <path class="fil1" d="M674.69 157.09l0 -49.61c0,-19.24 26.45,-19.24 26.45,0l0 49.61c0,19.24 -26.45,19.24 -26.45,0zm-79.38 -56.22l0 62.84c0,45.06 40.37,87.64 92.6,87.64l0 -26.46c-8.45,-0.19 -20.38,-3.22 -26.99,-6.08 -14.97,-6.47 -28.27,-20.45 -34,-35.45 -7.45,-19.5 -5.15,-49.36 -5.15,-72.57 0,-22.93 7.28,-37.23 17.89,-49.9 3.47,-4.15 15.04,-12.26 20.12,-14.62 26.1,-12.11 58.15,-5.5 75.63,13.71 12.88,14.16 18.65,30.79 18.65,50.81l0 85.99c0,16.46 -21.24,20.28 -25.82,4.32 -5.3,-18.46 6.5,-94.88 -6.23,-116.13 -20.57,-34.35 -73.78,-18.06 -73.78,17.55l0 59.53c0,18.19 18.19,36.38 36.38,36.38l16.53 -1.65c0,57.65 79.38,50.85 79.38,4.96l0 -100.87c0,-45.06 -42.58,-87.65 -87.64,-87.65l-9.93 0c-45.06,0 -87.64,42.59 -87.64,87.65z"/>
   <path class="fil1" d="M568.85 687.91c0,-16.03 5.48,-37.13 11,-48.53 6.57,-13.57 14.15,-25.46 24.11,-35.42 9.96,-9.96 21.85,-17.54 35.42,-24.11 96.6,-46.76 203.28,60.15 156.6,156.6 -14.11,29.17 -30.36,45.42 -59.53,59.53 -75.93,36.75 -167.6,-23.11 -167.6,-108.07zm-26.46 -8.26c0,28.6 0.81,44.66 13.76,70.57 23.2,46.41 71.56,83.22 123.5,83.22 28.6,0 44.66,-0.81 70.57,-13.76 46.41,-23.21 83.22,-71.56 83.22,-123.5 0,-45.95 -10.18,-78.8 -42.59,-111.21 -23.03,-23.03 -58.62,-42.58 -94.67,-42.58 -28.6,0 -44.66,0.81 -70.57,13.76 -46.41,23.2 -83.22,71.56 -83.22,123.5z"/>
   <path class="fil1" d="M621.77 330.73l132.29 0 0 132.29 -132.29 0 0 -132.29zm-26.46 158.75l185.21 0 0 -185.21 -185.21 0 0 185.21z"/>
   <path class="fil1" d="M654.84 727.6l-4.3 -3.97c-4.46,-6.56 -3.25,-65.64 -0.64,-70.43l4.94 -4.97c8.51,1.98 29.64,13.92 38.35,17.87l27.37 13.97c6.9,4.25 3.47,1.09 7.04,7.84 -3.28,6.2 -1.98,6.01 -15.58,12.54 -11.78,5.65 -49.47,25.36 -57.18,27.15zm-33.07 -74.41l0 69.45c0,15.84 15.58,31.42 31.42,31.42 21.22,0 36.73,-11.75 60.63,-23.7 8.92,-4.46 16.83,-7.83 24.76,-13.28 1.13,-0.78 1.78,-1.17 2.89,-2.07 18,-14.69 16.74,-43.12 -1.9,-55.6 -8.3,-5.57 -15.32,-8.73 -24.65,-13.39 -24.06,-12.03 -40.41,-24.25 -61.73,-24.25 -15.84,0 -31.42,15.58 -31.42,31.42z"/>
   <polygon class="fil1" points="479.15,295.59 497.35,314.58 554.38,258.37 536.17,239.38 "/>
   <polygon class="fil1" points="479.16,444.43 535.37,501.46 554.36,483.26 498.15,426.23 "/>
   <polygon class="fil1" points="648.23,383.64 727.6,383.64 727.6,357.18 648.23,357.18 "/>
   <polygon class="fil1" points="648.23,436.56 727.6,436.56 727.6,410.1 648.23,410.1 "/>
   <polygon class="fil1" points="515.93,383.64 568.85,383.64 568.85,357.18 515.93,357.18 "/>
  </g>
 </g>
</svg>
