<?xml version="1.0" encoding="UTF-8"?>
<!DOCTYPE svg PUBLIC "-//W3C//DTD SVG 1.1//EN" "http://www.w3.org/Graphics/SVG/1.1/DTD/svg11.dtd">
<!-- Creator: CorelDRAW -->
<svg xmlns="http://www.w3.org/2000/svg" xml:space="preserve" width="8.4666mm" height="8.4666mm" version="1.1" style="shape-rendering:geometricPrecision; text-rendering:geometricPrecision; image-rendering:optimizeQuality; fill-rule:evenodd; clip-rule:evenodd"
viewBox="0 0 846.66 846.66"
 xmlns:xlink="http://www.w3.org/1999/xlink"
 xmlns:xodm="http://www.corel.com/coreldraw/odm/2003">
 <defs>
  <style type="text/css">
   <![CDATA[
    .fil0 {fill:none}
    .fil1 {fill:#FF3366}
   ]]>
  </style>
 </defs>
 <g id="Capa_x0020_1">
  <metadata id="CorelCorpID_0Corel-Layer"/>
  <rect class="fil0" x="-0" y="-0.01" width="846.66" height="846.67"/>
  <g id="_2181119380000">
   <path class="fil1" d="M188.51 631.69l41.91 -24.24c6,-3.3 9,-6.6 15.97,-7.18l43.69 77.02c7.69,13.08 42.3,68.84 42.3,80.08 0,31.19 -38.41,43.8 -57.45,22.72l-86.42 -148.4zm-188.51 -96.58l0 -3.32c0.22,-22.51 11.42,-47.61 24.57,-64.04 1.83,-2.29 4.87,-6.37 6.61,-8.28l24.04 -18.95 128.84 -74.56c17.19,-9.58 15.11,-8.44 29.73,-28.15l204.31 -260.37c18.24,-22.79 57.9,-25.44 78.51,3.06 12.96,17.92 47.82,85.55 63.97,109.66l34.64 -1.74c38.7,-3.17 37.25,-4.98 48.77,14.25 38.95,65 37.54,53.29 12.83,90.35l-15.18 22.85c-1.12,1.66 -1.27,1.95 -2.74,3.88 -2.56,3.37 -0.64,0.85 -2.25,2.71l32.12 55.52c7.11,12.01 29.07,46.03 29.07,58.58 0,19.27 -3.28,37.41 -22.57,48.54 -14.23,8.2 -27.59,8.26 -45.92,11.95 -18.66,3.76 -282.93,56.92 -293.66,56.92 1.41,6.08 8.7,16.59 12.08,22.64 16.51,29.53 19.14,29.8 -25.88,54.51 -5.5,3.02 -8.63,5.86 -14.32,7.18l15.97 28.68c5.25,9.62 10.21,17.98 15.77,27.23 5.43,9.03 10.63,17.97 15.68,27.32 44.08,81.75 -61.76,139.64 -108.38,76.96 -16.38,-22 -69.2,-122.39 -87.86,-150.26 -9.2,0.76 -16.68,5.56 -28.25,6.5 -47.34,3.85 -92.61,-15.83 -114.51,-55.57 -13.87,-25.15 -15.88,-37.24 -15.99,-64.05zm274.5 46.97l28.11 -16.54c3.83,7.24 14.44,24.37 14.89,29.77 -10.3,2.4 -17.77,12.37 -28.12,13.23 -4.82,-9.12 -10.15,-17.52 -14.88,-26.46zm-157.1 39.69c-75.49,0 -113.75,-90.87 -55.89,-143.54 3.67,-3.33 3.99,-3.78 8.23,-6.65 6.51,-4.4 11.65,-6.93 18.62,-11.15l95.28 -55.2c7.61,-4.39 14.39,-9.43 21.41,-10.01 1.6,6.86 5.37,11.28 8.83,17.62 3.47,6.35 6.52,11.59 10.29,17.83 7.27,12.01 14.14,23.77 20.57,35.65 3.11,5.77 6.7,11.14 9.84,16.62 5.35,9.36 28.14,47.19 29.84,54.49l-119.78 68.73c-12.28,7.44 -28.49,15.61 -47.24,15.61zm112.45 -249.7l5.21 -6.37c2.41,-3.16 3.29,-4.24 5.85,-7.38 4.36,-5.34 7.19,-9.48 11.57,-14.89 8.32,-10.24 14.98,-19.5 23.3,-29.62 30.16,-36.71 61.53,-79.56 92.47,-117.54 8.29,-10.19 14.84,-19.55 23.14,-29.78l23.67 -29.24 142.31 247.95c8.06,13.37 15.22,27 23.58,40.92l24.28 41.86c-10.89,0 -128.29,24.92 -144.32,27.66l-143.41 28.56c-3.5,-6.6 -7.22,-11.8 -11.01,-18.75l-54.44 -94.4c-4.07,-6.88 -6.96,-12.51 -10.7,-19.06 -3.85,-6.72 -7.67,-12.69 -11.5,-19.92zm350.58 -148.83c8.7,0 9.04,-1.26 16.53,-1.66 6.2,-0.34 13.52,0 19.85,0 1.62,6.99 6.64,13.49 10.25,19.52l11.24 18.52c-4.48,6.69 -16.01,26.09 -21.49,29.76 -1.76,-6.56 -28.68,-48.91 -36.38,-66.14zm-125.68 -128.99c11.11,0 12.4,1.63 20.37,16.02l88.86 154.22c10.35,17.99 100.78,172.25 100.78,177.03 0,14.62 -11.71,18.19 -26.46,18.19 -1.78,-7.67 -19.84,-36.44 -24.1,-43.69l-50.82 -88.09c-4.44,-7.97 -8.43,-14.79 -12.63,-22.09 -4.36,-7.58 -8.47,-14.13 -12.75,-21.98 -8.31,-15.25 -16.53,-27.85 -24.81,-43l-76.63 -131.72c1.46,-2.18 5.13,-7.36 7.02,-9.52 2.9,-3.3 5.47,-5.37 11.17,-5.37z"/>
   <path class="fil1" d="M720.99 158.75c0,14.84 12.3,19.84 14.88,19.84 5.28,0 11.98,-3.28 16.02,-5.48l72.18 -40.27c12.04,-6.1 22.6,-10.89 22.6,-23.7 0,-8.47 -8.7,-16.54 -16.54,-16.54 -6.81,0 -73.53,38.84 -85.44,45.2 -6.6,3.52 -23.7,11.78 -23.7,20.95z"/>
   <path class="fil1" d="M114.1 555.62c-9.51,0 -15.3,-16.53 -24.81,-16.53 -37.03,0 -13.16,49.6 19.85,49.6 24.06,0 25.08,-1.53 45.58,-13.95 7.61,-4.6 33.34,-14.52 19.56,-32.92 -2.52,-3.37 -3.84,-4.58 -7.56,-5.9 -16.31,-5.81 -35.61,19.7 -52.62,19.7z"/>
   <path class="fil1" d="M727.6 264.58c0,8.86 4.82,14.77 12.25,17.51 3.22,1.19 7.09,1.75 10.56,2.68 11.6,3.1 49.76,14.54 58.22,14.54 14.59,0 22.64,-18.31 10.7,-28.9 -3.25,-2.88 -8.61,-4.44 -12.52,-5.66l-59.19 -15.42c-5.72,-0.86 -7.65,-0.99 -12.78,2.56 -4.14,2.87 -7.24,6.42 -7.24,12.69z"/>
   <path class="fil1" d="M649.88 120.71c9.2,0 13.84,-4.94 16.59,-11.52l18.14 -69.51c0,-10.09 -7.38,-16.53 -18.19,-16.53 -16.69,0 -17.86,25.42 -24.61,48.15l-7.69 28.89c-0.98,6.04 -0.03,9.15 3.1,13.32 2.18,2.92 8.55,7.2 12.66,7.2z"/>
   <path class="fil1" d="M201.74 517.59c0,24.36 33.07,23.47 33.07,0 0,-20.44 -33.07,-20.98 -33.07,0z"/>
  </g>
 </g>
</svg>
