<?xml version="1.0" encoding="UTF-8"?>
<!DOCTYPE svg PUBLIC "-//W3C//DTD SVG 1.1//EN" "http://www.w3.org/Graphics/SVG/1.1/DTD/svg11.dtd">
<!-- Creator: CorelDRAW -->
<svg xmlns="http://www.w3.org/2000/svg" xml:space="preserve" width="8.4666mm" height="8.4666mm" version="1.1" style="shape-rendering:geometricPrecision; text-rendering:geometricPrecision; image-rendering:optimizeQuality; fill-rule:evenodd; clip-rule:evenodd"
viewBox="0 0 846.66 846.66"
 xmlns:xlink="http://www.w3.org/1999/xlink"
 xmlns:xodm="http://www.corel.com/coreldraw/odm/2003">
 <defs>
  <style type="text/css">
   <![CDATA[
    .fil0 {fill:none}
    .fil1 {fill:#FF3366}
   ]]>
  </style>
 </defs>
 <g id="Capa_x0020_1">
  <metadata id="CorelCorpID_0Corel-Layer"/>
  <rect class="fil0" x="-0" y="-0.01" width="846.66" height="846.67"/>
  <g id="_2180505261232">
   <path class="fil1" d="M568.85 262.93l0 324.11c0,42.8 76.07,54.57 76.07,-9.92l0 -14.88c0,-22.93 -22.58,-20.35 -25.87,-9.34 -3.66,12.27 9.02,55.68 -22.09,40.76 -0.86,-3.71 -1.65,-3.81 -1.65,-8.27l0 -324.12c0,-8.74 10.3,-22.18 25.8,0.66 4.18,6.17 7.32,10.16 11.57,16.54l58.79 85.08c5.35,7.25 14.95,27.14 30.86,3.25l47.26 -68.5c5.94,-8.93 29.63,-48.6 39.04,-48.6 9.86,0 13.23,6.67 13.23,16.53l0 314.2c0,19.63 -15.35,17.37 -20.15,13.62 -7.14,-5.58 -4.66,-23.28 -4.65,-35.12l0 -200.09c0.01,-17.56 3.54,-29.77 -13.23,-29.77 -10.25,0 -11.71,8.66 -20.55,20.8 -6.23,8.57 -10.78,16 -17.02,24.32l-25.54 37.3c-15.54,23.89 -29.22,-5.05 -41.73,-23.89l-34.34 -49.99c-10.04,-15.41 -26.19,-8.53 -26.19,4.69l0 158.75c0,13.34 16.33,15.67 22.82,7.96 5.83,-6.91 3.64,-27.14 3.64,-39.38 0,-28.11 0,-56.22 0,-84.33 16.5,12.09 28.76,61.18 62.84,61.18 24.89,0 35.55,-21.87 50.27,-43.98 3.63,-5.45 9.89,-15.69 14.22,-18.86 0,57.88 0,115.76 0,173.64 0,19.27 -5.94,51.83 23.3,62.69 11.53,4.28 23.39,3.3 33.33,-2.76 9.55,-5.83 17.79,-18.33 17.79,-26.86l0 -334.04c0,-21.5 -35.84,-47.37 -63.3,-21.95 -6.38,5.91 -72.75,103.42 -73.96,107.94 -7.08,-4.74 -54.46,-77.61 -61.65,-87.18 -9.38,-12.49 -24.43,-41.99 -56.83,-27.99 -13.04,5.64 -22.08,19.54 -22.08,35.8z"/>
   <path class="fil1" d="M200.09 494.44c0,6.75 -2.99,16.96 -4.71,21.75 -13.03,36.42 -66.77,42.88 -100.5,17.31 -13.55,-10.28 -17.87,-29.79 -20.89,-45.26 -3.27,-16.72 -17.94,-28.39 -37.42,-27.9 -18.58,0.47 -36.58,14.19 -36.58,29.14 0,29.32 9.45,56.53 25.49,78.69 13.31,18.38 32.7,34.75 54.1,43.47 66.54,27.11 148.44,10.02 182.3,-58.72 10.93,-22.21 19.91,-72.46 6.06,-96.57 -5.97,-10.39 -23.2,-6.24 -23.2,5.01 0,17.52 13.1,32.65 -3.98,75.4 -2.42,6.04 -6,12.8 -9.22,17.24 -2.23,3.08 -3.32,3.96 -5.93,7.31 -2.66,3.43 -2.87,4.22 -6.04,7.18l-14.8 11.66c-66.83,43.87 -165.45,7.33 -178.13,-74.42 -2.02,-13.05 -1.39,-19.56 13.04,-19.56 16.05,0 5.27,55.41 56.9,78.7 33.5,15.1 78.81,13.16 105.58,-13.79 18.96,-19.08 22.73,-34.54 22.73,-61.6 0,-22.66 -18.09,-40.94 -31.84,-50.84 -32.09,-23.1 -88.29,-13.31 -124.79,-43.89 -13.73,-11.5 -23.62,-35.79 -23.62,-60.72 0,-67.4 84.76,-113.85 152.84,-66.84 23.02,15.89 49.62,53.61 22.45,53.61 -13.06,0 -11.45,-14.09 -31.16,-30.02 -26.64,-21.53 -63.34,-24.39 -91.58,-6.73 -23,14.39 -31.75,37.06 -27.31,64.43 2.2,13.64 8.14,22.56 17.32,30.64 23.31,20.54 83.63,12.62 123.76,43.26 3.45,2.64 11.17,9.22 15.59,9.22 2.1,0 36.43,-10.91 -16.01,-40.22 -57.25,-32 -116.29,-8.68 -116.29,-57.35 0,-30.77 49.13,-52.22 80.66,-21.12 12.32,12.16 26.22,48.56 62.72,28.9 44.09,-23.76 6.66,-69.9 -19.09,-90.72 -40.96,-33.11 -97.25,-37.25 -143.02,-11.86 -70.35,39.03 -75.09,138.28 -15.31,181.76 32.13,23.38 83.6,22.63 108.48,33.74 13.57,6.05 31.4,20.74 31.4,39.71z"/>
   <path class="fil1" d="M299.31 254.66l0 335.69c0,16.59 16.48,33.07 33.07,33.07l178.59 0c43.75,0 43.75,-74.41 0,-74.41l-137.25 0 0 -87.65 89.3 0c41.47,0 45.16,-51.55 23.25,-67.89 -7.78,-5.8 -19.39,-8.17 -33.17,-8.17l-79.38 0 0 -85.99 132.29 0c50.87,0 50.87,-76.07 0,-76.07 -17.15,0 -19.84,3 -19.84,16.53 0,7.17 8.58,9.81 16.52,9.94 10.5,0.17 16.55,1.1 16.55,11.56 0,16.1 -19.95,11.58 -36.38,11.58l-95.91 0c-13.65,0 -38.03,-3 -38.03,9.92l0 119.06c0,12.26 21.7,9.95 26.45,9.93l72.77 -0.01c14.12,-0.03 38.02,-1.52 21.49,23.16l-99.29 -0.08c-11.52,0.06 -21.42,1.9 -21.42,13.31l0 114.1c0,16.09 19.95,11.57 36.38,11.57l95.91 0c15.37,0 38.03,-3.65 38.03,11.58 0,8 -5.23,13.23 -13.23,13.23l-165.36 0c-9.87,0 -16.54,-3.38 -16.54,-13.23l0 -322.46c0,-17.01 16.56,-13.24 33.07,-13.23 13.77,0 85.53,1.72 92.8,-1.47 12.7,-5.58 8.13,-24.99 -6.81,-24.99l-104.18 0c-23.01,0 -39.68,18.38 -39.68,31.42z"/>
   <path class="fil1" d="M423.33 759.02c-43.78,0 -95.5,-10.73 -133.92,-28.14l-17.11 -7.69c-3.97,-2.13 -3.19,-2.15 -7.19,-4.38 -2.92,-1.63 -4.74,-2.29 -7.67,-3.91 -5.12,-2.83 -9.98,-5.86 -14.38,-8.78 -9.59,-6.37 -17.64,-11.98 -27.17,-19.13 -9.29,-6.97 -16.46,-13.78 -24.48,-21.81 -4.93,-4.93 -19.14,-21.91 -26.05,-21.91 -9.14,0 -13.23,6.86 -13.23,16.53 0,5.53 19.08,21.56 23.57,26.05 51.21,51.25 130.74,87.25 203.28,96.03 70.18,8.48 145.85,-2.69 207.72,-36.43 35.5,-19.36 57.74,-33.08 86.74,-62.08 6.06,-6.06 22.74,-19.01 22.74,-28.53 0,-6.59 -7.42,-23.51 -26.07,-4.58 -41.1,41.72 -66.17,61.84 -125.82,85.85 -34.16,13.75 -80.44,22.91 -120.96,22.91z"/>
   <path class="fil1" d="M153.78 185.2c0,8.95 2.93,16.54 13.23,16.54 7.25,0 32.83,-30.12 49.84,-42.77 9.3,-6.92 17.11,-12.48 27.2,-19.1 76.08,-49.82 173.02,-63.65 262.63,-41.32 13.06,3.26 23.94,6.39 35.5,10.8 33.58,12.82 62.11,29.49 90.45,51.76 16.61,13.06 22.41,19.8 35.82,33.64 21.9,22.6 27.73,0.73 27.73,-2.93 0,-7.01 -7.43,-13.77 -14.65,-21.73 -3.1,-3.42 -3.58,-2.8 -7.24,-5.99 -19.93,-17.35 -24.65,-25.87 -54.87,-44.35 -33.33,-20.38 -64.93,-35.98 -103.13,-45.7 -48.7,-12.39 -49.38,-7.17 -88.51,-12.47 -9.03,-1.23 -12.52,1.34 -22.59,1.3 -10.59,-0.04 -14.57,0.83 -23.25,1.56 -40.81,3.45 -79.02,16.48 -115.15,33.68l-32.3 17.31c-18.03,11.67 -80.71,57.32 -80.71,69.77z"/>
  </g>
 </g>
</svg>
