<?xml version="1.0" encoding="UTF-8"?>
<!DOCTYPE svg PUBLIC "-//W3C//DTD SVG 1.1//EN" "http://www.w3.org/Graphics/SVG/1.1/DTD/svg11.dtd">
<!-- Creator: CorelDRAW -->
<svg xmlns="http://www.w3.org/2000/svg" xml:space="preserve" width="8.4666mm" height="8.4666mm" version="1.1" style="shape-rendering:geometricPrecision; text-rendering:geometricPrecision; image-rendering:optimizeQuality; fill-rule:evenodd; clip-rule:evenodd"
viewBox="0 0 846.66 846.66"
 xmlns:xlink="http://www.w3.org/1999/xlink"
 xmlns:xodm="http://www.corel.com/coreldraw/odm/2003">
 <defs>
  <style type="text/css">
   <![CDATA[
    .fil0 {fill:none}
    .fil1 {fill:#FF3366}
   ]]>
  </style>
 </defs>
 <g id="Capa_x0020_1">
  <metadata id="CorelCorpID_0Corel-Layer"/>
  <rect class="fil0" x="-0" y="-0.01" width="846.66" height="846.67"/>
  <g id="_2181196405568">
   <path class="fil1" d="M682.95 820.2c-20.69,0 -40.33,-5.48 -54.83,-11.31 -8.42,-3.39 -14.33,-6.69 -21.78,-11.29 -31.81,-19.66 -63.95,-64.44 -63.95,-106.38 0,-35.8 2.56,-63.42 25.25,-93.81 5.01,-6.71 9.45,-11.64 15.21,-17.87 20.14,-21.78 60.4,-40.46 91.83,-40.46 42.43,0 69.89,8.01 100.49,35.12 39.47,34.96 56.03,86.36 43.4,138.54 -2.35,9.7 -4.84,17.27 -8.83,25.89 -17.8,38.52 -54.51,68.33 -96.05,77.59 -7.63,1.7 -22.83,3.98 -30.74,3.98zm-519.46 -820.2l25.02 0c51.58,0 122.19,55.36 133.95,105.83 19.33,-9.27 69.43,-16.53 99.22,-16.53 30.03,0 55.84,2.91 83.04,9.55 7.93,1.94 14.03,5.13 22.79,5.33 2.63,-11.28 14.14,-30.09 20.76,-38.77 24.21,-31.79 70.63,-65.41 113.18,-65.41l36.51 0c19.84,0.69 37.04,3.89 61.09,16.51 37.09,19.46 60.25,47.38 77.14,84.91 2.16,4.81 3.25,7.86 4.82,13.37 2.74,9.68 4.65,20.41 5.65,31.59l0 35.92c-1.66,18.33 -5.93,36.14 -13.2,50.89 -14.12,28.61 -28.45,47.07 -53.39,65.67 -9.19,6.85 -27.07,17.45 -39.24,20.29 2.3,4.8 5.11,17.12 6.62,23.15 10.22,41 13.56,92.23 5.12,134.12 -2.17,10.77 -7.63,39.2 -11.74,47.78 30.62,7.14 66.93,41.42 83.4,68.73 18.43,30.55 21.89,50.03 22.43,76.1l0 32.11c0,37.61 -31.7,84.13 -61.7,108.63 -3.57,2.92 -6.53,5.21 -10.51,7.67 -7.49,4.61 -15.1,9.71 -23.21,13.17 -15.49,6.63 -38.87,14.4 -60.02,14.4 -56.02,0 -79.49,-10.56 -120.02,-42.04 -15.21,-11.82 -42.41,-50 -43.69,-65.45 -8.39,4.03 -37.49,9.85 -47.94,11.59 -16.33,2.73 -35.66,4.95 -54.59,4.95 -22,0 -82.11,-6.75 -102.52,-16.54 -3.17,13.61 -14.65,31.78 -22.42,42.07 -54.41,72.05 -157.4,87 -230.6,34.01 -8.27,-5.98 -18.18,-12.19 -18.18,-21.51 0,-6.32 6.64,-22.35 24.45,-6.26 56.46,51.04 152.36,46.21 205.19,-23.73 40.55,-53.68 35.45,-132.38 -14.25,-182.09 -33.05,-33.05 -63.51,-40.93 -109.55,-40.93 -47.5,0 -100.22,38.71 -118.86,84.55 -12.15,29.88 -15.32,57.82 -6.86,90.78 2.94,11.45 9.96,25.5 9.96,29.72 0,8.64 -5.68,13.23 -9.92,13.23 -15.5,0 -16.7,-10.41 -22.96,-29.95 -7.28,-22.73 -6.81,-34.14 -6.81,-57.69 0,-62.15 55.83,-133.48 107.49,-145.52 -5.14,-10.72 -8.98,-32.27 -11.74,-46.13 -8.92,-44.77 -4.98,-124.08 11.74,-158.92 -13.61,-3.17 -31.78,-14.64 -42.07,-22.42 -12.61,-9.52 -21.91,-18.8 -31.42,-31.42 -25.62,-33.96 -34,-62.14 -34,-108.22 0,-37.37 19.59,-81.77 44.21,-106.27 7.5,-7.45 11.51,-11.61 20.05,-17.99 38.82,-28.99 61.68,-32.49 97.58,-32.83zm526.07 304.27c-37.98,0 -57.1,-4.63 -87.65,-24.8 -33.05,-21.82 -59.52,-65.88 -59.52,-105.84 0,-30.06 0.19,-45.64 14.29,-73.35 14.26,-28 39.59,-52.57 69.08,-64.87 8.61,-3.59 14.86,-6.06 24.79,-8.28 65.07,-14.49 130.47,17.32 158.66,76.47 20.81,43.67 16.84,96 -8.49,136.53 -22.55,36.07 -67.91,64.14 -111.16,64.14zm-173.63 -145.52c0,68.22 35.11,128.01 96.46,156.55 45.3,21.08 65.76,15.27 103.63,12.12 19.94,41.54 19.65,147.56 0,188.51 -11.09,-0.24 -17.79,-3.3 -36.38,-3.3 -46.08,0 -89.4,21.55 -118.69,53.28 -1.95,2.1 -3,2.92 -4.93,4.99 -28.27,30.2 -40.09,71.95 -40.09,115.36 0,11.62 2.52,16.97 3.31,26.46 -41.81,20.06 -148.19,19.35 -188.51,0 3.17,-38.13 8.84,-56.7 -11.6,-102.51 -3.95,-8.87 -9.71,-18.17 -15.17,-26.17 -29.83,-43.73 -81.97,-71.41 -136.94,-71.41 -14.05,0 -23.27,3.05 -34.73,3.3 -2.59,-31.07 -13.23,-23.61 -13.23,-107.48 0,-18.46 3.79,-44.02 8.24,-61.22 1.68,-6.49 4.38,-12.49 4.99,-19.81 29.04,0.65 38.07,9.44 84.95,-4.35 15.03,-4.42 37.42,-11.84 37.42,-25.42 0,-24.54 -33.49,-2.89 -42.78,0.22 -33.96,11.37 -74.53,8.15 -106.6,-7.93 -24.65,-12.36 -30.61,-19.19 -46.98,-37.35 -31.71,-35.18 -41.16,-98.86 -19.74,-144.57 33.66,-71.8 110.86,-103.02 184.47,-73.09 45.82,18.64 84.55,71.33 84.55,118.86 0,35.45 -2.85,58.49 -22.8,87.99 -3.09,4.58 -5.68,7.14 -8.38,11.51 -9.46,15.28 9.37,30.51 21.35,14.69 22.72,-30.01 36.28,-63.25 36.28,-104.27 0,-14.04 -3.05,-23.26 -3.3,-34.73 26.25,-2.18 22.24,-13.23 109.14,-13.23 39.48,0 61.73,11.76 79.37,13.23 -0.87,10.42 -3.31,17.1 -3.31,29.77z"/>
   <path class="fil1" d="M335.69 373.72l46.3 0 0 64.49 -46.3 0 0 -64.49zm52.91 -24.8l-56.22 0c-14.92,0 -23.15,15.61 -23.15,33.07 0,53.44 -8.22,82.68 36.38,82.68 2.18,9.34 3.37,41.1 3.27,52.95 -0.05,6.44 0.29,32.07 4.71,36.63 1.46,1.5 7.66,4.68 10.21,4.68 16.62,0 12.51,-24.09 11.58,-41.35 -0.85,-15.86 -3.31,-36.36 -3.31,-52.91l18.19 0c11.37,0 4.18,-6.08 22.08,-0.61 6.16,1.88 16.25,5.57 22.57,5.57 14.27,0 16.25,-17.11 6.62,-23.16 -3.83,-2.4 -28.33,-9.38 -34.74,-9.91l0 -61.19c20.11,-0.44 75.91,-25.01 94.26,-34.72l0 130.64c-6.29,-1.47 -15.84,-8.27 -19.84,-8.27 -13.3,0 -20.58,17.35 -3.91,25.4 6.5,3.14 8.67,5.19 14.96,8.19 10.12,4.83 6.93,1.14 9.51,11.99 4.01,16.82 25.74,13.01 25.74,-2.59l0 -200.09c0,-13.55 -20.01,-21.38 -25.39,-2.23 -1.51,5.38 0.57,6.85 -10.43,12.71 -24.54,13.07 -55.56,26.37 -82.88,33 -7.25,1.76 -11.01,-0.48 -20.21,-0.48z"/>
   <path class="fil1" d="M130.64 223.24c4.59,-3.99 30.19,-15.34 1.59,-31.36 -13.01,-7.28 -23.11,-14.43 -28.32,-29.56 -2.96,-8.58 -3.04,-14.63 -3.04,-26.72 5.71,1.52 0.97,-0.05 5.46,2.81l17.89 10.22c15.22,5.71 20.8,6.81 37.84,6.81 25.13,0 -0.15,-41.34 34.72,-41.34 10.36,0 11.85,7.79 19.85,9.92 0,38.47 -6.54,74.11 -47.22,91.69 -12.8,5.53 -21.09,7.53 -38.77,7.53zm19.84 -94.26c-32.35,-0.72 -44.32,-33.07 -54.57,-33.07 -23.14,0 -27.03,59.74 -10.68,86.75 4.16,6.86 11,18.61 18.95,20.74l-24.69 5.07c-6.26,0.8 -13.34,6.58 -13.34,13.12 0,14.04 58.52,45.6 121.29,13.8 8.12,-4.11 12.94,-8.29 19.52,-13.55 6.5,-5.21 11.17,-11.73 15.97,-18.75 13.93,-20.39 18.1,-38.37 20.12,-64.22 1.08,-13.79 29.17,-42.17 5.29,-49.98 -13.5,-4.42 -13.51,14 -31.13,4.87 -32.15,-16.66 -66.13,8.24 -66.73,35.22z"/>
   <path class="fil1" d="M620.11 734.21l0 -110.79c0,-3.87 2.75,-6.62 6.62,-6.62l110.79 0c3.87,0 6.61,2.75 6.61,6.62l0 110.79c0,3.87 -2.74,6.62 -6.61,6.62l-110.79 0c-3.87,0 -6.62,-2.75 -6.62,-6.62zm-26.46 -109.14l0 105.84c0,19.64 13.99,36.38 33.08,36.38l110.79 0c19.09,0 33.07,-16.74 33.07,-36.38l0 -105.84c0,-20.37 -16.8,-34.72 -38.03,-34.72l-100.87 0c-10.6,0 -21.16,4.2 -26.94,9.44 -5.6,5.07 -11.1,15.27 -11.1,25.28z"/>
   <path class="fil1" d="M147.17 711.06l0 -67.8c5.21,1.39 10.65,5.71 14.97,8.19 5.08,2.91 9.81,5.65 14.8,8.35l29.76 16.54c-2.39,3.26 -51.53,32.86 -59.53,34.72zm-24.8 -84.33l0 100.87c0,9.42 8.7,16.53 18.19,16.53 3.76,0 68.52,-37.62 79.69,-44.33 7,-4.2 21.18,-10.27 21.18,-20.16 0,-17.51 -23.42,-26.55 -44.65,-38.03 -6.45,-3.49 -49.72,-29.77 -52.91,-29.77 -8.45,0 -21.5,0.47 -21.5,14.89z"/>
   <path class="fil1" d="M658.15 115.75l0 33.08c-10.27,0 -29.77,-2.65 -29.77,11.57 0,16.8 18.36,14.88 29.77,14.88l0 71.11c0,19.24 26.45,19.24 26.45,0l0 -71.11c8.37,0 19.15,1.08 25.15,-2.96 11.54,-7.8 5.91,-23.49 -6.96,-23.49l-18.19 0c0,-30.6 -5.93,-54.28 21.42,-54.65 13.01,-0.17 28.19,-0.15 28.19,-13.15 0,-16.28 -17.03,-13.23 -29.76,-13.23 -25.98,0 -46.3,21.77 -46.3,47.95z"/>
   <path class="fil1" d="M669.72 681.3c0,-20.73 24.81,-16.85 24.81,-3.31 0,11.62 -11.92,17.12 -20.25,10.32 -1.5,-1.23 -4.56,-5.64 -4.56,-7.01zm-24.8 -6.62l0 8.27c0,18.57 18.55,33.94 36.51,34.47 18.69,0.54 37.9,-15.65 37.9,-34.47l0 -8.27c0,-18.67 -17.01,-33.07 -39.69,-33.07 -16.89,0 -34.72,16.02 -34.72,33.07z"/>
  </g>
 </g>
</svg>
